<?xml version="1.0" encoding="UTF-8" standalone="no"?>
<!-- Generator: Adobe Illustrator 18.0.0, SVG Export Plug-In . SVG Version: 6.00 Build 0)  -->

<svg
   xmlns:dc="http://purl.org/dc/elements/1.1/"
   xmlns:cc="http://creativecommons.org/ns#"
   xmlns:rdf="http://www.w3.org/1999/02/22-rdf-syntax-ns#"
   xmlns:svg="http://www.w3.org/2000/svg"
   xmlns="http://www.w3.org/2000/svg"
   xmlns:sodipodi="http://sodipodi.sourceforge.net/DTD/sodipodi-0.dtd"
   xmlns:inkscape="http://www.inkscape.org/namespaces/inkscape"
   version="1.1"
   id="Capa_1"
   x="0px"
   y="0px"
   viewBox="0 0 138.583 138.583"
   style="enable-background:new 0 0 138.583 138.583;"
   xml:space="preserve"
   sodipodi:docname="administracion_pyme.svg"
   inkscape:version="0.92.2 (5c3e80d, 2017-08-06)"><metadata
     id="metadata149"><rdf:RDF><cc:Work
         rdf:about=""><dc:format>image/svg+xml</dc:format><dc:type
           rdf:resource="http://purl.org/dc/dcmitype/StillImage" /><dc:title></dc:title></cc:Work></rdf:RDF></metadata><defs
     id="defs147" /><sodipodi:namedview
     pagecolor="#ffffff"
     bordercolor="#666666"
     borderopacity="1"
     objecttolerance="10"
     gridtolerance="10"
     guidetolerance="10"
     inkscape:pageopacity="0"
     inkscape:pageshadow="2"
     inkscape:window-width="1280"
     inkscape:window-height="737"
     id="namedview145"
     showgrid="false"
     inkscape:zoom="1.7029507"
     inkscape:cx="69.291496"
     inkscape:cy="69.291496"
     inkscape:window-x="-8"
     inkscape:window-y="-8"
     inkscape:window-maximized="1"
     inkscape:current-layer="Capa_1" /><g
     id="g112"><rect
       x="8.298"
       y="21.521"
       style="fill-rule:evenodd;clip-rule:evenodd;fill:#F59DCC;"
       width="121.987"
       height="103.124"
       id="rect2" /><rect
       x="8.298"
       y="105.178"
       style="fill-rule:evenodd;clip-rule:evenodd;fill:#DB86B3;"
       width="121.987"
       height="19.467"
       id="rect4" /><rect
       x="21.711"
       y="62.303"
       style="fill-rule:evenodd;clip-rule:evenodd;fill:#DB86B3;"
       width="37.482"
       height="62.342"
       id="rect6" /><rect
       x="24.946"
       y="65.085"
       style="fill-rule:evenodd;clip-rule:evenodd;fill:#9FECFF;"
       width="31.011"
       height="59.56"
       id="rect8" /><g
       id="g16"><polygon
         style="fill-rule:evenodd;clip-rule:evenodd;fill:#DEF8FF;"
         points="24.946,103.972 55.957,72.962 55.957,69.763     24.946,100.773   "
         id="polygon10" /><polygon
         style="fill-rule:evenodd;clip-rule:evenodd;fill:#DEF8FF;"
         points="24.946,113.57 55.957,82.559 55.957,76.162     24.946,107.171   "
         id="polygon12" /><polygon
         style="fill-rule:evenodd;clip-rule:evenodd;fill:#DEF8FF;"
         points="24.946,119.968 55.957,88.957 55.957,85.759     24.946,116.769   "
         id="polygon14" /></g><rect
       x="21.711"
       y="119.968"
       style="fill-rule:evenodd;clip-rule:evenodd;fill:#DB86B3;"
       width="37.482"
       height="4.677"
       id="rect18" /><rect
       x="73.336"
       y="62.303"
       style="fill-rule:evenodd;clip-rule:evenodd;fill:#DB86B3;"
       width="45.513"
       height="46.039"
       id="rect20" /><rect
       x="76.572"
       y="65.086"
       style="fill-rule:evenodd;clip-rule:evenodd;fill:#9FECFF;"
       width="39.04"
       height="43.256"
       id="rect22" /><path
       style="fill-rule:evenodd;clip-rule:evenodd;fill:#DEF8FF;"
       d="M98.237,94.166l17.375-17.375v-3.199L98.237,90.967V94.166   L98.237,94.166z M98.237,87.768V81.37l16.284-16.283h1.091v5.307L98.237,87.768L98.237,87.768z M98.237,78.17v-3.199l9.886-9.885   h3.199L98.237,78.17z M84.062,108.342l14.176-14.176v-3.199l-17.375,17.375H84.062L84.062,108.342z M98.237,74.971v3.199   L76.572,99.835v-3.199L98.237,74.971L98.237,74.971z M98.237,81.37v6.398l-20.574,20.574h-1.091v-5.308L98.237,81.37z"
       id="path24" /><rect
       x="0"
       y="13.938"
       style="fill-rule:evenodd;clip-rule:evenodd;fill:#FFD873;"
       width="138.583"
       height="33.492"
       id="rect26" /><polygon
       style="fill-rule:evenodd;clip-rule:evenodd;fill:#68E6B6;"
       points="4.639,70.765 132.649,70.765 118.651,62.303    18.636,62.303  "
       id="polygon28" /><g
       id="g40"><path
         style="fill-rule:evenodd;clip-rule:evenodd;fill:#EDC256;"
         d="M16.275,70.765c0,3.303,2.604,5.979,5.818,5.979    c3.214,0,5.818-2.677,5.818-5.979H16.275z"
         id="path30" /><path
         style="fill-rule:evenodd;clip-rule:evenodd;fill:#EDC256;"
         d="M39.55,70.765c0,3.303,2.606,5.979,5.819,5.979    c3.213,0,5.818-2.677,5.818-5.979H39.55z"
         id="path32" /><path
         style="fill-rule:evenodd;clip-rule:evenodd;fill:#EDC256;"
         d="M62.825,70.765c0,3.303,2.604,5.979,5.818,5.979    c3.214,0,5.818-2.677,5.818-5.979H62.825z"
         id="path34" /><path
         style="fill-rule:evenodd;clip-rule:evenodd;fill:#EDC256;"
         d="M86.1,70.765c0,3.303,2.606,5.979,5.818,5.979    c3.214,0,5.819-2.677,5.819-5.979H86.1z"
         id="path36" /><path
         style="fill-rule:evenodd;clip-rule:evenodd;fill:#EDC256;"
         d="M109.375,70.765c0,3.303,2.604,5.979,5.818,5.979    c3.214,0,5.818-2.677,5.818-5.979H109.375z"
         id="path38" /></g><g
       id="g54"><path
         style="fill-rule:evenodd;clip-rule:evenodd;fill:#47C796;"
         d="M16.275,70.765c0,3.303-2.606,5.979-5.818,5.979    c-3.214,0-5.819-2.677-5.819-5.979H16.275z"
         id="path42" /><path
         style="fill-rule:evenodd;clip-rule:evenodd;fill:#47C796;"
         d="M39.55,70.765c0,3.303-2.604,5.979-5.818,5.979    c-3.213,0-5.818-2.677-5.818-5.979H39.55z"
         id="path44" /><path
         style="fill-rule:evenodd;clip-rule:evenodd;fill:#47C796;"
         d="M62.824,70.765c0,3.303-2.604,5.979-5.817,5.979    c-3.214,0-5.819-2.677-5.819-5.979H62.824z"
         id="path46" /><path
         style="fill-rule:evenodd;clip-rule:evenodd;fill:#47C796;"
         d="M86.1,70.765c0,3.303-2.605,5.979-5.818,5.979    c-3.214,0-5.818-2.677-5.818-5.979H86.1z"
         id="path48" /><path
         style="fill-rule:evenodd;clip-rule:evenodd;fill:#47C796;"
         d="M109.374,70.765c0,3.303-2.604,5.979-5.818,5.979    c-3.213,0-5.818-2.677-5.818-5.979H109.374z"
         id="path50" /><path
         style="fill-rule:evenodd;clip-rule:evenodd;fill:#47C796;"
         d="M132.649,70.765c0,3.303-2.605,5.979-5.818,5.979    c-3.214,0-5.819-2.677-5.819-5.979H132.649z"
         id="path52" /></g><polygon
       style="fill-rule:evenodd;clip-rule:evenodd;fill:#FFD873;"
       points="16.275,70.765 121.012,70.765 109.56,62.303    27.728,62.303  "
       id="polygon56" /><polygon
       style="fill-rule:evenodd;clip-rule:evenodd;fill:#68E6B6;"
       points="27.913,70.765 109.374,70.765 100.468,62.303    36.82,62.303  "
       id="polygon58" /><polygon
       style="fill-rule:evenodd;clip-rule:evenodd;fill:#FFD873;"
       points="39.551,70.765 97.737,70.765 91.375,62.303    45.912,62.303  "
       id="polygon60" /><polygon
       style="fill-rule:evenodd;clip-rule:evenodd;fill:#68E6B6;"
       points="51.188,70.765 86.1,70.765 82.282,62.303    55.005,62.303  "
       id="polygon62" /><polygon
       style="fill-rule:evenodd;clip-rule:evenodd;fill:#FFD873;"
       points="62.825,70.765 74.463,70.765 73.19,62.303    64.098,62.303  "
       id="polygon64" /><g
       id="g82"><rect
         x="8.777"
         y="17.75"
         style="fill-rule:evenodd;clip-rule:evenodd;fill:#EDC256;"
         width="7.666"
         height="25.868"
         id="rect66" /><rect
         x="24.973"
         y="17.75"
         style="fill-rule:evenodd;clip-rule:evenodd;fill:#EDC256;"
         width="7.665"
         height="25.868"
         id="rect68" /><rect
         x="41.167"
         y="17.75"
         style="fill-rule:evenodd;clip-rule:evenodd;fill:#EDC256;"
         width="7.665"
         height="25.868"
         id="rect70" /><rect
         x="57.361"
         y="17.75"
         style="fill-rule:evenodd;clip-rule:evenodd;fill:#EDC256;"
         width="7.666"
         height="25.868"
         id="rect72" /><rect
         x="73.556"
         y="17.75"
         style="fill-rule:evenodd;clip-rule:evenodd;fill:#EDC256;"
         width="7.666"
         height="25.868"
         id="rect74" /><rect
         x="89.751"
         y="17.75"
         style="fill-rule:evenodd;clip-rule:evenodd;fill:#EDC256;"
         width="7.665"
         height="25.868"
         id="rect76" /><rect
         x="105.945"
         y="17.75"
         style="fill-rule:evenodd;clip-rule:evenodd;fill:#EDC256;"
         width="7.665"
         height="25.868"
         id="rect78" /><rect
         x="122.14"
         y="17.75"
         style="fill-rule:evenodd;clip-rule:evenodd;fill:#EDC256;"
         width="7.666"
         height="25.868"
         id="rect80" /></g><g
       id="g96"><rect
         x="83.383"
         y="98.194"
         style="fill-rule:evenodd;clip-rule:evenodd;fill:#4C6308;"
         width="0.987"
         height="8.995"
         id="rect84" /><path
         style="fill-rule:evenodd;clip-rule:evenodd;fill:#FFD873;"
         d="M87.441,106.164c-0.14,0.914-0.753,1.701-1.623,2.178h-3.884    c-0.87-0.477-1.483-1.264-1.623-2.178H87.441z"
         id="path86" /><path
         style="fill-rule:evenodd;clip-rule:evenodd;fill:#729116;"
         d="M89.137,100.568c0.153,0.267,0.272,0.56,0.35,0.872    c0.443,1.802-0.656,3.62-2.457,4.063c-1.113,0.274-2.233-0.042-3.031-0.748c-0.378,0.313-0.831,0.549-1.34,0.674    c-1.801,0.444-3.62-0.656-4.063-2.456c-0.195-0.792-0.091-1.588,0.239-2.268c-0.437-0.424-0.764-0.971-0.92-1.604    c-0.443-1.801,0.657-3.62,2.457-4.063c0.064-0.017,0.128-0.03,0.192-0.042c0.293-1.167,1.205-2.138,2.455-2.445    c1.717-0.423,3.45,0.558,3.992,2.211c1.443,0.072,2.73,1.076,3.093,2.552C90.404,98.536,89.994,99.765,89.137,100.568z"
         id="path88" /><path
         style="fill-rule:evenodd;clip-rule:evenodd;fill:#A8C455;"
         d="M82.366,98.195c0.679,0,1.233-0.554,1.233-1.231    c0-0.679-0.554-1.232-1.233-1.232c-0.678,0-1.231,0.554-1.231,1.232C81.135,97.641,81.688,98.195,82.366,98.195z"
         id="path90" /><path
         style="fill-rule:evenodd;clip-rule:evenodd;fill:#A8C455;"
         d="M88.385,99.459c0.679,0,1.232-0.554,1.232-1.232    c0-0.679-0.554-1.231-1.232-1.231c-0.678,0-1.231,0.553-1.231,1.231C87.153,98.906,87.707,99.459,88.385,99.459z"
         id="path92" /><circle
         style="fill-rule:evenodd;clip-rule:evenodd;fill:#A8C455;"
         cx="84.112"
         cy="101.899"
         r="1.231"
         id="circle94" /></g><g
       id="g110"><rect
         x="108.211"
         y="98.194"
         style="fill-rule:evenodd;clip-rule:evenodd;fill:#4C6308;"
         width="0.987"
         height="8.995"
         id="rect98" /><path
         style="fill-rule:evenodd;clip-rule:evenodd;fill:#FFD873;"
         d="M105.139,106.164c0.14,0.914,0.753,1.701,1.624,2.178h3.883    c0.871-0.477,1.484-1.264,1.624-2.178H105.139z"
         id="path100" /><path
         style="fill-rule:evenodd;clip-rule:evenodd;fill:#729116;"
         d="M103.443,100.568c-0.153,0.267-0.271,0.56-0.35,0.872    c-0.443,1.802,0.657,3.62,2.458,4.063c1.113,0.274,2.233-0.042,3.031-0.748c0.378,0.313,0.831,0.549,1.34,0.674    c1.801,0.444,3.62-0.656,4.063-2.456c0.195-0.792,0.092-1.588-0.238-2.268c0.436-0.424,0.764-0.971,0.919-1.604    c0.444-1.801-0.656-3.62-2.457-4.063c-0.063-0.017-0.128-0.03-0.191-0.042c-0.293-1.167-1.205-2.138-2.455-2.445    c-1.717-0.423-3.451,0.558-3.993,2.211c-1.442,0.072-2.729,1.076-3.092,2.552C102.177,98.536,102.586,99.765,103.443,100.568z"
         id="path102" /><path
         style="fill-rule:evenodd;clip-rule:evenodd;fill:#A8C455;"
         d="M110.214,98.195c0.679,0,1.232-0.554,1.232-1.231    c0-0.679-0.554-1.232-1.232-1.232c-0.678,0-1.231,0.554-1.231,1.232C108.982,97.641,109.536,98.195,110.214,98.195z"
         id="path104" /><circle
         style="fill-rule:evenodd;clip-rule:evenodd;fill:#A8C455;"
         cx="111.135"
         cy="100.755"
         r="1.231"
         id="circle106" /><circle
         style="fill-rule:evenodd;clip-rule:evenodd;fill:#A8C455;"
         cx="106.848"
         cy="99.392"
         r="1.231"
         id="circle108" /></g></g><g
     id="g114" /><g
     id="g116" /><g
     id="g118" /><g
     id="g120" /><g
     id="g122" /><g
     id="g124" /><g
     id="g126" /><g
     id="g128" /><g
     id="g130" /><g
     id="g132" /><g
     id="g134" /><g
     id="g136" /><g
     id="g138" /><g
     id="g140" /><g
     id="g142" /></svg>