<?xml version="1.0" encoding="UTF-8" standalone="no"?>
<svg
   xmlns:dc="http://purl.org/dc/elements/1.1/"
   xmlns:cc="http://creativecommons.org/ns#"
   xmlns:rdf="http://www.w3.org/1999/02/22-rdf-syntax-ns#"
   xmlns:svg="http://www.w3.org/2000/svg"
   xmlns="http://www.w3.org/2000/svg"
   xmlns:sodipodi="http://sodipodi.sourceforge.net/DTD/sodipodi-0.dtd"
   xmlns:inkscape="http://www.inkscape.org/namespaces/inkscape"
   version="1.1"
   x="0px"
   y="0px"
   viewBox="0 0 64 64"
   style="enable-background:new 0 0 64 64;"
   xml:space="preserve"
   id="svg46"
   sodipodi:docname="administracion_basica_plus.svg"
   inkscape:version="0.92.2 (5c3e80d, 2017-08-06)"><metadata
     id="metadata52"><rdf:RDF><cc:Work
         rdf:about=""><dc:format>image/svg+xml</dc:format><dc:type
           rdf:resource="http://purl.org/dc/dcmitype/StillImage" /><dc:title></dc:title></cc:Work></rdf:RDF></metadata><defs
     id="defs50" /><sodipodi:namedview
     pagecolor="#ffffff"
     bordercolor="#666666"
     borderopacity="1"
     objecttolerance="10"
     gridtolerance="10"
     guidetolerance="10"
     inkscape:pageopacity="0"
     inkscape:pageshadow="2"
     inkscape:window-width="1280"
     inkscape:window-height="737"
     id="namedview48"
     showgrid="false"
     inkscape:zoom="3.6875"
     inkscape:cx="32"
     inkscape:cy="32"
     inkscape:window-x="-8"
     inkscape:window-y="-8"
     inkscape:window-maximized="1"
     inkscape:current-layer="svg46" /><style
     type="text/css"
     id="style2">
	.st0{fill:#76C2AF;}
	.st1{opacity:0.2;}
	.st2{fill:#231F20;}
	.st3{fill:#4F5D73;}
	.st4{fill:#F5CF87;}
	.st5{fill:#FFFFFF;}
</style><g
     id="Layer_1"><g
       id="g6"><circle
         class="st0"
         cx="32"
         cy="32"
         r="32"
         id="circle4" /></g><g
       class="st1"
       id="g10"><path
         class="st2"
         d="M49.9,46.2L35.8,32.1c-1-1-2.5-1.4-3.8-1l-8.1-8l-3-5.9l-5.9-3L12.1,17l3,5.9l5.9,3l0,0l8.1,8    c-0.4,1.3,0,2.8,1,3.8l14.1,14.1c1.6,1.6,4.1,1.6,5.7,0C51.5,50.3,51.5,47.8,49.9,46.2z"
         id="path8" /></g><g
       id="g14"><polygon
         class="st3"
         points="34.5,37.3 18.4,21.4 21.3,18.6 37.4,34.5   "
         id="polygon12" /></g><g
       id="g18"><path
         class="st4"
         d="M49.9,49.9c-1.6,1.6-4.1,1.6-5.7,0L30.1,35.8c-1.6-1.6-1.6-4.1,0-5.7l0,0c1.6-1.6,4.1-1.6,5.7,0l14.1,14.1    C51.5,45.8,51.5,48.3,49.9,49.9L49.9,49.9z"
         id="path16" /></g><g
       class="st1"
       id="g22"><path
         class="st2"
         d="M53.3,18.4l-6.5,6.5c-1.6,1.6-4.1,1.6-5.7,0c-1.6-1.6-1.6-4.1,0-5.7l6.5-6.5C46.5,12.3,45.3,12,44,12    c-5.5,0-10,4.5-10,10c0,1.3,0.3,2.5,0.7,3.6l-11,11C22.5,36.3,21.3,36,20,36c-5.5,0-10,4.5-10,10c0,1.3,0.3,2.5,0.7,3.6l6.5-6.5    c1.6-1.6,4.1-1.6,5.7,0c1.6,1.6,1.6,4.1,0,5.7l-6.5,6.5c1.1,0.4,2.4,0.7,3.6,0.7c5.5,0,10-4.5,10-10c0-1.3-0.3-2.5-0.7-3.6l11-11    c1.1,0.4,2.4,0.7,3.6,0.7c5.5,0,10-4.5,10-10C54,20.7,53.7,19.5,53.3,18.4z"
         id="path20" /></g><g
       id="g26"><rect
         x="23.4"
         y="28"
         transform="matrix(0.7071 -0.7071 0.7071 0.7071 -13.2548 32)"
         class="st5"
         width="17.1"
         height="8"
         id="rect24" /></g><g
       id="g30"><polygon
         class="st3"
         points="21,23.9 15.1,20.9 12.1,15 14.9,12.1 20.8,15.2 23.9,21.1   "
         id="polygon28" /></g><g
       id="g36"><g
         id="g34"><path
           class="st5"
           d="M46.8,22.8c-1.6,1.6-4.1,1.6-5.7,0c-1.6-1.6-1.6-4.1,0-5.7l6.5-6.5C46.5,10.3,45.3,10,44,10     c-5.5,0-10,4.5-10,10c0,5.5,4.5,10,10,10s10-4.5,10-10c0-1.3-0.3-2.5-0.7-3.6L46.8,22.8z"
           id="path32" /></g></g><g
       id="g42"><g
         id="g40"><path
           class="st5"
           d="M17.2,41.2c1.6-1.6,4.1-1.6,5.7,0c1.6,1.6,1.6,4.1,0,5.7l-6.5,6.5c1.1,0.4,2.4,0.7,3.6,0.7     c5.5,0,10-4.5,10-10c0-5.5-4.5-10-10-10s-10,4.5-10,10c0,1.3,0.3,2.5,0.7,3.6L17.2,41.2z"
           id="path38" /></g></g></g><g
     id="Layer_2" /></svg>