<?xml version="1.0" encoding="UTF-8" standalone="no"?>
<!-- Generator: Adobe Illustrator 19.0.0, SVG Export Plug-In . SVG Version: 6.00 Build 0)  -->

<svg
   xmlns:dc="http://purl.org/dc/elements/1.1/"
   xmlns:cc="http://creativecommons.org/ns#"
   xmlns:rdf="http://www.w3.org/1999/02/22-rdf-syntax-ns#"
   xmlns:svg="http://www.w3.org/2000/svg"
   xmlns="http://www.w3.org/2000/svg"
   xmlns:sodipodi="http://sodipodi.sourceforge.net/DTD/sodipodi-0.dtd"
   xmlns:inkscape="http://www.inkscape.org/namespaces/inkscape"
   version="1.1"
   id="Layer_1"
   x="0px"
   y="0px"
   viewBox="0 0 512 512"
   style="enable-background:new 0 0 512 512;"
   xml:space="preserve"
   sodipodi:docname="mantenimiento_web.svg"
   inkscape:version="0.92.2 (5c3e80d, 2017-08-06)"><metadata
     id="metadata91"><rdf:RDF><cc:Work
         rdf:about=""><dc:format>image/svg+xml</dc:format><dc:type
           rdf:resource="http://purl.org/dc/dcmitype/StillImage" /><dc:title></dc:title></cc:Work></rdf:RDF></metadata><defs
     id="defs89" /><sodipodi:namedview
     pagecolor="#ffffff"
     bordercolor="#666666"
     borderopacity="1"
     objecttolerance="10"
     gridtolerance="10"
     guidetolerance="10"
     inkscape:pageopacity="0"
     inkscape:pageshadow="2"
     inkscape:window-width="1280"
     inkscape:window-height="737"
     id="namedview87"
     showgrid="false"
     inkscape:zoom="0.65182473"
     inkscape:cx="448.34727"
     inkscape:cy="151.375"
     inkscape:window-x="-8"
     inkscape:window-y="-8"
     inkscape:window-maximized="1"
     inkscape:current-layer="Layer_1" /><circle
     style="fill:#E1E5EA;"
     cx="256"
     cy="256"
     r="256"
     id="circle2" /><rect
     x="74.872"
     y="146.472"
     style="fill:#FFFFFF;"
     width="362.24"
     height="257.68"
     id="rect4" /><g
     id="g18"><polygon
       style="fill:#E1E5EA;"
       points="337.912,377.424 174.088,377.424 147.224,397.848 364.776,397.848  "
       id="polygon6" /><polygon
       style="fill:#E1E5EA;"
       points="153.448,377.424 106.232,377.424 79.368,397.848 126.68,397.848  "
       id="polygon8" /><polygon
       style="fill:#E1E5EA;"
       points="405.768,377.424 358.552,377.424 385.32,397.848 432.632,397.848  "
       id="polygon10" /><polygon
       style="fill:#E1E5EA;"
       points="337.912,173.744 174.088,173.744 147.224,153.32 364.776,153.32  "
       id="polygon12" /><polygon
       style="fill:#E1E5EA;"
       points="153.448,173.744 106.232,173.744 79.368,153.32 126.68,153.32  "
       id="polygon14" /><polygon
       style="fill:#E1E5EA;"
       points="405.768,173.744 358.552,173.744 385.32,153.32 432.632,153.32  "
       id="polygon16" /></g><path
     style="fill:#FFFFFF;"
     d="M434.248,149.352v251.92H77.752v-251.92H434.248 M440,143.6H72v263.416h368V143.6L440,143.6z"
     id="path20" /><path
     d="M72,153.32v-45.808c0-6.328,5.176-11.504,11.504-11.504h344.968c6.328,0,11.504,5.176,11.504,11.504v45.808H72L72,153.32z"
     id="path22" /><polygon
     style="fill:#FFFFFF;"
     points="410.976,140.48 195.288,140.48 215.92,108.848 410.976,108.848 "
     id="polygon24" /><circle
     style="fill:#DB2B42;"
     cx="110.744"
     cy="124.232"
     r="9.784"
     id="circle26" /><circle
     style="fill:#8AD5DD;"
     cx="136.64"
     cy="124.232"
     r="9.784"
     id="circle28" /><circle
     style="fill:#939393;"
     cx="162.6"
     cy="124.232"
     r="9.784"
     id="circle30" /><path
     d="M226.976,118.728l1.376,5.976c0.296,1.4,0.6,2.832,0.84,4.264h0.056c0.272-1.432,0.704-2.896,1.08-4.24l1.704-6h2.704  l1.648,5.84c0.4,1.544,0.752,2.976,1.056,4.408h0.056c0.216-1.432,0.512-2.864,0.864-4.408l1.464-5.84h3.264l-4.136,13.16h-3.08  l-1.56-5.352c-0.4-1.376-0.704-2.624-1-4.216h-0.056c-0.272,1.624-0.616,2.92-1,4.216l-1.672,5.352h-3.112l-3.888-13.16H226.976z"
     id="path32" /><path
     d="M247.648,118.728l1.376,5.976c0.296,1.4,0.6,2.832,0.84,4.264h0.056c0.272-1.432,0.704-2.896,1.08-4.24l1.704-6h2.704  l1.648,5.84c0.4,1.544,0.752,2.976,1.056,4.408h0.056c0.216-1.432,0.512-2.864,0.864-4.408l1.464-5.84h3.264l-4.136,13.16h-3.08  l-1.568-5.352c-0.4-1.376-0.704-2.624-1-4.216h-0.056c-0.272,1.624-0.616,2.92-1,4.216l-1.672,5.352h-3.112l-3.896-13.16H247.648z"
     id="path34" /><path
     d="M268.328,118.728l1.376,5.976c0.296,1.4,0.6,2.832,0.84,4.264h0.056c0.272-1.432,0.704-2.896,1.08-4.24l1.704-6h2.704  l1.648,5.84c0.4,1.544,0.752,2.976,1.056,4.408h0.056c0.216-1.432,0.512-2.864,0.864-4.408l1.464-5.84h3.264l-4.136,13.16h-3.08  l-1.56-5.352c-0.4-1.376-0.704-2.624-1-4.216h-0.056c-0.272,1.624-0.616,2.92-1,4.216l-1.672,5.352h-3.112l-3.896-13.16H268.328z"
     id="path36" /><path
     d="M284.968,130.048c0-1.248,0.864-2.136,2.056-2.136c1.216,0,2.056,0.864,2.056,2.136c0,1.216-0.808,2.136-2.056,2.136  C285.816,132.176,284.968,131.256,284.968,130.048z"
     id="path38" /><polygon
     points="318.304,401.168 193.696,401.168 210.944,388.056 301.056,388.056 "
     id="polygon40" /><rect
     x="72"
     y="397.848"
     width="368"
     height="9.176"
     id="rect42" /><polygon
     points="432.632,397.848 385.32,397.848 364.776,397.848 147.224,397.848 126.68,397.848 79.368,397.848 72,397.848   72,407.024 440,407.024 440,397.848 "
     id="polygon44" /><polygon
     points="388.504,134.008 386.448,131.992 393.56,124.696 386.024,117.344 388.032,115.288 397.624,124.632 "
     id="polygon46" /><rect
     x="375.04"
     y="123.224"
     width="18.984"
     height="2.872"
     id="rect48" /><rect
     x="116.68"
     y="201.92"
     style="fill:#8AD5DD;"
     width="76.184"
     height="152"
     id="rect50" /><rect
     x="210"
     y="201.92"
     width="76.184"
     height="152"
     id="rect52" /><rect
     x="303.336"
     y="201.92"
     style="fill:#8AD5DD;"
     width="76.184"
     height="152"
     id="rect54" /><g
     id="g56" /><g
     id="g58" /><g
     id="g60" /><g
     id="g62" /><g
     id="g64" /><g
     id="g66" /><g
     id="g68" /><g
     id="g70" /><g
     id="g72" /><g
     id="g74" /><g
     id="g76" /><g
     id="g78" /><g
     id="g80" /><g
     id="g82" /><g
     id="g84" /><g
     transform="matrix(0.14640628,0,0,0.14640628,313.22196,355.84849)"
     id="g8"><g
       id="g6"><path
         inkscape:connector-curvature="0"
         d="m 378.1,761.828 c 25.301,0 50,-2.5 73.9,-7.2 -1.2,-13.7 2.7,-27.5 11.6,-38.8 L 680,441.228 c 10.5,-13.3 26.2,-21 43.2,-21 11,0 21.399,3.2 30.3,9.101 1.8,-14.9 2.7,-30.101 2.7,-45.5 0,-208.8 -169.3,-378.1 -378.101,-378.1 -208.8,0 -378.1,169.2 -378.1,378 0,208.8 169.301,378.099 378.101,378.099 z m 70.5,-325.2 c -15.199,-18.7 -41.3,-26.601 -64.8,-32 -29.1,-6.601 -55.399,-13.2 -81.8,-28 -16.9,-9.4 -30.2,-22.7 -39.3,-39.5 -9.1,-16.6 -13.7,-35.8 -13.7,-56.8 0,-37.4 13.5,-68.2 40.1,-91.5 15.7,-13.8 37.2,-23.3 61.5,-27.8 v -20.4 c 0,-13.8 11.2,-25 25,-25 h 13.6 c 13.8,0 25,11.2 25,25 v 20.7 c 22.5,4.4 42.6,13.2 57.6,25.7 15.9,13.2 27.601,30 34.8,50.1 5.301,14.8 -4.399,30.7 -19.899,33 l -13.2,2 c -12,1.8 -23.5,-5.2 -27.4,-16.7 -3.199,-9.3 -7.399,-17 -12.699,-22.9 -11.9,-13.4 -30.7,-21 -51.5,-21 -22.2,0 -43.101,8.6 -56,23.1 -10.601,11.9 -15.7,25.5 -15.7,41.8 0,15.9 4.5,29.4 13.3,40 18.4,22.2 48.6,28.2 77.7,34.1 17,3.4 34.6,7 49.899,13.7 16.301,7.2 29.801,16.1 40.101,26.4 10.399,10.399 18.5,23 24.1,37.3 5.601,14.2 8.4,29.8 8.4,46.4 0,36.3 -11.8,67.1 -34.9,91.399 -19,20 -44.899,33.2 -74.6,38.5 v 15.101 c 0,13.8 -11.2,25 -25,25 h -13.7 c -13.8,0 -25,-11.2 -25,-25 v -15.7 c -16.4,-3.101 -32.1,-8.4 -46.2,-15.7 -16.6,-8.6 -31.1,-22.5 -43.1,-41.4 -8,-12.6 -13.8,-27.199 -17.3,-43.6 -3,-13.8 6.3,-27.3 20.2,-29.7 l 13.5,-2.399 c 12.9,-2.2 25.3,5.8 28.5,18.5 3.801,14.899 8.9,26.6 15.301,34.8 14.3,18.399 38,29.399 63.3,29.399 v 0 c 4.3,0 8.6,-0.3 12.8,-1 18.1,-2.699 34.3,-11.3 45.6,-24.1 11.9,-13.6 18,-30.7 18,-50.8 -0.003,-17 -4.203,-30.8 -12.503,-41 z"
         id="path2"
         style="fill:#008000" /><path
         inkscape:connector-curvature="0"
         d="m 583.6,958.828 h 279.1 c 13.8,0 25,-11.2 25,-25 v -159 h 51.8 c 20.9,0 32.6,-24.101 19.6,-40.5 l -211.8,-268.9 -4.5,-5.7 c -5,-6.399 -12.3,-9.5 -19.6,-9.5 -7.3,0 -14.601,3.2 -19.601,9.5 L 487.2,734.328 c -3.2,4.1 -4.9,8.6 -5.3,13.1 -1.301,13.7 9.199,27.4 24.899,27.4 h 51.8 v 159 c 10e-4,13.8 11.201,25 25.001,25 z"
         id="path4"
         style="fill:#008000" /></g></g><path
     style="opacity:1;fill:#ffffff;fill-opacity:1;stroke:#ffffff;stroke-width:0.17725958;stroke-miterlimit:4;stroke-dasharray:none;stroke-opacity:1"
     d="m 367.19842,449.95557 c -1.11434,-0.33401 -2.12022,-1.36681 -2.44955,-2.51509 -0.0893,-0.31137 -0.16236,-1.18095 -0.16236,-1.9324 v -1.36629 l -0.95973,-0.19762 c -2.50028,-0.51486 -5.72,-1.88434 -7.63619,-3.24801 -2.71432,-1.93165 -5.13723,-5.35383 -6.3221,-8.92946 -0.99046,-2.98895 -0.95735,-4.09746 0.1593,-5.33345 0.76514,-0.84693 1.34853,-1.10223 3.26525,-1.42895 1.81198,-0.30886 2.5177,-0.20801 3.47222,0.49621 0.79629,0.58749 1.11597,1.13605 1.60905,2.76106 1.16113,3.82663 2.82302,5.88583 5.99493,7.42812 3.46259,1.68363 7.22456,1.67389 10.75178,-0.0279 3.71568,-1.79266 5.8624,-5.43788 5.85297,-9.93863 -0.006,-2.91562 -0.76329,-4.93687 -2.48809,-6.64175 -2.03398,-2.01049 -3.92516,-2.83019 -10.06623,-4.36307 -5.90102,-1.47296 -9.25244,-2.74657 -11.83352,-4.497 -4.77105,-3.23561 -7.24228,-9.12398 -6.50877,-15.50895 0.49988,-4.35136 2.12842,-7.6502 5.23986,-10.61409 2.25042,-2.14371 5.02758,-3.60288 8.24236,-4.33069 l 1.1933,-0.27016 0.0641,-2.03164 c 0.069,-2.18598 0.20751,-2.63725 1.08069,-3.51948 0.82034,-0.82885 1.62979,-1.09154 3.37608,-1.09562 1.82275,-0.004 2.61557,0.19397 3.41666,0.85429 1.01214,0.83429 1.27621,1.63405 1.27621,3.86507 v 1.94705 l 0.45901,0.10242 c 1.27445,0.28435 3.42846,0.99868 4.5028,1.49324 3.62265,1.66766 6.77372,4.99152 8.29156,8.74624 0.76822,1.90036 0.49712,3.54061 -0.76003,4.59843 -0.71044,0.59779 -1.10932,0.74113 -2.85865,1.02727 -1.65576,0.27084 -2.4415,0.15219 -3.48474,-0.52621 -0.49236,-0.32017 -0.80746,-0.8011 -1.63451,-2.49472 -1.26811,-2.5968 -2.21358,-3.61698 -4.24994,-4.58578 -1.79706,-0.85495 -2.84188,-1.08224 -4.93901,-1.07445 -3.26497,0.0121 -5.74042,0.96262 -7.768,2.98268 -1.86717,1.86023 -2.74298,3.94011 -2.74203,6.51181 10e-4,2.73677 0.85839,4.83584 2.72855,6.6801 1.93366,1.90689 4.32622,2.92122 9.45059,4.00662 1.51472,0.32083 3.43003,0.74371 4.25624,0.93972 6.66209,1.58055 11.10297,4.93295 13.31235,10.04943 0.91035,2.10819 1.2895,3.83223 1.40742,6.39966 0.25891,5.63686 -1.43126,10.41896 -5.01684,14.19447 -2.67296,2.81455 -5.61724,4.41223 -10.22651,5.5493 l -0.69049,0.17034 -0.0645,1.74237 c -0.0596,1.60942 -0.10249,1.79717 -0.56238,2.46059 -0.32476,0.46848 -0.81261,0.87781 -1.40305,1.17722 -0.80909,0.41028 -1.07476,0.45748 -2.50264,0.44466 -0.8786,-0.008 -1.81163,-0.0786 -2.0734,-0.15701 z"
     id="path913"
     inkscape:connector-curvature="0" /><path
     style="fill:#ffaa00;stroke-width:0.33357054"
     d="m 85.73397,446.473 -52.082808,32.6815 c -1.397479,-0.31986 -2.663289,-1.17798 -3.4723,-2.46725 L 14.391722,451.5281 c -0.696604,-1.11013 -0.957106,-2.38445 -0.811049,-3.61144 L 66,415.024 Z"
     id="path6"
     inkscape:connector-curvature="0" /><path
     style="fill:#f28d00;stroke-width:0.33357054"
     d="m 85.73397,446.473 -52.082808,32.6815 c -1.397479,-0.31986 -2.663289,-1.17798 -3.4723,-2.46725 L 22.40754,464.3025 75.870886,430.75472 Z"
     id="path8"
     inkscape:connector-curvature="0" /><path
     style="fill:#ffd500;stroke-width:0.33357054"
     d="m 135.37017,415.32672 -21.332,13.38564 -19.30162,-9.80435 -0.43234,-21.64465 21.33199,-13.38564 c -13.13817,-7.86129 -29.469017,-7.80703 -42.606271,0.43569 -19.701011,12.36182 -24.515065,37.75102 -12.898787,56.28399 11.96461,19.08939 37.231508,24.87767 56.312708,12.90439 13.13764,-8.24336 20.29023,-22.92514 18.92632,-38.17507 z"
     id="path10"
     inkscape:connector-curvature="0" /><path
     style="fill:#ffaa00;stroke-width:0.33357054"
     d="m 116.44403,453.50207 c 13.13746,-8.24364 20.28988,-22.92571 18.92614,-38.17535 l -21.332,13.38564 -19.30162,-9.80435 -34.592932,21.70677 c 11.970197,19.07565 37.225142,24.85685 56.300412,12.88729 z"
     id="path12"
     inkscape:connector-curvature="0" /></svg>