<?xml version="1.0" encoding="UTF-8" standalone="no"?>
<!-- Generator: Adobe Illustrator 19.0.0, SVG Export Plug-In . SVG Version: 6.00 Build 0)  -->

<svg
   xmlns:dc="http://purl.org/dc/elements/1.1/"
   xmlns:cc="http://creativecommons.org/ns#"
   xmlns:rdf="http://www.w3.org/1999/02/22-rdf-syntax-ns#"
   xmlns:svg="http://www.w3.org/2000/svg"
   xmlns="http://www.w3.org/2000/svg"
   xmlns:sodipodi="http://sodipodi.sourceforge.net/DTD/sodipodi-0.dtd"
   xmlns:inkscape="http://www.inkscape.org/namespaces/inkscape"
   version="1.1"
   id="Layer_1"
   x="0px"
   y="0px"
   viewBox="0 0 491.52 491.52"
   style="enable-background:new 0 0 491.52 491.52;"
   xml:space="preserve"
   sodipodi:docname="host.svg"
   inkscape:version="0.92.2 (5c3e80d, 2017-08-06)"><metadata
     id="metadata43"><rdf:RDF><cc:Work
         rdf:about=""><dc:format>image/svg+xml</dc:format><dc:type
           rdf:resource="http://purl.org/dc/dcmitype/StillImage" /><dc:title></dc:title></cc:Work></rdf:RDF></metadata><defs
     id="defs41" /><sodipodi:namedview
     pagecolor="#ffffff"
     bordercolor="#666666"
     borderopacity="1"
     objecttolerance="10"
     gridtolerance="10"
     guidetolerance="10"
     inkscape:pageopacity="0"
     inkscape:pageshadow="2"
     inkscape:window-width="1280"
     inkscape:window-height="737"
     id="namedview39"
     showgrid="false"
     inkscape:zoom="0.56286219"
     inkscape:cx="463.07028"
     inkscape:cy="58.384863"
     inkscape:window-x="-8"
     inkscape:window-y="-8"
     inkscape:window-maximized="1"
     inkscape:current-layer="Layer_1" /><g
     id="g6"><g
       id="g4"><path
         d="M460.8,430.08c-13.332,0-24.592,8.586-28.833,20.48H389.12V352.7c21.284-0.863,38.093-7.741,50.38-15.45    c34.15-21.41,52.02-61.04,52.02-89.13c0-43.68-29.185-80.47-69.73-90.39c4.385-14.08,6.16-28.73,5.285-43.7    C423.43,51.66,370.49,0.5,309.065,0c-0.31,0-0.615,0-0.93,0c-49.65,0-93.905,31.8-111.32,77.98    c-18.18-15.05-41.685-22.42-65.565-20.04C97.21,61.3,67.545,85.15,55.685,118.7c-5.285,14.92-6.59,30.24-3.9,45.69    C20.48,179.75,0,212.34,0,248.12c0,50.18,36.58,86.99,87.62,89.05c3.883,6.311,9.088,11.307,14.78,15.387v98.003H59.553    c-4.241-11.894-15.501-20.48-28.833-20.48C13.78,430.08,0,443.86,0,460.8s13.78,30.72,30.72,30.72    c13.332,0,24.592-8.586,28.833-20.48h63.327V362.69c7.004,2.172,13.705,3.22,18.965,3.22c20.258,0,34.617-2.791,52.715-16.553    v82.61c-11.894,4.241-20.48,15.501-20.48,28.833c0,16.94,13.78,30.72,30.72,30.72s30.72-13.78,30.72-30.72    c0-13.332-8.586-24.592-20.48-28.833v-80.45c10.922,7.477,26.676,14.293,48.275,14.293c8.632,0,16.416-1.043,23.405-2.743v68.9    c-11.894,4.241-20.48,15.501-20.48,28.833c0,16.94,13.78,30.72,30.72,30.72s30.72-13.78,30.72-30.72    c0-13.332-8.586-24.592-20.48-28.833v-76.695c9.484-5.001,16.495-10.821,20.945-15.322c14.701,6.412,28.171,10.026,40.495,11.7    v119.39h63.328c4.241,11.894,15.501,20.48,28.832,20.48c16.94,0,30.72-13.78,30.72-30.72S477.74,430.08,460.8,430.08z     M30.72,471.04c-5.645,0-10.24-4.59-10.24-10.24c0-5.65,4.595-10.24,10.24-10.24c5.645,0,10.24,4.59,10.24,10.24    C40.96,466.45,36.365,471.04,30.72,471.04z M204.8,471.04c-5.645,0-10.24-4.59-10.24-10.24c0-5.65,4.595-10.24,10.24-10.24    c5.645,0,10.24,4.59,10.24,10.24C215.04,466.45,210.445,471.04,204.8,471.04z M296.96,471.04c-5.645,0-10.24-4.59-10.24-10.24    c0-5.65,4.595-10.24,10.24-10.24c5.645,0,10.24,4.59,10.24,10.24C307.2,466.45,302.605,471.04,296.96,471.04z M329.96,318.24    l-7.595-3.67l-5.06,6.75c-1.84,2.46-19,24.01-53.99,24.01c-35,0-49.55-22.69-50.11-23.59l-6.72-11.17l-9.26,9.17    c-22.36,22.15-32.925,25.69-55.38,25.69c-9.035,0-31.3-5.66-38.6-22.49l-2.675-6.16h-8.41c-42.205,0-71.68-28.23-71.68-68.66    c0-30.32,18.77-57.69,46.705-68.09l8.75-3.26l-2.44-9.02c-3.87-14.29-3.37-28.49,1.495-42.22c9.23-26.09,32.1-44.62,58.27-47.21    c2.265-0.22,4.52-0.33,6.765-0.33c20.745,0,40.45,9.39,53.72,25.9l13.475,16.77l4.515-21.03c9.88-45.98,50.345-79.15,96.4-79.15    c0.255,0,0.51,0,0.765,0c50.86,0.41,94.7,42.92,97.73,94.75c0.94,16.09-1.785,31.73-8.105,46.48l-5.515,12.86l13.93,1.36    c36.545,3.57,64.1,34.61,64.1,72.19c0,22.45-14.57,54.32-42.42,71.78C401.475,336.92,367.365,336.34,329.96,318.24z M460.8,471.04    c-5.645,0-10.24-4.59-10.24-10.24c0-5.65,4.595-10.24,10.24-10.24c5.645,0,10.24,4.59,10.24,10.24    C471.04,466.45,466.445,471.04,460.8,471.04z"
         id="path2" /></g></g><g
     id="g8" /><g
     id="g10" /><g
     id="g12" /><g
     id="g14" /><g
     id="g16" /><g
     id="g18" /><g
     id="g20" /><g
     id="g22" /><g
     id="g24" /><g
     id="g26" /><g
     id="g28" /><g
     id="g30" /><g
     id="g32" /><g
     id="g34" /><g
     id="g36" /><path
     style="opacity:1;fill:#ffffff;fill-opacity:1;stroke:#16ff00;stroke-width:0;stroke-miterlimit:4;stroke-dasharray:none;stroke-opacity:1"
     d="m 139.29982,344.80171 c -18.6903,-3.14773 -30.33083,-10.55341 -35.90226,-22.84095 l -2.61094,-5.75829 h -8.678215 c -33.599003,0 -58.784697,-17.4607 -68.29166,-47.34513 -2.697165,-8.47834 -3.398421,-25.62947 -1.427193,-34.90591 5.388718,-25.35889 21.455286,-44.08358 46.335044,-54.00092 4.015487,-1.60062 7.291513,-3.35758 7.280057,-3.90435 -0.01146,-0.54677 -0.851474,-3.98086 -1.866705,-7.6313 -2.573244,-9.25253 -3.170572,-24.1123 -1.327507,-33.02442 7.409162,-35.826917 40.901159,-60.98906 75.118419,-56.43559 20.59205,2.740291 34.39324,11.400752 50.89578,31.93789 4.10662,5.11062 7.7625,9.40396 8.12418,9.54078 0.36168,0.1368 1.7434,-4.84107 3.07048,-11.06195 3.29269,-15.434914 5.41116,-22.44358 9.32586,-30.853329 20.20998,-43.416116 68.54614,-66.554801 113.31749,-54.245459 8.40727,2.311478 21.1466,8.278043 29.41391,13.776235 8.21252,5.461752 20.16024,17.412318 26.18008,26.186323 6.37927,9.297877 12.16713,21.813968 14.9147,32.252664 1.79502,6.819706 2.36529,11.464346 2.69219,21.926856 0.5283,16.90867 -1.30174,26.72228 -8.15585,43.73579 -2.63173,6.53257 -4.61543,12.1517 -4.40822,12.48696 0.20721,0.33527 3.87214,0.88336 8.1443,1.218 36.1963,2.83518 62.0379,25.59577 68.02408,59.91379 6.32765,36.27563 -20.05453,78.30748 -57.5138,91.63046 -7.84478,2.79013 -16.22018,4.0525 -27.079,4.08146 -17.56826,0.0468 -31.52297,-3.31901 -52.47931,-12.65794 -10.20557,-4.54798 -10.47206,-4.614 -11.67755,-2.89293 -9.80008,13.99157 -22.73906,22.78519 -39.40449,26.78018 -10.23143,2.45266 -25.38422,2.47295 -35.01391,0.0469 -15.40841,-3.88192 -27.09564,-12.32876 -35.03521,-25.32139 l -4.53754,-7.42542 -8.04989,7.77342 c -21.34024,20.60736 -31.2911,25.91252 -50.52776,26.93819 -3.89381,0.20761 -7.87611,0.24334 -8.84956,0.0794 z"
     id="path850"
     inkscape:connector-curvature="0" /><path
     style="opacity:1;fill:#ffffff;fill-opacity:1;stroke:#16ff00;stroke-width:0;stroke-miterlimit:4;stroke-dasharray:none;stroke-opacity:1"
     d="m 295.00728,470.71113 c -4.01605,-0.83456 -7.30608,-4.27633 -7.93764,-8.30374 -0.96483,-6.15269 3.66027,-11.56538 9.88255,-11.56538 9.03354,0 13.44728,10.87024 6.96418,17.15151 -2.28329,2.2122 -5.95359,3.33178 -8.90909,2.71761 z"
     id="path852"
     inkscape:connector-curvature="0" /><path
     style="opacity:1;fill:#ffffff;fill-opacity:1;stroke:#16ff00;stroke-width:0;stroke-miterlimit:4;stroke-dasharray:none;stroke-opacity:1"
     d="m 202.29131,470.55164 c -3.09584,-0.86315 -5.44184,-2.8922 -6.79882,-5.88028 -0.49459,-1.08907 -0.64323,-1.97801 -0.65128,-3.89479 -0.009,-2.13687 0.10295,-2.71453 0.80167,-4.13735 1.02189,-2.0809 2.66967,-3.79165 4.65647,-4.83443 1.38675,-0.72783 1.84173,-0.81071 4.46598,-0.81353 2.44599,-0.003 3.1397,0.10417 4.25888,0.65568 2.05516,1.01275 3.57343,2.4764 4.67351,4.50538 0.94139,1.73632 1.00217,2.01677 1.00217,4.62425 0,2.60707 -0.0609,2.88813 -1.00138,4.62277 -0.55076,1.01581 -1.58332,2.35916 -2.29457,2.98523 -2.38792,2.10194 -6.1432,2.99498 -9.11263,2.16707 z"
     id="path854"
     inkscape:connector-curvature="0" /><path
     style="opacity:1;fill:#ffffff;fill-opacity:1;stroke:#16ff00;stroke-width:0;stroke-miterlimit:4;stroke-dasharray:none;stroke-opacity:1"
     d="m 28.312599,470.56639 c -3.162366,-0.88441 -5.166316,-2.5166 -6.556268,-5.34 -0.859611,-1.74611 -0.961899,-2.21865 -0.961899,-4.44367 0,-2.08772 0.125993,-2.75858 0.780209,-4.15426 0.950191,-2.02712 2.81351,-3.94721 4.771456,-4.91684 1.260538,-0.62425 1.861817,-0.72351 4.382893,-0.72351 2.490321,0 3.128743,0.10271 4.322032,0.69534 5.539602,2.75116 7.381583,9.60221 3.967471,14.75658 -2.264656,3.41901 -6.877658,5.19699 -10.705894,4.12636 z"
     id="path856"
     inkscape:connector-curvature="0" /><path
     style="opacity:1;fill:#ffffff;fill-opacity:1;stroke:#16ff00;stroke-width:0;stroke-miterlimit:4;stroke-dasharray:none;stroke-opacity:1"
     d="m 458.84626,470.71113 c -4.01605,-0.83456 -7.30607,-4.27633 -7.93763,-8.30374 -0.96484,-6.15269 3.66027,-11.56538 9.88254,-11.56538 9.03354,0 13.44729,10.87024 6.96418,17.15151 -2.28329,2.2122 -5.95358,3.33178 -8.90909,2.71761 z"
     id="path858"
     inkscape:connector-curvature="0" /></svg>