<?xml version="1.0" encoding="UTF-8" standalone="no"?>
<svg
   xmlns:dc="http://purl.org/dc/elements/1.1/"
   xmlns:cc="http://creativecommons.org/ns#"
   xmlns:rdf="http://www.w3.org/1999/02/22-rdf-syntax-ns#"
   xmlns:svg="http://www.w3.org/2000/svg"
   xmlns="http://www.w3.org/2000/svg"
   xmlns:sodipodi="http://sodipodi.sourceforge.net/DTD/sodipodi-0.dtd"
   xmlns:inkscape="http://www.inkscape.org/namespaces/inkscape"
   width="32px"
   height="32px"
   viewBox="0 0 32 32"
   version="1.1"
   id="svg16"
   sodipodi:docname="images_cant.svg"
   inkscape:version="0.92.2 (5c3e80d, 2017-08-06)">
  <metadata
     id="metadata22">
    <rdf:RDF>
      <cc:Work
         rdf:about="">
        <dc:format>image/svg+xml</dc:format>
        <dc:type
           rdf:resource="http://purl.org/dc/dcmitype/StillImage" />
        <dc:title>folder_type_images_opened</dc:title>
      </cc:Work>
    </rdf:RDF>
  </metadata>
  <defs
     id="defs20" />
  <sodipodi:namedview
     pagecolor="#ffffff"
     bordercolor="#666666"
     borderopacity="1"
     objecttolerance="10"
     gridtolerance="10"
     guidetolerance="10"
     inkscape:pageopacity="0"
     inkscape:pageshadow="2"
     inkscape:window-width="1280"
     inkscape:window-height="737"
     id="namedview18"
     showgrid="false"
     inkscape:zoom="7.375"
     inkscape:cx="16"
     inkscape:cy="16"
     inkscape:window-x="-8"
     inkscape:window-y="-8"
     inkscape:window-maximized="1"
     inkscape:current-layer="svg16" />
  <title
     id="title2">folder_type_images_opened</title>
  <path
     d="M27.4,5.5H18.2L16.1,9.7H4.3V26.5H29.5V5.5Zm0,18.7H6.6V11.8H27.4Zm0-14.5H19.2l1-2.1h7.1V9.7Z"
     style="fill:#7bdbc0"
     id="path4" />
  <polygon
     points="25.7 13.7 0.5 13.7 4.3 26.5 29.5 26.5 25.7 13.7"
     style="fill:#7bdbc0"
     id="polygon6" />
  <path
     d="M31,15.778Q31,23.39,31,31H10q0-7.612,0-15.223H31"
     style="fill:#2dcc9f"
     id="path8" />
  <path
     d="M26.674,17.8a1.653,1.653,0,1,0,.845.467,1.659,1.659,0,0,0-.845-.467"
     style="fill:#fff"
     id="path10" />
  <path
     d="M22.083,26.467,18,20.786l-6.062,8.428h8.174q.987-1.374,1.976-2.747"
     style="fill:#fff"
     id="path12" />
  <path
     d="M25.043,23.391q-2.095,2.912-4.188,5.824h8.377Q27.138,26.3,25.043,23.391Z"
     style="fill:#fff"
     id="path14" />
</svg>
