<?xml version="1.0" encoding="UTF-8" standalone="no"?>
<!-- Generator: Adobe Illustrator 19.0.0, SVG Export Plug-In . SVG Version: 6.00 Build 0)  -->

<svg
   xmlns:dc="http://purl.org/dc/elements/1.1/"
   xmlns:cc="http://creativecommons.org/ns#"
   xmlns:rdf="http://www.w3.org/1999/02/22-rdf-syntax-ns#"
   xmlns:svg="http://www.w3.org/2000/svg"
   xmlns="http://www.w3.org/2000/svg"
   xmlns:sodipodi="http://sodipodi.sourceforge.net/DTD/sodipodi-0.dtd"
   xmlns:inkscape="http://www.inkscape.org/namespaces/inkscape"
   version="1.1"
   id="Capa_1"
   x="0px"
   y="0px"
   viewBox="0 0 410 410"
   style="enable-background:new 0 0 410 410;"
   xml:space="preserve"
   sodipodi:docname="mail.svg"
   inkscape:version="0.92.2 (5c3e80d, 2017-08-06)"><metadata
     id="metadata50"><rdf:RDF><cc:Work
         rdf:about=""><dc:format>image/svg+xml</dc:format><dc:type
           rdf:resource="http://purl.org/dc/dcmitype/StillImage" /><dc:title></dc:title></cc:Work></rdf:RDF></metadata><defs
     id="defs48" /><sodipodi:namedview
     pagecolor="#ffffff"
     bordercolor="#666666"
     borderopacity="1"
     objecttolerance="10"
     gridtolerance="10"
     guidetolerance="10"
     inkscape:pageopacity="0"
     inkscape:pageshadow="2"
     inkscape:window-width="1280"
     inkscape:window-height="737"
     id="namedview46"
     showgrid="false"
     inkscape:zoom="0.57560976"
     inkscape:cx="205"
     inkscape:cy="205"
     inkscape:window-x="-8"
     inkscape:window-y="-8"
     inkscape:window-maximized="1"
     inkscape:current-layer="Capa_1" /><g
     id="XMLID_1256_"><polygon
       id="XMLID_1257_"
       style="fill:#D80027;"
       points="345.01,207.769 345.01,207.77 250,297.5 385,410 385,170  " /><polygon
       id="XMLID_1258_"
       style="fill:#FF5023;"
       points="25,170 25,410 160,297.5  " /><polygon
       id="XMLID_1259_"
       style="fill:#D80027;"
       points="160,297.5 25,410 205,410 205,340  " /><polygon
       id="XMLID_1260_"
       style="fill:#A2001D;"
       points="205,340 205,410 385,410 250,297.5  " /><polygon
       id="XMLID_1261_"
       style="fill:#FF5023;"
       points="64.993,132.229 25,170 64.99,170  " /><polygon
       id="XMLID_1262_"
       style="fill:#FF5023;"
       points="385,170 345.005,132.227 345.008,170  " /><polygon
       id="XMLID_1263_"
       style="fill:#FF5023;"
       points="205,0 141.213,60.243 268.626,60.092  " /><polygon
       id="XMLID_1264_"
       style="fill:#A2001D;"
       points="345.01,207.769 385,170 345.008,170  " /><polygon
       id="XMLID_1265_"
       style="fill:#A2001D;"
       points="205,340 64.986,207.765 64.99,170 25,170 160,297.5  " /><path
       id="XMLID_1266_"
       style="fill:#DEDDE0;"
       d="M64.986,207.765L205,340l45-42.5l95.01-89.73v-0.001L345.008,170l-0.003-37.773   L345,60l-76.374,0.092l-127.413,0.151L65,60.334l-0.007,71.895L64.99,170L64.986,207.765z M115,180h180v30H115V180z M115,150v-30   h180v30H115z" /><rect
       id="XMLID_1270_"
       x="115"
       y="120"
       style="fill:#FFFFFF;"
       width="180"
       height="30" /><rect
       id="XMLID_1271_"
       x="115"
       y="180"
       style="fill:#FFFFFF;"
       width="180"
       height="30" /></g><g
     id="g15" /><g
     id="g17" /><g
     id="g19" /><g
     id="g21" /><g
     id="g23" /><g
     id="g25" /><g
     id="g27" /><g
     id="g29" /><g
     id="g31" /><g
     id="g33" /><g
     id="g35" /><g
     id="g37" /><g
     id="g39" /><g
     id="g41" /><g
     id="g43" /></svg>