<?xml version="1.0" encoding="UTF-8" standalone="no"?>
<svg
   xmlns:dc="http://purl.org/dc/elements/1.1/"
   xmlns:cc="http://creativecommons.org/ns#"
   xmlns:rdf="http://www.w3.org/1999/02/22-rdf-syntax-ns#"
   xmlns:svg="http://www.w3.org/2000/svg"
   xmlns="http://www.w3.org/2000/svg"
   xmlns:sodipodi="http://sodipodi.sourceforge.net/DTD/sodipodi-0.dtd"
   xmlns:inkscape="http://www.inkscape.org/namespaces/inkscape"
   width="1024px"
   height="1024px"
   viewBox="0 0 1024 1024"
   version="1.1"
   id="svg6"
   sodipodi:docname="mp.svg"
   inkscape:version="0.92.2 (5c3e80d, 2017-08-06)">
  <metadata
     id="metadata12">
    <rdf:RDF>
      <cc:Work
         rdf:about="">
        <dc:format>image/svg+xml</dc:format>
        <dc:type
           rdf:resource="http://purl.org/dc/dcmitype/StillImage" />
        <dc:title></dc:title>
      </cc:Work>
    </rdf:RDF>
  </metadata>
  <defs
     id="defs10" />
  <sodipodi:namedview
     pagecolor="#ffffff"
     bordercolor="#666666"
     borderopacity="1"
     objecttolerance="10"
     gridtolerance="10"
     guidetolerance="10"
     inkscape:pageopacity="0"
     inkscape:pageshadow="2"
     inkscape:window-width="1280"
     inkscape:window-height="737"
     id="namedview8"
     showgrid="false"
     inkscape:zoom="0.23046875"
     inkscape:cx="512"
     inkscape:cy="501.66082"
     inkscape:window-x="-8"
     inkscape:window-y="-8"
     inkscape:window-maximized="1"
     inkscape:current-layer="svg6" />
  <path
     d="m 413.7507,383.6174 24.14629,-24.14629 c 0.14289,-0.1429 0.28576,-0.1429 0.28576,-0.28576 6.57236,-4.57209 13.43049,-8.71553 21.00299,-12.28747 4.85784,-2.28604 10.00142,-4.42921 15.57366,-6.4295 3.14331,-1.00013 6.2866,-2.00028 9.71566,-3.00042 3.28619,-0.85726 6.85812,-1.71453 10.43006,-2.42891 3.57196,-0.71438 7.28676,-1.42877 11.14446,-1.8574 7.71537,-1.14303 16.00228,-1.71454 25.00356,-2.00029 h 8.2869 c 0.71438,0 1.42878,0 2.14316,0.1429 0.7144,0 1.57164,0 2.28605,0.1429 0.71438,0 1.42877,0.1429 2.14315,0.1429 0.7144,0 1.57165,0.14289 2.28605,0.14289 0.71438,0 1.42877,0.1429 2.14315,0.1429 0.71441,0.14289 1.57165,0.14289 2.28606,0.28575 0.71438,0.1429 1.42877,0.1429 2.14315,0.28575 0.71438,0.1429 1.42878,0.1429 2.28605,0.28576 0.71438,0.1429 1.42877,0.1429 2.14315,0.28576 0.71438,0.14289 1.42879,0.14289 2.14317,0.28575 0.71439,0.1429 1.42877,0.28576 2.14317,0.28576 0.71438,0.1429 1.42876,0.28575 2.14315,0.28575 l 2.14317,0.42864 2.14316,0.42863 2.14317,0.42863 c 0.71438,0.1429 1.42878,0.28575 2.00027,0.42864 0.71439,0.1429 1.42878,0.28575 2.00029,0.42862 0.71438,0.14289 1.2859,0.28576 2.00029,0.42863 0.71438,0.14289 1.28589,0.28577 2.00028,0.42863 0.71438,0.1429 1.2859,0.28577 2.00028,0.42864 0.7144,0.14289 1.28591,0.28577 2.00029,0.42863 0.57151,0.1429 1.28591,0.28575 1.85742,0.42863 0.57149,0.1429 1.28589,0.28575 1.8574,0.42864 0.57152,0.1429 1.2859,0.28575 1.8574,0.42863 0.57152,0.1429 1.2859,0.28575 1.85741,0.57151 l 1.71454,0.42863 c 0.5715,0.1429 1.14302,0.28576 1.85741,0.57152 0.57149,0.1429 1.14301,0.28575 1.71453,0.57151 0.5715,0.1429 1.14302,0.28575 1.71452,0.57151 0.57152,0.14288 1.14303,0.28576 1.57165,0.57151 0.57151,0.14289 1.14303,0.28574 1.71453,0.57149 0.57152,0.1429 1.00016,0.28578 1.57165,0.42864 0.57153,0.1429 1.14302,0.28577 1.57166,0.57152 0.42863,0.1429 1.00015,0.28575 1.42879,0.42863 0.5715,0.1429 1.00013,0.28575 1.57164,0.5715 0.42864,0.1429 0.85727,0.28577 1.42878,0.42864 0.42862,0.14289 1.00014,0.28577 1.42878,0.57152 l 1.2859,0.42863 1.28588,0.42864 c 0.42864,0.14288 0.85727,0.28574 1.14302,0.42862 l 1.28591,0.42864 c 0.42863,0.14289 0.71439,0.28574 1.14301,0.42863 0.42864,0.1429 0.85726,0.28575 1.14303,0.42862 0.28575,0.1429 0.71439,0.28576 1.00014,0.42864 0.28575,0.1429 0.71438,0.28576 1.00014,0.42863 l 0.85726,0.42864 c 0.28576,0.14288 0.7144,0.28576 1.00015,0.42862 0.28575,0.1429 0.57151,0.1429 0.71439,0.28577 0.28575,0.1429 0.57151,0.28575 0.85726,0.28575 0.28576,0.1429 0.42863,0.1429 0.71438,0.28575 0.28577,0.1429 0.42864,0.1429 0.71441,0.28575 0.28575,0.1429 0.42861,0.1429 0.5715,0.28577 0.14289,0.1429 0.42863,0.1429 0.57152,0.28575 0.14289,0.1429 0.28574,0.1429 0.42863,0.28575 0.1429,0 0.28575,0.1429 0.42862,0.1429 0.1429,0.1429 0.28576,0.1429 0.42863,0.1429 0.1429,0 0.1429,0.14289 0.28577,0.14289 0.1429,0 0.1429,0 0.28575,0.1429 0.1429,0.1429 0.28575,0.1429 0.28575,0.1429 2.28605,1.14303 4.4292,2.14316 6.71526,3.14332 0.28574,0.1429 0.71438,0.28575 1.00013,0.42863 2.14316,1.00014 4.28631,1.85741 6.42949,2.71467 0.42863,0.14289 0.85727,0.28575 1.2859,0.5715 l 6.42949,2.5718 c 0.28575,0.1429 0.5715,0.28575 0.85727,0.28575 2.14315,0.85727 4.28631,1.57165 6.42948,2.28605 0.14289,0 0.28575,0.1429 0.42864,0.1429 2.14315,0.71438 4.4292,1.42879 6.57235,2.14317 0.42864,0.1429 0.71438,0.28575 1.14302,0.42864 2.14316,0.71438 4.28634,1.28589 6.28662,1.8574 0.42864,0.1429 0.85726,0.28575 1.14302,0.28575 l 6.42949,1.71454 c 0.28575,0 0.42863,0.14288 0.71438,0.14288 2.14317,0.57151 4.14345,1.00015 6.2866,1.42878 0.28578,0 0.42864,0.14289 0.71441,0.14289 l 6.42949,1.2859 c 0.42863,0.1429 0.85727,0.1429 1.14302,0.28575 2.14315,0.42864 4.14344,0.71439 6.2866,1.14302 0.42863,0 0.71438,0.1429 1.14302,0.1429 2.14317,0.28575 4.28633,0.71438 6.57237,1.00013 h 0.42864 c 2.14316,0.28577 4.28631,0.57152 6.42948,0.71441 0.28575,0 0.5715,0 0.85727,0.1429 2.14315,0.28575 4.28632,0.42863 6.2866,0.57151 0.42864,0 0.85727,0 1.14302,0.1429 2.14318,0.1429 4.14345,0.28577 6.28663,0.42863 h 1.00013 c 2.14316,0.1429 4.4292,0.1429 6.57237,0.28576 2.14315,0 4.4292,0.1429 6.57235,0.1429 h 0.85727 c 3.00044,0 6.00086,0 9.0013,-0.1429 l 9.00127,-0.42862 h 0.7144 c 2.85753,-0.1429 5.57223,-0.42864 8.28689,-0.71441 0.28576,0 0.57151,0 0.85727,-0.1429 2.85756,-0.28575 5.57223,-0.57151 8.42977,-0.85726 h 0.5715 c 3.00044,-0.42863 5.85799,-0.71438 8.85841,-1.14301 h 0.28577 c 2.85754,-0.42864 5.71508,-0.85727 8.57264,-1.42879 0.28575,0 0.57151,-0.1429 0.71439,-0.1429 2.71468,-0.42864 5.42935,-1.00015 8.00114,-1.57166 0.28576,0 0.57152,-0.14288 0.85727,-0.14288 2.71468,-0.57152 5.42935,-1.14302 8.2869,-1.85742 0.1429,0 0.28575,0 0.42863,-0.14288 2.85756,-0.71439 5.71509,-1.28591 8.42978,-2.14318 0.1429,0 0.28575,-0.1429 0.42863,-0.1429 2.71467,-0.71439 5.42935,-1.42878 8.00114,-2.14316 0.28575,-0.1429 0.5715,-0.1429 0.85726,-0.28575 2.5718,-0.71441 5.1436,-1.42879 7.71538,-2.28606 0.28576,-0.14289 0.42864,-0.14289 0.7144,-0.28575 2.71467,-0.85727 5.28645,-1.71453 8.00114,-2.57178 0.1429,0 0.1429,0 0.28576,-0.1429 2.71466,-0.85727 5.42933,-1.8574 8.14401,-2.71467 0.1429,0 0.42864,-0.14289 0.57151,-0.14289 2.5718,-0.85727 5.00072,-1.8574 7.57251,-2.71467 0.28576,-0.1429 0.57151,-0.1429 0.85727,-0.28577 2.42891,-0.85725 4.85783,-1.85741 7.28674,-2.85754 0.28576,-0.1429 0.42864,-0.1429 0.7144,-0.28576 2.5718,-1.00014 5.14358,-2.00029 7.71538,-3.14331 0.28575,0.28575 0.57152,0.42864 0.85727,0.71439 2.85756,2.28605 5.57222,4.57208 8.28689,7.00101 2.00029,1.71452 4.00057,3.42905 5.85799,5.14358 3.00042,2.71467 5.85798,5.42935 8.57264,8.14403 1.57165,1.57165 3.1433,3.00042 4.57208,4.57207 1.42878,1.42878 2.85756,3.00043 4.28633,4.4292 1.57165,1.71454 3.1433,3.28618 4.57208,5.00072 3.2862,3.57194 6.28662,7.14387 9.28705,10.71581 1.42877,1.71453 2.85755,3.42907 4.14344,5.14359 1.71453,2.28604 3.57193,4.57208 5.28647,6.85812 3.57194,4.71497 6.85812,9.57279 10.00142,14.57351 4.14346,6.57238 8.00115,13.14474 11.43021,20.00286 1.71453,3.42907 3.42906,6.71524 4.85784,10.1443 1.57165,3.42906 3.00042,6.85813 4.4292,10.28718 5.42934,13.85913 9.42992,28.14687 11.71594,42.5775 -13.71622,3.14331 -27.00383,6.42949 -39.71994,9.71568 -8.00114,2.14317 -15.71652,4.14345 -23.28904,6.2866 -4.57207,1.28591 -9.00127,2.5718 -13.2876,3.85771 l -4.28634,1.2859 -8.57263,2.57179 c -8.42978,2.57179 -16.43092,5.14358 -24.14631,7.5725 l -3.8577,1.28591 c -7.57251,2.42891 -14.71638,5.00072 -21.5745,7.28674 -3.42906,1.14302 -6.71525,2.42893 -9.85855,3.57194 -13.85913,5.00072 -25.57508,9.5728 -35.14788,13.4305 -2.14315,0.85726 -4.28632,1.71452 -6.28661,2.57178 -2.00028,0.85727 -3.85769,1.57166 -5.57222,2.28604 -3.28618,1.42878 -6.14374,2.5718 -8.42977,3.71482 -10.14431,-8.8584 -47.72109,-41.57735 -79.72566,-69.00985 -38.86269,-33.43354 -88.86982,-76.01104 -107.01528,-89.72727 h -0.28575 c -22.14602,-16.28804 -35.86226,-21.28875 -49.57851,-23.86055 h -0.28574 c -2.5718,-0.42863 -5.28647,-0.5715 -8.14403,-0.5715 -6.57235,0 -14.002,1.14302 -20.2886,3.1433 -15.57364,4.28632 -36.2909,16.43091 -61.58022,36.00514 l -3.1433,2.57179 c -16.28803,12.85898 -31.71881,25.14645 -43.29189,27.28961 l -0.42864,0.1429 -0.42862,0.1429 c -4.00058,1.00014 -8.42978,1.42876 -13.14474,1.42876 -13.71624,0 -26.57522,-4.14344 -31.86169,-8.00114 l -0.57152,-0.42862 -0.71438,-0.42864 c -1.14302,-0.71438 -2.14315,-1.57165 -3.00042,-2.85754 0.28575,-0.42864 0.57151,-1.00015 1.14302,-1.42878 l 0.28574,-0.28575 0.28575,-0.28575 41.14875,-45.29219 4.71495,-4.71495 z m 103.5862,309.18698 c -0.71439,-2.71468 -1.57166,-5.14359 -2.85754,-7.5725 -0.57152,-1.14304 -1.28591,-2.42892 -1.85743,-3.57196 -7.28674,-12.00171 -20.43148,-20.00285 -35.4336,-20.00285 -1.14305,0 -2.28605,0.1429 -3.57196,0.28577 -1.14302,0.1429 -2.28603,0.28575 -3.57194,0.5715 -2.28604,0.42863 -4.57207,1.14301 -6.42949,1.71454 -1.00013,0.28574 -1.8574,0.71438 -2.71467,1.00013 -0.1429,0 -0.28575,0.1429 -0.28575,0.1429 -1.14302,0.42863 -2.00028,0.71438 -2.71467,1.00014 -0.71439,0.28575 -1.28589,0.42862 -1.42878,0.42862 -0.42863,0 -0.42863,-0.57149 -0.42863,-1.57165 0.1429,-0.71438 0.28576,-1.57165 0.57152,-2.28604 0.28575,-0.85727 0.5715,-1.71452 0.85726,-2.42892 0.1429,-0.42862 0.85727,-2.00028 1.42876,-4.4292 0.1429,-0.85727 0.42864,-1.71453 0.57152,-2.71467 0.1429,-1.00014 0.42864,-2.14316 0.5715,-3.28618 0.1429,-1.14302 0.28577,-2.28604 0.42864,-3.57194 0.1429,-1.8574 0.28576,-3.85768 0.28576,-6.00086 0,-1.42876 0,-2.85754 -0.1429,-4.28632 -0.28576,-2.85755 -0.71439,-5.7151 -1.71454,-8.57265 -0.85727,-2.85756 -2.14316,-5.7151 -4.00057,-8.28689 -0.42863,-0.71441 -0.85727,-1.2859 -1.42876,-2.00029 -3.00045,-3.8577 -7.1439,-7.14388 -12.71612,-9.71568 -0.71438,-0.28575 -1.57165,-0.71438 -2.28603,-1.00014 -0.28575,-0.1429 -0.42864,-0.1429 -0.71439,-0.28575 -0.57152,-0.1429 -1.00015,-0.42864 -1.57165,-0.57152 -0.28577,-0.1429 -0.57152,-0.1429 -0.85727,-0.28575 -0.42863,-0.1429 -0.85727,-0.28575 -1.42878,-0.42864 -0.28576,-0.14289 -0.57151,-0.14289 -0.85726,-0.28574 -0.42863,-0.1429 -0.85726,-0.28575 -1.2859,-0.28575 -0.28576,0 -0.57151,-0.1429 -0.71438,-0.1429 -0.42864,-0.1429 -1.00015,-0.1429 -1.42878,-0.28575 -0.1429,0 -0.42864,-0.1429 -0.57152,-0.1429 -0.71439,-0.1429 -1.28588,-0.1429 -2.00028,-0.28576 h -0.28576 c -0.5715,0 -1.14302,-0.1429 -1.57164,-0.1429 h -4.71496 c -0.71439,0 -1.28591,0.1429 -2.00029,0.1429 h -0.42863 c -0.57151,0.1429 -1.00015,0.1429 -1.42878,0.28576 -0.1429,0 -0.28575,0 -0.42863,0.1429 l -1.71452,0.42862 h -0.1429 c -0.5715,0.1429 -1.00014,0.28576 -1.57166,0.42864 -0.14289,0 -0.28575,0.1429 -0.42863,0.1429 l -1.28589,0.42863 c -0.1429,0 -0.1429,0 -0.28576,0.1429 -0.57151,0.1429 -1.00014,0.42864 -1.42877,0.5715 -0.1429,0 -0.28576,0.1429 -0.42864,0.1429 -0.42863,0.1429 -0.71439,0.42863 -1.14301,0.57152 -0.1429,0 -0.28577,0.1429 -0.28577,0.1429 -0.42863,0.28576 -0.85727,0.42863 -1.2859,0.71438 l -0.1429,0.1429 c -0.28575,0.1429 -0.71438,0.42863 -1.00014,0.71438 l -0.28575,0.28576 c -0.28576,0.28575 -0.71439,0.42864 -1.00016,0.71439 0,0 -0.1429,0 -0.1429,0.1429 -0.28575,0.28577 -0.71438,0.57152 -1.00014,0.7144 -0.1429,0 -0.1429,0.14289 -0.28575,0.14289 -0.28576,0.1429 -0.42863,0.42863 -0.71438,0.57152 l -0.1429,0.1429 c -0.28576,0.28575 -0.57151,0.42863 -0.7144,0.71438 l -0.14288,0.1429 -0.57151,0.57152 -0.1429,0.14289 c -0.1429,0.28576 -0.42864,0.42864 -0.5715,0.57151 -0.57152,0.57151 -1.00014,0.71438 -1.42878,0.71438 -0.42863,0 -0.71438,-0.28575 -0.71438,-0.71438 v -0.57151 c 0,-0.85726 -0.1429,-2.00028 -0.28576,-3.14331 -0.1429,-0.57151 -0.1429,-1.28589 -0.28576,-1.8574 -0.28575,-1.57165 -0.85727,-3.42906 -1.42877,-5.28648 -0.42863,-1.14302 -0.85727,-2.28604 -1.42879,-3.42904 -0.42862,-0.7144 -0.85725,-1.57166 -1.28588,-2.28604 -0.42864,-0.71441 -1.00016,-1.57168 -1.57165,-2.28606 -1.71453,-2.28604 -3.71482,-4.4292 -6.28663,-6.42949 -0.85726,-0.71438 -1.71453,-1.28589 -2.71466,-1.8574 -2.42892,-1.42878 -5.28648,-2.71467 -8.42978,-3.71482 -0.85726,-0.28575 -1.57165,-0.42863 -2.42892,-0.71438 -0.28575,0 -0.42863,-0.1429 -0.71438,-0.1429 -0.57152,-0.1429 -1.28591,-0.28575 -1.85742,-0.42863 -0.14289,0 -0.28574,-0.1429 -0.5715,-0.1429 -0.71439,-0.1429 -1.57166,-0.28576 -2.28604,-0.42864 -0.14289,0 -0.42862,0 -0.57151,-0.1429 -0.57152,-0.14289 -1.14302,-0.14289 -1.71454,-0.28574 h -0.5715 c -0.71439,0 -1.42878,-0.1429 -2.14316,-0.1429 h -5.00072 c -0.42862,0 -1.00014,0.1429 -1.42878,0.1429 h -0.57151 c -1.28589,0.14289 -2.71467,0.42863 -4.00057,0.71438 -0.1429,0 -0.28575,0.1429 -0.5715,0.1429 -0.42864,0.1429 -0.85727,0.28575 -1.42878,0.42863 -0.1429,0 -0.42864,0.1429 -0.57151,0.1429 l -1.28589,0.42864 c -0.1429,0 -0.28576,0.14289 -0.57152,0.14289 -0.42864,0.1429 -1.00014,0.42864 -1.42877,0.5715 -0.1429,0 -0.1429,0 -0.28575,0.1429 -0.57152,0.28575 -1.14302,0.42864 -1.71454,0.71438 0,0 -0.1429,0 -0.1429,0.1429 -0.42863,0.28575 -1.00013,0.42864 -1.42877,0.71439 -0.14289,0.1429 -0.28574,0.1429 -0.42863,0.28575 -0.42863,0.14289 -0.71438,0.42863 -1.14302,0.57152 -0.1429,0.14289 -0.28575,0.14289 -0.42863,0.28574 -0.42864,0.28577 -0.71439,0.42864 -1.14302,0.7144 -0.1429,0 -0.28576,0.1429 -0.28576,0.1429 -1.00015,0.57152 -1.8574,1.2859 -2.85755,1.85741 -0.14289,0 -0.14289,0.1429 -0.28576,0.1429 -0.42863,0.28576 -0.71438,0.57152 -1.00013,0.85727 -0.1429,0.1429 -0.28577,0.1429 -0.28577,0.28575 -0.28575,0.28577 -0.5715,0.42864 -0.85725,0.71441 -0.1429,0.1429 -0.28576,0.1429 -0.28576,0.28575 -0.28576,0.28575 -0.71439,0.57149 -1.00014,0.85727 l -0.1429,0.14288 c -0.71439,0.71441 -1.42877,1.28591 -2.14317,2.00029 l -0.28574,0.28577 -0.71439,0.71439 -0.28576,0.28575 -0.71439,0.71438 -0.28575,0.28576 -0.71439,0.7144 v 0.14288 l -0.14289,0.1429 c -0.28575,0.28576 -0.5715,0.57152 -0.71439,0.85727 l -0.1429,0.1429 c -0.14289,0.28575 -0.42862,0.42863 -0.57149,0.71438 l -0.28576,0.28575 c -0.1429,0.1429 -0.28576,0.42864 -0.42864,0.57152 0,0.1429 -0.14289,0.1429 -0.14289,0.28575 -0.14289,0.1429 -0.28576,0.28575 -0.42863,0.57152 l -0.1429,0.1429 c -0.1429,0.28576 -0.28575,0.42864 -0.42862,0.71438 0,-0.42862 -0.1429,-0.85725 -0.1429,-1.28589 -2.5718,-16.00228 -15.71653,-27.86112 -33.00471,-27.86112 -14.28775,0 -26.14659,8.57266 -31.00443,21.003 -1.42877,3.71483 -2.28603,7.85827 -2.28603,12.14459 0,18.71696 14.57351,33.14758 33.14758,33.14758 9.28704,0 16.5738,-3.14329 22.8604,-9.28703 v 1.00014 c -0.28575,2.14315 -0.71438,5.57222 -0.5715,9.71566 0,1.00016 0,2.14317 0.1429,3.28619 0.1429,2.85755 0.5715,5.85799 1.42877,8.85841 0.42863,1.85742 1.00014,3.71482 1.8574,5.57222 1.00015,2.42891 2.28605,5.00072 4.00057,7.42963 2.00028,3.00042 4.71497,5.85798 8.00114,8.42978 1.2859,1.00014 2.71468,2.00029 4.28633,2.85756 2.28604,1.42876 5.00071,2.57178 7.85826,3.7148 0.71438,0.28576 1.42879,0.57152 2.00029,0.7144 0.14289,0 0.28577,0.1429 0.42863,0.1429 0.71438,0.28577 1.2859,0.42863 2.00029,0.57152 h 0.28575 l 1.71454,0.42863 h 0.42862 c 0.57152,0.1429 1.2859,0.1429 1.85742,0.28575 h 0.42862 c 0.57152,0 1.14304,0 1.71454,0.1429 h 0.57152 c 0.71438,0 1.42876,0 2.28602,-0.1429 0.28576,0 0.42864,0 0.7144,-0.1429 0.71438,-0.1429 1.28589,-0.1429 2.00027,-0.28575 0.1429,0 0.42864,0 0.57152,-0.1429 0.85727,-0.1429 1.57166,-0.42862 2.42893,-0.57149 0.1429,0 0.28575,-0.1429 0.57149,-0.1429 0.57153,-0.1429 1.28591,-0.42864 1.85742,-0.7144 0.28575,-0.1429 0.42863,-0.1429 0.71438,-0.28575 0.71439,-0.28576 1.28591,-0.57151 2.00029,-0.85725 0.1429,0 0.28575,-0.1429 0.42864,-0.1429 0.71438,-0.42864 1.57165,-0.7144 2.28603,-1.14302 0.1429,-0.1429 0.42864,-0.28576 0.57151,-0.28576 0.57151,-0.28576 1.14302,-0.57151 1.71454,-1.00015 0.1429,-0.14289 0.42862,-0.28574 0.5715,-0.42863 0.71438,-0.42864 1.42879,-0.85727 2.14317,-1.42877 0.28575,-0.28575 0.71439,-0.42863 0.85727,-0.57152 0.14289,0 0.14289,-0.1429 0.28575,-0.1429 0.1429,-0.1429 0.28575,-0.1429 0.57151,-0.28576 0,0 0.1429,0 0.1429,-0.1429 0.1429,0 0.28575,-0.1429 0.42863,-0.1429 h 0.1429 c 0.1429,0 0.28575,0 0.28575,0.1429 0.1429,0 0.1429,0.1429 0.1429,0.28575 0,0.1429 0.1429,0.28575 0.1429,0.42864 v 1.42876 c 0,0.42864 -0.1429,1.00016 -0.1429,1.42879 0,0.5715 -0.1429,1.14302 -0.1429,1.71453 v 0.85726 c 0,0.57151 0,1.28589 0.1429,1.85741 0.1429,1.28591 0.28575,2.71468 0.71438,4.14344 0.28575,1.42878 0.85727,3.00044 1.57166,4.57209 0.28575,0.71438 0.71438,1.57165 1.14302,2.28603 0.42863,0.7144 0.85726,1.57166 1.42878,2.28605 1.14301,1.57166 2.42892,3.14331 4.00057,4.57208 0.85726,0.71439 1.71452,1.57165 2.57179,2.28605 3.28618,2.57178 7.42964,5.0007 12.57322,7.00099 0.5715,0.28575 1.14302,0.42864 1.8574,0.71439 0.1429,0 0.42864,0.14289 0.57152,0.14289 0.42864,0.1429 0.85726,0.28575 1.14302,0.42864 0.28575,0 0.42864,0.1429 0.57151,0.1429 0.42863,0.1429 0.71439,0.1429 1.14302,0.28575 0.1429,0 0.42864,0.14289 0.57151,0.14289 0.42862,0.1429 0.71438,0.1429 1.14302,0.28575 0.1429,0 0.42862,0.1429 0.57151,0.1429 0.42863,0.1429 0.85727,0.1429 1.2859,0.28576 h 0.28575 c 0.57152,0.1429 1.00016,0.1429 1.57165,0.1429 h 0.42864 c 0.28575,0 0.71438,0 1.00014,0.1429 h 3.42906 c 0.57152,0 1.00015,-0.1429 1.42879,-0.1429 h 0.42861 c 0.42864,0 0.71441,-0.1429 1.14303,-0.1429 h 0.28576 c 0.42864,-0.14289 0.85726,-0.14289 1.42877,-0.28576 h 0.28576 c 0.42863,-0.1429 0.71438,-0.1429 1.14302,-0.28575 0.1429,0 0.28575,-0.1429 0.42863,-0.1429 0.42864,-0.14289 0.71439,-0.28577 1.14302,-0.42863 h 0.1429 c 0.42863,-0.1429 0.85727,-0.28577 1.14303,-0.57152 0.1429,0 0.1429,-0.1429 0.28575,-0.1429 l 0.85727,-0.42863 c 0.1429,0 0.1429,-0.1429 0.28575,-0.1429 0.42863,-0.14289 0.71438,-0.42863 1.14302,-0.57151 0.14289,0 0.14289,-0.1429 0.28577,-0.1429 0.28575,-0.1429 0.5715,-0.28576 0.85724,-0.57152 0.1429,0 0.1429,-0.1429 0.28578,-0.1429 0.28574,-0.14289 0.57149,-0.42864 1.00013,-0.71438 0.28575,-0.28575 0.57151,-0.42864 1.00014,-0.71439 0.1429,0 0.1429,-0.1429 0.28575,-0.1429 0.28576,-0.14288 0.42864,-0.42862 0.7144,-0.57149 l 0.14288,-0.1429 c 0.28576,-0.28575 0.57151,-0.42864 0.85727,-0.71439 l 0.1429,-0.14289 c 0.28576,-0.1429 0.42864,-0.42864 0.7144,-0.5715 l 0.1429,-0.1429 c 0.28577,-0.28575 0.57152,-0.42864 0.71438,-0.71438 l 0.71441,-0.71439 0.1429,-0.1429 c 0.28576,-0.1429 0.42862,-0.42863 0.71439,-0.42863 h 0.1429 c 0.1429,-0.1429 0.28575,-0.1429 0.57151,-0.28575 h 0.1429 c 0.1429,0 0.28577,-0.1429 0.42863,-0.1429 h 0.42864 c 0,0 0.1429,0 0.1429,0.1429 l 0.1429,0.1429 c 0,0 0.14289,0.1429 0.14289,0.28576 0,0.1429 0.1429,0.28575 0.1429,0.42863 v 0.1429 c 0,0.1429 0,0.28575 0.1429,0.42864 v 2.42891 c 0.1429,2.71467 0.57151,5.42936 1.14303,8.00114 0.71439,2.57181 1.57166,5.00072 2.71467,7.42964 1.14302,2.28604 2.42892,4.57208 4.00057,6.71524 1.57165,2.14317 3.28619,4.00058 5.14359,5.85798 1.00015,0.85727 1.85741,1.71453 3.00044,2.5718 2.00028,1.57165 4.14343,3.00042 6.57235,4.28632 1.14302,0.57151 2.28606,1.14302 3.57194,1.71453 1.85741,0.71438 3.71481,1.42878 5.57222,1.8574 1.2859,0.28577 2.5718,0.57152 3.8577,0.71441 2.00029,0.28575 4.00057,0.42861 6.00086,0.42861 9.42991,0 18.28832,-3.28617 25.28932,-8.57264 0.42863,-0.28575 0.71438,-0.57152 1.14302,-0.85727 1.00015,-0.85727 2.00028,-1.71453 3.00043,-2.71467 1.42878,-1.42878 2.71467,-2.85755 3.85769,-4.57209 0.42863,-0.57149 0.71438,-1.14301 1.14302,-1.57165 1.8574,-2.71466 3.42906,-5.7151 4.57208,-8.8584 1.57166,-4.42921 2.57179,-9.28704 2.57179,-14.14488 0.1429,-3.85769 -0.42864,-7.28674 -1.28588,-10.57292 z m 257.4653,-98.01399 c -1.28589,-2.57179 -4.14345,-5.00072 -4.14345,-5.00072 l -6.14373,-5.28647 c -3.14329,-2.71467 -8.2869,-7.14387 -15.00214,-13.00184 C 710.6502,537.78225 607.6355,448.34093 580.20301,427.90944 c -16.00228,-11.28732 -25.14644,-16.71667 -32.14745,-19.1456 -4.00056,-1.00013 -8.14401,-2.00028 -13.43048,-2.00028 -5.28646,0 -10.85869,1.00015 -17.00243,2.85755 l -0.28575,0.1429 -0.28576,0.1429 c -13.71624,3.71482 -29.57564,16.14516 -44.86354,28.28976 -1.71453,1.28589 -3.28619,2.5718 -5.00072,3.85768 -18.71695,15.2879 -38.57692,30.43293 -55.57935,34.4335 h -0.28576 c -7.42963,1.57165 -15.00213,2.42892 -22.57464,2.42892 -21.57451,0 -39.71995,-6.71526 -48.43548,-18.00258 l -0.1429,-0.1429 -0.1429,-0.1429 c -7.00098,-9.28704 -5.57221,-22.14602 3.2862,-31.43305 l 40.14857,-44.29203 0.28575,-0.28576 0.28578,-0.28576 c 4.00056,-4.00057 8.00114,-8.00114 12.0017,-11.85882 -6.42949,1.14302 -12.71611,2.57178 -19.00271,4.00056 -4.71495,1.14302 -9.42991,2.28604 -14.002,3.42906 -2.85755,0.71438 -5.7151,1.57165 -8.57266,2.28603 -1.8574,0.42864 -3.85769,1.00015 -5.71509,1.42878 -2.85755,0.71439 -5.57223,1.42877 -8.2869,2.00029 -4.57207,1.00013 -9.14416,1.71454 -13.71625,2.14318 -1.8574,0.14288 -3.57194,0.28574 -5.42934,0.42862 h -2.71466 c -6.14374,0 -39.43421,-5.1436 -45.57794,-7.28676 -3.57195,-1.00014 -7.14388,-2.00027 -10.71582,-2.85754 -2.28603,-0.71439 -4.71495,-1.28591 -7.00101,-2.00029 -3.42904,-1.00015 -7.00098,-2.00029 -10.43005,-3.00043 -2.28603,-0.71439 -4.71496,-1.42877 -7.00098,-2.14316 -1.14302,-0.42863 -2.28606,-0.7144 -3.57194,-1.14304 -3.57195,-1.143 -7.00101,-2.28602 -10.57294,-3.42904 -2.42893,-0.71438 -4.71496,-1.57165 -7.14388,-2.42892 -3.57194,-1.28591 -7.28676,-2.5718 -11.00158,-4.00058 -2.57178,-1.00013 -5.00071,-1.8574 -7.5725,-2.85755 -1.71453,-0.57149 -3.28619,-1.2859 -5.00072,-2.00028 -1.85741,-0.71439 -3.71481,-1.42877 -5.7151,-2.28604 -1.00014,-0.42862 -1.85741,-0.71438 -2.85754,-1.14302 -3.42907,-1.42878 -7.00101,-2.85755 -10.71582,-4.4292 -1.85741,-0.71439 -3.71481,-1.57165 -5.57224,-2.42892 -5.28645,-2.28605 -10.85868,-4.71496 -16.57378,-7.42963 -5.57221,4.14345 -10.85868,8.42977 -16.14516,12.85897 -5.28647,4.4292 -10.28718,8.85841 -15.14501,13.28761 -1.57166,1.42878 -3.14332,3.00043 -4.71498,4.57209 -3.14329,3.00042 -6.2866,6.14372 -9.14416,9.28704 -3.00042,3.14331 -5.85796,6.2866 -8.71552,9.42991 -2.85755,3.14331 -5.57222,6.42949 -8.14403,9.71568 -2.71466,3.28618 -5.14358,6.57236 -7.715384,9.85853 -1.285884,1.71454 -2.428916,3.28619 -3.571936,5.00072 -3.571935,5.00071 -6.858119,10.14432 -10.001427,15.43077 -2.143152,3.42907 -4.000564,7.00101 -6.000852,10.43007 -10.430056,19.43135 -17.716815,39.71995 -21.574503,60.72294 8.286892,2.14318 22.860399,6.28663 28.003995,7.28676 35.719387,8.00114 65.009277,16.00228 88.726947,23.71767 4.14345,1.2859 8.28689,2.71468 12.14459,4.00057 11.57307,4.00057 21.71739,7.85825 30.43291,11.43021 4.4292,1.8574 8.57265,3.57194 12.28746,5.28645 1.14304,0.57152 2.42892,1.14302 3.57195,1.57166 7.85827,3.71481 14.43063,7.00101 19.57422,9.85855 l 3.00042,1.71454 c 0.42864,0.28575 1.00015,0.5715 1.42878,0.85726 1.42877,0.85726 2.85756,1.71453 4.14344,2.5718 0.42864,0.28575 0.7144,0.42863 1.14303,0.71438 0.42864,0.28576 0.85726,0.57152 1.14302,0.85727 0.28575,0.28575 0.71439,0.42863 1.00014,0.71438 0.42863,0.28576 1.00015,0.7144 1.42878,1.00015 0.42864,0.28576 0.71439,0.57151 1.00014,0.71438 0.1429,0.1429 0.28575,0.1429 0.42863,0.28576 0.42864,0.28576 0.85727,0.7144 1.28591,1.00015 9.14415,-9.85856 22.14602,-15.85941 37.00528,-15.85941 15.57365,0 29.43275,6.71525 38.57693,17.57394 8.28689,-5.42935 19.0027,-9.5728 32.00456,-9.5728 6.4295,0 13.00186,1.00014 19.43133,3.14332 14.43066,4.4292 23.43193,13.14472 28.86128,22.28888 4.71495,-1.57165 9.85855,-2.42892 15.57365,-2.42892 8.14402,0 16.57379,2.00029 25.00357,5.7151 12.85896,5.85798 22.14601,15.71653 26.71809,28.57551 2.85755,8.14401 3.57193,16.43092 3.28618,23.86055 31.86169,0.42862 57.72253,26.57522 57.72253,58.57978 0,9.71567 -2.42893,18.85983 -6.57238,27.00385 0.42864,0.1429 0.85727,0.42864 1.28591,0.57153 0.28575,0.14288 0.71438,0.28574 1.00014,0.42862 0.42864,0.28576 1.00014,0.42863 1.42877,0.71438 0.42863,0.1429 0.71438,0.28576 1.14302,0.42864 0.42863,0.1429 1.00015,0.42863 1.57165,0.57151 0.42864,0.14289 0.7144,0.28576 1.14302,0.42863 0.57152,0.28576 1.00014,0.42864 1.57167,0.71438 0.42862,0.1429 0.85725,0.28577 1.14301,0.42864 0.5715,0.1429 1.14302,0.42862 1.71452,0.57151 0.42863,0.1429 0.85727,0.28575 1.14304,0.42863 0.5715,0.28575 1.28588,0.42864 2.00028,0.5715 0.42863,0.1429 0.71438,0.28577 1.14302,0.42864 0.85727,0.28577 1.71452,0.57152 2.71467,0.7144 0.1429,0 0.28575,0.14289 0.42863,0.14289 1.00014,0.28577 2.14317,0.57152 3.14331,0.71441 0.28575,0 0.71438,0.1429 1.00014,0.1429 0.71439,0.14289 1.57166,0.28575 2.28604,0.42863 0.42864,0 0.85727,0.1429 1.2859,0.1429 0.71439,0.14289 1.42877,0.14289 2.00028,0.28575 0.42864,0 0.85727,0.1429 1.42878,0.1429 0.71438,0 1.28589,0.1429 2.00028,0.1429 h 4.42921 c 1.00014,0 2.14316,-0.1429 3.14329,-0.28576 1.85743,-0.28575 3.42908,-0.57151 5.00072,-0.85726 1.57166,-0.28576 2.85756,-0.7144 4.14346,-1.00015 1.28589,-0.42863 2.4289,-0.71439 3.42906,-1.14303 1.57164,-0.57149 2.85755,-1.28588 4.00056,-1.8574 0.71439,-0.42863 1.42877,-0.85727 2.00029,-1.2859 0.57151,-0.42864 1.14302,-0.85726 1.57166,-1.28588 0.71438,-0.57152 1.14301,-1.28591 1.57165,-1.85742 0.28576,-0.71438 0.71438,-1.2859 1.14302,-2.00029 0.14289,-0.28574 0.28576,-0.57149 0.42862,-0.71438 0.28577,-0.57152 0.42864,-1.2859 0.42864,-1.8574 0,-0.57152 -0.28575,-1.00016 -0.85726,-1.57167 l -19.14559,-21.28875 -19.00271,-21.14587 c 0,0 -4.14344,-4.14345 -4.57208,-6.71524 -0.1429,-0.57152 0,-1.14302 0.42864,-1.57165 0.1429,-0.1429 0.28575,-0.28575 0.42862,-0.28575 0,0 0.1429,0 0.1429,-0.1429 0.1429,0 0.1429,-0.1429 0.28577,-0.1429 h 0.85725 c 0.28577,0 0.42863,0 0.7144,0.1429 h 0.1429 c 0.28576,0 0.42864,0.1429 0.7144,0.28575 h 0.1429 l 0.85727,0.42863 c 0,0 0.1429,0 0.1429,0.1429 0.28574,0.1429 0.42862,0.28575 0.71438,0.42864 h 0.1429 c 0.28575,0.1429 0.5715,0.28575 0.85724,0.57149 l 0.1429,0.1429 c 0.28575,0.1429 0.57151,0.28575 0.85727,0.5715 h 0.1429 c 0.28575,0.1429 0.5715,0.42864 0.85725,0.57152 0.28577,0.1429 0.57152,0.42864 1.00015,0.57152 1.8574,1.57164 3.71482,3.1433 5.57222,4.85784 2.5718,2.28603 5.00072,4.42918 7.42964,6.71523 1.85741,1.71454 3.71481,3.42906 5.42934,5.1436 1.8574,1.71453 3.57194,3.42905 5.14359,5.00072 3.42907,3.28617 6.42949,6.2866 9.14416,9.00127 5.7151,5.7151 9.57281,9.71567 9.57281,9.71567 l 0.71438,0.71438 c 0.85727,0.7144 2.57178,2.00029 5.57222,3.14331 0.42863,0.1429 0.71438,0.28577 1.2859,0.42863 0.85727,0.28578 1.8574,0.57152 2.85755,0.85727 0.42863,0 0.85726,0.1429 1.28589,0.1429 h 7.28676 c 0.42863,0 0.85727,-0.1429 1.42878,-0.1429 h 0.57151 c 0.42862,0 0.85725,-0.14289 1.28589,-0.14289 0.1429,0 0.42863,0 0.57152,-0.1429 0.42863,-0.1429 1.00013,-0.1429 1.42877,-0.28575 h 0.42863 c 0.57151,-0.1429 1.2859,-0.28576 1.8574,-0.42864 0.1429,0 0.28577,-0.1429 0.42864,-0.1429 0.42863,-0.14289 1.00014,-0.28574 1.42878,-0.42863 0.1429,0 0.42863,-0.1429 0.57151,-0.1429 l 1.28589,-0.42863 c 0.1429,0 0.42863,-0.14289 0.57152,-0.14289 0.5715,-0.1429 1.14302,-0.42864 1.57164,-0.57152 0.1429,0 0.1429,0 0.28576,-0.1429 0.57151,-0.28576 1.2859,-0.57152 1.8574,-0.85727 0.1429,-0.1429 0.42864,-0.1429 0.57151,-0.28576 0.42864,-0.28575 0.85727,-0.42864 1.28591,-0.71439 0.1429,-0.14289 0.42863,-0.28574 0.5715,-0.28574 0.42863,-0.28576 0.85727,-0.42864 1.14304,-0.7144 0.1429,-0.14289 0.42861,-0.28576 0.5715,-0.28576 0.57152,-0.42863 1.14301,-0.71438 1.57165,-1.14302 1.00014,-1.00013 2.28605,-2.14315 3.57193,-3.1433 0.57152,-0.57151 1.14302,-1.00014 1.57165,-1.57166 0.28577,-0.28575 0.42864,-0.57151 0.71441,-0.71438 0.1429,-0.28576 0.28575,-0.57151 0.42862,-0.71438 0.28576,-0.42864 0.57151,-0.85726 0.85726,-1.14304 0.85727,-1.28588 1.42878,-2.57178 2.00029,-3.85768 0.1429,-0.57152 0.42863,-1.00015 0.42863,-1.57165 0.1429,-0.42863 0.28576,-1.00015 0.28576,-1.42879 0.1429,-0.71438 0.28575,-1.42876 0.28575,-2.14315 0.1429,-1.85741 -0.1429,-3.57194 -0.42863,-5.00072 -0.1429,-0.5715 -0.28575,-1.00013 -0.42864,-1.57165 0,-0.1429 -0.1429,-0.28575 -0.1429,-0.42864 -0.42861,-1.57165 -1.143,-2.85754 -1.71451,-4.00056 -1.14302,-2.28604 -2.28605,-3.57194 -2.28605,-3.57194 l -44.57779,-49.72138 -1.00013,-1.00015 c -0.1429,-0.1429 -0.28575,-0.28575 -0.42864,-0.5715 -0.28575,-0.42863 -0.71438,-0.71438 -1.00013,-1.14302 -0.28577,-0.42863 -0.71441,-0.85727 -1.00016,-1.2859 -0.14289,-0.28575 -0.28574,-0.42864 -0.42863,-0.71438 -0.57151,-0.85727 -0.85726,-1.85742 -0.85726,-2.5718 0,-0.42864 0.14289,-0.71439 0.42863,-1.00015 0.14289,-0.14288 0.28575,-0.28576 0.42863,-0.28576 0,0 0.1429,0 0.1429,-0.1429 0.1429,0 0.1429,-0.14289 0.28575,-0.14289 h 0.1429 c 0.14289,0 0.14289,0 0.28576,-0.1429 h 0.42862 c 0.28576,0 0.42863,0 0.71438,0.1429 h 0.1429 c 0.28576,0 0.42864,0.14289 0.7144,0.28574 h 0.14288 l 0.85726,0.42864 0.1429,0.1429 c 0.28575,0.1429 0.57151,0.28576 0.71438,0.42863 h 0.1429 c 0.28575,0.1429 0.57151,0.28575 0.85727,0.57151 0.1429,0 0.1429,0.1429 0.28575,0.1429 0.28575,0.14289 0.57151,0.28575 0.71438,0.57151 h 0.1429 c 0.28575,0.1429 0.57151,0.42863 0.85727,0.57151 0.28575,0.28576 0.71438,0.42862 1.00013,0.71438 0.85727,0.7144 1.85742,1.42878 2.71469,2.28605 4.71496,3.85768 10.00143,8.71552 15.43076,13.85911 1.14302,1.00015 2.14317,2.14317 3.28619,3.1433 4.4292,4.28634 9.00129,9.00129 13.71625,13.71625 5.85796,5.85799 11.71595,11.85884 17.57393,17.71681 l 0.42862,0.42863 c 0,0 0.1429,0 0.1429,0.1429 0.1429,0.1429 0.28575,0.1429 0.42864,0.28575 l 0.1429,0.1429 c 0.14289,0.1429 0.28575,0.1429 0.42863,0.28576 0,0 0.1429,0.1429 0.28575,0.1429 0.1429,0.14289 0.42863,0.28575 0.57152,0.42861 0,0 0.1429,0 0.1429,0.1429 0.28575,0.1429 0.5715,0.28575 0.85725,0.57152 0,0 0.14289,0 0.14289,0.1429 0.28575,0.1429 0.42864,0.28576 0.71439,0.42862 0.1429,0 0.28577,0.1429 0.28577,0.1429 0.28575,0.1429 0.42862,0.28576 0.71438,0.28576 0.1429,0 0.28575,0.14289 0.42864,0.14289 0.28575,0.1429 0.5715,0.28576 0.85726,0.28576 0.1429,0 0.28576,0.1429 0.28576,0.1429 0.42862,0.14288 0.85726,0.28574 1.143,0.42862 l 1.28591,0.42863 c 0.1429,0 0.28575,0.1429 0.42863,0.1429 0.28575,0.1429 0.71439,0.1429 1.00014,0.28577 0.14289,0 0.28577,0.1429 0.57152,0.1429 0.28574,0 0.57149,0.14289 1.00013,0.28575 0.1429,0 0.28577,0 0.42863,0.1429 0.42864,0 0.7144,0.1429 1.14302,0.1429 0.1429,0 0.28576,0 0.42864,0.1429 0.57152,0.14289 1.00014,0.14289 1.57166,0.14289 h 0.28575 c 0.42864,0 0.85727,0.14289 1.2859,0.14289 h 4.4292 c 0.42863,0 1.00015,-0.14289 1.42877,-0.14289 h 0.42864 c 0.42863,0 0.71438,-0.14289 1.14301,-0.14289 0.1429,0 0.28575,0 0.57153,-0.1429 0.42863,0 0.71438,-0.1429 1.14301,-0.28577 0.1429,0 0.28575,0 0.42864,-0.1429 0.5715,-0.1429 1.14302,-0.28575 1.57165,-0.42864 h 0.1429 c 0.57151,-0.14288 1.00015,-0.28574 1.57167,-0.42863 0.14288,0 0.28574,-0.14289 0.57149,-0.14289 0.42864,-0.1429 0.85727,-0.28576 1.14302,-0.42863 0.1429,0 0.42864,-0.1429 0.57151,-0.1429 0.42864,-0.1429 0.85727,-0.42864 1.42878,-0.57152 0.1429,0 0.28576,-0.1429 0.42862,-0.1429 l 1.71454,-0.85727 c 0.1429,0 0.28575,-0.14289 0.42864,-0.28576 0.42863,-0.28575 0.85727,-0.42864 1.42876,-0.71439 0.1429,-0.14289 0.42864,-0.14289 0.57153,-0.28574 0.42863,-0.28575 0.85725,-0.42864 1.28589,-0.71439 0.1429,-0.1429 0.42863,-0.1429 0.57151,-0.28577 0.57151,-0.42862 1.28589,-0.71438 1.85741,-1.14302 1.71452,-1.14302 3.28617,-2.42891 4.71496,-3.71481 1.42877,-1.28589 2.71466,-2.4289 3.71482,-3.71481 0.71438,-0.71438 1.28588,-1.57165 1.8574,-2.28605 1.14302,-1.57165 2.14316,-3.1433 2.85756,-4.71496 0.57149,-1.14301 1.00013,-2.42891 1.42876,-3.57193 0.42864,-1.14302 0.7144,-2.28603 0.85726,-3.42905 0.1429,-0.57152 0.1429,-1.14303 0.1429,-1.71454 0,-0.57151 0,-1.14302 0.1429,-1.71453 0,-1.14302 0,-2.14317 -0.1429,-3.14331 0,-0.71438 -0.1429,-1.2859 -0.28575,-1.8574 -0.28576,-1.2859 -0.57151,-2.42892 -1.00014,-3.57194 -0.42864,-1.14303 -0.85727,-2.28605 -1.42877,-3.42907 -0.28577,-0.57151 -0.57152,-1.00013 -0.71441,-1.57165 -0.57149,-1.00014 -1.14301,-1.8574 -1.71451,-2.71466 -2.14318,-3.42908 -4.28634,-5.42936 -4.28634,-5.42936 l -60.15144,-61.15157 c 0,0 -6.28661,-5.1436 -4.14343,-8.28691 0.14289,-0.14289 0.28574,-0.28575 0.42862,-0.28575 h 0.1429 c 0.1429,0 0.1429,-0.14289 0.28575,-0.14289 h 0.85725 c 0.28578,0 0.42864,0 0.7144,0.14289 h 0.1429 c 0.28575,0 0.42862,0.1429 0.71438,0.1429 h 0.14289 l 0.85727,0.42864 c 0,0 0.1429,0 0.1429,0.1429 0.28577,0.14289 0.57152,0.28575 0.71439,0.42862 h 0.1429 c 0.28577,0.1429 0.57152,0.28576 0.85727,0.57152 0,0 0.1429,0.1429 0.28577,0.1429 0.28575,0.1429 0.5715,0.28576 0.85725,0.57151 0.28577,0.1429 0.57152,0.42864 0.85727,0.57151 0.28576,0.1429 0.57151,0.42863 0.85727,0.57151 1.28589,1.00015 2.5718,2.14317 4.00056,3.42908 1.42878,1.28588 3.00044,2.57178 4.71496,4.00056 0.85726,0.71439 1.71453,1.42877 2.5718,2.28604 1.71454,1.57165 3.57194,3.1433 5.42934,4.71496 0.85726,0.85726 1.85742,1.71453 2.85755,2.5718 1.85741,1.71451 3.8577,3.42905 5.85799,5.28647 l 9.00127,8.144 c 6.00087,5.42935 11.85885,10.71582 17.14532,15.57366 0.85725,0.85726 1.71452,1.57166 2.57178,2.42891 10.14432,9.28704 17.43107,16.00229 17.43107,16.00229 h 0.28575 c 0.1429,0 0.1429,0.1429 0.28575,0.1429 h 0.14246 c 0.1429,0 0.28575,0.1429 0.42863,0.1429 0.1429,0.1429 0.42864,0.28575 0.71439,0.42863 h 0.14289 c 0.1429,0.1429 0.42864,0.28575 0.5715,0.28575 0.1429,0 0.1429,0.1429 0.28576,0.1429 0.28576,0.1429 0.42864,0.28575 0.7144,0.28575 0,0 0.14289,0.1429 0.28575,0.1429 0.28574,0.1429 0.71438,0.28575 1.00014,0.42863 h 0.1429 c 0.28576,0.1429 0.57152,0.28575 1.00014,0.42863 0.1429,0 0.28576,0.14289 0.28576,0.14289 l 0.85726,0.42864 c 0.1429,0 0.28576,0.1429 0.42864,0.1429 0.85727,0.28575 1.8574,0.5715 2.85755,0.85726 0.1429,0 0.28575,0.1429 0.42864,0.1429 0.42863,0.14289 0.71438,0.14289 1.14302,0.28574 0.1429,0 0.28575,0 0.5715,0.1429 0.42863,0.1429 0.85726,0.1429 1.2859,0.28576 h 0.28576 c 0.57151,0.14289 1.14302,0.14289 1.71453,0.28576 h 0.42862 c 0.42864,0 0.85727,0.1429 1.42879,0.1429 h 5.14359 c 0.5715,0 1.14301,-0.1429 1.71453,-0.1429 0.28575,0 0.42863,0 0.5715,-0.1429 0.71439,-0.14289 1.57166,-0.28574 2.28604,-0.42863 0.71439,-0.1429 1.57166,-0.42863 2.42892,-0.5715 0.28576,0 0.42864,-0.1429 0.7144,-0.1429 0.71438,-0.14289 1.28589,-0.42863 2.00029,-0.71438 0.14289,0 0.42863,-0.1429 0.57149,-0.1429 0.85727,-0.28575 1.71454,-0.71438 2.57181,-1.00013 0.14289,-0.1429 0.42863,-0.1429 0.5715,-0.28577 0.7144,-0.28575 1.42878,-0.71439 2.14316,-1.00013 0.28576,-0.1429 0.42864,-0.28578 0.7144,-0.42864 0.85726,-0.42863 1.71452,-1.00014 2.71466,-1.57165 2.14317,-1.42878 4.14345,-2.85755 5.85799,-4.57209 0.1429,-0.1429 0.42863,-0.42863 0.57149,-0.71438 0.42864,-0.57152 1.00016,-1.42878 1.71454,-2.5718 6.57238,-11.85883 2.85755,-22.00313 0.42864,-26.71809 z"
     style="fill:#ffffff;stroke-width:1.42877519"
     id="path4"
     inkscape:connector-curvature="0" />
</svg>
