<?xml version="1.0" encoding="UTF-8" standalone="no"?>
<svg
   xmlns:dc="http://purl.org/dc/elements/1.1/"
   xmlns:cc="http://creativecommons.org/ns#"
   xmlns:rdf="http://www.w3.org/1999/02/22-rdf-syntax-ns#"
   xmlns:svg="http://www.w3.org/2000/svg"
   xmlns="http://www.w3.org/2000/svg"
   xmlns:sodipodi="http://sodipodi.sourceforge.net/DTD/sodipodi-0.dtd"
   xmlns:inkscape="http://www.inkscape.org/namespaces/inkscape"
   version="1.1"
   id="svg2"
   xml:space="preserve"
   width="1492.64"
   height="768.05334"
   viewBox="0 0 1492.64 768.05334"
   sodipodi:docname="OH3EA21.eps"><metadata
     id="metadata8"><rdf:RDF><cc:Work
         rdf:about=""><dc:format>image/svg+xml</dc:format><dc:type
           rdf:resource="http://purl.org/dc/dcmitype/StillImage" /></cc:Work></rdf:RDF></metadata><defs
     id="defs6"><clipPath
       clipPathUnits="userSpaceOnUse"
       id="clipPath458"><path
         d="m 10085.6,320.563 h -1.5 V 3032.14 c 0,131.33 -106.44,237.8 -237.77,237.8 h 1.53 c 131.33,0 237.74,-106.47 237.74,-237.8 V 320.563"
         id="path456" /></clipPath></defs><sodipodi:namedview
     pagecolor="#ffffff"
     bordercolor="#666666"
     borderopacity="1"
     objecttolerance="10"
     gridtolerance="10"
     guidetolerance="10"
     inkscape:pageopacity="0"
     inkscape:pageshadow="2"
     inkscape:window-width="640"
     inkscape:window-height="480"
     id="namedview4" /><g
     id="g10"
     inkscape:groupmode="layer"
     inkscape:label="ink_ext_XXXXXX"
     transform="matrix(1.3333333,0,0,-1.3333333,0,768.05333)"><g
       id="g12"
       transform="scale(0.1)"><path
         d="m 4305.43,771.469 c -427.81,0 -820.95,7.14 -1131.01,19.09 v 2.32 c 307.17,-12.25 701.22,-19.609 1131.01,-19.609 532.09,0 1009.46,11.281 1334.9,29.152 V 799.73 C 5308.99,782.359 4833.6,771.469 4305.43,771.469 m 1334.9,143.851 c -21.64,1.192 -43.92,2.34 -66.87,3.469 0.54,0.82 1.07,1.641 1.59,2.473 22.32,-1.063 44.11,-2.141 65.28,-3.25 v -2.692"
         style="fill:#ffffff;fill-opacity:1;fill-rule:nonzero;stroke:none"
         id="path14" /><path
         d="m 4305.43,773.27 c -429.79,0 -823.84,7.359 -1131.01,19.609 v 2.34 c 304.02,-12.559 699.1,-20.149 1131.01,-20.149 536.4,0 1016.02,11.7 1334.9,30.11 v -2.758 C 5314.89,784.551 4837.52,773.27 4305.43,773.27 m 1334.9,139.293 c -22.09,1.269 -44.95,2.519 -68.55,3.726 0.57,0.832 1.13,1.66 1.68,2.5 22.95,-1.129 45.23,-2.277 66.87,-3.469 v -2.757"
         style="fill:#fafafa;fill-opacity:1;fill-rule:nonzero;stroke:none"
         id="path16" /><path
         d="m 4305.43,775.07 c -431.91,0 -826.99,7.59 -1131.01,20.149 v 2.39 c 300.59,-12.91 696.78,-20.75 1131.01,-20.75 541.18,0 1023.34,12.18 1334.9,31.172 v -2.851 c -318.88,-18.41 -798.5,-30.11 -1334.9,-30.11 m 1334.9,134.641 c -22.55,1.371 -46.03,2.711 -70.33,4.008 0.61,0.851 1.2,1.711 1.78,2.57 23.6,-1.207 46.46,-2.457 68.55,-3.726 v -2.852"
         style="fill:#f5f5f5;fill-opacity:1;fill-rule:nonzero;stroke:none"
         id="path18" /><path
         d="m 4305.43,776.859 c -434.23,0 -830.42,7.84 -1131.01,20.75 v 2.43 c 296.83,-13.269 694.28,-21.379 1131.01,-21.379 546.6,0 1031.58,12.699 1334.9,32.32 v -2.949 c -311.56,-18.992 -793.72,-31.172 -1334.9,-31.172 m 1334.9,129.903 c -23.07,1.488 -47.1,2.937 -72.22,4.347 0.64,0.864 1.27,1.743 1.89,2.61 24.3,-1.297 47.78,-2.637 70.33,-4.008 v -2.949"
         style="fill:#efeeee;fill-opacity:1;fill-rule:nonzero;stroke:none"
         id="path20" /><path
         d="m 4305.43,778.66 c -436.73,0 -834.18,8.11 -1131.01,21.379 v 2.473 c 292.71,-13.653 691.51,-22.051 1131.01,-22.051 552.68,0 1040.95,13.281 1334.9,33.59 v -3.071 c -303.32,-19.621 -788.3,-32.32 -1334.9,-32.32 m 1334.9,125.02 c -23.51,1.633 -48.31,3.211 -74.24,4.742 0.69,0.887 1.36,1.789 2.02,2.687 25.12,-1.41 49.15,-2.859 72.22,-4.347 v -3.082"
         style="fill:#e9e9e9;fill-opacity:1;fill-rule:nonzero;stroke:none"
         id="path22" /><path
         d="m 4305.43,780.461 c -439.5,0 -838.3,8.398 -1131.01,22.051 v 2.527 c 288.16,-14.07 688.45,-22.789 1131.01,-22.789 559.68,0 1051.73,13.941 1334.9,35.02 v -3.219 c -293.95,-20.309 -782.22,-33.59 -1334.9,-33.59 m 1334.9,120 c -24.02,1.789 -49.47,3.519 -76.41,5.211 0.74,0.91 1.46,1.828 2.17,2.75 25.93,-1.531 50.73,-3.109 74.24,-4.742 v -3.219"
         style="fill:#e4e4e4;fill-opacity:1;fill-rule:nonzero;stroke:none"
         id="path24" /><path
         d="m 4305.43,782.25 c -442.56,0 -842.85,8.719 -1131.01,22.789 v 2.582 c 283.1,-14.519 685.07,-23.582 1131.01,-23.582 567.79,0 1064.31,14.691 1334.9,36.633 v -3.402 c -283.17,-21.079 -775.22,-35.02 -1334.9,-35.02 m 1334.9,114.813 c -24.47,1.976 -50.72,3.898 -78.76,5.757 0.79,0.942 1.58,1.891 2.35,2.852 26.94,-1.692 52.39,-3.422 76.41,-5.211 v -3.398"
         style="fill:#dfdfdf;fill-opacity:1;fill-rule:nonzero;stroke:none"
         id="path26" /><path
         d="m 4305.43,784.039 c -445.94,0 -847.91,9.063 -1131.01,23.582 v 2.66 c 277.43,-15 681.32,-24.441 1131.01,-24.441 577.4,0 1079.28,15.57 1334.9,38.48 v -3.648 C 5369.74,798.73 4873.22,784.039 4305.43,784.039 m 1334.9,109.371 c -24.85,2.231 -51.99,4.379 -81.33,6.461 0.87,0.969 1.73,1.961 2.57,2.949 28.04,-1.859 54.29,-3.781 78.76,-5.757 v -3.653"
         style="fill:#d9d8d8;fill-opacity:1;fill-rule:nonzero;stroke:none"
         id="path28" /><path
         d="m 4305.43,785.84 c -449.69,0 -853.58,9.441 -1131.01,24.441 v 2.75 c 271.04,-15.531 677.09,-25.402 1131.01,-25.402 589.04,0 1097.56,16.621 1334.9,40.66 v -3.969 c -255.62,-22.91 -757.5,-38.48 -1334.9,-38.48 m 1334.9,103.601 c -25.09,2.539 -53.23,5 -84.16,7.36 0.96,1.012 1.91,2.039 2.83,3.07 29.34,-2.082 56.48,-4.23 81.33,-6.461 v -3.969"
         style="fill:#d4d3d3;fill-opacity:1;fill-rule:nonzero;stroke:none"
         id="path30" /><path
         d="m 4305.43,787.629 c -453.92,0 -859.97,9.871 -1131.01,25.402 v 2.84 c 263.76,-16.101 672.32,-26.441 1131.01,-26.441 603.8,0 1120.8,17.91 1334.9,43.32 v -4.461 c -237.34,-24.039 -745.86,-40.66 -1334.9,-40.66 m 1334.9,97.351 c -25.07,2.969 -54.29,5.84 -87.31,8.602 1.07,1.059 2.12,2.129 3.15,3.219 30.93,-2.36 59.07,-4.821 84.16,-7.36 v -4.461"
         style="fill:#cfcece;fill-opacity:1;fill-rule:nonzero;stroke:none"
         id="path32" /><path
         d="m 4305.43,789.43 c -458.69,0 -867.25,10.34 -1131.01,26.441 v 2.969 c 255.39,-16.75 666.88,-27.61 1131.01,-27.61 623.74,0 1152.39,19.622 1334.9,46.762 v -5.242 c -214.1,-25.41 -731.1,-43.32 -1334.9,-43.32 m 1334.9,90.312 c -24.35,3.617 -54.83,7.098 -90.9,10.43 1.22,1.109 2.41,2.25 3.59,3.41 33.02,-2.762 62.24,-5.633 87.31,-8.602 v -5.238"
         style="fill:#c9c9c9;fill-opacity:1;fill-rule:nonzero;stroke:none"
         id="path34" /><path
         d="m 4305.43,791.23 c -464.13,0 -875.62,10.86 -1131.01,27.61 v 3.109 c 245.62,-17.457 660.51,-28.918 1131.01,-28.918 654.78,0 1201.9,22.211 1334.9,51.86 v -6.899 C 5457.82,810.852 4929.17,791.23 4305.43,791.23 m 1334.9,81.622 c -21.4,4.757 -53.51,9.339 -95.07,13.66 1.42,1.187 2.81,2.41 4.17,3.66 36.07,-3.332 66.55,-6.813 90.9,-10.43 v -6.89"
         style="fill:#c4c3c3;fill-opacity:1;fill-rule:nonzero;stroke:none"
         id="path36" /><path
         d="m 4305.43,793.031 c -470.5,0 -885.39,11.461 -1131.01,28.918 v 3.301 c 234.02,-18.258 653.01,-30.43 1131.01,-30.43 733.73,0 1328.49,28.68 1328.49,64.059 0,8.351 -33.21,16.332 -93.66,23.652 1.71,1.289 3.38,2.621 5,3.981 41.56,-4.321 73.67,-8.903 95.07,-13.66 v -27.961 c -133,-29.649 -680.12,-51.86 -1334.9,-51.86"
         style="fill:#bebdbd;fill-opacity:1;fill-rule:nonzero;stroke:none"
         id="path38" /><path
         d="m 4305.43,794.82 c -478,0 -896.99,12.172 -1131.01,30.43 v 3.563 c 219.93,-19.192 643.96,-32.192 1131.01,-32.192 713.15,0 1291.22,27.871 1291.22,62.258 0,6.691 -22.01,13.152 -62.71,19.203 2.17,1.418 4.27,2.898 6.32,4.449 60.45,-7.32 93.66,-15.301 93.66,-23.652 0,-35.379 -594.76,-64.059 -1328.49,-64.059"
         style="fill:#b9b8b8;fill-opacity:1;fill-rule:nonzero;stroke:none"
         id="path40" /><path
         d="m 4305.43,796.621 c -487.05,0 -911.08,13 -1131.01,32.192 v 3.917 c 202.23,-20.3 632.65,-34.308 1131.01,-34.308 692.57,0 1253.96,27.058 1253.96,60.457 0,4.84 -11.81,9.543 -34.13,14.051 2.99,1.601 5.89,3.32 8.68,5.152 40.7,-6.051 62.71,-12.512 62.71,-19.203 0,-34.387 -578.07,-62.258 -1291.22,-62.258"
         style="fill:#b4b3b3;fill-opacity:1;fill-rule:nonzero;stroke:none"
         id="path42" /><path
         d="m 4305.43,798.422 c -498.36,0 -928.78,14.008 -1131.01,34.308 v 4.481 c 178.78,-21.68 617.77,-37 1131.01,-37 671.98,0 1216.69,26.258 1216.69,58.668 0,2.652 -3.65,5.262 -10.74,7.82 4.86,1.793 9.48,3.883 13.88,6.231 22.32,-4.508 34.13,-9.211 34.13,-14.051 0,-33.399 -561.39,-60.457 -1253.96,-60.457"
         style="fill:#aeadad;fill-opacity:1;fill-rule:nonzero;stroke:none"
         id="path44" /><path
         d="m 4305.43,800.211 c -513.24,0 -952.23,15.32 -1131.01,37 v 5.48 c 144.56,-23.519 596.19,-40.679 1131.01,-40.679 651.4,0 1179.42,25.449 1179.42,56.867 0,0.5 -0.13,1.012 -0.41,1.512 9.69,1.089 18.65,3.261 26.94,6.308 7.09,-2.558 10.74,-5.168 10.74,-7.82 0,-32.41 -544.71,-58.668 -1216.69,-58.668"
         style="fill:#a8a7a7;fill-opacity:1;fill-rule:nonzero;stroke:none"
         id="path46" /><path
         d="m 4305.43,802.012 c -534.82,0 -986.45,17.16 -1131.01,40.679 v 8.461 c 77.93,-26.761 554.56,-47.339 1131.01,-47.339 630.82,0 1142.16,24.648 1142.16,55.066 0,0.242 -0.04,0.48 -0.1,0.723 h 22.49 c 4.99,0 9.81,0.269 14.46,0.789 0.28,-0.5 0.41,-1.012 0.41,-1.512 0,-31.418 -528.02,-56.867 -1179.42,-56.867"
         style="fill:#a3a2a2;fill-opacity:1;fill-rule:nonzero;stroke:none"
         id="path48" /><path
         d="m 4305.43,803.813 c -576.45,0 -1053.08,20.578 -1131.01,47.339 v 8.758 c 2.97,-0.211 5.99,-0.308 9.08,-0.308 h 17.13 c -0.06,-0.243 -0.1,-0.481 -0.1,-0.723 0,-29.43 494.62,-53.277 1104.9,-53.277 610.23,0 1104.89,23.847 1104.89,53.277 0,0.242 -0.03,0.48 -0.1,0.723 h 37.27 c 0.06,-0.243 0.1,-0.481 0.1,-0.723 0,-30.418 -511.34,-55.066 -1142.16,-55.066"
         style="fill:#9e9c9c;fill-opacity:1;fill-rule:nonzero;stroke:none"
         id="path50" /><path
         d="m 4305.43,805.602 c -610.28,0 -1104.9,23.847 -1104.9,53.277 0,0.242 0.04,0.48 0.1,0.723 h 37.28 c -0.07,-0.243 -0.11,-0.481 -0.11,-0.723 0,-28.438 477.93,-51.477 1067.63,-51.477 589.65,0 1067.63,23.039 1067.63,51.477 0,0.242 -0.04,0.48 -0.11,0.723 h 37.27 c 0.07,-0.243 0.1,-0.481 0.1,-0.723 0,-29.43 -494.66,-53.277 -1104.89,-53.277"
         style="fill:#999797;fill-opacity:1;fill-rule:nonzero;stroke:none"
         id="path52" /><path
         d="m 4305.43,807.402 c -589.7,0 -1067.63,23.039 -1067.63,51.477 0,0.242 0.04,0.48 0.11,0.723 h 37.26 c -0.07,-0.243 -0.1,-0.481 -0.1,-0.723 0,-27.449 461.24,-49.688 1030.36,-49.688 569.07,0 1030.36,22.239 1030.36,49.688 0,0.242 -0.03,0.48 -0.11,0.723 h 37.27 c 0.07,-0.243 0.11,-0.481 0.11,-0.723 0,-28.438 -477.98,-51.477 -1067.63,-51.477"
         style="fill:#939292;fill-opacity:1;fill-rule:nonzero;stroke:none"
         id="path54" /><path
         d="m 4305.43,809.191 c -569.12,0 -1030.36,22.239 -1030.36,49.688 0,0.242 0.03,0.48 0.1,0.723 h 37.28 c -0.08,-0.243 -0.12,-0.481 -0.12,-0.723 0,-26.457 444.57,-47.899 993.1,-47.899 548.48,0 993.09,21.442 993.09,47.899 0,0.242 -0.03,0.48 -0.11,0.723 h 37.27 c 0.08,-0.243 0.11,-0.481 0.11,-0.723 0,-27.449 -461.29,-49.688 -1030.36,-49.688"
         style="fill:#8d8c8c;fill-opacity:1;fill-rule:nonzero;stroke:none"
         id="path56" /><path
         d="m 4305.43,810.98 c -548.53,0 -993.1,21.442 -993.1,47.899 0,0.242 0.04,0.48 0.12,0.723 h 37.27 c -0.08,-0.243 -0.12,-0.481 -0.12,-0.723 0,-25.457 427.88,-46.098 955.83,-46.098 527.9,0 955.83,20.641 955.83,46.098 0,0.242 -0.04,0.48 -0.12,0.723 h 37.27 c 0.08,-0.243 0.11,-0.481 0.11,-0.723 0,-26.457 -444.61,-47.899 -993.09,-47.899"
         style="fill:#888686;fill-opacity:1;fill-rule:nonzero;stroke:none"
         id="path58" /><path
         d="m 4305.43,812.781 c -527.95,0 -955.83,20.641 -955.83,46.098 0,0.242 0.04,0.48 0.12,0.723 h 37.26 c -0.08,-0.243 -0.12,-0.481 -0.12,-0.723 0,-24.469 411.2,-44.297 918.57,-44.297 507.32,0 918.56,19.828 918.56,44.297 0,0.242 -0.04,0.48 -0.12,0.723 h 37.27 c 0.08,-0.243 0.12,-0.481 0.12,-0.723 0,-25.457 -427.93,-46.098 -955.83,-46.098"
         style="fill:#838181;fill-opacity:1;fill-rule:nonzero;stroke:none"
         id="path60" /><path
         d="m 4305.43,814.582 c -507.37,0 -918.57,19.828 -918.57,44.297 0,0.242 0.04,0.48 0.12,0.723 h 37.28 c -0.09,-0.243 -0.13,-0.481 -0.13,-0.723 0,-23.477 394.51,-42.5 881.3,-42.5 486.73,0 881.3,19.023 881.3,42.5 0,0.242 -0.04,0.48 -0.13,0.723 h 37.27 c 0.08,-0.243 0.12,-0.481 0.12,-0.723 0,-24.469 -411.24,-44.297 -918.56,-44.297"
         style="fill:#7e7c7c;fill-opacity:1;fill-rule:nonzero;stroke:none"
         id="path62" /><path
         d="m 4305.43,816.379 c -486.79,0 -881.3,19.023 -881.3,42.5 0,0.242 0.04,0.48 0.13,0.723 h 37.27 c -0.09,-0.243 -0.13,-0.481 -0.13,-0.723 0,-22.488 377.82,-40.707 844.03,-40.707 466.15,0 844.03,18.219 844.03,40.707 0,0.242 -0.04,0.48 -0.13,0.723 h 37.27 c 0.09,-0.243 0.13,-0.481 0.13,-0.723 0,-23.477 -394.57,-42.5 -881.3,-42.5"
         style="fill:#797777;fill-opacity:1;fill-rule:nonzero;stroke:none"
         id="path64" /><path
         d="m 4305.43,818.172 c -466.21,0 -844.03,18.219 -844.03,40.707 0,0.242 0.04,0.48 0.13,0.723 h 37.27 c -0.09,-0.243 -0.14,-0.481 -0.14,-0.723 0,-21.5 361.15,-38.91 806.77,-38.91 445.56,0 806.77,17.41 806.77,38.91 0,0.242 -0.05,0.48 -0.14,0.723 h 37.27 c 0.09,-0.243 0.13,-0.481 0.13,-0.723 0,-22.488 -377.88,-40.707 -844.03,-40.707"
         style="fill:#737171;fill-opacity:1;fill-rule:nonzero;stroke:none"
         id="path66" /><path
         d="m 4305.43,819.969 c -445.62,0 -806.77,17.41 -806.77,38.91 0,0.242 0.05,0.48 0.14,0.723 h 37.28 c -0.1,-0.243 -0.15,-0.481 -0.15,-0.723 0,-20.5 344.45,-37.109 769.5,-37.109 424.98,0 769.5,16.609 769.5,37.109 0,0.242 -0.04,0.48 -0.14,0.723 h 37.27 c 0.09,-0.243 0.14,-0.481 0.14,-0.723 0,-21.5 -361.21,-38.91 -806.77,-38.91"
         style="fill:#6d6b6b;fill-opacity:1;fill-rule:nonzero;stroke:none"
         id="path68" /><path
         d="m 4305.43,821.77 c -425.05,0 -769.5,16.609 -769.5,37.109 0,0.242 0.05,0.48 0.15,0.723 h 37.27 c -0.1,-0.243 -0.15,-0.481 -0.15,-0.723 0,-19.508 327.77,-35.316 732.23,-35.316 404.39,0 732.24,15.808 732.24,35.316 0,0.242 -0.06,0.48 -0.16,0.723 h 37.28 c 0.1,-0.243 0.14,-0.481 0.14,-0.723 0,-20.5 -344.52,-37.109 -769.5,-37.109"
         style="fill:#686666;fill-opacity:1;fill-rule:nonzero;stroke:none"
         id="path70" /><path
         d="m 4305.43,823.563 c -404.46,0 -732.23,15.808 -732.23,35.316 0,0.242 0.05,0.48 0.15,0.723 h 37.27 c -0.1,-0.243 -0.16,-0.481 -0.16,-0.723 0,-18.52 311.09,-33.52 694.97,-33.52 383.81,0 694.97,15 694.97,33.52 0,0.242 -0.05,0.48 -0.16,0.723 h 37.27 c 0.1,-0.243 0.16,-0.481 0.16,-0.723 0,-19.508 -327.85,-35.316 -732.24,-35.316"
         style="fill:#636161;fill-opacity:1;fill-rule:nonzero;stroke:none"
         id="path72" /><path
         d="m 4305.43,825.359 c -383.88,0 -694.97,15 -694.97,33.52 0,0.242 0.06,0.48 0.16,0.723 h 37.28 c -0.11,-0.243 -0.17,-0.481 -0.17,-0.723 0,-17.52 294.4,-31.719 657.7,-31.719 363.23,0 657.71,14.199 657.71,31.719 0,0.242 -0.06,0.48 -0.17,0.723 h 37.27 c 0.11,-0.243 0.16,-0.481 0.16,-0.723 0,-18.52 -311.16,-33.52 -694.97,-33.52"
         style="fill:#5d5b5b;fill-opacity:1;fill-rule:nonzero;stroke:none"
         id="path74" /><path
         d="m 4305.43,827.16 c -363.3,0 -657.7,14.199 -657.7,31.719 0,0.242 0.06,0.48 0.17,0.723 h 37.27 c -0.12,-0.243 -0.18,-0.481 -0.18,-0.723 0,-16.527 277.72,-29.93 620.44,-29.93 342.65,0 620.44,13.403 620.44,29.93 0,0.242 -0.06,0.48 -0.18,0.723 h 37.28 c 0.11,-0.243 0.17,-0.481 0.17,-0.723 0,-17.52 -294.48,-31.719 -657.71,-31.719"
         style="fill:#585555;fill-opacity:1;fill-rule:nonzero;stroke:none"
         id="path76" /><path
         d="m 4305.43,828.949 c -342.72,0 -620.44,13.403 -620.44,29.93 0,0.242 0.06,0.48 0.18,0.723 h 37.28 c -0.12,-0.243 -0.19,-0.481 -0.19,-0.723 0,-15.539 261.03,-28.129 583.17,-28.129 322.06,0 583.17,12.59 583.17,28.129 0,0.242 -0.06,0.48 -0.19,0.723 h 37.28 c 0.12,-0.243 0.18,-0.481 0.18,-0.723 0,-16.527 -277.79,-29.93 -620.44,-29.93"
         style="fill:#535050;fill-opacity:1;fill-rule:nonzero;stroke:none"
         id="path78" /><path
         d="m 4305.43,830.75 c -322.14,0 -583.17,12.59 -583.17,28.129 0,0.242 0.07,0.48 0.19,0.723 h 37.28 c -0.13,-0.243 -0.2,-0.481 -0.2,-0.723 0,-14.547 244.34,-26.328 545.9,-26.328 301.48,0 545.91,11.781 545.91,26.328 0,0.242 -0.07,0.48 -0.2,0.723 h 37.27 c 0.13,-0.243 0.19,-0.481 0.19,-0.723 0,-15.539 -261.11,-28.129 -583.17,-28.129"
         style="fill:#4d4b4b;fill-opacity:1;fill-rule:nonzero;stroke:none"
         id="path80" /><path
         d="m 4305.43,832.551 c -301.56,0 -545.9,11.781 -545.9,26.328 0,0.242 0.07,0.48 0.2,0.723 h 37.28 c -0.14,-0.243 -0.22,-0.481 -0.22,-0.723 0,-13.559 227.66,-24.539 508.64,-24.539 280.89,0 508.64,10.98 508.64,24.539 0,0.242 -0.07,0.48 -0.21,0.723 h 37.28 c 0.13,-0.243 0.2,-0.481 0.2,-0.723 0,-14.547 -244.43,-26.328 -545.91,-26.328"
         style="fill:#484646;fill-opacity:1;fill-rule:nonzero;stroke:none"
         id="path82" /><path
         d="m 4305.43,834.34 c -280.98,0 -508.64,10.98 -508.64,24.539 0,0.242 0.08,0.48 0.22,0.723 h 37.28 c -0.16,-0.243 -0.23,-0.481 -0.23,-0.723 0,-12.559 210.98,-22.75 471.37,-22.75 260.31,0 471.38,10.191 471.38,22.75 0,0.242 -0.08,0.48 -0.24,0.723 h 37.29 c 0.14,-0.243 0.21,-0.481 0.21,-0.723 0,-13.559 -227.75,-24.539 -508.64,-24.539"
         style="fill:#423f3f;fill-opacity:1;fill-rule:nonzero;stroke:none"
         id="path84" /><path
         d="m 4305.43,836.129 c -260.39,0 -471.37,10.191 -471.37,22.75 0,0.242 0.07,0.48 0.23,0.723 h 37.29 c -0.17,-0.243 -0.25,-0.481 -0.25,-0.723 0,-11.566 194.29,-20.949 434.1,-20.949 239.73,0 434.11,9.383 434.11,20.949 0,0.242 -0.08,0.48 -0.26,0.723 h 37.29 c 0.16,-0.243 0.24,-0.481 0.24,-0.723 0,-12.559 -211.07,-22.75 -471.38,-22.75"
         style="fill:#3d3a3a;fill-opacity:1;fill-rule:nonzero;stroke:none"
         id="path86" /><path
         d="m 4305.43,837.93 c -239.81,0 -434.1,9.383 -434.1,20.949 0,0.242 0.08,0.48 0.25,0.723 h 37.29 c -0.18,-0.243 -0.28,-0.481 -0.28,-0.723 0,-10.578 177.61,-19.16 396.84,-19.16 219.15,0 396.85,8.582 396.85,19.16 0,0.242 -0.1,0.48 -0.28,0.723 h 37.28 c 0.18,-0.243 0.26,-0.481 0.26,-0.723 0,-11.566 -194.38,-20.949 -434.11,-20.949"
         style="fill:#383535;fill-opacity:1;fill-rule:nonzero;stroke:none"
         id="path88" /><path
         d="m 4305.43,839.719 c -219.23,0 -396.84,8.582 -396.84,19.16 0,0.242 0.1,0.48 0.28,0.723 h 37.3 c -0.21,-0.243 -0.31,-0.481 -0.31,-0.723 0,-9.59 160.92,-17.359 359.57,-17.359 198.56,0 359.58,7.769 359.58,17.359 0,0.242 -0.11,0.48 -0.31,0.723 h 37.3 c 0.18,-0.243 0.28,-0.481 0.28,-0.723 0,-10.578 -177.7,-19.16 -396.85,-19.16"
         style="fill:#323030;fill-opacity:1;fill-rule:nonzero;stroke:none"
         id="path90" /><path
         d="m 4305.43,841.52 c -198.65,0 -359.57,7.769 -359.57,17.359 0,0.242 0.1,0.48 0.31,0.723 h 37.3 c -0.23,-0.243 -0.35,-0.481 -0.35,-0.723 0,-8.598 144.24,-15.559 322.31,-15.559 177.98,0 322.31,6.961 322.31,15.559 0,0.242 -0.11,0.48 -0.34,0.723 h 37.3 c 0.2,-0.243 0.31,-0.481 0.31,-0.723 0,-9.59 -161.02,-17.359 -359.58,-17.359"
         style="fill:#2c2a2a;fill-opacity:1;fill-rule:nonzero;stroke:none"
         id="path92" /><path
         d="m 4305.43,843.32 c -178.07,0 -322.31,6.961 -322.31,15.559 0,0.242 0.12,0.48 0.35,0.723 h 643.93 c 0.23,-0.243 0.34,-0.481 0.34,-0.723 0,-8.598 -144.33,-15.559 -322.31,-15.559"
         style="fill:#272424;fill-opacity:1;fill-rule:nonzero;stroke:none"
         id="path94" /><path
         d="m 4590.48,858.879 c 0,-7.598 -127.66,-13.758 -285.05,-13.758 -157.49,0 -285.04,6.16 -285.04,13.758 0,7.551 127.55,13.711 285.04,13.711 157.39,0 285.05,-6.16 285.05,-13.711"
         style="fill:#221f1f;fill-opacity:1;fill-rule:nonzero;stroke:none"
         id="path96" /><path
         d="m 7875.07,4.32031 c -1833.56,0 -3319.75,50.85939 -3319.75,113.62069 0,62.7 1486.19,113.649 3319.75,113.649 1833.57,0 3319.73,-50.949 3319.73,-113.649 C 11194.8,55.1797 9708.64,4.32031 7875.07,4.32031 m 0,224.94169 c -1795.88,0 -3251.51,-49.91 -3251.51,-111.321 0,-61.4683 1455.63,-111.28084 3251.51,-111.28084 1795.87,0 3251.43,49.81254 3251.43,111.28084 0,61.411 -1455.56,111.321 -3251.43,111.321"
         style="fill:#ffffff;fill-opacity:1;fill-rule:nonzero;stroke:none"
         id="path98" /><path
         d="m 7875.07,6.66016 c -1795.88,0 -3251.51,49.81254 -3251.51,111.28084 0,61.411 1455.63,111.321 3251.51,111.321 1795.87,0 3251.43,-49.91 3251.43,-111.321 C 11126.5,56.4727 9670.94,6.66016 7875.07,6.66016 m 0,220.24984 C 6116.88,226.91 4691.8,178.07 4691.8,117.941 4691.8,57.7617 6116.88,8.99219 7875.07,8.99219 c 1758.19,0 3183.23,48.76951 3183.23,108.94881 0,60.129 -1425.04,108.969 -3183.23,108.969"
         style="fill:#fafafa;fill-opacity:1;fill-rule:nonzero;stroke:none"
         id="path100" /><path
         d="m 7875.07,8.99219 c -1758.19,0 -3183.27,48.76951 -3183.27,108.94881 0,60.129 1425.08,108.969 3183.27,108.969 1758.19,0 3183.23,-48.84 3183.23,-108.969 C 11058.3,57.7617 9633.26,8.99219 7875.07,8.99219 m 0,215.58981 c -1720.49,0 -3115.04,-47.801 -3115.04,-106.641 0,-58.8902 1394.55,-106.609 3115.04,-106.609 1720.49,0 3115.03,47.7188 3115.03,106.609 0,58.84 -1394.54,106.641 -3115.03,106.641"
         style="fill:#f5f5f5;fill-opacity:1;fill-rule:nonzero;stroke:none"
         id="path102" /><path
         d="m 7875.07,11.332 c -1720.49,0 -3115.04,47.7188 -3115.04,106.609 0,58.84 1394.55,106.641 3115.04,106.641 1720.49,0 3115.03,-47.801 3115.03,-106.641 0,-58.8902 -1394.54,-106.609 -3115.03,-106.609 m 0,210.91 c -1682.81,0 -3046.79,-46.75 -3046.79,-104.301 0,-57.6012 1363.98,-104.2808 3046.79,-104.2808 1682.8,0 3046.73,46.6796 3046.73,104.2808 0,57.551 -1363.93,104.301 -3046.73,104.301"
         style="fill:#efeeee;fill-opacity:1;fill-rule:nonzero;stroke:none"
         id="path104" /><path
         d="m 7875.07,13.6602 c -1682.81,0 -3046.79,46.6796 -3046.79,104.2808 0,57.551 1363.98,104.301 3046.79,104.301 1682.8,0 3046.73,-46.75 3046.73,-104.301 0,-57.6012 -1363.93,-104.2808 -3046.73,-104.2808 m 0,206.2418 c -1645.12,0 -2978.56,-45.703 -2978.56,-101.961 0,-56.3121 1333.44,-101.9488 2978.56,-101.9488 1645.11,0 2978.53,45.6367 2978.53,101.9488 0,56.258 -1333.42,101.961 -2978.53,101.961"
         style="fill:#e9e9e9;fill-opacity:1;fill-rule:nonzero;stroke:none"
         id="path106" /><path
         d="m 7875.07,15.9922 c -1645.12,0 -2978.56,45.6367 -2978.56,101.9488 0,56.258 1333.44,101.961 2978.56,101.961 1645.11,0 2978.53,-45.703 2978.53,-101.961 0,-56.3121 -1333.42,-101.9488 -2978.53,-101.9488 m 0,201.5778 c -1607.44,0 -2910.31,-44.66 -2910.31,-99.629 0,-55.0191 1302.87,-99.6012 2910.31,-99.6012 1607.41,0 2910.33,44.5821 2910.33,99.6012 0,54.969 -1302.92,99.629 -2910.33,99.629"
         style="fill:#e4e4e4;fill-opacity:1;fill-rule:nonzero;stroke:none"
         id="path108" /><path
         d="m 7875.07,18.3398 c -1607.44,0 -2910.31,44.5821 -2910.31,99.6012 0,54.969 1302.87,99.629 2910.31,99.629 1607.41,0 2910.33,-44.66 2910.33,-99.629 0,-55.0191 -1302.92,-99.6012 -2910.33,-99.6012 m 0,196.8902 c -1569.74,0 -2842.08,-43.609 -2842.08,-97.289 0,-53.7301 1272.34,-97.2691 2842.08,-97.2691 1569.73,0 2842.03,43.539 2842.03,97.2691 0,53.68 -1272.3,97.289 -2842.03,97.289"
         style="fill:#dfdfdf;fill-opacity:1;fill-rule:nonzero;stroke:none"
         id="path110" /><path
         d="m 7875.07,20.6719 c -1569.74,0 -2842.08,43.539 -2842.08,97.2691 0,53.68 1272.34,97.289 2842.08,97.289 1569.73,0 2842.03,-43.609 2842.03,-97.289 0,-53.7301 -1272.3,-97.2691 -2842.03,-97.2691 m 0,192.2191 c -1532.06,0 -2773.84,-42.559 -2773.84,-94.95 0,-52.441 1241.78,-94.9293 2773.84,-94.9293 1532.04,0 2773.83,42.4883 2773.83,94.9293 0,52.391 -1241.79,94.95 -2773.83,94.95"
         style="fill:#d9d8d8;fill-opacity:1;fill-rule:nonzero;stroke:none"
         id="path112" /><path
         d="m 7875.07,23.0117 c -1532.06,0 -2773.84,42.4883 -2773.84,94.9293 0,52.391 1241.78,94.95 2773.84,94.95 1532.04,0 2773.83,-42.559 2773.83,-94.95 0,-52.441 -1241.79,-94.9293 -2773.83,-94.9293 m 0,187.5513 c -1494.37,0 -2705.6,-41.524 -2705.6,-92.622 0,-51.1519 1211.23,-92.6012 2705.6,-92.6012 1494.35,0 2705.53,41.4493 2705.53,92.6012 0,51.098 -1211.18,92.622 -2705.53,92.622"
         style="fill:#d4d3d3;fill-opacity:1;fill-rule:nonzero;stroke:none"
         id="path114" /><path
         d="m 7875.07,25.3398 c -1494.37,0 -2705.6,41.4493 -2705.6,92.6012 0,51.098 1211.23,92.622 2705.6,92.622 1494.35,0 2705.53,-41.524 2705.53,-92.622 0,-51.1519 -1211.18,-92.6012 -2705.53,-92.6012 m 0,182.8832 c -1456.69,0 -2637.36,-40.473 -2637.36,-90.282 0,-49.859 1180.67,-90.2613 2637.36,-90.2613 1456.65,0 2637.33,40.4023 2637.33,90.2613 0,49.809 -1180.68,90.282 -2637.33,90.282"
         style="fill:#cfcece;fill-opacity:1;fill-rule:nonzero;stroke:none"
         id="path116" /><path
         d="m 7875.07,27.6797 c -1456.69,0 -2637.36,40.4023 -2637.36,90.2613 0,49.809 1180.67,90.282 2637.36,90.282 1456.65,0 2637.33,-40.473 2637.33,-90.282 0,-49.859 -1180.68,-90.2613 -2637.33,-90.2613 m 0,178.2113 c -1419,0 -2569.12,-39.442 -2569.12,-87.95 0,-48.5699 1150.12,-87.9293 2569.12,-87.9293 1418.96,0 2569.13,39.3594 2569.13,87.9293 0,48.508 -1150.17,87.95 -2569.13,87.95"
         style="fill:#c9c9c9;fill-opacity:1;fill-rule:nonzero;stroke:none"
         id="path118" /><path
         d="m 7875.07,30.0117 c -1419,0 -2569.12,39.3594 -2569.12,87.9293 0,48.508 1150.12,87.95 2569.12,87.95 1418.96,0 2569.13,-39.442 2569.13,-87.95 0,-48.5699 -1150.17,-87.9293 -2569.13,-87.9293 m 0,173.5273 c -1381.3,0 -2500.88,-38.367 -2500.88,-85.598 0,-47.2808 1119.58,-85.6012 2500.88,-85.6012 1381.27,0 2500.83,38.3204 2500.83,85.6012 0,47.231 -1119.56,85.598 -2500.83,85.598"
         style="fill:#c4c3c3;fill-opacity:1;fill-rule:nonzero;stroke:none"
         id="path120" /><path
         d="m 7875.07,32.3398 c -1381.3,0 -2500.88,38.3204 -2500.88,85.6012 0,47.231 1119.58,85.598 2500.88,85.598 1381.27,0 2500.83,-38.367 2500.83,-85.598 0,-47.2808 -1119.56,-85.6012 -2500.83,-85.6012 m 0,168.8712 c -1343.62,0 -2432.64,-37.332 -2432.64,-83.27 0,-45.9918 1089.02,-83.2613 2432.64,-83.2613 1343.58,0 2432.63,37.2695 2432.63,83.2613 0,45.938 -1089.05,83.27 -2432.63,83.27"
         style="fill:#bebdbd;fill-opacity:1;fill-rule:nonzero;stroke:none"
         id="path122" /><path
         d="m 7875.07,34.6797 c -1343.62,0 -2432.64,37.2695 -2432.64,83.2613 0,45.938 1089.02,83.27 2432.64,83.27 1343.58,0 2432.63,-37.332 2432.63,-83.27 0,-45.9918 -1089.05,-83.2613 -2432.63,-83.2613 m 0,164.1993 c -1305.93,0 -2364.4,-36.289 -2364.4,-80.938 0,-44.6988 1058.47,-80.9293 2364.4,-80.9293 1305.89,0 2364.43,36.2305 2364.43,80.9293 0,44.649 -1058.54,80.938 -2364.43,80.938"
         style="fill:#b9b8b8;fill-opacity:1;fill-rule:nonzero;stroke:none"
         id="path124" /><path
         d="m 7875.07,37.0117 c -1305.93,0 -2364.4,36.2305 -2364.4,80.9293 0,44.649 1058.47,80.938 2364.4,80.938 1305.89,0 2364.43,-36.289 2364.43,-80.938 0,-44.6988 -1058.54,-80.9293 -2364.43,-80.9293 m 0,159.5193 c -1268.25,0 -2296.16,-35.23 -2296.16,-78.59 0,-43.4097 1027.91,-78.6012 2296.16,-78.6012 1268.2,0 2296.13,35.1915 2296.13,78.6012 0,43.36 -1027.93,78.59 -2296.13,78.59"
         style="fill:#b4b3b3;fill-opacity:1;fill-rule:nonzero;stroke:none"
         id="path126" /><path
         d="m 7875.07,39.3398 c -1268.25,0 -2296.16,35.1915 -2296.16,78.6012 0,43.36 1027.91,78.59 2296.16,78.59 1268.2,0 2296.13,-35.23 2296.13,-78.59 0,-43.4097 -1027.93,-78.6012 -2296.13,-78.6012 m 0,154.8592 c -1230.55,0 -2227.93,-34.187 -2227.93,-76.258 0,-42.1207 997.38,-76.2496 2227.93,-76.2496 1230.51,0 2227.93,34.1289 2227.93,76.2496 0,42.071 -997.42,76.258 -2227.93,76.258"
         style="fill:#aeadad;fill-opacity:1;fill-rule:nonzero;stroke:none"
         id="path128" /><path
         d="m 7875.07,41.6914 c -1230.55,0 -2227.93,34.1289 -2227.93,76.2496 0,42.071 997.38,76.258 2227.93,76.258 1230.51,0 2227.93,-34.187 2227.93,-76.258 0,-42.1207 -997.42,-76.2496 -2227.93,-76.2496 m 0,150.1796 c -1192.87,0 -2159.68,-33.152 -2159.68,-73.93 0,-40.8316 966.81,-73.9215 2159.68,-73.9215 1192.82,0 2159.73,33.0899 2159.73,73.9215 0,40.778 -966.91,73.93 -2159.73,73.93"
         style="fill:#a8a7a7;fill-opacity:1;fill-rule:nonzero;stroke:none"
         id="path130" /><path
         d="m 7875.07,44.0195 c -1192.87,0 -2159.68,33.0899 -2159.68,73.9215 0,40.778 966.81,73.93 2159.68,73.93 1192.82,0 2159.73,-33.152 2159.73,-73.93 0,-40.8316 -966.91,-73.9215 -2159.73,-73.9215 m 0,145.5005 c -1155.18,0 -2091.44,-32.09 -2091.44,-71.579 0,-39.5387 936.26,-71.5816 2091.44,-71.5816 1155.12,0 2091.45,32.0429 2091.45,71.5816 0,39.489 -936.33,71.579 -2091.45,71.579"
         style="fill:#a3a2a2;fill-opacity:1;fill-rule:nonzero;stroke:none"
         id="path132" /><path
         d="m 7875.07,46.3594 c -1155.18,0 -2091.44,32.0429 -2091.44,71.5816 0,39.489 936.26,71.579 2091.44,71.579 1155.12,0 2091.45,-32.09 2091.45,-71.579 0,-39.5387 -936.33,-71.5816 -2091.45,-71.5816 m 0,140.8316 c -1117.5,0 -2023.2,-31.05 -2023.2,-69.25 0,-38.2496 905.7,-69.2496 2023.2,-69.2496 1117.43,0 2023.21,31 2023.21,69.2496 0,38.2 -905.78,69.25 -2023.21,69.25"
         style="fill:#9e9c9c;fill-opacity:1;fill-rule:nonzero;stroke:none"
         id="path134" /><path
         d="m 7875.07,48.6914 c -1117.5,0 -2023.2,31 -2023.2,69.2496 0,38.2 905.7,69.25 2023.2,69.25 1117.43,0 2023.21,-31.05 2023.21,-69.25 0,-38.2496 -905.78,-69.2496 -2023.21,-69.2496 m 0,136.1606 c -1079.81,0 -1954.97,-30 -1954.97,-66.911 0,-36.9605 875.16,-66.9097 1954.97,-66.9097 1079.74,0 1954.97,29.9492 1954.97,66.9097 0,36.911 -875.23,66.911 -1954.97,66.911"
         style="fill:#999797;fill-opacity:1;fill-rule:nonzero;stroke:none"
         id="path136" /><path
         d="m 7875.07,51.0313 c -1079.81,0 -1954.97,29.9492 -1954.97,66.9097 0,36.911 875.16,66.911 1954.97,66.911 1079.74,0 1954.97,-30 1954.97,-66.911 0,-36.9605 -875.23,-66.9097 -1954.97,-66.9097 m 0,131.4807 c -1042.12,0 -1886.72,-28.949 -1886.72,-64.571 0,-35.6793 844.6,-64.5816 1886.72,-64.5816 1042.06,0 1886.73,28.9023 1886.73,64.5816 0,35.622 -844.67,64.571 -1886.73,64.571"
         style="fill:#939292;fill-opacity:1;fill-rule:nonzero;stroke:none"
         id="path138" /><path
         d="m 7875.07,53.3594 c -1042.12,0 -1886.72,28.9023 -1886.72,64.5816 0,35.622 844.6,64.571 1886.72,64.571 1042.06,0 1886.73,-28.949 1886.73,-64.571 0,-35.6793 -844.67,-64.5816 -1886.73,-64.5816 m 0,126.8206 c -1004.43,0 -1818.48,-27.91 -1818.48,-62.239 0,-34.3902 814.05,-62.2496 1818.48,-62.2496 1004.36,0 1818.5,27.8594 1818.5,62.2496 0,34.329 -814.14,62.239 -1818.5,62.239"
         style="fill:#8d8c8c;fill-opacity:1;fill-rule:nonzero;stroke:none"
         id="path140" /><path
         d="m 7875.07,55.6914 c -1004.43,0 -1818.48,27.8594 -1818.48,62.2496 0,34.329 814.05,62.239 1818.48,62.239 1004.36,0 1818.5,-27.91 1818.5,-62.239 0,-34.3902 -814.14,-62.2496 -1818.5,-62.2496 m 0,122.1486 c -966.75,0 -1750.25,-26.86 -1750.25,-59.899 0,-33.1012 783.5,-59.9097 1750.25,-59.9097 966.66,0 1750.26,26.8085 1750.26,59.9097 0,33.039 -783.6,59.899 -1750.26,59.899"
         style="fill:#888686;fill-opacity:1;fill-rule:nonzero;stroke:none"
         id="path142" /><path
         d="m 7875.07,58.0313 c -966.75,0 -1750.25,26.8085 -1750.25,59.9097 0,33.039 783.5,59.899 1750.25,59.899 966.66,0 1750.26,-26.86 1750.26,-59.899 0,-33.1012 -783.6,-59.9097 -1750.26,-59.9097 m 0,117.4687 c -929.06,0 -1682.01,-25.801 -1682.01,-57.559 0,-31.8082 752.95,-57.5816 1682.01,-57.5816 928.98,0 1682.03,25.7734 1682.03,57.5816 0,31.758 -753.05,57.559 -1682.03,57.559"
         style="fill:#838181;fill-opacity:1;fill-rule:nonzero;stroke:none"
         id="path144" /><path
         d="m 7875.07,60.3594 c -929.06,0 -1682.01,25.7734 -1682.01,57.5816 0,31.758 752.95,57.559 1682.01,57.559 928.98,0 1682.03,-25.801 1682.03,-57.559 0,-31.8082 -753.05,-57.5816 -1682.03,-57.5816 m 0,112.8006 c -891.36,0 -1613.77,-24.75 -1613.77,-55.219 0,-30.5191 722.41,-55.2418 1613.77,-55.2418 891.28,0 1613.78,24.7227 1613.78,55.2418 0,30.469 -722.5,55.219 -1613.78,55.219"
         style="fill:#7e7c7c;fill-opacity:1;fill-rule:nonzero;stroke:none"
         id="path146" /><path
         d="m 7875.07,62.6992 c -891.36,0 -1613.77,24.7227 -1613.77,55.2418 0,30.469 722.41,55.219 1613.77,55.219 891.28,0 1613.78,-24.75 1613.78,-55.219 0,-30.5191 -722.5,-55.2418 -1613.78,-55.2418 m 0,108.1328 c -853.68,0 -1545.53,-23.711 -1545.53,-52.891 0,-29.2301 691.85,-52.9019 1545.53,-52.9019 853.6,0 1545.55,23.6718 1545.55,52.9019 0,29.18 -691.95,52.891 -1545.55,52.891"
         style="fill:#797777;fill-opacity:1;fill-rule:nonzero;stroke:none"
         id="path148" /><path
         d="m 7875.07,65.0391 c -853.68,0 -1545.53,23.6718 -1545.53,52.9019 0,29.18 691.85,52.891 1545.53,52.891 853.6,0 1545.55,-23.711 1545.55,-52.891 0,-29.2301 -691.95,-52.9019 -1545.55,-52.9019 m 0,103.4409 c -815.99,0 -1477.29,-22.648 -1477.29,-50.539 0,-27.941 661.3,-50.5699 1477.29,-50.5699 815.9,0 1477.31,22.6289 1477.31,50.5699 0,27.891 -661.41,50.539 -1477.31,50.539"
         style="fill:#737171;fill-opacity:1;fill-rule:nonzero;stroke:none"
         id="path150" /><path
         d="m 7875.07,67.3711 c -815.99,0 -1477.29,22.6289 -1477.29,50.5699 0,27.891 661.3,50.539 1477.29,50.539 815.9,0 1477.31,-22.648 1477.31,-50.539 0,-27.941 -661.41,-50.5699 -1477.31,-50.5699 m 0,98.7809 c -778.31,0 -1409.05,-21.613 -1409.05,-48.211 0,-26.6519 630.74,-48.2301 1409.05,-48.2301 778.22,0 1409.08,21.5782 1409.08,48.2301 0,26.598 -630.86,48.211 -1409.08,48.211"
         style="fill:#6d6b6b;fill-opacity:1;fill-rule:nonzero;stroke:none"
         id="path152" /><path
         d="m 7875.07,69.7109 c -778.31,0 -1409.05,21.5782 -1409.05,48.2301 0,26.598 630.74,48.211 1409.05,48.211 778.22,0 1409.08,-21.613 1409.08,-48.211 0,-26.6519 -630.86,-48.2301 -1409.08,-48.2301 m 0,94.1091 c -740.62,0 -1340.81,-20.57 -1340.81,-45.879 0,-25.359 600.19,-45.9019 1340.81,-45.9019 740.52,0 1340.83,20.5429 1340.83,45.9019 0,25.309 -600.31,45.879 -1340.83,45.879"
         style="fill:#686666;fill-opacity:1;fill-rule:nonzero;stroke:none"
         id="path154" /><path
         d="m 7875.07,72.0391 c -740.62,0 -1340.81,20.5429 -1340.81,45.9019 0,25.309 600.19,45.879 1340.81,45.879 740.52,0 1340.83,-20.57 1340.83,-45.879 0,-25.359 -600.31,-45.9019 -1340.83,-45.9019 m 0,89.4409 c -702.93,0 -1272.58,-19.519 -1272.58,-43.539 0,-24.0699 569.65,-43.5699 1272.58,-43.5699 702.83,0 1272.6,19.5 1272.6,43.5699 0,24.02 -569.77,43.539 -1272.6,43.539"
         style="fill:#636161;fill-opacity:1;fill-rule:nonzero;stroke:none"
         id="path156" /><path
         d="m 7875.07,74.3711 c -702.93,0 -1272.58,19.5 -1272.58,43.5699 0,24.02 569.65,43.539 1272.58,43.539 702.83,0 1272.6,-19.519 1272.6,-43.539 0,-24.0699 -569.77,-43.5699 -1272.6,-43.5699 m 0,84.7699 c -665.24,0 -1204.33,-18.481 -1204.33,-41.2 0,-22.7808 539.09,-41.2301 1204.33,-41.2301 665.14,0 1204.36,18.4493 1204.36,41.2301 0,22.719 -539.22,41.2 -1204.36,41.2"
         style="fill:#5d5b5b;fill-opacity:1;fill-rule:nonzero;stroke:none"
         id="path158" /><path
         d="m 7875.07,76.7109 c -665.24,0 -1204.33,18.4493 -1204.33,41.2301 0,22.719 539.09,41.2 1204.33,41.2 665.14,0 1204.36,-18.481 1204.36,-41.2 0,-22.7808 -539.22,-41.2301 -1204.36,-41.2301 m 0,80.1021 c -627.56,0 -1136.09,-17.442 -1136.09,-38.872 0,-21.4918 508.53,-38.9019 1136.09,-38.9019 627.44,0 1136.13,17.4101 1136.13,38.9019 0,21.43 -508.69,38.872 -1136.13,38.872"
         style="fill:#585555;fill-opacity:1;fill-rule:nonzero;stroke:none"
         id="path160" /><path
         d="m 7875.07,79.0391 c -627.56,0 -1136.09,17.4101 -1136.09,38.9019 0,21.43 508.53,38.872 1136.09,38.872 627.44,0 1136.13,-17.442 1136.13,-38.872 0,-21.4918 -508.69,-38.9019 -1136.13,-38.9019 m 0,75.4339 c -589.87,0 -1067.86,-16.383 -1067.86,-36.532 0,-20.1988 477.99,-36.5621 1067.86,-36.5621 589.76,0 1067.88,16.3633 1067.88,36.5621 0,20.149 -478.12,36.532 -1067.88,36.532"
         style="fill:#535050;fill-opacity:1;fill-rule:nonzero;stroke:none"
         id="path162" /><path
         d="m 7875.07,81.3789 c -589.87,0 -1067.86,16.3633 -1067.86,36.5621 0,20.149 477.99,36.532 1067.86,36.532 589.76,0 1067.88,-16.383 1067.88,-36.532 0,-20.1988 -478.12,-36.5621 -1067.88,-36.5621 m 0,70.7501 c -552.19,0 -999.62,-15.328 -999.62,-34.188 0,-18.9097 447.43,-34.2301 999.62,-34.2301 552.06,0 999.65,15.3204 999.65,34.2301 0,18.86 -447.59,34.188 -999.65,34.188"
         style="fill:#4d4b4b;fill-opacity:1;fill-rule:nonzero;stroke:none"
         id="path164" /><path
         d="m 7875.07,83.7109 c -552.19,0 -999.62,15.3204 -999.62,34.2301 0,18.86 447.43,34.188 999.62,34.188 552.06,0 999.65,-15.328 999.65,-34.188 0,-18.9097 -447.59,-34.2301 -999.65,-34.2301 m 0,66.0781 c -514.49,0 -931.37,-14.277 -931.37,-31.848 0,-17.621 416.88,-31.9019 931.37,-31.9019 514.37,0 931.41,14.2809 931.41,31.9019 0,17.571 -417.04,31.848 -931.41,31.848"
         style="fill:#484646;fill-opacity:1;fill-rule:nonzero;stroke:none"
         id="path166" /><path
         d="m 7875.07,86.0391 c -514.49,0 -931.37,14.2809 -931.37,31.9019 0,17.571 416.88,31.848 931.37,31.848 514.37,0 931.41,-14.277 931.41,-31.848 0,-17.621 -417.04,-31.9019 -931.41,-31.9019 m 0,61.4219 c -476.8,0 -863.14,-13.242 -863.14,-29.52 0,-16.332 386.34,-29.5504 863.14,-29.5504 476.68,0 863.18,13.2184 863.18,29.5504 0,16.278 -386.5,29.52 -863.18,29.52"
         style="fill:#423f3f;fill-opacity:1;fill-rule:nonzero;stroke:none"
         id="path168" /><path
         d="m 7875.07,88.3906 c -476.8,0 -863.14,13.2184 -863.14,29.5504 0,16.278 386.34,29.52 863.14,29.52 476.68,0 863.18,-13.242 863.18,-29.52 0,-16.332 -386.5,-29.5504 -863.18,-29.5504 m 0,56.7304 c -439.12,0 -794.9,-12.191 -794.9,-27.18 0,-15.039 355.78,-27.2183 794.9,-27.2183 438.99,0 794.93,12.1793 794.93,27.2183 0,14.989 -355.94,27.18 -794.93,27.18"
         style="fill:#3d3a3a;fill-opacity:1;fill-rule:nonzero;stroke:none"
         id="path170" /><path
         d="m 7875.07,90.7227 c -439.12,0 -794.9,12.1793 -794.9,27.2183 0,14.989 355.78,27.18 794.9,27.18 438.99,0 794.93,-12.191 794.93,-27.18 0,-15.039 -355.94,-27.2183 -794.93,-27.2183 m 0,52.0583 c -401.43,0 -726.66,-11.14 -726.66,-24.84 0,-13.75 325.23,-24.8902 726.66,-24.8902 401.3,0 726.7,11.1402 726.7,24.8902 0,13.7 -325.4,24.84 -726.7,24.84"
         style="fill:#383535;fill-opacity:1;fill-rule:nonzero;stroke:none"
         id="path172" /><path
         d="m 7875.07,93.0508 c -401.43,0 -726.66,11.1402 -726.66,24.8902 0,13.7 325.23,24.84 726.66,24.84 401.3,0 726.7,-11.14 726.7,-24.84 0,-13.75 -325.4,-24.8902 -726.7,-24.8902 m 0,47.3982 c -363.74,0 -658.41,-10.097 -658.41,-22.508 0,-12.461 294.67,-22.5504 658.41,-22.5504 363.61,0 658.46,10.0894 658.46,22.5504 0,12.411 -294.85,22.508 -658.46,22.508"
         style="fill:#323030;fill-opacity:1;fill-rule:nonzero;stroke:none"
         id="path174" /><path
         d="m 7875.07,95.3906 c -363.74,0 -658.41,10.0894 -658.41,22.5504 0,12.411 294.67,22.508 658.41,22.508 363.61,0 658.46,-10.097 658.46,-22.508 0,-12.461 -294.85,-22.5504 -658.46,-22.5504 m 0,42.7114 c -326.05,0 -590.18,-9.039 -590.18,-20.161 0,-11.171 264.13,-20.2183 590.18,-20.2183 325.92,0 590.23,9.0473 590.23,20.2183 0,11.122 -264.31,20.161 -590.23,20.161"
         style="fill:#2c2a2a;fill-opacity:1;fill-rule:nonzero;stroke:none"
         id="path176" /><path
         d="m 7875.07,97.7227 c -326.05,0 -590.18,9.0473 -590.18,20.2183 0,11.122 264.13,20.161 590.18,20.161 325.92,0 590.23,-9.039 590.23,-20.161 0,-11.171 -264.31,-20.2183 -590.23,-20.2183"
         style="fill:#272424;fill-opacity:1;fill-rule:nonzero;stroke:none"
         id="path178" /><path
         d="m 8397.06,117.941 c 0,-9.878 -233.76,-17.882 -521.99,-17.882 -288.37,0 -521.94,8.004 -521.94,17.882 0,9.829 233.57,17.829 521.94,17.829 288.23,0 521.99,-8 521.99,-17.829"
         style="fill:#221f1f;fill-opacity:1;fill-rule:nonzero;stroke:none"
         id="path180" /><path
         d="m 2570.36,0 c -455.18,0 -824.15,43.9414 -824.15,98.0703 0,26.9417 91.32,51.3517 239.15,69.0817 0.29,-0.933 0.58,-1.863 0.89,-2.781 -138.22,-17.242 -223.1,-40.601 -223.1,-66.3007 0,-53.0195 361.39,-96.05858 807.21,-96.05858 445.83,0 807.2,43.03908 807.2,96.05858 0,24.8707 -79.44,47.5317 -209.78,64.6017 0.33,0.937 0.65,1.887 0.96,2.84 C 3308.67,147.93 3394.5,124.191 3394.5,98.0703 3394.5,43.9414 3025.55,0 2570.36,0"
         style="fill:#ffffff;fill-opacity:1;fill-rule:nonzero;stroke:none"
         id="path182" /><path
         d="m 2570.36,2.01172 c -445.82,0 -807.21,43.03908 -807.21,96.05858 0,25.6997 84.88,49.0587 223.1,66.3007 0.32,-0.941 0.65,-1.891 0.99,-2.832 -128.65,-16.726 -207.15,-39.008 -207.15,-63.4687 0,-51.9101 353.8,-94.03905 790.27,-94.03905 436.47,0 790.26,42.12895 790.26,94.03905 0,23.6097 -73.12,45.1917 -193.9,61.7107 0.36,0.961 0.72,1.918 1.06,2.891 130.34,-17.07 209.78,-39.731 209.78,-64.6017 0,-53.0195 -361.37,-96.05858 -807.2,-96.05858"
         style="fill:#fafafa;fill-opacity:1;fill-rule:nonzero;stroke:none"
         id="path184" /><path
         d="m 2570.36,4.03125 c -436.47,0 -790.27,42.12895 -790.27,94.03905 0,24.4607 78.5,46.7427 207.15,63.4687 0.35,-0.957 0.71,-1.918 1.09,-2.879 -119.11,-16.191 -191.3,-37.39 -191.3,-60.5897 0,-50.8008 346.22,-92.03124 773.33,-92.03124 427.12,0 773.32,41.23044 773.32,92.03124 0,22.3317 -66.88,42.8087 -178.14,58.7617 0.41,0.969 0.8,1.957 1.18,2.949 120.78,-16.519 193.9,-38.101 193.9,-61.7107 0,-51.9101 -353.79,-94.03905 -790.26,-94.03905"
         style="fill:#f5f5f5;fill-opacity:1;fill-rule:nonzero;stroke:none"
         id="path186" /><path
         d="m 2570.36,6.03906 c -427.11,0 -773.33,41.23044 -773.33,92.03124 0,23.1997 72.19,44.3987 191.3,60.5897 0.38,-0.98 0.78,-1.961 1.2,-2.93 -109.62,-15.621 -175.56,-35.73 -175.56,-57.6597 0,-49.6914 338.63,-89.99999 756.39,-89.99999 417.77,0 756.38,40.30859 756.38,89.99999 0,21.0507 -60.73,40.4097 -162.49,55.7497 0.45,0.993 0.88,2 1.29,3.012 111.26,-15.953 178.14,-36.43 178.14,-58.7617 0,-50.8008 -346.2,-92.03124 -773.32,-92.03124"
         style="fill:#efeeee;fill-opacity:1;fill-rule:nonzero;stroke:none"
         id="path188" /><path
         d="m 2570.36,8.07031 c -417.76,0 -756.39,40.30859 -756.39,89.99999 0,21.9297 65.94,42.0387 175.56,57.6597 0.42,-1.011 0.87,-2.011 1.32,-3 -100.14,-15.019 -159.94,-34.011 -159.94,-54.6597 0,-48.5781 331.05,-87.9883 739.45,-87.9883 408.4,0 739.44,39.4102 739.44,87.9883 0,19.7427 -54.67,37.9687 -146.98,52.6597 0.49,1.02 0.97,2.051 1.43,3.09 101.76,-15.34 162.49,-34.699 162.49,-55.7497 0,-49.6914 -338.61,-89.99999 -756.38,-89.99999"
         style="fill:#e9e9e9;fill-opacity:1;fill-rule:nonzero;stroke:none"
         id="path190" /><path
         d="m 2570.36,10.082 c -408.4,0 -739.45,39.4102 -739.45,87.9883 0,20.6487 59.8,39.6407 159.94,54.6597 0.47,-1.031 0.96,-2.058 1.46,-3.07 -90.71,-14.379 -144.45,-32.238 -144.45,-51.5897 0,-47.4609 323.46,-85.9805 722.5,-85.9805 399.05,0 722.5,38.5196 722.5,85.9805 0,18.4217 -48.69,35.4927 -131.63,49.4887 0.55,1.05 1.07,2.101 1.59,3.171 92.31,-14.691 146.98,-32.917 146.98,-52.6597 0,-48.5781 -331.04,-87.9883 -739.44,-87.9883"
         style="fill:#e4e4e4;fill-opacity:1;fill-rule:nonzero;stroke:none"
         id="path192" /><path
         d="m 2570.36,12.0898 c -399.04,0 -722.5,38.5196 -722.5,85.9805 0,19.3517 53.74,37.2107 144.45,51.5897 0.53,-1.07 1.07,-2.121 1.62,-3.16 -81.34,-13.687 -129.14,-30.398 -129.14,-48.4297 0,-46.3515 315.88,-83.9609 705.57,-83.9609 389.69,0 705.56,37.6094 705.56,83.9609 0,17.0707 -42.86,32.9607 -116.45,46.2187 0.6,1.082 1.19,2.172 1.76,3.27 82.94,-13.996 131.63,-31.067 131.63,-49.4887 0,-47.4609 -323.45,-85.9805 -722.5,-85.9805"
         style="fill:#dfdfdf;fill-opacity:1;fill-rule:nonzero;stroke:none"
         id="path194" /><path
         d="m 2570.36,14.1094 c -389.69,0 -705.57,37.6094 -705.57,83.9609 0,18.0317 47.8,34.7427 129.14,48.4297 0.59,-1.098 1.19,-2.18 1.8,-3.258 -72.04,-12.953 -113.99,-28.48 -113.99,-45.1717 0,-45.2383 308.29,-81.9492 688.62,-81.9492 380.33,0 688.62,36.7109 688.62,81.9492 0,15.6997 -37.12,30.3707 -101.48,42.8397 0.67,1.11 1.33,2.242 1.97,3.379 73.59,-13.258 116.45,-29.148 116.45,-46.2187 0,-46.3515 -315.87,-83.9609 -705.56,-83.9609"
         style="fill:#d9d8d8;fill-opacity:1;fill-rule:nonzero;stroke:none"
         id="path196" /><path
         d="m 2570.36,16.1211 c -380.33,0 -688.62,36.7109 -688.62,81.9492 0,16.6917 41.95,32.2187 113.99,45.1717 0.66,-1.14 1.33,-2.262 2.01,-3.371 -62.82,-12.16 -99.06,-26.48 -99.06,-41.8007 0,-44.1289 300.7,-79.9297 671.68,-79.9297 370.98,0 671.68,35.8008 671.68,79.9297 0,14.2887 -31.53,27.7107 -86.76,39.3207 0.76,1.148 1.5,2.328 2.22,3.519 64.36,-12.469 101.48,-27.14 101.48,-42.8397 0,-45.2383 -308.29,-81.9492 -688.62,-81.9492"
         style="fill:#d4d3d3;fill-opacity:1;fill-rule:nonzero;stroke:none"
         id="path198" /><path
         d="m 2570.36,18.1406 c -370.98,0 -671.68,35.8008 -671.68,79.9297 0,15.3207 36.24,29.6407 99.06,41.8007 0.74,-1.191 1.49,-2.359 2.26,-3.512 -53.72,-11.308 -84.39,-24.379 -84.39,-38.2887 0,-43.0117 293.13,-77.9101 654.75,-77.9101 361.62,0 654.74,34.8984 654.74,77.9101 0,12.8397 -26.1,24.9497 -72.33,35.6287 0.86,1.211 1.69,2.442 2.51,3.692 55.23,-11.61 86.76,-25.032 86.76,-39.3207 0,-44.1289 -300.7,-79.9297 -671.68,-79.9297"
         style="fill:#cfcece;fill-opacity:1;fill-rule:nonzero;stroke:none"
         id="path200" /><path
         d="m 2570.36,20.1602 c -361.62,0 -654.75,34.8984 -654.75,77.9101 0,13.9097 30.67,26.9807 84.39,38.2887 0.84,-1.238 1.69,-2.468 2.57,-3.679 -44.76,-10.379 -70.01,-22.141 -70.01,-34.6097 0,-41.9101 285.54,-75.8906 637.8,-75.8906 352.26,0 637.8,33.9805 637.8,75.8906 0,11.3317 -20.87,22.0817 -58.28,31.7427 0.99,1.277 1.95,2.57 2.89,3.886 46.23,-10.679 72.33,-22.789 72.33,-35.6287 0,-43.0117 -293.12,-77.9101 -654.74,-77.9101"
         style="fill:#c9c9c9;fill-opacity:1;fill-rule:nonzero;stroke:none"
         id="path202" /><path
         d="m 2570.36,22.1797 c -352.26,0 -637.8,33.9805 -637.8,75.8906 0,12.4687 25.25,24.2307 70.01,34.6097 0.96,-1.321 1.94,-2.621 2.95,-3.899 -35.97,-9.351 -56.02,-19.75 -56.02,-30.7107 0,-40.789 277.95,-73.8789 620.86,-73.8789 342.91,0 620.86,33.0899 620.86,73.8789 0,9.7497 -15.87,19.0587 -44.71,27.5817 1.15,1.36 2.28,2.75 3.37,4.161 37.41,-9.661 58.28,-20.411 58.28,-31.7427 0,-41.9101 -285.54,-75.8906 -637.8,-75.8906"
         style="fill:#c4c3c3;fill-opacity:1;fill-rule:nonzero;stroke:none"
         id="path204" /><path
         d="m 2570.36,24.1914 c -342.91,0 -620.86,33.0899 -620.86,73.8789 0,10.9607 20.05,21.3597 56.02,30.7107 1.12,-1.41 2.27,-2.801 3.45,-4.172 -27.45,-8.207 -42.53,-17.16 -42.53,-26.5387 0,-39.6797 270.37,-71.8711 603.92,-71.8711 333.55,0 603.92,32.1914 603.92,71.8711 0,8.0707 -11.17,15.8317 -31.8,23.0707 1.39,1.468 2.73,2.968 4.03,4.511 28.84,-8.523 44.71,-17.832 44.71,-27.5817 0,-40.789 -277.95,-73.8789 -620.86,-73.8789"
         style="fill:#bebdbd;fill-opacity:1;fill-rule:nonzero;stroke:none"
         id="path206" /><path
         d="m 2570.36,26.1992 c -333.55,0 -603.92,32.1914 -603.92,71.8711 0,9.3787 15.08,18.3317 42.53,26.5387 1.35,-1.539 2.73,-3.046 4.15,-4.527 -19.3,-6.922 -29.74,-14.32 -29.74,-22.0117 0,-38.5703 262.78,-69.8476 586.98,-69.8476 324.19,0 586.97,31.2773 586.97,69.8476 0,6.2497 -6.89,12.3087 -19.84,18.0707 1.72,1.621 3.38,3.289 4.99,5 20.63,-7.239 31.8,-15 31.8,-23.0707 0,-39.6797 -270.37,-71.8711 -603.92,-71.8711"
         style="fill:#b9b8b8;fill-opacity:1;fill-rule:nonzero;stroke:none"
         id="path208" /><path
         d="m 2570.36,28.2227 c -324.2,0 -586.98,31.2773 -586.98,69.8476 0,7.6917 10.44,15.0897 29.74,22.0117 1.67,-1.73 3.4,-3.422 5.17,-5.051 -11.73,-5.422 -17.97,-11.101 -17.97,-16.9607 0,-37.4609 255.2,-67.8398 570.04,-67.8398 314.83,0 570.04,30.3789 570.04,67.8398 0,4.2187 -3.24,8.3517 -9.43,12.3517 2.24,1.828 4.42,3.738 6.52,5.719 12.95,-5.762 19.84,-11.821 19.84,-18.0707 0,-38.5703 -262.78,-69.8476 -586.97,-69.8476"
         style="fill:#b4b3b3;fill-opacity:1;fill-rule:nonzero;stroke:none"
         id="path210" /><path
         d="m 2570.36,30.2305 c -314.84,0 -570.04,30.3789 -570.04,67.8398 0,5.8597 6.24,11.5387 17.97,16.9607 2.21,-2.031 4.49,-3.968 6.85,-5.82 -5.18,-3.621 -7.88,-7.34 -7.88,-11.1407 0,-36.3398 247.62,-65.8203 553.1,-65.8203 305.48,0 553.1,29.4805 553.1,65.8203 0,1.8399 -0.63,3.6597 -1.87,5.4607 3.24,2.141 6.37,4.438 9.38,6.891 6.19,-4 9.43,-8.133 9.43,-12.3517 0,-37.4609 -255.21,-67.8398 -570.04,-67.8398"
         style="fill:#aeadad;fill-opacity:1;fill-rule:nonzero;stroke:none"
         id="path212" /><path
         d="m 2570.36,32.25 c -305.48,0 -553.1,29.4805 -553.1,65.8203 0,3.8007 2.7,7.5197 7.88,11.1407 3.24,-2.551 6.61,-4.93 10.11,-7.129 -0.7,-1.332 -1.05,-2.6601 -1.05,-4.0117 0,-35.2305 240.03,-63.8008 536.16,-63.8008 286.74,0 520.89,26.793 535.44,60.4805 5.5,2.5195 10.78,5.461 15.79,8.781 1.24,-1.801 1.87,-3.6208 1.87,-5.4607 0,-36.3398 -247.62,-65.8203 -553.1,-65.8203"
         style="fill:#a8a7a7;fill-opacity:1;fill-rule:nonzero;stroke:none"
         id="path214" /><path
         d="m 2570.36,34.2695 c -296.13,0 -536.16,28.5703 -536.16,63.8008 0,1.3516 0.35,2.6797 1.05,4.0117 5.58,-3.5195 11.48,-6.582 17.65,-9.1328 21.88,-31.7304 245.18,-56.6679 517.46,-56.6679 253.35,0 464.31,21.5898 510.03,50.1601 8.87,1.8086 17.38,4.6211 25.41,8.3086 -14.55,-33.6875 -248.7,-60.4805 -535.44,-60.4805"
         style="fill:#a3a2a2;fill-opacity:1;fill-rule:nonzero;stroke:none"
         id="path216" /><path
         d="m 2570.36,36.2813 c -272.28,0 -495.58,24.9375 -517.46,56.6679 8.31,-3.4297 17.09,-5.9492 26.23,-7.4101 48.39,-26.9883 249.93,-47.2383 491.23,-47.2383 236.91,0 435.5,19.5195 488.44,45.7812 7.38,0.1289 14.6,0.9297 21.59,2.3594 -45.72,-28.5703 -256.68,-50.1601 -510.03,-50.1601"
         style="fill:#9e9c9c;fill-opacity:1;fill-rule:nonzero;stroke:none"
         id="path218" /><path
         d="m 2570.36,38.3008 c -241.3,0 -442.84,20.25 -491.23,47.2383 6.1,-0.9688 12.37,-1.4766 18.74,-1.4766 h 1.53 c 52.62,-25.1328 243.51,-43.75 470.96,-43.75 227.44,0 418.34,18.6172 470.96,43.75 h 15.41 c 0.69,0 1.38,0.0078 2.07,0.0195 -52.94,-26.2617 -251.53,-45.7812 -488.44,-45.7812"
         style="fill:#999797;fill-opacity:1;fill-rule:nonzero;stroke:none"
         id="path220" /><path
         d="m 2570.36,40.3125 c -227.45,0 -418.34,18.6172 -470.96,43.75 h 17.48 c 52.21,-24.0117 235.43,-41.7305 453.48,-41.7305 218.04,0 401.27,17.7188 453.48,41.7305 h 17.48 c -52.62,-25.1328 -243.52,-43.75 -470.96,-43.75"
         style="fill:#939292;fill-opacity:1;fill-rule:nonzero;stroke:none"
         id="path222" /><path
         d="m 2570.36,42.332 c -218.05,0 -401.27,17.7188 -453.48,41.7305 h 17.53 c 51.78,-22.8828 227.33,-39.7227 435.95,-39.7227 208.61,0 384.16,16.8399 435.95,39.7227 h 17.53 C 2971.63,60.0508 2788.4,42.332 2570.36,42.332"
         style="fill:#8d8c8c;fill-opacity:1;fill-rule:nonzero;stroke:none"
         id="path224" /><path
         d="m 2570.36,44.3398 c -208.62,0 -384.17,16.8399 -435.95,39.7227 h 17.57 c 51.33,-21.75 219.2,-37.6914 418.38,-37.6914 199.17,0 367.04,15.9414 418.37,37.6914 h 17.58 C 2954.52,61.1797 2778.97,44.3398 2570.36,44.3398"
         style="fill:#888686;fill-opacity:1;fill-rule:nonzero;stroke:none"
         id="path226" /><path
         d="m 2570.36,46.3711 c -199.18,0 -367.05,15.9414 -418.38,37.6914 h 17.62 c 50.82,-20.6328 211,-35.6836 400.76,-35.6836 189.75,0 349.93,15.0508 400.76,35.6836 h 17.61 c -51.33,-21.75 -219.2,-37.6914 -418.37,-37.6914"
         style="fill:#838181;fill-opacity:1;fill-rule:nonzero;stroke:none"
         id="path228" /><path
         d="m 2570.36,48.3789 c -189.76,0 -349.94,15.0508 -400.76,35.6836 h 17.69 c 50.27,-19.5039 202.75,-33.6719 383.07,-33.6719 180.3,0 332.79,14.168 383.06,33.6719 h 17.7 C 2920.29,63.4297 2760.11,48.3789 2570.36,48.3789"
         style="fill:#7e7c7c;fill-opacity:1;fill-rule:nonzero;stroke:none"
         id="path230" /><path
         d="m 2570.36,50.3906 c -180.32,0 -332.8,14.168 -383.07,33.6719 h 17.76 c 49.68,-18.3711 194.44,-31.6523 365.31,-31.6523 170.85,0 315.62,13.2812 365.3,31.6523 h 17.76 C 2903.15,64.5586 2750.66,50.3906 2570.36,50.3906"
         style="fill:#797777;fill-opacity:1;fill-rule:nonzero;stroke:none"
         id="path232" /><path
         d="m 2570.36,52.4102 c -170.87,0 -315.63,13.2812 -365.31,31.6523 h 17.85 c 49.03,-17.2422 186.06,-29.6406 347.46,-29.6406 161.38,0 298.42,12.3984 347.46,29.6406 h 17.84 C 2885.98,65.6914 2741.21,52.4102 2570.36,52.4102"
         style="fill:#737171;fill-opacity:1;fill-rule:nonzero;stroke:none"
         id="path234" /><path
         d="m 2570.36,54.4219 c -161.4,0 -298.43,12.3984 -347.46,29.6406 h 17.94 c 48.33,-16.1016 177.61,-27.6133 329.52,-27.6133 151.9,0 281.18,11.5117 329.51,27.6133 h 17.95 C 2868.78,66.8203 2731.74,54.4219 2570.36,54.4219"
         style="fill:#6d6b6b;fill-opacity:1;fill-rule:nonzero;stroke:none"
         id="path236" /><path
         d="m 2570.36,56.4492 c -151.91,0 -281.19,11.5117 -329.52,27.6133 h 18.05 c 47.54,-14.9727 169.06,-25.6016 311.47,-25.6016 142.4,0 263.92,10.6289 311.47,25.6016 h 18.04 C 2851.54,67.9609 2722.26,56.4492 2570.36,56.4492"
         style="fill:#686666;fill-opacity:1;fill-rule:nonzero;stroke:none"
         id="path238" /><path
         d="m 2570.36,58.4609 c -142.41,0 -263.93,10.6289 -311.47,25.6016 h 18.18 c 46.67,-13.832 160.39,-23.5937 293.29,-23.5937 132.88,0 246.61,9.7617 293.28,23.5937 h 18.19 C 2834.28,69.0898 2712.76,58.4609 2570.36,58.4609"
         style="fill:#636161;fill-opacity:1;fill-rule:nonzero;stroke:none"
         id="path240" /><path
         d="m 2570.36,60.4688 c -132.9,0 -246.62,9.7617 -293.29,23.5937 h 18.34 c 45.68,-12.6914 151.58,-21.5703 274.95,-21.5703 123.35,0 229.26,8.8789 274.95,21.5703 h 18.33 c -46.67,-13.832 -160.4,-23.5937 -293.28,-23.5937"
         style="fill:#5d5b5b;fill-opacity:1;fill-rule:nonzero;stroke:none"
         id="path242" /><path
         d="m 2570.36,62.4922 c -123.37,0 -229.27,8.8789 -274.95,21.5703 h 18.53 C 2358.52,72.5117 2456.56,64.5 2570.36,64.5 c 113.78,0 211.83,8.0117 256.42,19.5625 h 18.53 C 2799.62,71.3711 2693.71,62.4922 2570.36,62.4922"
         style="fill:#585555;fill-opacity:1;fill-rule:nonzero;stroke:none"
         id="path244" /><path
         d="m 2570.36,64.5 c -113.8,0 -211.84,8.0117 -256.42,19.5625 h 18.78 c 43.34,-10.4023 133.46,-17.543 237.64,-17.543 104.16,0 194.29,7.1407 237.64,17.543 h 18.78 C 2782.19,72.5117 2684.14,64.5 2570.36,64.5"
         style="fill:#535050;fill-opacity:1;fill-rule:nonzero;stroke:none"
         id="path246" /><path
         d="m 2570.36,66.5195 c -104.18,0 -194.3,7.1407 -237.64,17.543 h 19.07 c 41.91,-9.25 124.06,-15.5312 218.57,-15.5312 94.49,0 176.65,6.2812 218.57,15.5312 H 2808 c -43.35,-10.4023 -133.48,-17.543 -237.64,-17.543"
         style="fill:#4d4b4b;fill-opacity:1;fill-rule:nonzero;stroke:none"
         id="path248" /><path
         d="m 2570.36,68.5313 c -94.51,0 -176.66,6.2812 -218.57,15.5312 h 19.46 c 40.26,-8.0937 114.36,-13.5 199.11,-13.5 84.73,0 158.83,5.4063 199.1,13.5 h 19.47 c -41.92,-9.25 -124.08,-15.5312 -218.57,-15.5312"
         style="fill:#484646;fill-opacity:1;fill-rule:nonzero;stroke:none"
         id="path250" /><path
         d="m 2570.36,70.5625 c -84.75,0 -158.85,5.4063 -199.11,13.5 h 19.97 c 38.3,-6.9336 104.22,-11.4922 179.14,-11.4922 74.9,0 140.83,4.5586 179.14,11.4922 h 19.96 c -40.27,-8.0937 -114.37,-13.5 -199.1,-13.5"
         style="fill:#423f3f;fill-opacity:1;fill-rule:nonzero;stroke:none"
         id="path252" /><path
         d="m 2570.36,72.5703 c -74.92,0 -140.84,4.5586 -179.14,11.4922 h 20.65 c 35.96,-5.7617 93.56,-9.4805 158.49,-9.4805 64.91,0 122.51,3.7188 158.48,9.4805 h 20.66 C 2711.19,77.1289 2645.26,72.5703 2570.36,72.5703"
         style="fill:#3d3a3a;fill-opacity:1;fill-rule:nonzero;stroke:none"
         id="path254" /><path
         d="m 2570.36,74.582 c -64.93,0 -122.53,3.7188 -158.49,9.4805 h 21.68 c 33.08,-4.5703 82.1,-7.4609 136.81,-7.4609 54.69,0 103.71,2.8906 136.8,7.4609 h 21.68 c -35.97,-5.7617 -93.57,-9.4805 -158.48,-9.4805"
         style="fill:#383535;fill-opacity:1;fill-rule:nonzero;stroke:none"
         id="path256" /><path
         d="m 2570.36,76.6016 c -54.71,0 -103.73,2.8906 -136.81,7.4609 h 23.26 c 29.41,-3.3828 69.43,-5.4531 113.55,-5.4531 44.1,0 84.13,2.0703 113.54,5.4531 h 23.26 c -33.09,-4.5703 -82.11,-7.4609 -136.8,-7.4609"
         style="fill:#323030;fill-opacity:1;fill-rule:nonzero;stroke:none"
         id="path258" /><path
         d="m 2570.36,78.6094 c -44.12,0 -84.14,2.0703 -113.55,5.4531 h 26.18 c 24.4,-2.1523 54.63,-3.4336 87.37,-3.4336 32.73,0 62.96,1.2813 87.35,3.4336 h 26.19 c -29.41,-3.3828 -69.44,-5.4531 -113.54,-5.4531"
         style="fill:#2c2a2a;fill-opacity:1;fill-rule:nonzero;stroke:none"
         id="path260" /><path
         d="m 2570.36,80.6289 c -32.74,0 -62.97,1.2813 -87.37,3.4336 h 174.72 c -24.39,-2.1523 -54.62,-3.4336 -87.35,-3.4336"
         style="fill:#272424;fill-opacity:1;fill-rule:nonzero;stroke:none"
         id="path262" /><path
         d="m 2699.95,98.0703 c 0,-8.5508 -58.04,-15.418 -129.59,-15.418 -71.59,0 -129.58,6.8672 -129.58,15.418 0,8.5197 57.99,15.4097 129.58,15.4097 71.55,0 129.59,-6.89 129.59,-15.4097"
         style="fill:#221f1f;fill-opacity:1;fill-rule:nonzero;stroke:none"
         id="path264" /><path
         d="M 1394.26,515.73 C 624.199,515.73 0,579.402 0,657.961 c 0,38.121 147.387,72.762 387.258,98.301 0.031,-1.422 0.086,-2.84 0.16,-4.25 -222.77,-24.793 -358.7578,-57.821 -358.7578,-94.051 0,-76.949 611.3668,-139.309 1365.5998,-139.309 209.69,0 408.4,4.817 585.94,13.438 v -3.231 C 1802.05,520.43 1603.56,515.73 1394.26,515.73"
         style="fill:#ffffff;fill-opacity:1;fill-rule:nonzero;stroke:none"
         id="path266" /><path
         d="m 1394.26,518.652 c -754.233,0 -1365.5998,62.36 -1365.5998,139.309 0,36.23 135.9878,69.258 358.7578,94.051 0.078,-1.461 0.18,-2.903 0.301,-4.352 C 182.008,723.68 57.3203,692.289 57.3203,657.961 c 0,-75.332 598.5347,-136.379 1336.9397,-136.379 210.16,0 409.01,4.949 585.94,13.758 v -3.25 c -177.54,-8.621 -376.25,-13.438 -585.94,-13.438"
         style="fill:#fafafa;fill-opacity:1;fill-rule:nonzero;stroke:none"
         id="path268" /><path
         d="m 1394.26,521.582 c -738.405,0 -1336.9397,61.047 -1336.9397,136.379 0,34.328 124.6877,65.719 330.3987,89.699 0.129,-1.488 0.281,-2.969 0.461,-4.449 C 199.484,720.09 85.9805,690.359 85.9805,657.961 85.9805,584.242 671.684,524.5 1394.26,524.5 c 210.64,0 409.68,5.082 585.94,14.102 v -3.262 c -176.93,-8.809 -375.78,-13.758 -585.94,-13.758"
         style="fill:#f5f5f5;fill-opacity:1;fill-rule:nonzero;stroke:none"
         id="path270" /><path
         d="m 1394.26,524.5 c -722.576,0 -1308.2795,59.742 -1308.2795,133.461 0,32.398 113.5035,62.129 302.1995,85.25 0.179,-1.531 0.39,-3.051 0.625,-4.559 C 217.09,716.441 114.641,688.41 114.641,657.961 c 0,-72.109 572.867,-130.539 1279.619,-130.539 211.16,0 410.39,5.219 585.94,14.449 v -3.269 C 1803.94,529.582 1604.9,524.5 1394.26,524.5"
         style="fill:#efeeee;fill-opacity:1;fill-rule:nonzero;stroke:none"
         id="path272" /><path
         d="m 1394.26,527.422 c -706.752,0 -1279.619,58.43 -1279.619,130.539 0,30.449 102.449,58.48 274.164,80.691 0.242,-1.57 0.515,-3.152 0.812,-4.703 -154.762,-21.23 -246.316,-47.527 -246.316,-75.988 0,-70.492 560.039,-127.621 1250.959,-127.621 211.7,0 411.16,5.371 585.94,14.832 v -3.301 c -175.55,-9.23 -374.78,-14.449 -585.94,-14.449"
         style="fill:#e9e9e9;fill-opacity:1;fill-rule:nonzero;stroke:none"
         id="path274" /><path
         d="m 1394.26,530.34 c -690.92,0 -1250.959,57.129 -1250.959,127.621 0,28.461 91.554,54.758 246.316,75.988 0.317,-1.629 0.656,-3.25 1.028,-4.859 -137.856,-20.168 -218.684,-44.699 -218.684,-71.129 0,-68.879 547.207,-124.691 1222.299,-124.691 212.33,0 411.96,5.519 585.94,15.23 v -3.328 C 1805.42,535.711 1605.96,530.34 1394.26,530.34"
         style="fill:#e4e4e4;fill-opacity:1;fill-rule:nonzero;stroke:none"
         id="path276" /><path
         d="m 1394.26,533.27 c -675.092,0 -1222.299,55.812 -1222.299,124.691 0,26.43 80.828,50.961 218.684,71.129 0.394,-1.688 0.816,-3.367 1.273,-5.051 -121.039,-19.027 -191.297,-41.726 -191.297,-66.078 0,-67.27 534.375,-121.77 1193.639,-121.77 212.95,0 412.85,5.688 585.94,15.649 v -3.34 c -173.98,-9.711 -373.61,-15.23 -585.94,-15.23"
         style="fill:#dfdfdf;fill-opacity:1;fill-rule:nonzero;stroke:none"
         id="path278" /><path
         d="m 1394.26,536.191 c -659.264,0 -1193.639,54.5 -1193.639,121.77 0,24.352 70.258,47.051 191.297,66.078 0.484,-1.769 1.004,-3.527 1.559,-5.269 -104.262,-17.79 -164.2,-38.598 -164.2,-60.809 0,-65.66 521.547,-118.852 1164.983,-118.852 213.64,0 413.8,5.86 585.94,16.102 v -3.371 c -173.09,-9.961 -372.99,-15.649 -585.94,-15.649"
         style="fill:#d9d8d8;fill-opacity:1;fill-rule:nonzero;stroke:none"
         id="path280" /><path
         d="m 1394.26,539.109 c -643.436,0 -1164.983,53.192 -1164.983,118.852 0,22.211 59.938,43.019 164.2,60.809 0.593,-1.868 1.23,-3.719 1.906,-5.547 -87.653,-16.434 -137.449,-35.262 -137.449,-55.262 0,-64.051 508.718,-115.93 1136.326,-115.93 214.36,0 414.85,6.051 585.94,16.571 v -3.391 c -172.14,-10.242 -372.3,-16.102 -585.94,-16.102"
         style="fill:#d4d3d3;fill-opacity:1;fill-rule:nonzero;stroke:none"
         id="path282" /><path
         d="m 1394.26,542.031 c -627.608,0 -1136.326,51.879 -1136.326,115.93 0,20 49.796,38.828 137.449,55.262 0.734,-2.004 1.515,-3.973 2.344,-5.922 -71.204,-14.91 -111.129,-31.649 -111.129,-49.34 0,-62.43 495.882,-113 1107.662,-113 215.16,0 415.98,6.258 585.94,17.078 v -3.437 c -171.09,-10.52 -371.58,-16.571 -585.94,-16.571"
         style="fill:#cfcece;fill-opacity:1;fill-rule:nonzero;stroke:none"
         id="path284" /><path
         d="m 1394.26,544.961 c -611.78,0 -1107.662,50.57 -1107.662,113 0,17.691 39.925,34.43 111.129,49.34 0.914,-2.16 1.886,-4.301 2.91,-6.399 -54.977,-13.203 -85.383,-27.711 -85.383,-42.941 0,-60.82 483.059,-110.082 1079.006,-110.082 216.03,0 417.21,6.473 585.94,17.621 v -3.461 c -169.96,-10.82 -370.78,-17.078 -585.94,-17.078"
         style="fill:#c9c9c9;fill-opacity:1;fill-rule:nonzero;stroke:none"
         id="path286" /><path
         d="m 1394.26,547.879 c -595.947,0 -1079.006,49.262 -1079.006,110.082 0,15.23 30.406,29.738 85.383,42.941 1.172,-2.402 2.41,-4.75 3.722,-7.07 -39.125,-11.223 -60.441,-23.301 -60.441,-35.871 0,-59.211 470.219,-107.16 1050.342,-107.16 216.98,0 418.56,6.711 585.94,18.199 v -3.5 c -168.73,-11.148 -369.91,-17.621 -585.94,-17.621"
         style="fill:#c4c3c3;fill-opacity:1;fill-rule:nonzero;stroke:none"
         id="path288" /><path
         d="m 1394.26,550.801 c -580.123,0 -1050.342,47.949 -1050.342,107.16 0,12.57 21.316,24.648 60.441,35.871 1.559,-2.762 3.219,-5.473 4.965,-8.102 -23.961,-8.851 -36.75,-18.16 -36.75,-27.769 0,-57.59 457.391,-104.242 1021.686,-104.242 218.02,0 420.05,6.961 585.94,18.832 V 569 c -167.38,-11.488 -368.96,-18.199 -585.94,-18.199"
         style="fill:#bebdbd;fill-opacity:1;fill-rule:nonzero;stroke:none"
         id="path290" /><path
         d="m 1394.26,553.719 c -564.295,0 -1021.686,46.652 -1021.686,104.242 0,9.609 12.789,18.918 36.75,27.769 2.274,-3.429 4.703,-6.75 7.278,-9.941 -10.102,-5.789 -15.364,-11.75 -15.364,-17.828 0,-55.981 444.559,-101.309 993.022,-101.309 219.13,0 421.7,7.239 585.94,19.5 v -3.601 C 1814.31,560.68 1612.28,553.719 1394.26,553.719"
         style="fill:#b9b8b8;fill-opacity:1;fill-rule:nonzero;stroke:none"
         id="path292" /><path
         d="m 1394.26,556.652 c -548.463,0 -993.022,45.328 -993.022,101.309 0,6.078 5.262,12.039 15.364,17.828 4.218,-5.238 8.82,-10.148 13.773,-14.687 -0.32,-1.051 -0.484,-2.09 -0.484,-3.141 0,-54.371 431.73,-98.391 964.369,-98.391 220.41,0 423.52,7.539 585.94,20.231 v -3.649 c -164.24,-12.261 -366.81,-19.5 -585.94,-19.5"
         style="fill:#b4b3b3;fill-opacity:1;fill-rule:nonzero;stroke:none"
         id="path294" /><path
         d="m 1394.26,559.57 c -532.639,0 -964.369,44.02 -964.369,98.391 0,1.051 0.164,2.09 0.484,3.141 21.418,-19.641 49.289,-32.352 80.074,-34.59 127.36,-37.293 474.946,-64.02 883.811,-64.02 221.81,0 425.57,7.867 585.94,21.02 v -3.711 C 1817.78,567.109 1614.67,559.57 1394.26,559.57"
         style="fill:#aeadad;fill-opacity:1;fill-rule:nonzero;stroke:none"
         id="path296" /><path
         d="m 1394.26,562.492 c -408.865,0 -756.451,26.727 -883.811,64.02 3.235,-0.231 6.496,-0.352 9.789,-0.352 h 21.883 c 127.07,-35.461 460.629,-60.738 852.139,-60.738 223.36,0 427.88,8.23 585.94,21.879 v -3.789 c -160.37,-13.153 -364.13,-21.02 -585.94,-21.02"
         style="fill:#a8a7a7;fill-opacity:1;fill-rule:nonzero;stroke:none"
         id="path298" /><path
         d="m 1394.26,565.422 c -391.51,0 -725.069,25.277 -852.139,60.738 h 30.586 c 125.707,-33.808 446.113,-57.82 821.553,-57.82 225.13,0 430.5,8.633 585.94,22.84 v -3.879 c -158.06,-13.649 -362.58,-21.879 -585.94,-21.879"
         style="fill:#a3a2a2;fill-opacity:1;fill-rule:nonzero;stroke:none"
         id="path300" /><path
         d="m 1394.26,568.34 c -375.44,0 -695.846,24.012 -821.553,57.82 h 30.727 c 124.246,-32.168 431.476,-54.898 790.826,-54.898 227.15,0 433.49,9.078 585.94,23.89 v -3.972 c -155.44,-14.207 -360.81,-22.84 -585.94,-22.84"
         style="fill:#9e9c9c;fill-opacity:1;fill-rule:nonzero;stroke:none"
         id="path302" /><path
         d="m 1394.26,571.262 c -359.35,0 -666.58,22.73 -790.826,54.898 h 30.89 c 122.672,-30.519 416.686,-51.98 759.936,-51.98 229.48,0 436.95,9.59 585.94,25.07 v -4.098 c -152.45,-14.812 -358.79,-23.89 -585.94,-23.89"
         style="fill:#999797;fill-opacity:1;fill-rule:nonzero;stroke:none"
         id="path304" /><path
         d="m 1394.26,574.18 c -343.25,0 -637.264,21.461 -759.936,51.98 h 31.098 c 121.004,-28.859 401.758,-49.051 728.838,-49.051 232.16,0 441.01,10.18 585.94,26.403 v -4.262 c -148.99,-15.48 -356.46,-25.07 -585.94,-25.07"
         style="fill:#939292;fill-opacity:1;fill-rule:nonzero;stroke:none"
         id="path306" /><path
         d="m 1394.26,577.109 c -327.08,0 -607.834,20.192 -728.838,49.051 h 31.277 c 119.192,-27.199 386.661,-46.129 697.561,-46.129 235.34,0 445.84,10.848 585.94,27.918 v -4.437 c -144.93,-16.223 -353.78,-26.403 -585.94,-26.403"
         style="fill:#8d8c8c;fill-opacity:1;fill-rule:nonzero;stroke:none"
         id="path308" /><path
         d="m 1394.26,580.031 c -310.9,0 -578.369,18.93 -697.561,46.129 h 31.516 c 117.23,-25.539 371.375,-43.211 666.045,-43.211 239.2,0 451.7,11.641 585.94,29.692 v -4.692 c -140.1,-17.07 -350.6,-27.918 -585.94,-27.918"
         style="fill:#888686;fill-opacity:1;fill-rule:nonzero;stroke:none"
         id="path310" /><path
         d="m 1394.26,582.949 c -294.67,0 -548.815,17.672 -666.045,43.211 h 31.789 c 115.101,-23.879 355.856,-40.289 634.256,-40.289 243.95,0 459,12.598 585.94,31.789 v -5.019 C 1845.96,594.59 1633.46,582.949 1394.26,582.949"
         style="fill:#838181;fill-opacity:1;fill-rule:nonzero;stroke:none"
         id="path312" /><path
         d="m 1394.26,585.871 c -278.4,0 -519.155,16.41 -634.256,40.289 h 32.105 c 112.774,-22.211 340.071,-37.359 602.151,-37.359 250.04,0 468.46,13.789 585.94,34.351 v -5.492 c -126.94,-19.191 -341.99,-31.789 -585.94,-31.789"
         style="fill:#7e7c7c;fill-opacity:1;fill-rule:nonzero;stroke:none"
         id="path314" /><path
         d="m 1394.26,588.801 c -262.08,0 -489.377,15.148 -602.151,37.359 h 32.457 c 110.235,-20.539 324.014,-34.441 569.694,-34.441 245.66,0 459.45,13.902 569.69,34.441 h 16.25 v -3.008 C 1862.72,602.59 1644.3,588.801 1394.26,588.801"
         style="fill:#797777;fill-opacity:1;fill-rule:nonzero;stroke:none"
         id="path316" /><path
         d="m 1394.26,591.719 c -245.68,0 -459.459,13.902 -569.694,34.441 h 32.899 c 107.43,-18.859 307.595,-31.519 536.795,-31.519 229.19,0 429.35,12.66 536.8,31.519 h 32.89 c -110.24,-20.539 -324.03,-34.441 -569.69,-34.441"
         style="fill:#737171;fill-opacity:1;fill-rule:nonzero;stroke:none"
         id="path318" /><path
         d="m 1394.26,594.641 c -229.2,0 -429.365,12.66 -536.795,31.519 h 33.426 c 104.328,-17.18 290.739,-28.59 503.369,-28.59 212.61,0 399.03,11.41 503.37,28.59 h 33.43 c -107.45,-18.859 -307.61,-31.519 -536.8,-31.519"
         style="fill:#6d6b6b;fill-opacity:1;fill-rule:nonzero;stroke:none"
         id="path320" /><path
         d="m 1394.26,597.57 c -212.63,0 -399.041,11.41 -503.369,28.59 h 34.07 c 100.879,-15.48 273.399,-25.668 469.299,-25.668 195.88,0 368.41,10.188 469.29,25.668 h 34.08 c -104.34,-17.18 -290.76,-28.59 -503.37,-28.59"
         style="fill:#686666;fill-opacity:1;fill-rule:nonzero;stroke:none"
         id="path322" /><path
         d="m 1394.26,600.492 c -195.9,0 -368.42,10.188 -469.299,25.668 h 34.812 c 96.987,-13.789 255.437,-22.75 434.487,-22.75 179.03,0 337.49,8.961 434.48,22.75 h 34.81 c -100.88,-15.48 -273.41,-25.668 -469.29,-25.668"
         style="fill:#636161;fill-opacity:1;fill-rule:nonzero;stroke:none"
         id="path324" /><path
         d="m 1394.26,603.41 c -179.05,0 -337.5,8.961 -434.487,22.75 h 35.786 c 92.571,-12.078 236.741,-19.828 398.701,-19.828 161.94,0 306.11,7.75 398.7,19.828 h 35.78 c -96.99,-13.789 -255.45,-22.75 -434.48,-22.75"
         style="fill:#5d5b5b;fill-opacity:1;fill-rule:nonzero;stroke:none"
         id="path326" /><path
         d="m 1394.26,606.332 c -161.96,0 -306.13,7.75 -398.701,19.828 h 37.081 c 87.5,-10.359 217.04,-16.898 361.62,-16.898 144.56,0 274.1,6.539 361.61,16.898 h 37.09 c -92.59,-12.078 -236.76,-19.828 -398.7,-19.828"
         style="fill:#585555;fill-opacity:1;fill-rule:nonzero;stroke:none"
         id="path328" /><path
         d="m 1394.26,609.262 c -144.58,0 -274.12,6.539 -361.62,16.898 h 38.73 c 81.57,-8.629 196.08,-13.98 322.89,-13.98 126.79,0 241.3,5.351 322.88,13.98 h 38.73 c -87.51,-10.359 -217.05,-16.898 -361.61,-16.898"
         style="fill:#535050;fill-opacity:1;fill-rule:nonzero;stroke:none"
         id="path330" /><path
         d="m 1394.26,612.18 c -126.81,0 -241.32,5.351 -322.89,13.98 h 41.14 c 74.49,-6.879 173.32,-11.058 281.75,-11.058 108.42,0 207.25,4.179 281.74,11.058 h 41.14 c -81.58,-8.629 -196.09,-13.98 -322.88,-13.98"
         style="fill:#4d4b4b;fill-opacity:1;fill-rule:nonzero;stroke:none"
         id="path332" /><path
         d="m 1394.26,615.102 c -108.43,0 -207.26,4.179 -281.75,11.058 h 44.75 c 65.76,-5.109 147.9,-8.14 237,-8.14 89.08,0 171.22,3.031 236.98,8.14 H 1676 c -74.49,-6.879 -173.32,-11.058 -281.74,-11.058"
         style="fill:#484646;fill-opacity:1;fill-rule:nonzero;stroke:none"
         id="path334" /><path
         d="m 1394.26,618.02 c -89.1,0 -171.24,3.031 -237,8.14 h 51.13 c 54.35,-3.308 117.92,-5.211 185.87,-5.211 67.94,0 131.51,1.903 185.86,5.211 h 51.12 c -65.76,-5.109 -147.9,-8.14 -236.98,-8.14"
         style="fill:#423f3f;fill-opacity:1;fill-rule:nonzero;stroke:none"
         id="path336" /><path
         d="m 1394.26,620.949 c -67.95,0 -131.52,1.903 -185.87,5.211 h 65 c 37.48,-1.48 78.25,-2.301 120.87,-2.301 42.62,0 83.38,0.821 120.85,2.301 h 65.01 c -54.35,-3.308 -117.92,-5.211 -185.86,-5.211"
         style="fill:#3d3a3a;fill-opacity:1;fill-rule:nonzero;stroke:none"
         id="path338" /><path
         d="m 1394.26,623.859 c -42.62,0 -83.39,0.821 -120.87,2.301 h 241.72 c -37.47,-1.48 -78.23,-2.301 -120.85,-2.301"
         style="fill:#383535;fill-opacity:1;fill-rule:nonzero;stroke:none"
         id="path340" /><path
         d="m 1613.49,657.961 c 0,-12.441 -98.18,-22.398 -219.23,-22.398 -121.11,0 -219.22,9.957 -219.22,22.398 0,12.301 98.11,22.301 219.22,22.301 121.05,0 219.23,-10 219.23,-22.301"
         style="fill:#221f1f;fill-opacity:1;fill-rule:nonzero;stroke:none"
         id="path342" /><path
         d="M 5132.36,984.891 H 3521.12 L 3754.07,2071.98 H 4899.41 L 5132.36,984.891"
         style="fill:#d0d2d3;fill-opacity:1;fill-rule:nonzero;stroke:none"
         id="path344" /><path
         d="m 5031.14,1457.29 -131.73,614.69 H 3754.07 l -131.73,-614.69 h 1408.8"
         style="fill:#bbbdbf;fill-opacity:1;fill-rule:nonzero;stroke:none"
         id="path346" /><path
         d="M 5469.98,859.602 H 3183.5 c -121.31,0 -139.99,160.568 -139.99,160.568 h 2566.46 c 0,0 -18.66,-160.568 -139.99,-160.568"
         style="fill:#e6e6e7;fill-opacity:1;fill-rule:nonzero;stroke:none"
         id="path348" /><path
         d="m 7350.77,2289.43 c 0,-147.49 -119.5,-266.98 -266.99,-266.98 H 1569.7 c -147.5,0 -266.99,119.49 -266.99,266.98 v 3203.89 c 0,147.47 119.49,267.04 266.99,267.04 h 5514.08 c 147.49,0 266.99,-119.57 266.99,-267.04 V 2289.43"
         style="fill:#221f1f;fill-opacity:1;fill-rule:nonzero;stroke:none"
         id="path350" /><path
         d="m 1302.71,2361.75 v -525.43 c 0,-147.44 119.49,-266.98 266.99,-266.98 h 5514.08 c 147.49,0 266.99,119.54 266.99,266.98 v 525.43 H 1302.71"
         style="fill:#e6e6e7;fill-opacity:1;fill-rule:nonzero;stroke:none"
         id="path352" /><path
         d="m 1497.85,2601.16 h 5657.8 v 2906.97 h -5657.8 z"
         style="fill:#f0f1f1;fill-opacity:1;fill-rule:nonzero;stroke:none"
         id="path354" /><path
         d="m 4519.99,1979.54 c 0,-106.72 -86.53,-193.24 -193.25,-193.24 -106.72,0 -193.24,86.52 -193.24,193.24 0,106.74 86.52,193.24 193.24,193.24 106.72,0 193.25,-86.5 193.25,-193.24"
         style="fill:#929597;fill-opacity:1;fill-rule:nonzero;stroke:none"
         id="path356" /><path
         d="m 2250.44,5099.27 h 1232.3 v 270.895 h -1232.3 z"
         style="fill:#914e93;fill-opacity:1;fill-rule:nonzero;stroke:none"
         id="path358" /><path
         d="m 3710.64,5099.27 h 2692.43 v 270.895 H 3710.64 Z"
         style="fill:#bbbdbf;fill-opacity:1;fill-rule:nonzero;stroke:none"
         id="path360" /><path
         d="m 2250.44,4229.35 h 4152.63 v 746.371 H 2250.44 Z"
         style="fill:#29a9e0;fill-opacity:1;fill-rule:nonzero;stroke:none"
         id="path362" /><path
         d="m 2250.48,3323.92 h 1232.26 v 755.219 H 2250.48 Z"
         style="fill:#f69322;fill-opacity:1;fill-rule:nonzero;stroke:none"
         id="path364" /><path
         d="M 3710.64,3323.92 H 4942.9 v 755.219 H 3710.64 Z"
         style="fill:#d34040;fill-opacity:1;fill-rule:nonzero;stroke:none"
         id="path366" /><path
         d="m 5170.8,3323.92 h 1232.27 v 755.219 H 5170.8 Z"
         style="fill:#8bc543;fill-opacity:1;fill-rule:nonzero;stroke:none"
         id="path368" /><path
         d="m 2250.48,3101.66 h 1232.26 v 107.27 H 2250.48 Z"
         style="fill:#929597;fill-opacity:1;fill-rule:nonzero;stroke:none"
         id="path370" /><path
         d="m 2250.48,2911.96 h 1232.26 v 107.27 H 2250.48 Z"
         style="fill:#bbbdbf;fill-opacity:1;fill-rule:nonzero;stroke:none"
         id="path372" /><path
         d="m 2250.48,2722.26 h 1232.26 v 107.258 H 2250.48 Z"
         style="fill:#bbbdbf;fill-opacity:1;fill-rule:nonzero;stroke:none"
         id="path374" /><path
         d="M 3710.64,3101.66 H 4942.9 v 107.27 H 3710.64 Z"
         style="fill:#929597;fill-opacity:1;fill-rule:nonzero;stroke:none"
         id="path376" /><path
         d="M 3710.64,2911.96 H 4942.9 v 107.27 H 3710.64 Z"
         style="fill:#bbbdbf;fill-opacity:1;fill-rule:nonzero;stroke:none"
         id="path378" /><path
         d="M 4942.9,2722.26 H 3710.64 v 107.26 H 4942.9 v -107.26"
         style="fill:#bbbdbf;fill-opacity:1;fill-rule:nonzero;stroke:none"
         id="path380" /><path
         d="m 5170.8,3101.66 h 1232.27 v 107.27 H 5170.8 Z"
         style="fill:#929597;fill-opacity:1;fill-rule:nonzero;stroke:none"
         id="path382" /><path
         d="m 5170.8,2911.96 h 1232.27 v 107.27 H 5170.8 Z"
         style="fill:#bbbdbf;fill-opacity:1;fill-rule:nonzero;stroke:none"
         id="path384" /><path
         d="m 5170.8,2722.26 h 1232.27 v 107.258 H 5170.8 Z"
         style="fill:#bbbdbf;fill-opacity:1;fill-rule:nonzero;stroke:none"
         id="path386" /><path
         d="m 5640.33,2361.75 h -334.76 l -144.53,239.41 h 479.29 v -239.41 m 1710.44,908.19 H 7155.65 V 5508.13 H 3406.13 l -149.8,248.14 h 3827.45 c 147.49,0 266.99,-119.57 266.99,-267.05 V 3269.94"
         style="fill:#656363;fill-opacity:1;fill-rule:nonzero;stroke:none"
         id="path388" /><path
         d="m 5640.33,1807.24 -334.76,554.51 h 334.76 v -554.51"
         style="fill:#eeeeee;fill-opacity:1;fill-rule:nonzero;stroke:none"
         id="path390" /><path
         d="m 5640.33,2601.16 h -479.29 l -218.14,361.35 v 56.72 h -34.24 l -49.77,82.43 h 84.01 v 107.27 h -148.77 l -69.41,114.99 h 218.18 v 755.22 h -674.1 l -90.68,150.21 h 2224.95 v 746.37 H 3727.54 l -321.41,532.41 H 7155.65 V 3269.94 H 5878.08 c -61.14,0 -116.89,-23.09 -159.01,-61.01 H 5170.8 v -107.27 h 479.85 c -6.71,-21.99 -10.32,-45.34 -10.32,-69.52 v -12.91 H 5170.8 v -107.27 h 469.53 v -82.44 H 5170.8 v -107.26 h 469.53 v -121.1 M 5170.8,4079.14 v -755.22 h 1232.27 v 755.22 H 5170.8 M 3710.64,5370.16 v -270.89 h 2692.43 v 270.89 H 3710.64"
         style="fill:#f5f5f5;fill-opacity:1;fill-rule:nonzero;stroke:none"
         id="path392" /><path
         d="m 3710.64,5099.27 h 2692.43 v 270.895 H 3710.64 Z"
         style="fill:#d0d1d2;fill-opacity:1;fill-rule:nonzero;stroke:none"
         id="path394" /><path
         d="M 6403.07,4229.35 H 4178.12 l -450.58,746.37 h 2675.53 v -746.37"
         style="fill:#6ac3e9;fill-opacity:1;fill-rule:nonzero;stroke:none"
         id="path396" /><path
         d="m 4942.9,3323.92 h -218.18 l -455.92,755.22 h 674.1 v -755.22"
         style="fill:#e07a7a;fill-opacity:1;fill-rule:nonzero;stroke:none"
         id="path398" /><path
         d="m 5170.8,3323.92 h 1232.27 v 755.219 H 5170.8 Z"
         style="fill:#aed77c;fill-opacity:1;fill-rule:nonzero;stroke:none"
         id="path400" /><path
         d="m 4942.9,3101.66 h -84.01 l -64.76,107.27 h 148.77 v -107.27"
         style="fill:#b3b5b6;fill-opacity:1;fill-rule:nonzero;stroke:none"
         id="path402" /><path
         d="m 4942.9,2962.51 -34.24,56.72 h 34.24 v -56.72"
         style="fill:#d0d1d2;fill-opacity:1;fill-rule:nonzero;stroke:none"
         id="path404" /><path
         d="M 5650.65,3101.66 H 5170.8 v 107.27 h 548.27 c -31.69,-28.53 -55.66,-65.44 -68.42,-107.27"
         style="fill:#b3b5b6;fill-opacity:1;fill-rule:nonzero;stroke:none"
         id="path406" /><path
         d="m 5170.8,2911.96 h 469.531 v 107.27 H 5170.8 Z"
         style="fill:#d0d1d2;fill-opacity:1;fill-rule:nonzero;stroke:none"
         id="path408" /><path
         d="m 5170.8,2722.26 h 469.531 v 107.258 H 5170.8 Z"
         style="fill:#d0d1d2;fill-opacity:1;fill-rule:nonzero;stroke:none"
         id="path410" /><path
         d="M 10084.1,276.391 V 3032.14 c 0,131.33 -106.44,237.8 -237.77,237.8 H 5878.08 c -131.32,0 -237.75,-106.47 -237.75,-237.8 V 276.391 h 4443.77"
         style="fill:#221f1f;fill-opacity:1;fill-rule:nonzero;stroke:none"
         id="path412" /><path
         d="M 10438.5,114.219 H 5285.93 c -106.89,0 -123.33,141.472 -123.33,141.472 h 5399.2 c 0,0 -16.4,-141.472 -123.3,-141.472"
         style="fill:#bbbdbf;fill-opacity:1;fill-rule:nonzero;stroke:none"
         id="path414" /><path
         d="M 10561.8,231.59 H 5162.6 v 79.351 h 5399.2 V 231.59"
         style="fill:#e6e6e7;fill-opacity:1;fill-rule:nonzero;stroke:none"
         id="path416" /><path
         d="M 8383.17,265.949 H 7341.22 v 44.992 h 1041.95 v -44.992"
         style="fill:#bbbdbf;fill-opacity:1;fill-rule:nonzero;stroke:none"
         id="path418" /><path
         d="M 5814.11,456.75 H 9910.32 V 3045.33 H 5814.11 Z"
         style="fill:#f0f1f1;fill-opacity:1;fill-rule:nonzero;stroke:none"
         id="path420" /><path
         d="M 7097.27,2681.56 H 5999.96 v 241.23 h 1097.31 v -241.23"
         style="fill:#914e93;fill-opacity:1;fill-rule:nonzero;stroke:none"
         id="path422" /><path
         d="m 7300.18,2681.56 h 2397.54 v 241.23 H 7300.18 Z"
         style="fill:#bbbdbf;fill-opacity:1;fill-rule:nonzero;stroke:none"
         id="path424" /><path
         d="m 5999.96,1906.9 h 3697.76 v 664.637 H 5999.96 Z"
         style="fill:#29a9e0;fill-opacity:1;fill-rule:nonzero;stroke:none"
         id="path426" /><path
         d="M 7097.27,1100.66 H 5999.96 v 672.49 h 1097.31 v -672.49"
         style="fill:#f69322;fill-opacity:1;fill-rule:nonzero;stroke:none"
         id="path428" /><path
         d="m 7300.18,1100.66 h 1097.31 v 672.492 H 7300.18 Z"
         style="fill:#d34040;fill-opacity:1;fill-rule:nonzero;stroke:none"
         id="path430" /><path
         d="m 8600.41,1100.66 h 1097.31 v 672.492 H 8600.41 Z"
         style="fill:#8bc543;fill-opacity:1;fill-rule:nonzero;stroke:none"
         id="path432" /><path
         d="M 7097.27,902.742 H 5999.96 v 95.547 h 1097.31 v -95.547"
         style="fill:#929597;fill-opacity:1;fill-rule:nonzero;stroke:none"
         id="path434" /><path
         d="M 7097.27,733.82 H 5999.96 v 95.52 h 1097.31 v -95.52"
         style="fill:#bbbdbf;fill-opacity:1;fill-rule:nonzero;stroke:none"
         id="path436" /><path
         d="M 7097.27,564.891 H 5999.96 v 95.539 h 1097.31 v -95.539"
         style="fill:#bbbdbf;fill-opacity:1;fill-rule:nonzero;stroke:none"
         id="path438" /><path
         d="M 8397.49,902.742 H 7300.18 v 95.547 h 1097.31 v -95.547"
         style="fill:#929597;fill-opacity:1;fill-rule:nonzero;stroke:none"
         id="path440" /><path
         d="M 8397.49,733.82 H 7300.18 v 95.52 h 1097.31 v -95.52"
         style="fill:#bbbdbf;fill-opacity:1;fill-rule:nonzero;stroke:none"
         id="path442" /><path
         d="M 8397.49,564.891 H 7300.18 v 95.539 h 1097.31 v -95.539"
         style="fill:#bbbdbf;fill-opacity:1;fill-rule:nonzero;stroke:none"
         id="path444" /><path
         d="m 8600.41,902.742 h 1097.31 v 95.5469 H 8600.41 Z"
         style="fill:#929597;fill-opacity:1;fill-rule:nonzero;stroke:none"
         id="path446" /><path
         d="m 8600.41,733.82 h 1097.31 v 95.5195 H 8600.41 Z"
         style="fill:#bbbdbf;fill-opacity:1;fill-rule:nonzero;stroke:none"
         id="path448" /><path
         d="m 8600.41,564.891 h 1097.31 v 95.5391 H 8600.41 Z"
         style="fill:#bbbdbf;fill-opacity:1;fill-rule:nonzero;stroke:none"
         id="path450" /><g
         id="g452"><g
           id="g454"
           clip-path="url(#clipPath458)"><path
             d="m 9846.33,320.563 h 239.27 v 2949.38 h -239.27 z"
             style="fill:#ffffff;fill-opacity:1;fill-rule:nonzero;stroke:none"
             id="path460" /></g></g><path
         d="M 10084.1,320.563 H 8895.8 L 8813.58,456.75 H 9910.32 V 3045.33 H 7250.89 l -135.59,224.61 h 2731.03 c 131.33,0 237.77,-106.47 237.77,-237.8 V 320.563"
         style="fill:#656363;fill-opacity:1;fill-rule:nonzero;stroke:none"
         id="path462" /><path
         d="M 9910.32,456.75 H 8813.58 l -65.29,108.141 h 949.43 v 95.539 h -1007.1 l -44.31,73.39 h 1051.41 v 95.52 H 8600.41 V 809.852 L 8397.49,1146 v 627.15 h -378.61 l -80.74,133.75 h 1759.58 v 664.64 H 7536.91 l -66.42,110.02 h 2227.23 v 241.23 H 7324.86 l -73.97,122.54 H 9910.32 V 456.75 M 8600.41,998.289 v -95.547 h 1097.31 v 95.547 H 8600.41 m 0,774.861 v -672.49 h 1097.31 v 672.49 H 8600.41"
         style="fill:#f5f5f5;fill-opacity:1;fill-rule:nonzero;stroke:none"
         id="path464" /><path
         d="M 9697.72,2681.56 H 7470.49 l -145.63,241.23 h 2372.86 v -241.23"
         style="fill:#d0d1d2;fill-opacity:1;fill-rule:nonzero;stroke:none"
         id="path466" /><path
         d="M 9697.72,1906.9 H 7938.14 l -401.23,664.64 H 9697.72 V 1906.9"
         style="fill:#6ac3e9;fill-opacity:1;fill-rule:nonzero;stroke:none"
         id="path468" /><path
         d="m 8397.49,1146 -378.61,627.15 h 378.61 V 1146"
         style="fill:#e07a7a;fill-opacity:1;fill-rule:nonzero;stroke:none"
         id="path470" /><path
         d="m 8600.41,1100.66 h 1097.31 v 672.492 H 8600.41 Z"
         style="fill:#aed77c;fill-opacity:1;fill-rule:nonzero;stroke:none"
         id="path472" /><path
         d="m 8600.41,902.742 h 1097.31 v 95.5469 H 8600.41 Z"
         style="fill:#b3b5b6;fill-opacity:1;fill-rule:nonzero;stroke:none"
         id="path474" /><path
         d="M 9697.72,733.82 H 8646.31 l -45.9,76.032 v 19.488 h 1097.31 v -95.52"
         style="fill:#d0d1d2;fill-opacity:1;fill-rule:nonzero;stroke:none"
         id="path476" /><path
         d="m 9697.72,564.891 h -949.43 l -57.67,95.539 h 1007.1 v -95.539"
         style="fill:#d0d1d2;fill-opacity:1;fill-rule:nonzero;stroke:none"
         id="path478" /><path
         d="m 520.238,626.16 c -73.484,0 -133.011,59.551 -133.011,133.051 V 3437.72 c 0,73.46 59.527,133.02 133.011,133.02 H 2311.61 c 73.49,0 133.03,-59.56 133.03,-133.02 V 759.211 c 0,-73.5 -59.54,-133.051 -133.03,-133.051 H 520.238"
         style="fill:#221f1f;fill-opacity:1;fill-rule:nonzero;stroke:none"
         id="path480" /><path
         d="m 527.438,912.66 h 1777.01 V 3284.24 H 527.438 Z"
         style="fill:#f0f1f1;fill-opacity:1;fill-rule:nonzero;stroke:none"
         id="path482" /><path
         d="m 1554.62,761.84 c 0,-26.91 -21.82,-48.731 -48.75,-48.731 h -153.21 c -26.91,0 -48.71,21.821 -48.71,48.731 0,26.949 21.8,48.73 48.71,48.73 h 153.21 c 26.93,0 48.75,-21.781 48.75,-48.73"
         style="fill:#403f41;fill-opacity:1;fill-rule:nonzero;stroke:none"
         id="path484" /><path
         d="m 621.32,2919.37 h 550.051 v 234.02 H 621.32 Z"
         style="fill:#914e93;fill-opacity:1;fill-rule:nonzero;stroke:none"
         id="path486" /><path
         d="m 1268.7,2919.37 h 941.25 v 234.02 H 1268.7 Z"
         style="fill:#bbbdbf;fill-opacity:1;fill-rule:nonzero;stroke:none"
         id="path488" /><path
         d="m 621.344,2135.95 h 1588.61 v 657.563 H 621.344 Z"
         style="fill:#29a9e0;fill-opacity:1;fill-rule:nonzero;stroke:none"
         id="path490" /><path
         d="M 1343.9,1567.57 H 621.324 v 442.86 H 1343.9 v -442.86"
         style="fill:#f69322;fill-opacity:1;fill-rule:nonzero;stroke:none"
         id="path492" /><path
         d="m 1477.51,1567.57 h 722.578 v 442.859 H 1477.51 Z"
         style="fill:#d34040;fill-opacity:1;fill-rule:nonzero;stroke:none"
         id="path494" /><path
         d="M 1343.9,1396.33 H 621.324 v 62.91 H 1343.9 v -62.91"
         style="fill:#929597;fill-opacity:1;fill-rule:nonzero;stroke:none"
         id="path496" /><path
         d="M 1343.9,1268 H 621.324 v 62.91 H 1343.9 V 1268"
         style="fill:#bbbdbf;fill-opacity:1;fill-rule:nonzero;stroke:none"
         id="path498" /><path
         d="M 1343.9,1139.68 H 621.324 v 62.89 H 1343.9 v -62.89"
         style="fill:#bbbdbf;fill-opacity:1;fill-rule:nonzero;stroke:none"
         id="path500" /><path
         d="M 1343.92,1011.36 H 621.344 v 62.91 h 722.576 v -62.91"
         style="fill:#bbbdbf;fill-opacity:1;fill-rule:nonzero;stroke:none"
         id="path502" /><path
         d="m 1477.51,1396.33 h 722.578 v 62.9102 H 1477.51 Z"
         style="fill:#929597;fill-opacity:1;fill-rule:nonzero;stroke:none"
         id="path504" /><path
         d="m 1477.51,1268 h 722.578 v 62.9102 H 1477.51 Z"
         style="fill:#bbbdbf;fill-opacity:1;fill-rule:nonzero;stroke:none"
         id="path506" /><path
         d="m 1477.51,1139.68 h 722.578 v 62.8906 H 1477.51 Z"
         style="fill:#bbbdbf;fill-opacity:1;fill-rule:nonzero;stroke:none"
         id="path508" /><path
         d="m 1477.51,1011.32 h 722.578 v 62.9102 H 1477.51 Z"
         style="fill:#bbbdbf;fill-opacity:1;fill-rule:nonzero;stroke:none"
         id="path510" /><path
         d="m 1980.2,1074.23 h -4.42 l -39.52,65.45 h 43.94 v -65.45"
         style="fill:#f5f5f5;fill-opacity:1;fill-rule:nonzero;stroke:none"
         id="path512" /><path
         d="m 2444.64,2361.75 h 0.02 v 239.41 h -0.02 z"
         style="fill:#656363;fill-opacity:1;fill-rule:nonzero;stroke:none"
         id="path514" /><path
         d="m 2444.64,2153.04 h 0.02 v 208.711 h -0.02 z"
         style="fill:#eeeeee;fill-opacity:1;fill-rule:nonzero;stroke:none"
         id="path516" /><path
         d="m 2444.66,2601.16 h -0.02 v 121.1 h 0.02 v -121.1 m 0,228.36 h -0.02 v 82.44 h 0.02 v -82.44 m 0,189.71 h -0.02 v 82.43 h 0.02 v -82.43 m 0,189.7 h -0.02 v 114.99 h 0.02 v -114.99"
         style="fill:#f5f5f5;fill-opacity:1;fill-rule:nonzero;stroke:none"
         id="path518" /><path
         d="m 2444.66,3323.92 h -0.02 v 113.8 c 0,73.31 -59.31,132.78 -132.6,133.02 73.29,-0.24 132.62,-59.69 132.62,-133.02 v -113.8"
         style="fill:#f9b465;fill-opacity:1;fill-rule:nonzero;stroke:none"
         id="path520" /><path
         d="m 2444.64,3101.66 h 0.02 v 107.27 h -0.02 z"
         style="fill:#b3b5b6;fill-opacity:1;fill-rule:nonzero;stroke:none"
         id="path522" /><path
         d="m 2444.64,2911.96 h 0.02 v 107.27 h -0.02 z"
         style="fill:#d0d1d2;fill-opacity:1;fill-rule:nonzero;stroke:none"
         id="path524" /><path
         d="m 2444.64,2722.26 h 0.02 v 107.258 h -0.02 z"
         style="fill:#d0d1d2;fill-opacity:1;fill-rule:nonzero;stroke:none"
         id="path526" /><path
         d="m 519.871,3570.74 c 0.027,0 0.047,0 0.07,0 -0.019,0 -0.046,0 -0.07,0"
         style="fill:#ffffff;fill-opacity:1;fill-rule:nonzero;stroke:none"
         id="path528" /><path
         d="m 2444.64,2153.04 h -140.19 v 1131.2 H 641.609 l -167.82,277.99 c 14.363,5.37 29.848,8.46 46.082,8.51 0.024,0 0.051,0 0.07,0 0.106,0 0.211,0 0.317,0 H 2311.61 c 0.14,0 0.29,0 0.43,0 73.29,-0.24 132.6,-59.71 132.6,-133.02 v -113.8 -114.99 -107.27 -82.43 -107.27 -82.44 -107.26 -121.1 -239.41 -208.71"
         style="fill:#656363;fill-opacity:1;fill-rule:nonzero;stroke:none"
         id="path530" /><path
         d="m 1980.2,1202.57 h -81.9 l -39.5,65.43 h 121.4 v -65.43 m 0,128.34 h -159.38 l -39.49,65.42 h 198.87 v -65.42 m 0,128.33 h -236.85 l -65.4,108.33 h 302.25 v -108.33 m -502.69,440.35 -142.68,236.36 h 697.85 c -19.6,-11.96 -35.42,-29.49 -45.3,-50.37 l 2.32,-3.84 c -6.12,-14.25 -9.5,-29.94 -9.5,-46.42 v -24.89 h -502.69 v -110.84 m 826.94,253.45 h -94.5 v 640.47 H 937.859 l -75.98,125.86 h 309.491 v 234.02 H 720.605 l -78.996,130.85 H 2304.45 V 2153.04 M 1268.7,3153.39 v -234.02 h 941.25 v 234.02 H 1268.7"
         style="fill:#f5f5f5;fill-opacity:1;fill-rule:nonzero;stroke:none"
         id="path532" /><path
         d="M 1171.37,2919.37 H 861.879 l -141.274,234.02 h 450.765 v -234.02"
         style="fill:#b283b4;fill-opacity:1;fill-rule:nonzero;stroke:none"
         id="path534" /><path
         d="m 1268.7,2919.37 h 941.25 v 234.02 H 1268.7 Z"
         style="fill:#d0d1d2;fill-opacity:1;fill-rule:nonzero;stroke:none"
         id="path536" /><path
         d="M 2032.68,2135.95 H 1334.83 L 937.859,2793.51 H 2209.95 v -640.47 h -112.08 v 0 h -4.19 c -22.37,0 -43.24,-6.25 -61,-17.09"
         style="fill:#6ac3e9;fill-opacity:1;fill-rule:nonzero;stroke:none"
         id="path538" /><path
         d="m 1980.2,1567.57 h -302.25 l -200.44,332.02 v 110.84 h 502.69 v -442.86"
         style="fill:#e07a7a;fill-opacity:1;fill-rule:nonzero;stroke:none"
         id="path540" /><path
         d="m 1980.2,1396.33 h -198.87 l -37.98,62.91 h 236.85 v -62.91"
         style="fill:#b3b5b6;fill-opacity:1;fill-rule:nonzero;stroke:none"
         id="path542" /><path
         d="m 1980.2,1268 h -121.4 l -37.98,62.91 H 1980.2 V 1268"
         style="fill:#d0d1d2;fill-opacity:1;fill-rule:nonzero;stroke:none"
         id="path544" /><path
         d="m 1980.2,1139.68 h -43.94 l -37.96,62.89 h 81.9 v -62.89"
         style="fill:#d0d1d2;fill-opacity:1;fill-rule:nonzero;stroke:none"
         id="path546" /><path
         d="m 1980.2,1066.91 -4.42,7.32 h 4.42 v -7.32"
         style="fill:#d0d1d2;fill-opacity:1;fill-rule:nonzero;stroke:none"
         id="path548" /><path
         d="m 3174.42,201.77 c 0,-65.04 -52.71,-117.7075 -117.69,-117.7075 h -958.86 c -65.02,0 -117.67,52.6675 -117.67,117.7075 v 1833.55 c 0,64.99 52.65,117.72 117.67,117.72 h 958.86 c 64.98,0 117.69,-52.73 117.69,-117.72 V 201.77"
         style="fill:#221f1f;fill-opacity:1;fill-rule:nonzero;stroke:none"
         id="path550" /><path
         d="M 2053.72,374.25 H 3100.88 V 1892.96 H 2053.72 Z"
         style="fill:#f0f1f1;fill-opacity:1;fill-rule:nonzero;stroke:none"
         id="path552" /><path
         d="m 2621.28,2009.17 c 0,-24.32 -19.7,-43.98 -43.98,-43.98 -24.28,0 -44,19.66 -44,43.98 0,24.28 19.72,43.96 44,43.96 24.28,0 43.98,-19.68 43.98,-43.96"
         style="fill:#403f41;fill-opacity:1;fill-rule:nonzero;stroke:none"
         id="path554" /><path
         d="m 2701.84,227.711 c 0,-26.742 -21.7,-48.398 -48.44,-48.398 h -152.2 c -26.76,0 -48.44,21.656 -48.44,48.398 0,26.762 21.68,48.41 48.44,48.41 h 152.2 c 26.74,0 48.44,-21.648 48.44,-48.41"
         style="fill:#403f41;fill-opacity:1;fill-rule:nonzero;stroke:none"
         id="path556" /><path
         d="m 2106.35,1692.07 h 944.898 v 152.609 H 2106.35 Z"
         style="fill:#914e93;fill-opacity:1;fill-rule:nonzero;stroke:none"
         id="path558" /><path
         d="m 2106.37,1471.95 h 944.84 v 168.941 h -944.84 z"
         style="fill:#bbbdbf;fill-opacity:1;fill-rule:nonzero;stroke:none"
         id="path560" /><path
         d="m 2106.37,1028.24 h 944.859 v 381.32 H 2106.37 Z"
         style="fill:#29a9e0;fill-opacity:1;fill-rule:nonzero;stroke:none"
         id="path562" /><path
         d="m 2106.35,441.07 h 944.859 V 967.812 H 2106.35 Z"
         style="fill:#f69322;fill-opacity:1;fill-rule:nonzero;stroke:none"
         id="path564" /><path
         d="m 1989.7,2081.74 -2.32,3.84 c 9.88,20.88 25.7,38.41 45.3,50.37 h 4.09 c -20.81,-12.67 -37.38,-31.62 -47.07,-54.21"
         style="fill:#f8f8f8;fill-opacity:1;fill-rule:nonzero;stroke:none"
         id="path566" /><path
         d="m 2036.77,2135.95 h -4.09 c 17.76,10.84 38.63,17.09 61,17.09 h 4.19 c -22.38,0 -43.29,-6.25 -61.1,-17.09"
         style="fill:#97d5f0;fill-opacity:1;fill-rule:nonzero;stroke:none"
         id="path568" /><path
         d="m 3157.11,147.93 -136.63,226.32 h 80.4 v 1518.71 h -997.22 l -113.96,188.78 c 9.69,22.59 26.26,41.54 47.07,54.21 17.81,10.84 38.72,17.09 61.1,17.09 h 954.66 c 64.98,0 117.7,-52.73 117.7,-117.72 V 201.77 c 0,-19.45 -4.8,-37.7 -13.12,-53.84 m -579.81,1905.2 c -24.28,0 -44,-19.68 -44,-43.96 0,-24.32 19.72,-43.98 44,-43.98 24.28,0 43.98,19.66 43.98,43.98 0,24.28 -19.7,43.96 -43.98,43.96"
         style="fill:#656363;fill-opacity:1;fill-rule:nonzero;stroke:none"
         id="path570" /><path
         d="m 3100.88,374.25 h -80.4 l -40.34,66.82 h 71.07 v 526.743 h -389.05 l -36.48,60.427 h 425.55 v 381.32 h -655.75 l -37.67,62.39 h 693.4 v 168.94 h -795.38 l -30.9,51.18 h 826.32 v 152.61 h -918.44 l -29.15,48.28 h 997.22 V 374.25"
         style="fill:#f5f5f5;fill-opacity:1;fill-rule:nonzero;stroke:none"
         id="path572" /><path
         d="m 2577.3,1965.19 c -24.28,0 -44,19.66 -44,43.98 0,24.28 19.72,43.96 44,43.96 24.28,0 43.98,-19.68 43.98,-43.96 0,-24.32 -19.7,-43.98 -43.98,-43.98"
         style="fill:#7a797a;fill-opacity:1;fill-rule:nonzero;stroke:none"
         id="path574" /><path
         d="m 3051.25,1692.07 h -826.32 l -92.12,152.61 h 918.44 v -152.61"
         style="fill:#b283b4;fill-opacity:1;fill-rule:nonzero;stroke:none"
         id="path576" /><path
         d="m 3051.21,1471.95 h -693.4 l -101.98,168.94 h 795.38 v -168.94"
         style="fill:#d0d1d2;fill-opacity:1;fill-rule:nonzero;stroke:none"
         id="path578" /><path
         d="m 3051.23,1028.24 h -425.55 l -230.2,381.32 h 655.75 v -381.32"
         style="fill:#6ac3e9;fill-opacity:1;fill-rule:nonzero;stroke:none"
         id="path580" /><path
         d="m 3051.21,441.07 h -71.07 l -317.98,526.743 h 389.05 V 441.07"
         style="fill:#f9b465;fill-opacity:1;fill-rule:nonzero;stroke:none"
         id="path582" /></g></g></svg>
