<?xml version="1.0" encoding="UTF-8" standalone="no"?>
<!-- Generator: Adobe Illustrator 25.2.3, SVG Export Plug-In . SVG Version: 6.00 Build 0)  -->

<svg
   xmlns:dc="http://purl.org/dc/elements/1.1/"
   xmlns:cc="http://creativecommons.org/ns#"
   xmlns:rdf="http://www.w3.org/1999/02/22-rdf-syntax-ns#"
   xmlns:svg="http://www.w3.org/2000/svg"
   xmlns="http://www.w3.org/2000/svg"
   xmlns:xlink="http://www.w3.org/1999/xlink"
   xmlns:sodipodi="http://sodipodi.sourceforge.net/DTD/sodipodi-0.dtd"
   xmlns:inkscape="http://www.inkscape.org/namespaces/inkscape"
   version="1.1"
   id="Layer_1"
   x="0px"
   y="0px"
   viewBox="0 0 688 647.1"
   style="enable-background:new 0 0 688 647.1;"
   xml:space="preserve"
   sodipodi:docname="paquetes.svg"
   inkscape:version="0.92.2 (5c3e80d, 2017-08-06)"><metadata
     id="metadata237"><rdf:RDF><cc:Work
         rdf:about=""><dc:format>image/svg+xml</dc:format><dc:type
           rdf:resource="http://purl.org/dc/dcmitype/StillImage" /><dc:title></dc:title></cc:Work></rdf:RDF></metadata><defs
     id="defs235"><linearGradient
       id="linearGradient4568"><stop
         id="stop4570"
         style="stop-color:#9394b8"
         offset="0" /><stop
         id="stop4807"
         style="stop-color:#ffffff"
         offset="1" /></linearGradient><linearGradient
       id="linearGradient3813"
       y2="-236.13"
       xlink:href="#linearGradient4568"
       gradientUnits="userSpaceOnUse"
       x2="-987.59003"
       gradientTransform="matrix(0.64459,0,0,-0.62978,1002.1,304.33)"
       y1="74.615997"
       x1="-987.59003"
       inkscape:collect="always" /><linearGradient
       id="linearGradient3809"
       y2="277.42999"
       xlink:href="#linearGradient4568"
       gradientUnits="userSpaceOnUse"
       x2="365.01001"
       gradientTransform="matrix(-1,0,0,1,735.81,-20)"
       y1="664.38"
       x1="365.01001"
       inkscape:collect="always" /></defs><sodipodi:namedview
     pagecolor="#ffffff"
     bordercolor="#666666"
     borderopacity="1"
     objecttolerance="10"
     gridtolerance="10"
     guidetolerance="10"
     inkscape:pageopacity="0"
     inkscape:pageshadow="2"
     inkscape:window-width="1280"
     inkscape:window-height="737"
     id="namedview233"
     showgrid="false"
     inkscape:zoom="0.31112698"
     inkscape:cx="344"
     inkscape:cy="298.94397"
     inkscape:window-x="-8"
     inkscape:window-y="-8"
     inkscape:window-maximized="1"
     inkscape:current-layer="Layer_1" /><style
     type="text/css"
     id="style2">
	.st0{fill:none;stroke:#B9C6E4;stroke-miterlimit:10;}
	.st1{fill:#FFFFFF;stroke:#B9C6E4;stroke-miterlimit:10;}
	.st2{fill:#B9C6E4;}
	.st3{opacity:0.46;}
	.st4{fill:#EF749B;}
	.st5{fill:#F7C689;}
	.st6{fill:none;stroke:#F27932;stroke-width:2;stroke-miterlimit:10;}
	.st7{fill:#4B4065;}
	.st8{fill:#C2D9F0;}
	.st9{fill:#F7C689;stroke:#F27932;stroke-miterlimit:10;}
	.st10{fill:#FFFFFF;}
	.st11{fill:#ED4F2E;}
	.st12{clip-path:url(#SVGID_2_);}
	.st13{fill:none;stroke:#F27932;stroke-miterlimit:10;}
	.st14{opacity:0.21;fill:#EF749B;enable-background:new    ;}
	.st15{fill:#495894;}
	.st16{fill:none;stroke:#495894;stroke-miterlimit:10;}
	.st17{fill:none;stroke:#495894;stroke-width:0.75;stroke-miterlimit:10;}
	.st18{fill:#F27932;}
	.st19{clip-path:url(#SVGID_4_);}
	.st20{fill:none;stroke:#FFFFFF;stroke-miterlimit:10;}
	.st21{fill:none;stroke:#ED4F2E;stroke-miterlimit:10;}
</style><g
     id="g46"
     transform="matrix(1.4190849,0,0,1.4190849,-209.92088,-137.61949)"
     style="fill:#b7c1d5;fill-opacity:1"><path
       class="st5"
       d="m 566.8,430 0.9,-19 -16,10.2 -4.7,-8.2 16.8,-8.6 -16.8,-8.7 4.7,-8.1 15.9,10.3 -0.9,-19 h 9.3 l -0.9,19 15.9,-10.3 4.7,8.1 -16.7,8.7 16.9,8.6 -4.8,8.1 -15.9,-10.1 0.9,19 z"
       id="path44"
       inkscape:connector-curvature="0"
       style="fill:#b7c1d5;fill-opacity:1" /></g><path
     class="st6"
     d="m 152.08769,368.14237 c 0,-20.43483 16.6033,-36.89621 36.89621,-36.89621 20.43482,0 36.89621,16.60329 36.89621,36.89621"
     id="path54"
     inkscape:connector-curvature="0"
     style="fill:none;stroke:#f27932;stroke-width:2.83816981;stroke-miterlimit:10" /><rect
     x="143.28937"
     y="368.99384"
     class="st9"
     width="186.18393"
     height="165.60721"
     id="rect56"
     style="fill:#f7c689;stroke:#f27932;stroke-width:1.41908491;stroke-miterlimit:10" /><rect
     x="178.19885"
     y="382.61703"
     class="st10"
     width="41.579185"
     height="35.477123"
     id="rect58"
     style="fill:#ffffff;stroke-width:1.41908491" /><rect
     x="263.06012"
     y="368.99384"
     class="st9"
     width="66.555084"
     height="165.60721"
     id="rect72"
     style="fill:#f7c689;stroke:#f27932;stroke-width:1.41908491;stroke-miterlimit:10" /><g
     id="g132"
     transform="matrix(1.4190849,0,0,1.4190849,-198.00055,-224.32558)"><g
       id="g130"><g
         id="g128"><g
           id="g126"><defs
             id="defs75"><rect
               id="SVGID_1_"
               x="324.89999"
               y="418.10001"
               width="46.900002"
               height="116.7" /></defs><clipPath
             id="SVGID_2_"><use
               xlink:href="#SVGID_1_"
               style="overflow:visible"
               id="use77"
               x="0"
               y="0"
               width="100%"
               height="100%" /></clipPath><g
             class="st12"
             clip-path="url(#SVGID_2_)"
             id="g124"><line
               class="st13"
               x1="244.5"
               y1="498.60001"
               x2="365.20001"
               y2="377.89999"
               id="line80"
               style="fill:none;stroke:#f27932;stroke-miterlimit:10" /><line
               class="st13"
               x1="248.89999"
               y1="503.10001"
               x2="369.70001"
               y2="382.29999"
               id="line82"
               style="fill:none;stroke:#f27932;stroke-miterlimit:10" /><line
               class="st13"
               x1="253.39999"
               y1="507.5"
               x2="374.10001"
               y2="386.70001"
               id="line84"
               style="fill:none;stroke:#f27932;stroke-miterlimit:10" /><line
               class="st13"
               x1="257.79999"
               y1="511.89999"
               x2="378.5"
               y2="391.20001"
               id="line86"
               style="fill:none;stroke:#f27932;stroke-miterlimit:10" /><line
               class="st13"
               x1="262.20001"
               y1="516.29999"
               x2="382.89999"
               y2="395.60001"
               id="line88"
               style="fill:none;stroke:#f27932;stroke-miterlimit:10" /><line
               class="st13"
               x1="266.60001"
               y1="520.70001"
               x2="387.29999"
               y2="400"
               id="line90"
               style="fill:none;stroke:#f27932;stroke-miterlimit:10" /><line
               class="st13"
               x1="271"
               y1="525.09998"
               x2="391.79999"
               y2="404.39999"
               id="line92"
               style="fill:none;stroke:#f27932;stroke-miterlimit:10" /><line
               class="st13"
               x1="275.39999"
               y1="529.59998"
               x2="396.20001"
               y2="408.79999"
               id="line94"
               style="fill:none;stroke:#f27932;stroke-miterlimit:10" /><line
               class="st13"
               x1="279.89999"
               y1="534"
               x2="400.60001"
               y2="413.29999"
               id="line96"
               style="fill:none;stroke:#f27932;stroke-miterlimit:10" /><line
               class="st13"
               x1="284.29999"
               y1="538.40002"
               x2="405"
               y2="417.70001"
               id="line98"
               style="fill:none;stroke:#f27932;stroke-miterlimit:10" /><line
               class="st13"
               x1="288.70001"
               y1="542.79999"
               x2="409.39999"
               y2="422.10001"
               id="line100"
               style="fill:none;stroke:#f27932;stroke-miterlimit:10" /><line
               class="st13"
               x1="293.10001"
               y1="547.29999"
               x2="413.89999"
               y2="426.5"
               id="line102"
               style="fill:none;stroke:#f27932;stroke-miterlimit:10" /><line
               class="st13"
               x1="297.60001"
               y1="551.70001"
               x2="418.29999"
               y2="431"
               id="line104"
               style="fill:none;stroke:#f27932;stroke-miterlimit:10" /><line
               class="st13"
               x1="302"
               y1="556.09998"
               x2="422.70001"
               y2="435.39999"
               id="line106"
               style="fill:none;stroke:#f27932;stroke-miterlimit:10" /><line
               class="st13"
               x1="306.39999"
               y1="560.5"
               x2="427.10001"
               y2="439.79999"
               id="line108"
               style="fill:none;stroke:#f27932;stroke-miterlimit:10" /><line
               class="st13"
               x1="310.79999"
               y1="564.90002"
               x2="431.5"
               y2="444.20001"
               id="line110"
               style="fill:none;stroke:#f27932;stroke-miterlimit:10" /><line
               class="st13"
               x1="315.20001"
               y1="569.40002"
               x2="436"
               y2="448.60001"
               id="line112"
               style="fill:none;stroke:#f27932;stroke-miterlimit:10" /><line
               class="st13"
               x1="319.70001"
               y1="573.79999"
               x2="440.39999"
               y2="453"
               id="line114"
               style="fill:none;stroke:#f27932;stroke-miterlimit:10" /><line
               class="st13"
               x1="324.10001"
               y1="578.20001"
               x2="444.79999"
               y2="457.5"
               id="line116"
               style="fill:none;stroke:#f27932;stroke-miterlimit:10" /><line
               class="st13"
               x1="328.5"
               y1="582.59998"
               x2="449.20001"
               y2="461.89999"
               id="line118"
               style="fill:none;stroke:#f27932;stroke-miterlimit:10" /><line
               class="st13"
               x1="332.89999"
               y1="587"
               x2="453.60001"
               y2="466.29999"
               id="line120"
               style="fill:none;stroke:#f27932;stroke-miterlimit:10" /><line
               class="st13"
               x1="337.29999"
               y1="591.5"
               x2="458.10001"
               y2="470.70001"
               id="line122"
               style="fill:none;stroke:#f27932;stroke-miterlimit:10" /></g></g></g></g></g><polygon
     class="st18"
     points="324.9,418.1 371.8,418.1 406.7,461.9 359.8,461.9 "
     id="polygon152"
     transform="matrix(1.4190849,0,0,1.4190849,-198.00055,-224.32558)"
     style="fill:#f27932" /><rect
     x="330.89243"
     y="414.83026"
     class="st9"
     width="186.18393"
     height="165.60721"
     id="rect154"
     style="fill:#f7c689;stroke:#f27932;stroke-width:1.41908491;stroke-miterlimit:10" /><rect
     x="365.80188"
     y="428.45349"
     class="st10"
     width="41.579185"
     height="35.477123"
     id="rect156"
     style="fill:#ffffff;stroke-width:1.41908491" /><rect
     x="450.66318"
     y="414.83026"
     class="st9"
     width="66.555084"
     height="165.60721"
     id="rect158"
     style="fill:#f7c689;stroke:#f27932;stroke-width:1.41908491;stroke-miterlimit:10" /><g
     id="g218"
     transform="matrix(1.4190849,0,0,1.4190849,-198.00055,-224.32558)"><g
       id="g216"><g
         id="g214"><g
           id="g212"><defs
             id="defs161"><rect
               id="SVGID_3_"
               x="457.10001"
               y="450.39999"
               width="46.900002"
               height="116.7" /></defs><clipPath
             id="SVGID_4_"><use
               xlink:href="#SVGID_3_"
               style="overflow:visible"
               id="use163"
               x="0"
               y="0"
               width="100%"
               height="100%" /></clipPath><g
             class="st19"
             clip-path="url(#SVGID_4_)"
             id="g210"><line
               class="st13"
               x1="376.70001"
               y1="530.90002"
               x2="497.39999"
               y2="410.20001"
               id="line166"
               style="fill:none;stroke:#f27932;stroke-miterlimit:10" /><line
               class="st13"
               x1="381.10001"
               y1="535.40002"
               x2="501.89999"
               y2="414.60001"
               id="line168"
               style="fill:none;stroke:#f27932;stroke-miterlimit:10" /><line
               class="st13"
               x1="385.5"
               y1="539.79999"
               x2="506.29999"
               y2="419"
               id="line170"
               style="fill:none;stroke:#f27932;stroke-miterlimit:10" /><line
               class="st13"
               x1="390"
               y1="544.20001"
               x2="510.70001"
               y2="423.5"
               id="line172"
               style="fill:none;stroke:#f27932;stroke-miterlimit:10" /><line
               class="st13"
               x1="394.39999"
               y1="548.59998"
               x2="515.09998"
               y2="427.89999"
               id="line174"
               style="fill:none;stroke:#f27932;stroke-miterlimit:10" /><line
               class="st13"
               x1="398.79999"
               y1="553"
               x2="519.5"
               y2="432.29999"
               id="line176"
               style="fill:none;stroke:#f27932;stroke-miterlimit:10" /><line
               class="st13"
               x1="403.20001"
               y1="557.5"
               x2="523.90002"
               y2="436.70001"
               id="line178"
               style="fill:none;stroke:#f27932;stroke-miterlimit:10" /><line
               class="st13"
               x1="407.60001"
               y1="561.90002"
               x2="528.40002"
               y2="441.10001"
               id="line180"
               style="fill:none;stroke:#f27932;stroke-miterlimit:10" /><line
               class="st13"
               x1="412"
               y1="566.29999"
               x2="532.79999"
               y2="445.5"
               id="line182"
               style="fill:none;stroke:#f27932;stroke-miterlimit:10" /><line
               class="st13"
               x1="416.5"
               y1="570.70001"
               x2="537.20001"
               y2="450"
               id="line184"
               style="fill:none;stroke:#f27932;stroke-miterlimit:10" /><line
               class="st13"
               x1="420.89999"
               y1="575.09998"
               x2="541.59998"
               y2="454.39999"
               id="line186"
               style="fill:none;stroke:#f27932;stroke-miterlimit:10" /><line
               class="st13"
               x1="425.29999"
               y1="579.59998"
               x2="546.09998"
               y2="458.79999"
               id="line188"
               style="fill:none;stroke:#f27932;stroke-miterlimit:10" /><line
               class="st13"
               x1="429.70001"
               y1="584"
               x2="550.5"
               y2="463.20001"
               id="line190"
               style="fill:none;stroke:#f27932;stroke-miterlimit:10" /><line
               class="st13"
               x1="434.20001"
               y1="588.40002"
               x2="554.90002"
               y2="467.70001"
               id="line192"
               style="fill:none;stroke:#f27932;stroke-miterlimit:10" /><line
               class="st13"
               x1="438.60001"
               y1="592.79999"
               x2="559.29999"
               y2="472.10001"
               id="line194"
               style="fill:none;stroke:#f27932;stroke-miterlimit:10" /><line
               class="st13"
               x1="443"
               y1="597.20001"
               x2="563.70001"
               y2="476.5"
               id="line196"
               style="fill:none;stroke:#f27932;stroke-miterlimit:10" /><line
               class="st13"
               x1="447.39999"
               y1="601.70001"
               x2="568.09998"
               y2="480.89999"
               id="line198"
               style="fill:none;stroke:#f27932;stroke-miterlimit:10" /><line
               class="st13"
               x1="451.79999"
               y1="606.09998"
               x2="572.59998"
               y2="485.29999"
               id="line200"
               style="fill:none;stroke:#f27932;stroke-miterlimit:10" /><line
               class="st13"
               x1="456.29999"
               y1="610.5"
               x2="577"
               y2="489.79999"
               id="line202"
               style="fill:none;stroke:#f27932;stroke-miterlimit:10" /><line
               class="st13"
               x1="460.70001"
               y1="614.90002"
               x2="581.40002"
               y2="494.20001"
               id="line204"
               style="fill:none;stroke:#f27932;stroke-miterlimit:10" /><line
               class="st13"
               x1="465.10001"
               y1="619.29999"
               x2="585.79999"
               y2="498.60001"
               id="line206"
               style="fill:none;stroke:#f27932;stroke-miterlimit:10" /><line
               class="st13"
               x1="469.5"
               y1="623.79999"
               x2="590.20001"
               y2="503"
               id="line208"
               style="fill:none;stroke:#f27932;stroke-miterlimit:10" /></g></g></g></g></g><g
     id="g2290"
     transform="matrix(0.44613845,0,0,0.44613845,4.1605438,38.627019)"><path
       id="path4850"
       style="color:#000000;fill:url(#linearGradient3813)"
       d="m 237.19,307.47 16.44,45.18 c -0.04,0.04 -0.06,0.09 -0.1,0.13 l 0.13,0.37 c -6.92,7.54 -13.13,15.85 -18.5,24.91 l -49.5,-1.34 c -0.98,2.22 -1.99,4.44 -2.88,6.68 -1.21,3.06 -2.33,6.11 -3.37,9.19 -1.05,3.08 -2.03,6.21 -2.91,9.31 -0.78,2.79 -1.47,5.55 -2.12,8.35 l 40.5,27.09 c -0.05,0.44 -0.02,0.9 -0.07,1.34 l 0.28,0.19 c -0.46,4.73 -0.62,9.45 -0.62,14.16 h 88.94 c 0.01,-2.84 0.25,-5.68 0.65,-8.47 0.41,-2.79 1,-5.55 1.78,-8.25 0.78,-2.71 1.74,-5.36 2.88,-7.94 1.14,-2.58 2.48,-5.08 3.97,-7.5 1.49,-2.42 3.14,-4.75 4.97,-6.97 1.83,-2.21 3.84,-4.3 6,-6.28 2.15,-1.97 4.44,-3.83 6.9,-5.53 2.47,-1.69 5.11,-3.25 7.88,-4.62 1.97,-0.99 3.95,-1.83 5.97,-2.6 2.02,-0.76 4.07,-1.44 6.12,-2 2.06,-0.55 4.12,-0.99 6.19,-1.34 0.97,-0.16 1.96,-0.23 2.94,-0.35 0.33,-0.04 0.66,-0.08 1,-0.12 0.77,-0.08 1.54,-0.23 2.31,-0.28 0.75,-0.05 1.5,-0.01 2.25,-0.03 0.85,-0.04 1.71,-0.06 2.56,-0.07 0.47,0.01 0.94,-0.04 1.41,-0.03 0.34,0.01 0.69,0.05 1.03,0.07 1.72,0.05 3.44,0.21 5.16,0.4 7.37,0.84 14.74,2.86 21.75,6.35 22.11,11.01 34.82,32.86 34.96,55.56 h 89.04 c -0.01,-4.73 -0.22,-9.48 -0.69,-14.22 l 41,-27.44 c -0.01,-0.05 -0.05,-0.1 -0.06,-0.15 -0.72,-3.13 -1.5,-6.24 -2.38,-9.35 -0.88,-3.1 -1.83,-6.2 -2.87,-9.28 -1.05,-3.08 -2.17,-6.13 -3.38,-9.19 -0.88,-2.21 -1.84,-4.43 -2.81,-6.62 l -49.13,1.34 c -0.33,-0.55 -0.72,-1.07 -1.06,-1.62 h -0.31 c -2.41,-3.96 -4.97,-7.78 -7.69,-11.44 -2.72,-3.66 -5.59,-7.17 -8.59,-10.53 l 16.68,-45.81 c -1.45,-1.27 -2.89,-2.54 -4.37,-3.75 -2.47,-2.03 -4.98,-4.01 -7.53,-5.91 -2.56,-1.9 -5.18,-3.73 -7.81,-5.5 -2.64,-1.77 -5.32,-3.49 -8.04,-5.13 -0.77,-0.46 -1.55,-0.92 -2.34,-1.37 l -39,29.34 c -0.57,-0.25 -1.15,-0.41 -1.72,-0.65 l -0.09,0.06 c -4.31,-1.83 -8.7,-3.44 -13.16,-4.88 -4.45,-1.43 -8.96,-2.68 -13.53,-3.71 l -0.06,-0.16 c -0.02,-0.01 -0.04,-0.03 -0.06,-0.03 l -14.04,-46.56 c -1.97,-0.21 -3.92,-0.45 -5.9,-0.6 -3.19,-0.23 -6.4,-0.35 -9.6,-0.44 -2.14,-0.05 -4.28,-0.03 -6.43,-0.03 -1.08,0.01 -2.15,-0.02 -3.22,0 -3.2,0.09 -6.38,0.24 -9.56,0.47 -1.02,0.08 -2.03,0.22 -3.04,0.31 l -14,46.38 c -10.15,2.1 -20.07,5.18 -29.59,9.22 l -39.37,-29.6 c -1.32,0.76 -2.64,1.47 -3.94,2.25 -2.72,1.64 -5.39,3.36 -8.03,5.13 -2.64,1.77 -5.26,3.6 -7.82,5.5 -2.55,1.9 -5.06,3.88 -7.53,5.91 -0.98,0.8 -1.91,1.67 -2.87,2.5 z m 181.78,39.28 c 1.36,0.09 2.74,0.45 4.03,1.09 5.16,2.57 7.22,8.77 4.59,13.81 -2.62,5.04 -8.96,7.04 -14.12,4.47 -5.16,-2.57 -7.22,-8.74 -4.59,-13.78 1.97,-3.78 6.01,-5.88 10.09,-5.59 z m -148.88,47.28 c 1.36,0.09 2.75,0.45 4.04,1.09 5.16,2.57 7.22,8.74 4.59,13.78 -2.63,5.04 -8.97,7.04 -14.13,4.47 -5.16,-2.57 -7.22,-8.74 -4.59,-13.78 1.97,-3.78 6.02,-5.84 10.09,-5.56 z"
       inkscape:connector-curvature="0" /><path
       id="path3767"
       style="color:#000000;fill:url(#linearGradient3809)"
       d="m 498.63,597.32 -16.44,-45.19 c 0.03,-0.04 0.06,-0.08 0.09,-0.12 l -0.12,-0.38 c 6.91,-7.53 13.13,-15.84 18.5,-24.9 l 49.5,1.34 c 0.98,-2.22 1.98,-4.45 2.87,-6.69 1.21,-3.05 2.33,-6.1 3.38,-9.18 1.04,-3.09 2.03,-6.21 2.9,-9.32 0.79,-2.78 1.48,-5.55 2.13,-8.34 l -40.5,-27.09 c 0.05,-0.45 0.02,-0.9 0.06,-1.35 l -0.28,-0.19 c 0.47,-4.72 0.62,-9.44 0.62,-14.15 h -88.93 c -0.02,2.83 -0.25,5.68 -0.66,8.47 -0.4,2.79 -1,5.54 -1.78,8.25 -0.78,2.7 -1.73,5.35 -2.88,7.93 -1.14,2.58 -2.47,5.09 -3.96,7.5 -1.5,2.42 -3.14,4.76 -4.97,6.97 -1.83,2.22 -3.85,4.31 -6,6.28 -2.16,1.98 -4.44,3.84 -6.91,5.54 -2.46,1.69 -5.11,3.24 -7.87,4.62 -1.98,0.98 -3.95,1.83 -5.97,2.59 -2.02,0.77 -4.07,1.45 -6.13,2 -2.05,0.56 -4.11,1 -6.19,1.35 -0.97,0.16 -1.96,0.22 -2.93,0.34 -0.34,0.04 -0.67,0.09 -1,0.13 -0.77,0.08 -1.55,0.22 -2.32,0.28 -0.75,0.05 -1.49,0 -2.25,0.03 -0.85,0.04 -1.7,0.06 -2.56,0.06 -0.47,0 -0.94,0.04 -1.4,0.03 -0.35,-0.01 -0.69,-0.05 -1.04,-0.06 -1.71,-0.06 -3.43,-0.21 -5.15,-0.41 -7.38,-0.83 -14.75,-2.85 -21.75,-6.34 -22.12,-11.01 -34.83,-32.86 -34.97,-55.56 h -89.03 c 0,4.72 0.22,9.48 0.69,14.22 l -41,27.43 c 0.01,0.06 0.05,0.11 0.06,0.16 0.71,3.12 1.5,6.24 2.37,9.34 0.88,3.11 1.83,6.2 2.88,9.29 1.04,3.08 2.16,6.13 3.37,9.18 0.88,2.22 1.84,4.43 2.82,6.63 L 235,526.66 c 0.33,0.56 0.73,1.08 1.06,1.63 h 0.32 c 2.4,3.95 4.96,7.77 7.68,11.44 2.72,3.66 5.59,7.17 8.6,10.53 l -16.69,45.81 c 1.45,1.26 2.89,2.53 4.37,3.75 2.47,2.03 4.98,4.01 7.54,5.91 2.55,1.9 5.17,3.73 7.81,5.5 2.64,1.77 5.31,3.48 8.03,5.12 0.78,0.47 1.55,0.93 2.34,1.38 l 39,-29.35 c 0.57,0.25 1.15,0.42 1.72,0.66 l 0.1,-0.06 c 4.3,1.83 8.7,3.43 13.15,4.87 4.46,1.44 8.96,2.68 13.53,3.72 l 0.07,0.16 c 0.02,0 0.04,0.02 0.06,0.03 l 14.03,46.56 c 1.97,0.2 3.92,0.45 5.91,0.59 3.18,0.24 6.39,0.36 9.59,0.44 2.14,0.06 4.29,0.04 6.44,0.03 1.07,-0.01 2.14,0.03 3.22,0 3.2,-0.08 6.37,-0.23 9.56,-0.47 1.01,-0.07 2.02,-0.22 3.03,-0.31 l 14,-46.37 c 10.16,-2.1 20.07,-5.18 29.59,-9.22 l 39.38,29.59 c 1.31,-0.75 2.64,-1.46 3.94,-2.25 2.71,-1.64 5.39,-3.35 8.03,-5.12 2.64,-1.77 5.25,-3.6 7.81,-5.5 2.56,-1.9 5.06,-3.88 7.53,-5.91 0.98,-0.81 1.91,-1.67 2.88,-2.5 z M 316.84,558.04 c -1.36,-0.1 -2.74,-0.45 -4.03,-1.09 -5.16,-2.57 -7.22,-8.78 -4.59,-13.82 2.63,-5.04 8.96,-7.03 14.12,-4.47 5.16,2.57 7.23,8.74 4.6,13.79 -1.97,3.78 -6.02,5.87 -10.1,5.59 z m 148.88,-47.28 c -1.36,-0.1 -2.74,-0.45 -4.03,-1.1 -5.16,-2.57 -7.22,-8.74 -4.6,-13.78 2.63,-5.04 8.97,-7.03 14.13,-4.47 5.16,2.57 7.22,8.74 4.59,13.79 -1.97,3.78 -6.01,5.84 -10.09,5.56 z"
       inkscape:connector-curvature="0" /></g><path
     id="path2327"
     style="color:#000000;fill:#ffffff;stroke-width:0.44613844"
     d="m 168.38856,198.38475 c -22.92704,0 -41.6381,18.69319 -41.6381,41.62025 0,22.92705 18.71106,41.6381 41.6381,41.6381 22.92707,0 41.62026,-18.71105 41.62026,-41.6381 0,-22.92706 -18.69319,-41.62025 -41.62026,-41.62025 z m 0,9.50274 c 17.78308,0 32.11751,14.33443 32.11751,32.11751 0,17.78308 -14.33443,32.13535 -32.11751,32.13535 -17.78307,0 -32.13534,-14.35227 -32.13534,-32.13535 0,-17.78308 14.35227,-32.11751 32.13534,-32.11751 z"
     inkscape:connector-curvature="0" /><path
     id="path3500"
     style="color:#000000;fill:#9394b8;stroke-width:0.44613844;fill-opacity:1"
     d="m 168.38856,199.78115 c -22.16861,0 -40.22384,18.05969 -40.22384,40.22385 0,22.16862 18.05523,40.22385 40.22384,40.22385 22.16417,0 40.206,-18.05523 40.206,-40.22385 0,-22.16416 -18.04183,-40.22385 -40.206,-40.22385 z m 0,6.69655 c 18.54598,0 33.5273,14.98132 33.5273,33.5273 0,18.54598 -14.98132,33.53177 -33.5273,33.53177 -18.54597,0 -33.53177,-14.98579 -33.53177,-33.53177 0,-18.54598 14.9858,-33.5273 33.53177,-33.5273 z"
     inkscape:connector-curvature="0" /><g
     id="g10"
     transform="matrix(0.59223479,0.27755657,-0.27755657,0.59223479,461.90252,180.52141)"><path
       style="fill:#4285f4"
       inkscape:connector-curvature="0"
       d="m 255.878,133.451 c 0,-10.734 -0.871,-18.567 -2.756,-26.69 H 130.55 v 48.448 h 71.947 c -1.45,12.04 -9.283,30.172 -26.69,42.356 l -0.244,1.622 38.755,30.023 2.685,0.268 c 24.659,-22.774 38.875,-56.282 38.875,-96.027"
       id="path2" /><path
       style="fill:#34a853"
       inkscape:connector-curvature="0"
       d="m 130.55,261.1 c 35.248,0 64.839,-11.605 86.453,-31.622 l -41.196,-31.913 c -11.024,7.688 -25.82,13.055 -45.257,13.055 -34.523,0 -63.824,-22.773 -74.269,-54.25 l -1.531,0.13 -40.298,31.187 -0.527,1.465 C 35.393,231.798 79.49,261.1 130.55,261.1"
       id="path4-6" /><path
       style="fill:#fbbc05"
       inkscape:connector-curvature="0"
       d="m 56.281,156.37 c -2.756,-8.123 -4.351,-16.827 -4.351,-25.82 0,-8.994 1.595,-17.697 4.206,-25.82 L 56.063,103 15.26,71.312 13.925,71.947 C 5.077,89.644 0,109.517 0,130.55 c 0,21.033 5.077,40.905 13.925,58.602 L 56.281,156.37"
       id="path6" /><path
       style="fill:#eb4335"
       inkscape:connector-curvature="0"
       d="m 130.55,50.479 c 24.514,0 41.05,10.589 50.479,19.438 L 217.873,33.943 C 195.245,12.91 165.798,0 130.55,0 79.49,0 35.393,29.301 13.925,71.947 L 56.136,104.73 C 66.726,73.253 96.027,50.479 130.55,50.479"
       id="path8" /></g><path
     d="m 351.46005,343.72809 -79.51264,-28.59862 c -5.5052,-1.98008 -8.36264,-8.04745 -6.38245,-13.55294 l 39.59661,-110.09041 c 1.98019,-5.5055 8.0476,-8.36284 13.55281,-6.38274 l 79.51265,28.5986 c 5.50476,1.97992 8.36285,8.04753 6.38268,13.55303 L 365.01308,337.3454 c -1.98019,5.50551 -8.04827,8.3626 -13.55303,6.38269"
     style="fill:#73cd91;fill-opacity:1;fill-rule:nonzero;stroke:none;stroke-width:0.08080088"
     id="path56"
     inkscape:connector-curvature="0" /><path
     d="m 351.46005,343.72809 0.15097,-0.41971 -79.51267,-28.5986 c -2.63793,-0.9488 -4.63859,-2.87399 -5.74594,-5.22492 -1.10665,-2.35068 -1.31677,-5.11909 -0.36814,-7.75751 L 305.5809,191.63694 c 0.94924,-2.63821 2.87457,-4.63855 5.22495,-5.74583 2.35107,-1.10703 5.11964,-1.31684 7.75757,-0.36804 l 79.51266,28.5986 c 2.63832,0.94895 4.63875,2.87405 5.74586,5.22489 1.1071,2.35084 1.317,5.11917 0.36807,7.7575 l -39.59662,110.09039 c -0.94893,2.63831 -2.87403,4.63875 -5.22489,5.74586 -2.35084,1.1071 -5.11916,1.31701 -7.75748,0.36807 l -0.15097,0.41971 -0.15068,0.41893 c 5.73666,2.06332 12.05906,-0.91354 14.12265,-6.65093 L 405.02865,227.4057 c 2.06359,-5.73742 -0.91429,-12.05933 -6.65094,-14.12265 l -79.51265,-28.59862 c -5.73687,-2.0634 -12.05897,0.91355 -14.12287,6.65086 l -39.59663,110.09039 c -2.06329,5.73752 0.91429,12.05933 6.65117,14.12272 l 79.51264,28.59862 0.15068,-0.41893"
     style="fill:#1d2a30;fill-opacity:1;fill-rule:nonzero;stroke:none;stroke-width:0.08080088"
     id="path58"
     inkscape:connector-curvature="0" /><path
     d="m 351.46005,343.72809 0.15097,-0.41971 -79.51267,-28.5986 c -2.63793,-0.9488 -4.63859,-2.87399 -5.74594,-5.22492 -1.10665,-2.35068 -1.31677,-5.11909 -0.36814,-7.75751 L 305.5809,191.63694 c 0.94924,-2.63821 2.87457,-4.63855 5.22495,-5.74583 2.35107,-1.10703 5.11964,-1.31684 7.75757,-0.36804 l 79.51266,28.5986 c 2.63832,0.94895 4.63875,2.87405 5.74586,5.22489 1.1071,2.35084 1.317,5.11917 0.36807,7.7575 l -39.59662,110.09039 c -0.94893,2.63831 -2.87403,4.63875 -5.22489,5.74586 -2.35084,1.1071 -5.11916,1.31701 -7.75748,0.36807 l -0.15097,0.41971 v 0"
     style="fill:#4ebe7b;fill-opacity:1;fill-rule:nonzero;stroke:none;stroke-width:0.08080088"
     id="path60"
     inkscape:connector-curvature="0" /><path
     d="m 351.46005,343.72809 v 0 l 0.15097,-0.41971 c 2.63832,0.94894 5.40664,0.73903 7.75748,-0.36807 2.35086,-1.10711 4.27596,-3.10755 5.22489,-5.74586 l 39.59662,-110.09039 c 0.94893,-2.63833 0.73903,-5.40666 -0.36807,-7.7575 -1.10711,-2.35084 -3.10754,-4.27594 -5.74586,-5.22489 l -79.51266,-28.5986 c -2.63793,-0.9488 -5.4065,-0.73899 -7.75757,0.36804 -2.35038,1.10728 -4.27571,3.10762 -5.22495,5.74583 l -39.59663,110.09041 c -0.94863,2.63842 -0.73851,5.40683 0.36814,7.75751 1.10735,2.35093 3.10801,4.27612 5.74594,5.22492 l 79.51267,28.5986 -0.15097,0.41971 -79.51264,-28.59862 c -5.5052,-1.98008 -8.36264,-8.04745 -6.38245,-13.55294 l 39.59661,-110.09041 c 1.98019,-5.5055 8.0476,-8.36284 13.55281,-6.38274 l 79.51265,28.5986 c 5.50476,1.97992 8.36285,8.04753 6.38268,13.55303 L 365.01308,337.3454 c -1.98019,5.50551 -8.04827,8.3626 -13.55303,6.38269"
     style="fill:#182124;fill-opacity:1;fill-rule:nonzero;stroke:none;stroke-width:0.08080088"
     id="path62"
     inkscape:connector-curvature="0" /><path
     d="m 410.33502,240.40587 -39.59661,110.09039 c -1.98183,5.51008 -8.0489,8.36667 -13.55896,6.38485 l -79.51061,-28.59787 c -5.50202,-1.97893 -8.35941,-8.04543 -6.37758,-13.5555 l 39.59662,-110.09041 c 1.97909,-5.50245 8.04592,-8.35913 13.54793,-6.3802 l 79.5106,28.59788 c 5.51007,1.98182 8.36771,8.0484 6.38861,13.55086"
     style="fill:#ffffff;fill-opacity:1;fill-rule:nonzero;stroke:none;stroke-width:0.08080088"
     id="path64"
     inkscape:connector-curvature="0" /><path
     d="m 410.33502,240.40587 -0.41971,-0.15095 -39.59661,110.09038 c -0.94977,2.64062 -2.87589,4.64153 -5.227,5.74941 -2.35084,1.10709 -5.1207,1.31645 -7.7613,0.36669 l -79.51061,-28.59787 c -2.63649,-0.94829 -4.63601,-2.87304 -5.74296,-5.22384 -1.10585,-2.35125 -1.31564,-5.1204 -0.36617,-7.76111 L 311.30729,204.7882 c 0.94868,-2.63671 2.87342,-4.63639 5.22351,-5.74378 2.34984,-1.10575 5.11784,-1.31662 7.75433,-0.36835 l 79.51059,28.59787 c 2.64062,0.94976 4.64229,2.87617 5.75044,5.22652 1.10739,2.35009 1.31755,5.11766 0.36915,7.75446 l 0.41971,0.15095 0.41894,0.15069 c 2.0625,-5.73438 -0.91463,-12.05601 -6.6566,-14.12124 l -79.51059,-28.59789 c -5.73391,-2.06234 -12.05548,0.91482 -14.11828,6.64907 l -39.59662,110.09039 c -2.06466,5.74132 0.91241,12.06286 6.64632,14.12519 l 79.51059,28.59788 c 5.74198,2.06524 12.0636,-0.9118 14.12855,-6.65302 l 39.59663,-110.09038 -0.41894,-0.15069"
     style="fill:#1d2a30;fill-opacity:1;fill-rule:nonzero;stroke:none;stroke-width:0.08080088"
     id="path66"
     inkscape:connector-curvature="0" /><path
     d="m 410.33502,240.40587 -2.12047,5.89556 -99.44714,-35.76854 2.12047,-5.89556 c 1.97909,-5.50245 8.04592,-8.35913 13.54793,-6.3802 l 79.5106,28.59788 c 5.51007,1.98182 8.36771,8.0484 6.38861,13.55086"
     style="fill:#73cd91;fill-opacity:1;fill-rule:nonzero;stroke:none;stroke-width:0.08080088"
     id="path68"
     inkscape:connector-curvature="0" /><path
     d="m 410.33502,240.40587 -0.41971,-0.15095 -1.9695,5.47585 -98.60804,-35.46672 1.96952,-5.47585 c 0.94868,-2.63671 2.87342,-4.63639 5.22351,-5.74378 2.34984,-1.10575 5.11784,-1.31662 7.75433,-0.36835 l 79.51059,28.59787 c 2.64062,0.94976 4.64229,2.87617 5.75044,5.22652 1.10739,2.35009 1.31755,5.11766 0.36915,7.75446 l 0.41971,0.15095 0.41894,0.15069 c 2.0625,-5.73438 -0.91463,-12.05601 -6.6566,-14.12124 l -79.51059,-28.59789 c -5.73391,-2.06234 -12.05548,0.91482 -14.11828,6.64907 l -2.27143,6.31525 100.28547,36.07006 2.27143,-6.31525 -0.41894,-0.15069"
     style="fill:#1d2a30;fill-opacity:1;fill-rule:nonzero;stroke:none;stroke-width:0.08080088"
     id="path70"
     inkscape:connector-curvature="0" /><path
     d="m 338.65344,233.62913 -24.46595,-8.79975 1.4759,-4.10348 24.46595,8.79976 -1.4759,4.10347"
     style="fill:#73cd91;fill-opacity:1;fill-rule:nonzero;stroke:none;stroke-width:0.08080088"
     id="path72"
     inkscape:connector-curvature="0" /><path
     d="m 325.42055,270.42046 -24.46594,-8.79974 1.47592,-4.10349 24.46594,8.79976 -1.47592,4.10347"
     style="fill:#73cd91;fill-opacity:1;fill-rule:nonzero;stroke:none;stroke-width:0.08080088"
     id="path74"
     inkscape:connector-curvature="0" /><path
     d="m 313.42076,303.78349 -24.46595,-8.79975 1.47618,-4.10423 24.46594,8.79976 -1.47617,4.10422"
     style="fill:#73cd91;fill-opacity:1;fill-rule:nonzero;stroke:none;stroke-width:0.08080088"
     id="path76"
     inkscape:connector-curvature="0" /><path
     d="m 380.41339,258.88891 -69.48701,-24.99267 1.08266,-3.01012 69.48701,24.99265 -1.08266,3.01014"
     style="fill:#1d2a30;fill-opacity:1;fill-rule:nonzero;stroke:none;stroke-width:0.08080088"
     id="path78"
     inkscape:connector-curvature="0" /><path
     d="m 365.83956,260.06659 -56.95763,-20.48615 1.05505,-2.93335 56.95762,20.48617 -1.05504,2.93333"
     style="fill:#1d2a30;fill-opacity:1;fill-rule:nonzero;stroke:none;stroke-width:0.08080088"
     id="path80"
     inkscape:connector-curvature="0" /><path
     d="m 371.26155,268.41222 -64.41642,-23.16889 1.05476,-2.93258 64.41643,23.16888 -1.05477,2.93259"
     style="fill:#1d2a30;fill-opacity:1;fill-rule:nonzero;stroke:none;stroke-width:0.08080088"
     id="path82"
     inkscape:connector-curvature="0" /><path
     d="m 369.22666,274.0698 -64.4164,-23.16889 1.05477,-2.93257 64.4164,23.16889 -1.05477,2.93257"
     style="fill:#1d2a30;fill-opacity:1;fill-rule:nonzero;stroke:none;stroke-width:0.08080088"
     id="path84"
     inkscape:connector-curvature="0" /><path
     d="m 368.41386,292.25117 -69.48701,-24.99266 1.08238,-3.00936 69.48702,24.99265 -1.08239,3.00937"
     style="fill:#1d2a30;fill-opacity:1;fill-rule:nonzero;stroke:none;stroke-width:0.08080088"
     id="path86"
     inkscape:connector-curvature="0" /><path
     d="m 353.83974,293.42962 -56.95762,-20.48617 1.05505,-2.93333 56.95762,20.48618 -1.05505,2.93332"
     style="fill:#1d2a30;fill-opacity:1;fill-rule:nonzero;stroke:none;stroke-width:0.08080088"
     id="path88"
     inkscape:connector-curvature="0" /><path
     d="m 359.26174,301.77524 -64.41641,-23.16889 1.05504,-2.93332 64.4164,23.16889 -1.05503,2.93332"
     style="fill:#1d2a30;fill-opacity:1;fill-rule:nonzero;stroke:none;stroke-width:0.08080088"
     id="path90"
     inkscape:connector-curvature="0" /><path
     d="m 355.23622,328.8889 -69.48701,-24.99264 1.08267,-3.01012 69.48701,24.99266 -1.08267,3.0101"
     style="fill:#1d2a30;fill-opacity:1;fill-rule:nonzero;stroke:none;stroke-width:0.08080088"
     id="path92"
     inkscape:connector-curvature="0" /><path
     d="m 340.66266,330.06585 -56.95762,-20.48617 1.05476,-2.93256 56.95762,20.48616 -1.05476,2.93257"
     style="fill:#1d2a30;fill-opacity:1;fill-rule:nonzero;stroke:none;stroke-width:0.08080088"
     id="path94"
     inkscape:connector-curvature="0" /><path
     d="m 346.08437,338.41223 -64.4164,-23.16889 1.05503,-2.93334 64.41642,23.16889 -1.05505,2.93334"
     style="fill:#1d2a30;fill-opacity:1;fill-rule:nonzero;stroke:none;stroke-width:0.08080088"
     id="path96"
     inkscape:connector-curvature="0" /><path
     inkscape:connector-curvature="0"
     class="st11"
     d="m 646.12851,336.92439 c 5.29004,-1.26961 10.15687,-3.38562 14.6005,-6.34804 -4.65523,-2.75082 -9.52207,-4.86684 -14.6005,-6.34805 -5.29004,-1.48121 -9.52207,-5.50163 -11.00328,-11.00327 -1.2696,-5.29004 -3.38562,-10.15687 -6.34804,-14.6005 -2.75082,4.65523 -4.86683,9.52206 -6.34804,14.6005 -1.48121,5.29004 -5.50164,9.52206 -11.00328,11.00327 -5.29003,1.26961 -10.36847,3.38563 -15.0237,6.34805 4.65523,2.75082 9.52207,4.86683 15.0237,6.34804 5.29004,1.48121 9.52207,5.50164 11.00328,11.00328 1.26961,5.29003 3.38562,10.15687 6.34804,14.6005 2.75082,-4.65524 4.86683,-9.52207 6.34804,-14.6005 1.48121,-5.50164 5.50164,-9.73367 11.00328,-11.00328 z"
     id="path134"
     style="fill:#edfdf9;fill-opacity:1;stroke-width:2.11601448" /><circle
     class="st11"
     cx="675.32959"
     cy="280.6384"
     r="9.5220652"
     id="circle136"
     style="fill:#edfdf9;fill-opacity:1;stroke-width:2.11601448" /></svg>