<?xml version="1.0" encoding="UTF-8" standalone="no"?>
<!-- Generator: Adobe Illustrator 19.0.0, SVG Export Plug-In . SVG Version: 6.00 Build 0)  -->

<svg
   xmlns:dc="http://purl.org/dc/elements/1.1/"
   xmlns:cc="http://creativecommons.org/ns#"
   xmlns:rdf="http://www.w3.org/1999/02/22-rdf-syntax-ns#"
   xmlns:svg="http://www.w3.org/2000/svg"
   xmlns="http://www.w3.org/2000/svg"
   xmlns:sodipodi="http://sodipodi.sourceforge.net/DTD/sodipodi-0.dtd"
   xmlns:inkscape="http://www.inkscape.org/namespaces/inkscape"
   version="1.1"
   id="Layer_1"
   x="0px"
   y="0px"
   viewBox="0 0 512 512"
   style="enable-background:new 0 0 512 512;"
   xml:space="preserve"
   sodipodi:docname="price.svg"
   inkscape:version="0.92.2 (5c3e80d, 2017-08-06)"><metadata
     id="metadata41"><rdf:RDF><cc:Work
         rdf:about=""><dc:format>image/svg+xml</dc:format><dc:type
           rdf:resource="http://purl.org/dc/dcmitype/StillImage" /><dc:title></dc:title></cc:Work></rdf:RDF></metadata><defs
     id="defs39" /><sodipodi:namedview
     pagecolor="#ffffff"
     bordercolor="#666666"
     borderopacity="1"
     objecttolerance="10"
     gridtolerance="10"
     guidetolerance="10"
     inkscape:pageopacity="0"
     inkscape:pageshadow="2"
     inkscape:window-width="1280"
     inkscape:window-height="737"
     id="namedview37"
     showgrid="false"
     inkscape:zoom="0.4609375"
     inkscape:cx="256"
     inkscape:cy="256"
     inkscape:window-x="-8"
     inkscape:window-y="-8"
     inkscape:window-maximized="1"
     inkscape:current-layer="Layer_1" /><polygon
     style="fill:#FF583E;"
     points="3.432,190.704 145.048,330.248 286.672,190.704 225.896,190.704 225.896,0 64.208,0   64.208,190.704 "
     id="polygon2" /><path
     style="fill:#00ff00"
     d="M378.136,413.528v-97.76c-30.496-8.712-52.848-21.888-67.088-39.544  c-14.232-17.656-21.344-39.088-21.344-64.288c0-25.52,8.04-46.936,24.144-64.288c16.104-17.336,37.52-27.328,64.288-29.984V94.568  h33.832v23.096c24.728,2.952,44.408,11.392,59.032,25.32c14.608,13.92,23.952,32.552,28,55.88l-59.032,7.712  c-3.584-18.36-12.92-30.8-28-37.336v91.24c37.32,10.112,62.768,23.216,76.296,39.32c13.528,16.088,20.304,36.744,20.304,61.944  c0,28.152-8.512,51.888-25.56,71.176c-17.032,19.288-40.704,31.112-71.04,35.464V512h-33.832v-42.472  c-26.92-3.264-48.768-13.296-65.568-30.104c-16.8-16.784-27.544-40.504-32.208-71.16l60.904-6.536  c2.48,12.448,7.144,23.184,14,32.208C362.112,402.952,369.728,409.488,378.136,413.528z M378.136,168.528  c-9.184,3.104-16.496,8.392-21.936,15.872c-5.456,7.464-8.168,15.704-8.168,24.728c0,8.24,2.48,15.904,7.464,22.992  c4.984,7.08,12.52,12.8,22.64,17.152V168.528z M411.968,416.8c11.656-2.176,21.144-7.584,28.456-16.224  c7.312-8.624,10.968-18.784,10.968-30.456c0-10.424-3.08-19.392-9.216-26.952c-6.136-7.544-16.208-13.328-30.208-17.384  L411.968,416.8L411.968,416.8z"
     id="path4" /><g
     id="g6" /><g
     id="g8" /><g
     id="g10" /><g
     id="g12" /><g
     id="g14" /><g
     id="g16" /><g
     id="g18" /><g
     id="g20" /><g
     id="g22" /><g
     id="g24" /><g
     id="g26" /><g
     id="g28" /><g
     id="g30" /><g
     id="g32" /><g
     id="g34" /></svg>