<?xml version="1.0" encoding="UTF-8" standalone="no"?>
<!-- Generator: Adobe Illustrator 19.0.0, SVG Export Plug-In . SVG Version: 6.00 Build 0)  -->

<svg
   xmlns:dc="http://purl.org/dc/elements/1.1/"
   xmlns:cc="http://creativecommons.org/ns#"
   xmlns:rdf="http://www.w3.org/1999/02/22-rdf-syntax-ns#"
   xmlns:svg="http://www.w3.org/2000/svg"
   xmlns="http://www.w3.org/2000/svg"
   xmlns:sodipodi="http://sodipodi.sourceforge.net/DTD/sodipodi-0.dtd"
   xmlns:inkscape="http://www.inkscape.org/namespaces/inkscape"
   version="1.1"
   id="Layer_1"
   x="0px"
   y="0px"
   viewBox="0 0 473.935 473.935"
   style="enable-background:new 0 0 473.935 473.935;"
   xml:space="preserve"
   sodipodi:docname="userlist.svg"
   inkscape:version="0.92.2 (5c3e80d, 2017-08-06)"><metadata
     id="metadata49"><rdf:RDF><cc:Work
         rdf:about=""><dc:format>image/svg+xml</dc:format><dc:type
           rdf:resource="http://purl.org/dc/dcmitype/StillImage" /><dc:title></dc:title></cc:Work></rdf:RDF></metadata><defs
     id="defs47" /><sodipodi:namedview
     pagecolor="#ffffff"
     bordercolor="#666666"
     borderopacity="1"
     objecttolerance="10"
     gridtolerance="10"
     guidetolerance="10"
     inkscape:pageopacity="0"
     inkscape:pageshadow="2"
     inkscape:window-width="1280"
     inkscape:window-height="737"
     id="namedview45"
     showgrid="false"
     inkscape:zoom="0.49795858"
     inkscape:cx="236.9675"
     inkscape:cy="236.9675"
     inkscape:window-x="-8"
     inkscape:window-y="-8"
     inkscape:window-maximized="1"
     inkscape:current-layer="Layer_1" /><circle
     style="fill:#337180;stroke-width:0.8389827"
     cx="238.9752"
     cy="238.9752"
     r="198.81122"
     id="circle2" /><path
     style="fill:#448a96;stroke-width:0.8389827"
     d="m 238.96261,437.78725 c 65.88783,0 124.26592,-32.0676 160.44034,-81.42998 -6.72109,-9.63153 -33.16079,-37.7752 -122.15001,-59.18856 0,-20.20438 -2.01188,-32.3067 -2.01188,-32.3067 0,0 26.25093,-36.359 28.26617,-86.84562 0,-8.02739 3.94322,-64.96746 -64.61593,-67.54482 0,-0.0252 0,-0.0663 0,-0.0847 -0.16948,0 -0.32049,0.0378 -0.50507,0.0378 -0.17619,0 -0.32301,-0.0378 -0.4992,-0.0378 0,0.0185 0,0.0629 0,0.0847 -68.54656,2.574 -64.61593,59.51827 -64.61593,67.5423 2.01188,50.48579 28.26617,86.84562 28.26617,86.84562 0,0 -2.02782,12.10233 -2.02782,32.30671 -86.63587,20.84704 -113.973282,48.07119 -121.55433,58.37809 36.1266,49.81712 94.76561,82.24296 161.00749,82.24296 z"
     id="path4"
     inkscape:connector-curvature="0" /><circle
     style="fill:#00a31f;stroke-width:0.8389827"
     cx="318.9017"
     cy="345.14679"
     r="47.874031"
     id="circle6" /><g
     id="g12"
     transform="matrix(0.83898271,0,0,0.83898271,40.163983,40.163983)"><path
       style="fill:#ffffff"
       d="m 370.572,363.361 c 0,4.962 -4.022,8.988 -8.999,8.988 h -58.559 c -4.965,0 -8.995,-4.026 -8.995,-8.988 v 0 c 0,-4.969 4.03,-8.995 8.995,-8.995 h 58.559 c 4.976,-0.004 8.999,4.026 8.999,8.995 z"
       id="path8"
       inkscape:connector-curvature="0" /><path
       style="fill:#ffffff"
       d="m 332.293,401.632 c -4.965,0 -8.992,-4.026 -8.992,-8.995 v -58.559 c 0,-4.969 4.026,-8.995 8.992,-8.995 v 0 c 4.969,0 8.999,4.026 8.999,8.995 v 58.559 c 0,4.969 -4.03,8.995 -8.999,8.995 z"
       id="path10"
       inkscape:connector-curvature="0" /></g><g
     id="g14" /><g
     id="g16" /><g
     id="g18" /><g
     id="g20" /><g
     id="g22" /><g
     id="g24" /><g
     id="g26" /><g
     id="g28" /><g
     id="g30" /><g
     id="g32" /><g
     id="g34" /><g
     id="g36" /><g
     id="g38" /><g
     id="g40" /><g
     id="g42" /></svg>