<?xml version="1.0" standalone="no"?>
<svg xmlns:xlink="http://www.w3.org/1999/xlink" id="wave" style="transform:rotate(180deg); transition: 0.3s" viewBox="0 0 1440 220" version="1.1" xmlns="http://www.w3.org/2000/svg"><defs><linearGradient id="sw-gradient-0" x1="0" x2="0" y1="1" y2="0"><stop stop-color="rgb(255, 255, 255)" offset="0%"/></linearGradient></defs><path style="transform:translate(0, 0px); opacity:1" fill="url(#sw-gradient-0)" d="M0,66L21.8,80.7C43.6,95,87,125,131,124.7C174.5,125,218,95,262,73.3C305.5,51,349,37,393,51.3C436.4,66,480,110,524,110C567.3,110,611,66,655,55C698.2,44,742,66,785,80.7C829.1,95,873,103,916,88C960,73,1004,37,1047,36.7C1090.9,37,1135,73,1178,73.3C1221.8,73,1265,37,1309,25.7C1352.7,15,1396,29,1440,44C1483.6,59,1527,73,1571,80.7C1614.5,88,1658,88,1702,95.3C1745.5,103,1789,117,1833,124.7C1876.4,132,1920,132,1964,143C2007.3,154,2051,176,2095,172.3C2138.2,169,2182,139,2225,121C2269.1,103,2313,95,2356,88C2400,81,2444,73,2487,69.7C2530.9,66,2575,66,2618,58.7C2661.8,51,2705,37,2749,33C2792.7,29,2836,37,2880,44C2923.6,51,2967,59,3011,80.7C3054.5,103,3098,139,3120,157.7L3141.8,176L3141.8,220L3120,220C3098.2,220,3055,220,3011,220C2967.3,220,2924,220,2880,220C2836.4,220,2793,220,2749,220C2705.5,220,2662,220,2618,220C2574.5,220,2531,220,2487,220C2443.6,220,2400,220,2356,220C2312.7,220,2269,220,2225,220C2181.8,220,2138,220,2095,220C2050.9,220,2007,220,1964,220C1920,220,1876,220,1833,220C1789.1,220,1745,220,1702,220C1658.2,220,1615,220,1571,220C1527.3,220,1484,220,1440,220C1396.4,220,1353,220,1309,220C1265.5,220,1222,220,1178,220C1134.5,220,1091,220,1047,220C1003.6,220,960,220,916,220C872.7,220,829,220,785,220C741.8,220,698,220,655,220C610.9,220,567,220,524,220C480,220,436,220,393,220C349.1,220,305,220,262,220C218.2,220,175,220,131,220C87.3,220,44,220,22,220L0,220Z"/></svg>