<?xml version="1.0" encoding="UTF-8" standalone="no"?>
<!-- Generator: Adobe Illustrator 19.0.0, SVG Export Plug-In . SVG Version: 6.00 Build 0)  -->

<svg
   xmlns:dc="http://purl.org/dc/elements/1.1/"
   xmlns:cc="http://creativecommons.org/ns#"
   xmlns:rdf="http://www.w3.org/1999/02/22-rdf-syntax-ns#"
   xmlns:svg="http://www.w3.org/2000/svg"
   xmlns="http://www.w3.org/2000/svg"
   xmlns:sodipodi="http://sodipodi.sourceforge.net/DTD/sodipodi-0.dtd"
   xmlns:inkscape="http://www.inkscape.org/namespaces/inkscape"
   version="1.1"
   id="Layer_1"
   x="0px"
   y="0px"
   viewBox="0 0 512 512"
   style="enable-background:new 0 0 512 512;"
   xml:space="preserve"
   sodipodi:docname="analisis.svg"
   inkscape:version="0.92.2 (5c3e80d, 2017-08-06)"><metadata
     id="metadata71"><rdf:RDF><cc:Work
         rdf:about=""><dc:format>image/svg+xml</dc:format><dc:type
           rdf:resource="http://purl.org/dc/dcmitype/StillImage" /><dc:title></dc:title></cc:Work></rdf:RDF></metadata><defs
     id="defs69" /><sodipodi:namedview
     pagecolor="#ffffff"
     bordercolor="#666666"
     borderopacity="1"
     objecttolerance="10"
     gridtolerance="10"
     guidetolerance="10"
     inkscape:pageopacity="0"
     inkscape:pageshadow="2"
     inkscape:window-width="1280"
     inkscape:window-height="737"
     id="namedview67"
     showgrid="false"
     inkscape:zoom="0.4609375"
     inkscape:cx="256"
     inkscape:cy="256"
     inkscape:window-x="-8"
     inkscape:window-y="-8"
     inkscape:window-maximized="1"
     inkscape:current-layer="Layer_1" /><path
     style="fill:#464655"
     d="M 494.345,3.724 H 17.655 C 7.905,3.724 0,11.628 0,21.379 v 317.793 c 0,9.75 7.905,17.655 17.655,17.655 h 476.69 c 9.75,0 17.655,-7.905 17.655,-17.655 V 21.379 C 512,11.628 504.095,3.724 494.345,3.724 Z m -8.828,273.655 H 26.483 V 30.207 h 459.034 z"
     id="path2"
     inkscape:connector-curvature="0" /><path
     style="fill:#c7cfe2"
     d="m 0,303.862 v 35.31 c 0,9.751 7.904,17.655 17.655,17.655 h 476.69 c 9.751,0 17.655,-7.904 17.655,-17.655 v -35.31 z"
     id="path4"
     inkscape:connector-curvature="0" /><polygon
     style="fill:#afb9d2"
     points="194.207,392.828 317.793,392.828 326.621,463.448 185.379,463.448 "
     id="polygon6"
     transform="translate(0,-36)" /><g
     id="g12"
     transform="translate(0,-36)"><polygon
       style="fill:#959cb3"
       points="194.207,392.828 192,410.483 320,410.483 317.793,392.828 "
       id="polygon8" /><circle
       style="fill:#959cb3"
       cx="256"
       cy="366.345"
       r="13.241"
       id="circle10" /></g><path
     style="fill:#c7cfe2"
     d="M 326.621,436.276 H 185.379 c -4.875,0 -8.828,-3.953 -8.828,-8.828 v 0 c 0,-4.875 3.953,-8.828 8.828,-8.828 H 326.62 c 4.875,0 8.828,3.953 8.828,8.828 v 0 c 0,4.875 -3.952,8.828 -8.827,8.828 z"
     id="path14"
     inkscape:connector-curvature="0" /><path
     style="fill:#ffe182"
     d="m 132.414,127.31 h -35.31 c -4.875,0 -8.828,3.953 -8.828,8.828 v 105.931 c 0,4.875 3.953,8.828 8.828,8.828 h 35.31 c 4.875,0 8.828,-3.953 8.828,-8.828 V 136.138 c -10e-4,-4.875 -3.953,-8.828 -8.828,-8.828 z"
     id="path16"
     inkscape:connector-curvature="0" /><path
     style="fill:#ff6464"
     d="m 203.034,92 h -35.31 c -4.875,0 -8.828,3.953 -8.828,8.828 v 141.241 c 0,4.875 3.953,8.828 8.828,8.828 h 35.31 c 4.875,0 8.828,-3.953 8.828,-8.828 V 100.828 C 211.862,95.953 207.91,92 203.034,92 Z"
     id="path18"
     inkscape:connector-curvature="0" /><path
     style="fill:#c3e678"
     d="m 273.655,56.69 h -35.31 c -4.875,0 -8.828,3.953 -8.828,8.828 V 242.07 c 0,4.875 3.953,8.828 8.828,8.828 h 35.31 c 4.875,0 8.828,-3.953 8.828,-8.828 V 65.517 c 0,-4.875 -3.953,-8.827 -8.828,-8.827 z"
     id="path20"
     inkscape:connector-curvature="0" /><path
     style="fill:#aaebfa"
     d="m 344.276,171.448 h -35.31 c -4.875,0 -8.828,3.953 -8.828,8.828 v 61.793 c 0,4.875 3.953,8.828 8.828,8.828 h 35.31 c 4.875,0 8.828,-3.953 8.828,-8.828 v -61.793 c -10e-4,-4.875 -3.953,-8.828 -8.828,-8.828 z"
     id="path22"
     inkscape:connector-curvature="0" /><path
     style="fill:#c3b4fa"
     d="m 414.897,127.31 h -35.31 c -4.875,0 -8.828,3.953 -8.828,8.828 v 105.931 c 0,4.875 3.953,8.828 8.828,8.828 h 35.31 c 4.875,0 8.828,-3.953 8.828,-8.828 V 136.138 c -0.001,-4.875 -3.953,-8.828 -8.828,-8.828 z"
     id="path24"
     inkscape:connector-curvature="0" /><path
     style="fill:#ffcd64"
     d="m 114.759,162.621 v 0 c -4.875,0 -8.828,3.953 -8.828,8.828 v 79.448 h 17.655 v -79.448 c 0,-4.876 -3.952,-8.828 -8.827,-8.828 z"
     id="path26"
     inkscape:connector-curvature="0" /><path
     style="fill:#d2555a"
     d="m 185.379,127.31 v 0 c -4.875,0 -8.828,3.953 -8.828,8.828 v 114.759 h 17.655 V 136.138 c 0.001,-4.875 -3.952,-8.828 -8.827,-8.828 z"
     id="path28"
     inkscape:connector-curvature="0" /><path
     style="fill:#a0cd5a"
     d="m 256,92 v 0 c -4.875,0 -8.828,3.953 -8.828,8.828 v 150.069 h 17.655 V 100.828 C 264.828,95.953 260.875,92 256,92 Z"
     id="path30"
     inkscape:connector-curvature="0" /><path
     style="fill:#78cde6"
     d="m 317.793,215.586 v 35.31 h 17.655 v -35.31 c 0,-4.875 -3.953,-8.828 -8.828,-8.828 v 0 c -4.874,10e-4 -8.827,3.953 -8.827,8.828 z"
     id="path32"
     inkscape:connector-curvature="0" /><path
     style="fill:#aaa0ff"
     d="m 397.241,162.621 v 0 c -4.875,0 -8.828,3.953 -8.828,8.828 v 79.448 h 17.655 v -79.448 c 0.001,-4.876 -3.952,-8.828 -8.827,-8.828 z"
     id="path34"
     inkscape:connector-curvature="0" /><g
     id="g36" /><g
     id="g38" /><g
     id="g40" /><g
     id="g42" /><g
     id="g44" /><g
     id="g46" /><g
     id="g48" /><g
     id="g50" /><g
     id="g52" /><g
     id="g54" /><g
     id="g56" /><g
     id="g58" /><g
     id="g60" /><g
     id="g62" /><g
     id="g64" /><g
     id="g8"
     transform="matrix(0.58411691,0,0,0.58411691,180.16495,375.54011)"><path
       style="fill:#fbbc04"
       inkscape:connector-curvature="0"
       d="M 5.888,166.4051 90.88,20.9 c 10.79614,6.355862 65.23586,36.484414 74.02814,42.213517 L 79.916138,208.62745 C 70.62069,220.90662 -5.888,185.04014 5.888,166.39628 Z"
       id="path2-6" /><path
       style="fill:#4285f4"
       inkscape:connector-curvature="0"
       d="M 250.08422,166.40179 165.09222,20.905513 C 153.21029,1.13172 127.61912,-6.0539352 106.60064,5.6249614 85.582155,17.303858 79.182155,42.462479 91.064086,63.11903 l 84.992004,145.51393 c 11.88193,19.76497 37.4731,26.95062 58.49158,15.27173 20.10042,-11.6789 27.41849,-37.72911 15.53655,-57.48525 z"
       id="path4-5" /><ellipse
       style="fill:#34a853"
       cx="42.663723"
       cy="187.92441"
       rx="42.663723"
       ry="41.604412"
       id="ellipse6" /></g></svg>