<?xml version="1.0" encoding="UTF-8" standalone="no"?>
<!-- Generator: Adobe Illustrator 19.0.0, SVG Export Plug-In . SVG Version: 6.00 Build 0)  -->

<svg
   xmlns:dc="http://purl.org/dc/elements/1.1/"
   xmlns:cc="http://creativecommons.org/ns#"
   xmlns:rdf="http://www.w3.org/1999/02/22-rdf-syntax-ns#"
   xmlns:svg="http://www.w3.org/2000/svg"
   xmlns="http://www.w3.org/2000/svg"
   xmlns:sodipodi="http://sodipodi.sourceforge.net/DTD/sodipodi-0.dtd"
   xmlns:inkscape="http://www.inkscape.org/namespaces/inkscape"
   version="1.1"
   id="Layer_1"
   x="0px"
   y="0px"
   viewBox="0 0 512 512"
   style="enable-background:new 0 0 512 512;"
   xml:space="preserve"
   sodipodi:docname="presupuesto.svg"
   inkscape:version="0.92.2 (5c3e80d, 2017-08-06)"><metadata
     id="metadata99"><rdf:RDF><cc:Work
         rdf:about=""><dc:format>image/svg+xml</dc:format><dc:type
           rdf:resource="http://purl.org/dc/dcmitype/StillImage" /><dc:title></dc:title></cc:Work></rdf:RDF></metadata><defs
     id="defs97" /><sodipodi:namedview
     pagecolor="#ffffff"
     bordercolor="#666666"
     borderopacity="1"
     objecttolerance="10"
     gridtolerance="10"
     guidetolerance="10"
     inkscape:pageopacity="0"
     inkscape:pageshadow="2"
     inkscape:window-width="1280"
     inkscape:window-height="737"
     id="namedview95"
     showgrid="false"
     inkscape:zoom="0.4609375"
     inkscape:cx="256"
     inkscape:cy="256"
     inkscape:window-x="-8"
     inkscape:window-y="-8"
     inkscape:window-maximized="1"
     inkscape:current-layer="Layer_1" /><path
     style="fill:#F2F2F2;"
     d="M509.653,113.512l-85.511-85.511c-1.505-1.503-3.543-2.347-5.669-2.347H93.528  c-4.428,0-8.017,3.588-8.017,8.017v470.313c0,4.428,3.588,8.017,8.017,8.017h410.455c4.428,0,8.017-3.588,8.017-8.017V119.182  C512,117.056,511.156,115.017,509.653,113.512z"
     id="path2" /><g
     id="g8"><path
       style="fill:#E5E5E5;"
       d="M511.982,118.826c-0.089-1.996-0.912-3.893-2.33-5.312L424.14,28.002   c-1.504-1.504-3.542-2.348-5.668-2.348h-0.356v85.156c0,4.427,3.589,8.017,8.017,8.017H511.982z"
       id="path4" /><path
       style="fill:#E5E5E5;"
       d="M93.528,25.653c-4.428,0-8.017,3.588-8.017,8.017v470.313c0,4.428,3.588,8.017,8.017,8.017h375.888   L136.144,25.653H93.528z"
       id="path6" /></g><path
     style="fill:#666666;"
     d="M214.313,0H24.05C10.789,0,0,10.789,0,24.05v258.672c0,13.261,10.789,24.05,24.05,24.05h190.263  c13.261,0,24.05-10.789,24.05-24.05V24.05C238.363,10.789,227.574,0,214.313,0z"
     id="path10" /><path
     style="fill:#F7D04A;"
     d="M358.614,247.983c-65.717,0-119.182,53.465-119.182,119.182s53.465,119.182,119.182,119.182  s119.182-53.465,119.182-119.182S424.33,247.983,358.614,247.983z"
     id="path12" /><path
     style="fill:#F3B41B;"
     d="M382.129,462.831c-65.717,0-119.182-53.465-119.182-119.182c0-26.875,8.946-51.698,24.009-71.656  c-28.845,21.772-47.525,56.331-47.525,95.172c0,65.717,53.465,119.182,119.182,119.182c38.841,0,73.4-18.68,95.172-47.525  C433.828,453.885,409.005,462.831,382.129,462.831z"
     id="path14" /><path
     style="fill:#EB6836;"
     d="M376.915,360.217l-12.423-0.366v-44.528h28.326c4.428,0,8.017-3.588,8.017-8.017  c0-4.428-3.588-8.017-8.017-8.017h-28.326v-9.086c0-4.428-3.588-8.017-8.017-8.017c-4.428,0-8.017,3.588-8.017,8.017v9.086h-8.017  c-13.261,0-24.05,10.789-24.05,24.05v27.791c0,13.217,10.719,23.98,23.92,24.05l8.147,0.239v43.585h-24.05  c-4.428,0-8.017,3.588-8.017,8.017s3.588,8.017,8.017,8.017h24.05v9.086c0,4.428,3.588,8.017,8.017,8.017  c4.428,0,8.017-3.588,8.017-8.017v-9.086h12.292c13.261,0,24.05-10.789,24.05-24.05v-26.722  C400.835,371.05,390.116,360.288,376.915,360.217z M340.679,359.151c-0.078-0.002-0.157-0.003-0.236-0.003  c-4.421,0-8.017-3.596-8.017-8.017V323.34c0-4.421,3.596-8.017,8.017-8.017h8.017v44.057L340.679,359.151z M384.802,410.99  c0,4.421-3.596,8.017-8.017,8.017h-12.292v-43.114l12.056,0.355c0.078,0.002,0.157,0.003,0.236,0.003  c4.421,0,8.017,3.596,8.017,8.017V410.99z"
     id="path16" /><path
     style="fill:#F2F2F2;"
     d="M204.693,25.653H33.67c-4.428,0-8.017,3.588-8.017,8.017v42.756c0,4.428,3.588,8.017,8.017,8.017  h171.023c4.428,0,8.017-3.588,8.017-8.017V33.67C212.71,29.242,209.122,25.653,204.693,25.653z"
     id="path18" /><g
     id="g24"><path
       style="fill:#62C9CC;"
       d="M33.67,25.653c-4.428,0-8.017,3.588-8.017,8.017v42.756c0,4.428,3.588,8.017,8.017,8.017h34.739   l58.789-58.789H33.67z"
       id="path20" /><path
       style="fill:#62C9CC;"
       d="M204.693,25.653h-29.929l-58.789,58.789h88.718c4.428,0,8.017-3.588,8.017-8.017V33.67   C212.71,29.242,209.122,25.653,204.693,25.653z"
       id="path22" /></g><g
     id="g40"><path
       style="fill:#EF9D3C;"
       d="M67.875,94.063H33.67c-4.428,0-8.017,3.588-8.017,8.017v34.205c0,4.428,3.588,8.017,8.017,8.017   h34.205c4.428,0,8.017-3.588,8.017-8.017v-34.205C75.891,97.651,72.303,94.063,67.875,94.063z"
       id="path26" /><path
       style="fill:#EF9D3C;"
       d="M135.749,94.063h-34.205c-4.428,0-8.017,3.588-8.017,8.017v34.205c0,4.428,3.588,8.017,8.017,8.017   h34.205c4.428,0,8.017-3.588,8.017-8.017v-34.205C143.766,97.651,140.178,94.063,135.749,94.063z"
       id="path28" /><path
       style="fill:#EF9D3C;"
       d="M67.875,162.472H33.67c-4.428,0-8.017,3.588-8.017,8.017v34.205c0,4.428,3.588,8.017,8.017,8.017   h34.205c4.428,0,8.017-3.588,8.017-8.017v-34.205C75.891,166.06,72.303,162.472,67.875,162.472z"
       id="path30" /><path
       style="fill:#EF9D3C;"
       d="M135.749,162.472h-34.205c-4.428,0-8.017,3.588-8.017,8.017v34.205c0,4.428,3.588,8.017,8.017,8.017   h34.205c4.428,0,8.017-3.588,8.017-8.017v-34.205C143.766,166.06,140.178,162.472,135.749,162.472z"
       id="path32" /><path
       style="fill:#EF9D3C;"
       d="M67.875,230.881H33.67c-4.428,0-8.017,3.588-8.017,8.017v34.205c0,4.428,3.588,8.017,8.017,8.017   h34.205c4.428,0,8.017-3.588,8.017-8.017v-34.205C75.891,234.469,72.303,230.881,67.875,230.881z"
       id="path34" /><path
       style="fill:#EF9D3C;"
       d="M135.749,230.881h-34.205c-4.428,0-8.017,3.588-8.017,8.017v34.205c0,4.428,3.588,8.017,8.017,8.017   h34.205c4.428,0,8.017-3.588,8.017-8.017v-34.205C143.766,234.469,140.178,230.881,135.749,230.881z"
       id="path36" /><path
       style="fill:#EF9D3C;"
       d="M204.159,94.063h-34.205c-4.428,0-8.017,3.588-8.017,8.017v34.205c0,4.428,3.588,8.017,8.017,8.017   h34.205c4.428,0,8.017-3.588,8.017-8.017v-34.205C212.175,97.651,208.587,94.063,204.159,94.063z"
       id="path38" /></g><path
     style="fill:#F7D04A;"
     d="M204.693,162.472h-34.205c-4.428,0-8.017,3.588-8.017,8.017v102.614c0,4.428,3.588,8.017,8.017,8.017  h34.205c4.428,0,8.017-3.588,8.017-8.017V170.489C212.71,166.06,209.122,162.472,204.693,162.472z"
     id="path42" /><path
     style="fill:#666666;"
     d="M297.846,92.994c-2.183,0-4.358-0.886-5.941-2.632l-15.51-17.102  c-2.974-3.279-2.727-8.35,0.554-11.324c3.276-2.976,8.349-2.729,11.324,0.554l15.51,17.102c2.974,3.279,2.727,8.35-0.554,11.324  C301.695,92.308,299.767,92.994,297.846,92.994z"
     id="path44" /><g
     id="g50"><path
       style="fill:#62C9CC;"
       d="M464.11,214.126L336.377,86.391c-1.12-1.119-2.545-1.882-4.097-2.192l-30.233-6.046   c-2.627-0.522-5.344,0.297-7.241,2.192c-1.894,1.895-2.717,4.612-2.192,7.241l6.046,30.233c0.31,1.552,1.073,2.977,2.192,4.097   l127.735,127.735c5.116,5.116,12.417,7.67,19.607,6.89c6.428-0.697,11.449-3.932,15.917-8.402   C473.488,238.761,473.488,223.505,464.11,214.126z"
       id="path46" /><rect
       x="300.46"
       y="122.86"
       transform="matrix(-0.7071 -0.7071 0.7071 -0.7071 514.0678 508.8909)"
       style="fill:#62C9CC;"
       width="123.937"
       height="50.238"
       id="rect48" /></g><path
     style="fill:#F7D04A;"
     d="M302.047,78.153c-5.513-1.096-10.535,3.916-9.433,9.433l6.046,30.233  c0.31,1.552,1.073,2.977,2.192,4.097l35.525-35.525c-1.12-1.119-2.545-1.882-4.097-2.192L302.047,78.153z"
     id="path52" /><path
     style="fill:#50A9A9;"
     d="M464.11,214.126l-40.095-40.095l-35.525,35.525l40.095,40.095c5.021,5.021,12.2,7.479,19.248,6.84  c6.562-0.595,11.719-3.795,16.276-8.351C473.488,238.761,473.488,223.505,464.11,214.126z"
     id="path54" /><path
     style="fill:#666666;"
     d="M451.639,221.01c-2.051,0-4.103-0.782-5.669-2.347c-3.131-3.132-3.131-8.207,0-11.338l12.323-12.322  l-37.701-35.802c-3.211-3.05-3.342-8.124-0.293-11.333c3.051-3.211,8.125-3.342,11.333-0.293l43.668,41.467  c1.568,1.489,2.469,3.548,2.496,5.71c0.028,2.161-0.819,4.243-2.346,5.772l-18.14,18.14  C455.742,220.226,453.69,221.01,451.639,221.01z"
     id="path56" /><g
     id="g62"><path
       style="fill:#808080;"
       d="M198.28,383.733h-53.445c-4.428,0-8.017-3.588-8.017-8.017c0-4.428,3.588-8.017,8.017-8.017h53.445   c4.428,0,8.017,3.588,8.017,8.017C206.296,380.145,202.708,383.733,198.28,383.733z"
       id="path58" /><path
       style="fill:#808080;"
       d="M198.28,426.489h-53.445c-4.428,0-8.017-3.588-8.017-8.017s3.588-8.017,8.017-8.017h53.445   c4.428,0,8.017,3.588,8.017,8.017S202.708,426.489,198.28,426.489z"
       id="path60" /></g><g
     id="g64" /><g
     id="g66" /><g
     id="g68" /><g
     id="g70" /><g
     id="g72" /><g
     id="g74" /><g
     id="g76" /><g
     id="g78" /><g
     id="g80" /><g
     id="g82" /><g
     id="g84" /><g
     id="g86" /><g
     id="g88" /><g
     id="g90" /><g
     id="g92" /></svg>