<?xml version="1.0" encoding="UTF-8" standalone="no"?>
<!-- Generator: Adobe Illustrator 19.0.0, SVG Export Plug-In . SVG Version: 6.00 Build 0)  -->

<svg
   xmlns:dc="http://purl.org/dc/elements/1.1/"
   xmlns:cc="http://creativecommons.org/ns#"
   xmlns:rdf="http://www.w3.org/1999/02/22-rdf-syntax-ns#"
   xmlns:svg="http://www.w3.org/2000/svg"
   xmlns="http://www.w3.org/2000/svg"
   xmlns:sodipodi="http://sodipodi.sourceforge.net/DTD/sodipodi-0.dtd"
   xmlns:inkscape="http://www.inkscape.org/namespaces/inkscape"
   version="1.1"
   id="Layer_1"
   x="0px"
   y="0px"
   viewBox="0 0 485.62372 285.96948"
   xml:space="preserve"
   sodipodi:docname="logo_footer.svg"
   width="485.62372"
   height="285.96948"
   inkscape:version="0.92.2 (5c3e80d, 2017-08-06)"><metadata
     id="metadata41"><rdf:RDF><cc:Work
         rdf:about=""><dc:format>image/svg+xml</dc:format><dc:type
           rdf:resource="http://purl.org/dc/dcmitype/StillImage" /><dc:title></dc:title></cc:Work></rdf:RDF></metadata><defs
     id="defs39"><pattern
       y="0"
       x="0"
       height="6"
       width="6"
       patternUnits="userSpaceOnUse"
       id="EMFhbasepattern" /></defs><sodipodi:namedview
     pagecolor="#ffffff"
     bordercolor="#666666"
     borderopacity="1"
     objecttolerance="10"
     gridtolerance="10"
     guidetolerance="10"
     inkscape:pageopacity="0"
     inkscape:pageshadow="2"
     inkscape:window-width="1280"
     inkscape:window-height="737"
     id="namedview37"
     showgrid="false"
     fit-margin-top="0"
     fit-margin-left="0"
     fit-margin-right="0"
     fit-margin-bottom="0"
     inkscape:zoom="0.49795858"
     inkscape:cx="131.06422"
     inkscape:cy="155.03393"
     inkscape:window-x="-8"
     inkscape:window-y="-8"
     inkscape:window-maximized="1"
     inkscape:current-layer="Layer_1" /><path
     style="fill:#fe2127;fill-opacity:1;stroke-width:0.23708226"
     d="m 465.30151,118.2512 c -6.83087,0 -13.17635,3.3284 -16.99077,8.90836 l -0.78783,1.00144 -0.52513,-0.66975 c -3.77103,-5.78742 -10.1291,-9.24005 -17.02986,-9.24005 -11.7754,0 -20.32198,8.54635 -20.32198,20.32008 0,17.38477 31.47125,43.0053 33.76621,44.8498 1.08394,1.03534 2.50074,1.60482 4.00526,1.60482 1.50453,0 2.92204,-0.56948 4.00716,-1.60648 2.30302,-1.85682 34.19914,-27.88277 34.19914,-44.8479 0,-11.77397 -8.5475,-20.32032 -20.3222,-20.32032 z"
     id="path4"
     inkscape:connector-curvature="0" /><g
     id="g6"
     transform="translate(-526.63849,-106.03196)" /><g
     id="g8"
     transform="translate(-526.63849,-106.03196)" /><g
     id="g10"
     transform="translate(-526.63849,-106.03196)" /><g
     id="g12"
     transform="translate(-526.63849,-106.03196)" /><g
     id="g14"
     transform="translate(-526.63849,-106.03196)" /><g
     id="g16"
     transform="translate(-526.63849,-106.03196)" /><g
     id="g18"
     transform="translate(-526.63849,-106.03196)" /><g
     id="g20"
     transform="translate(-526.63849,-106.03196)" /><g
     id="g22"
     transform="translate(-526.63849,-106.03196)" /><g
     id="g24"
     transform="translate(-526.63849,-106.03196)" /><g
     id="g26"
     transform="translate(-526.63849,-106.03196)" /><g
     id="g28"
     transform="translate(-526.63849,-106.03196)" /><g
     id="g30"
     transform="translate(-526.63849,-106.03196)" /><g
     id="g32"
     transform="translate(-526.63849,-106.03196)" /><g
     id="g34"
     transform="translate(-526.63849,-106.03196)" /><path
     id="path851"
     d="m 398.23705,146.37678 c 0.87999,-18.23987 -10.71992,-33.51976 -25.83981,-34.31975 -15.11989,-0.71999 -63.19953,29.99978 -63.19953,29.99978 0,0 44.87967,35.11974 59.99956,35.91973 15.19988,0.72 28.15979,-13.4399 29.03978,-31.59976 z"
     style="fill:#0000ff;fill-opacity:1;fill-rule:evenodd;stroke:none"
     inkscape:connector-curvature="0" /><path
     id="path853"
     d="m 52.55962,81.977254 c -0.88,6.15996 -1.67999,12.39991 -2.47999,18.799856 -0.79999,6.39996 -1.51999,12.79991 -2.07998,19.19986 -0.64,6.31995 -1.11999,12.63991 -1.43999,18.79986 -0.4,6.15996 -0.56,12.07991 -0.56,17.75987 0,2.71998 0,5.03996 0.08,7.03995 0.08,1.91998 0.16,3.59997 0.32,4.87996 0.08,1.35999 0.32,2.47998 0.48,3.27998 0.24,0.79999 0.55999,1.35999 0.87999,1.83998 0.4,0.4 0.79999,0.72 1.27999,0.88 0.4,0.08 0.95999,0.16 1.59999,0.16 1.11999,0 2.39998,-0.16 3.67997,-0.48 1.35999,-0.4 2.71998,-0.87999 4.15997,-1.51999 l 0.64,1.83999 c -0.88,0.71999 -1.91999,1.43999 -3.27998,2.15998 -1.27999,0.72 -2.63998,1.35999 -4.15997,1.99999 -1.43999,0.63999 -2.79998,1.11999 -4.23997,1.43999 -1.35999,0.39999 -2.55998,0.55999 -3.59997,0.55999 -0.71999,0 -1.35999,-0.08 -1.91999,-0.24 -0.55999,-0.16 -1.03999,-0.47999 -1.43999,-0.87999 -0.39999,-0.4 -0.71999,-0.95999 -1.03999,-1.67999 -0.24,-0.71999 -0.47999,-1.59999 -0.63999,-2.63998 -0.24,-1.43999 -0.4,-3.19997 -0.56,-5.11996 -0.08,-1.91999 -0.16,-3.99997 -0.16,-6.23995 0,-2.39999 0.08,-4.87997 0.24,-7.35995 0.24,-2.47998 0.48,-5.03996 0.87999,-7.51994 l -0.31999,-0.08 c -1.83999,4.95996 -3.83998,9.35993 -6.07996,13.2799 -2.15998,3.99997 -4.39997,7.35994 -6.71995,10.15992 -2.31998,2.79998 -4.63996,4.95997 -6.95995,6.47996 -2.31998,1.51998 -4.55996,2.23998 -6.71995,2.23998 -2.15998,0 -3.99997,-0.56 -5.59996,-1.67999 C 5.19997,178.21654 3.91998,176.85655 2.95998,175.01656 1.91999,173.25658 1.2,171.17659 0.72,168.85661 0.24,166.53663 0,164.13664 0,161.65666 c 0,-2.95998 0.32,-5.91995 0.96,-8.71993 0.63999,-2.95998 1.59999,-5.67996 2.79998,-8.23994 1.19999,-2.55998 2.71998,-4.95997 4.39996,-7.19995 1.75999,-2.15998 3.67998,-4.07997 5.75996,-5.67996 2.15999,-1.59998 4.39997,-2.79998 6.87995,-3.75997 2.47998,-0.87999 5.11996,-1.35999 7.83994,-1.35999 1.83999,0 3.75997,0.24 5.67996,0.72 1.83999,0.47999 3.75997,1.27999 5.67996,2.39998 0.08,-4.07997 0.24,-8.23994 0.4,-12.47991 0.15999,-4.23997 0.39999,-8.31994 0.63999,-12.31991 0.24,-3.99997 0.48,-7.839936 0.79999,-11.359916 0.32,-3.59997 0.64,-6.79995 0.96,-9.59992 0.08,-0.56 0.24,-1.04 0.55999,-1.43999 0.32,-0.48 0.72,-0.8 1.19999,-1.04 0.48,-0.23999 1.04,-0.47999 1.59999,-0.55999 0.64,-0.16 1.27999,-0.16 1.83999,-0.16 1.43999,0 2.95998,0.32 4.55997,1.11999 z M 39.59971,132.93688 c -3.27997,-1.51999 -6.47995,-2.31999 -9.67993,-2.31999 -2.31998,0 -4.47996,0.4 -6.47995,1.11999 -1.91998,0.72 -3.67997,1.75999 -5.27996,3.11998 -1.59999,1.27999 -2.95998,2.87998 -4.15997,4.63997 -1.11999,1.75998 -2.15998,3.67997 -2.87998,5.67995 -0.79999,2.07999 -1.35999,4.15997 -1.75999,6.31996 -0.39999,2.23998 -0.63999,4.39997 -0.63999,6.55995 0,0.79999 0.08,1.67999 0.16,2.71998 0.08,0.95999 0.16,1.99998 0.4,3.11998 0.15999,1.03999 0.47999,2.07998 0.79999,3.11997 0.32,1.03999 0.79999,1.91999 1.27999,2.71998 0.48,0.88 1.11999,1.51999 1.83999,1.99999 0.71999,0.47999 1.51999,0.71999 2.47998,0.71999 1.75999,0 3.51997,-0.63999 5.35996,-1.91998 1.75999,-1.35999 3.51997,-3.03998 5.27996,-5.19996 1.67999,-2.15999 3.35997,-4.55997 4.87996,-7.35995 1.51999,-2.79998 2.87998,-5.59996 4.07997,-8.55994 1.19999,-2.95998 2.15999,-5.83995 2.87998,-8.63993 0.8,-2.87998 1.27999,-5.51996 1.43999,-7.83994 z"
     style="fill:#ffffff;fill-opacity:1;fill-rule:nonzero;stroke:none"
     inkscape:connector-curvature="0" /><path
     id="path855"
     d="m 52.55962,81.977254 c -0.88,6.15996 -1.67999,12.39991 -2.47999,18.799856 -0.79999,6.39996 -1.51999,12.79991 -2.07998,19.19986 -0.64,6.31995 -1.11999,12.63991 -1.43999,18.79986 -0.4,6.15996 -0.56,12.07991 -0.56,17.75987 0,2.71998 0,5.03996 0.08,7.03995 0.08,1.91998 0.16,3.59997 0.32,4.87996 0.08,1.35999 0.32,2.47998 0.48,3.27998 0.24,0.79999 0.55999,1.35999 0.87999,1.83998 0.4,0.4 0.79999,0.72 1.27999,0.88 0.4,0.08 0.95999,0.16 1.59999,0.16 1.11999,0 2.39998,-0.16 3.67997,-0.48 1.35999,-0.4 2.71998,-0.87999 4.15997,-1.51999 l 0.64,1.83999 c -0.88,0.71999 -1.91999,1.43999 -3.27998,2.15998 -1.27999,0.72 -2.63998,1.35999 -4.15997,1.99999 -1.43999,0.63999 -2.79998,1.11999 -4.23997,1.43999 -1.35999,0.39999 -2.55998,0.55999 -3.59997,0.55999 -0.71999,0 -1.35999,-0.08 -1.91999,-0.24 -0.55999,-0.16 -1.03999,-0.47999 -1.43999,-0.87999 -0.39999,-0.4 -0.71999,-0.95999 -1.03999,-1.67999 -0.24,-0.71999 -0.47999,-1.59999 -0.63999,-2.63998 -0.24,-1.43999 -0.4,-3.19997 -0.56,-5.11996 -0.08,-1.91999 -0.16,-3.99997 -0.16,-6.23995 0,-2.39999 0.08,-4.87997 0.24,-7.35995 0.24,-2.47998 0.48,-5.03996 0.87999,-7.51994 l -0.31999,-0.08 c -1.83999,4.95996 -3.83998,9.35993 -6.07996,13.2799 -2.15998,3.99997 -4.39997,7.35994 -6.71995,10.15992 -2.31998,2.79998 -4.63996,4.95997 -6.95995,6.47996 -2.31998,1.51998 -4.55996,2.23998 -6.71995,2.23998 -2.15998,0 -3.99997,-0.56 -5.59996,-1.67999 C 5.19997,178.21654 3.91998,176.85655 2.95998,175.01656 1.91999,173.25658 1.2,171.17659 0.72,168.85661 0.24,166.53663 0,164.13664 0,161.65666 c 0,-2.95998 0.32,-5.91995 0.96,-8.71993 0.63999,-2.95998 1.59999,-5.67996 2.79998,-8.23994 1.19999,-2.55998 2.71998,-4.95997 4.39996,-7.19995 1.75999,-2.15998 3.67998,-4.07997 5.75996,-5.67996 2.15999,-1.59998 4.39997,-2.79998 6.87995,-3.75997 2.47998,-0.87999 5.11996,-1.35999 7.83994,-1.35999 1.83999,0 3.75997,0.24 5.67996,0.72 1.83999,0.47999 3.75997,1.27999 5.67996,2.39998 0.08,-4.07997 0.24,-8.23994 0.4,-12.47991 0.15999,-4.23997 0.39999,-8.31994 0.63999,-12.31991 0.24,-3.99997 0.48,-7.839936 0.79999,-11.359916 0.32,-3.59997 0.64,-6.79995 0.96,-9.59992 0.08,-0.56 0.24,-1.04 0.55999,-1.43999 0.32,-0.48 0.72,-0.8 1.19999,-1.04 0.48,-0.23999 1.04,-0.47999 1.59999,-0.55999 0.64,-0.16 1.27999,-0.16 1.83999,-0.16 1.43999,0 2.95998,0.32 4.55997,1.11999 z M 39.59971,132.93688 c -3.27997,-1.51999 -6.47995,-2.31999 -9.67993,-2.31999 -2.31998,0 -4.47996,0.4 -6.47995,1.11999 -1.91998,0.72 -3.67997,1.75999 -5.27996,3.11998 -1.59999,1.27999 -2.95998,2.87998 -4.15997,4.63997 -1.11999,1.75998 -2.15998,3.67997 -2.87998,5.67995 -0.79999,2.07999 -1.35999,4.15997 -1.75999,6.31996 -0.39999,2.23998 -0.63999,4.39997 -0.63999,6.55995 0,0.79999 0.08,1.67999 0.16,2.71998 0.08,0.95999 0.16,1.99998 0.4,3.11998 0.15999,1.03999 0.47999,2.07998 0.79999,3.11997 0.32,1.03999 0.79999,1.91999 1.27999,2.71998 0.48,0.88 1.11999,1.51999 1.83999,1.99999 0.71999,0.47999 1.51999,0.71999 2.47998,0.71999 1.75999,0 3.51997,-0.63999 5.35996,-1.91998 1.75999,-1.35999 3.51997,-3.03998 5.27996,-5.19996 1.67999,-2.15999 3.35997,-4.55997 4.87996,-7.35995 1.51999,-2.79998 2.87998,-5.59996 4.07997,-8.55994 1.19999,-2.95998 2.15999,-5.83995 2.87998,-8.63993 0.8,-2.87998 1.27999,-5.51996 1.43999,-7.83994 z"
     style="fill:#ffffff;stroke:none;fill-opacity:1"
     inkscape:connector-curvature="0" /><path
     id="path857"
     d="m 100.55926,180.21652 c -0.64,-4.55996 -1.51999,-9.27993 -2.47998,-14.15989 -0.95999,-4.95996 -1.99999,-9.91993 -3.11998,-14.87989 -0.63999,1.51999 -1.43999,3.03998 -2.23998,4.79996 -0.88,1.59999 -1.75999,3.35998 -2.71998,5.11997 -0.96,1.75998 -1.91999,3.59997 -2.95998,5.35996 -1.03999,1.75998 -2.07998,3.51997 -3.11998,5.27996 -1.03999,1.67999 -2.07998,3.27997 -3.03997,4.79996 -1.04,1.59999 -1.91999,2.95998 -2.79998,4.23997 l -3.99997,-0.48 c -0.32,-2.31998 -0.64,-4.71996 -1.12,-7.27994 -0.39999,-2.55998 -0.79999,-5.11996 -1.27999,-7.67994 -0.47999,-2.55999 -1.03999,-5.11997 -1.51999,-7.67995 -0.55999,-2.47998 -1.03999,-4.87996 -1.59998,-7.11995 -0.48,-2.23998 -0.96,-4.31996 -1.43999,-6.23995 -0.48,-1.83999 -0.96,-3.51997 -1.35999,-4.79996 -0.48,-1.51999 -0.96,-2.79998 -1.35999,-3.75998 -0.4,-0.95999 -0.88,-1.75998 -1.35999,-2.23998 -0.4,-0.55999 -0.88,-0.87999 -1.35999,-1.11999 -0.56,-0.16 -1.11999,-0.24 -1.75999,-0.24 -0.79999,0 -1.59999,0.08 -2.47998,0.24 -0.87999,0.16 -1.91999,0.4 -3.11998,0.63999 l -0.55999,-2.55998 c 3.19997,-1.19999 5.99995,-2.07998 8.39993,-2.63998 2.31999,-0.63999 3.99997,-0.95999 5.03997,-0.95999 0.55999,0 1.19999,0.08 1.67998,0.32 0.56,0.24 1.12,0.63999 1.59999,1.11999 0.48,0.56 0.96,1.27999 1.35999,2.15998 0.48,0.96 0.96,2.07999 1.35999,3.51998 0.32,0.95999 0.64,2.23998 1.11999,3.75997 0.4,1.51999 0.8,3.27998 1.2,5.11996 0.47999,1.91999 0.95999,3.91997 1.43998,6.15996 0.48,2.15998 0.96,4.47996 1.43999,6.79995 0.4,2.39998 0.88,4.79996 1.27999,7.27994 0.4,2.39998 0.8,4.79997 1.12,7.27995 0.55999,-0.88 1.19999,-1.83999 1.83998,-3.03998 0.72,-1.27999 1.43999,-2.55998 2.23999,-3.91997 0.71999,-1.43999 1.51998,-2.87998 2.23998,-4.31997 0.79999,-1.51999 1.51999,-2.95998 2.15998,-4.31997 0.64,-1.43999 1.19999,-2.71998 1.67999,-3.91997 0.48,-1.19999 0.79999,-2.23998 1.03999,-3.11997 0.16,-0.56 0.24,-1.12 0.32,-1.67999 0.08,-0.56 0.08,-1.11999 0.08,-1.67999 0,-0.71999 -0.08,-1.51999 -0.16,-2.39998 -0.08,-0.88 -0.24,-1.75999 -0.4,-2.55998 -0.15999,-0.88 -0.31999,-1.75999 -0.47999,-2.63998 -0.24,-0.88 -0.4,-1.67999 -0.56,-2.47998 -0.16,-0.64 -0.24,-1.12 -0.24,-1.51999 0,-0.8 0.24,-1.35999 0.72,-1.75999 0.47999,-0.48 1.27999,-0.64 2.47998,-0.64 0.71999,0 1.51999,0.08 2.31998,0.32 0.8,0.16 1.59999,0.4 2.31999,0.8 0.71999,2.95997 1.51998,6.15995 2.31997,9.43993 0.8,3.27997 1.59999,6.63995 2.39999,9.99992 0.79999,3.35998 1.51998,6.63995 2.23998,9.99993 0.71999,3.27997 1.27999,6.47995 1.83999,9.51993 1.67998,-2.63998 3.35997,-5.35996 4.95996,-8.15994 1.67999,-2.79998 3.11998,-5.59996 4.39997,-8.39994 1.27999,-2.79998 2.23998,-5.51996 3.03997,-8.31994 0.8,-2.71998 1.12,-5.43996 1.12,-7.99994 0,-1.11999 0,-2.15998 -0.16,-3.11998 -0.16,-1.03999 -0.4,-2.07998 -0.8,-2.95997 -0.31999,-0.96 -0.79999,-1.83999 -1.35999,-2.71998 -0.63999,-0.8 -1.35999,-1.59999 -2.31998,-2.31999 l 0.4,-0.87999 c 0.47999,-0.08 0.87999,-0.08 1.27999,-0.16 0.39999,0 0.79999,0 1.19999,0 3.19998,0 5.51996,0.79999 7.03995,2.31998 1.59998,1.43999 2.31998,3.59998 2.31998,6.31996 0,1.99998 -0.4,4.31996 -1.19999,6.95995 -0.8,2.55998 -1.83999,5.27996 -3.19998,8.15993 -1.35999,2.79998 -2.87998,5.67996 -4.55996,8.71994 -1.67999,2.87998 -3.43998,5.75996 -5.19997,8.55994 -1.75998,2.71998 -3.51997,5.35996 -5.19996,7.83994 -1.67998,2.39998 -3.19997,4.55996 -4.47996,6.39995 z"
     style="fill:#ffffff;fill-opacity:1;fill-rule:nonzero;stroke:none"
     inkscape:connector-curvature="0" /><path
     id="path859"
     d="m 100.55926,180.21652 c -0.64,-4.55996 -1.51999,-9.27993 -2.47998,-14.15989 -0.95999,-4.95996 -1.99999,-9.91993 -3.11998,-14.87989 -0.63999,1.51999 -1.43999,3.03998 -2.23998,4.79996 -0.88,1.59999 -1.75999,3.35998 -2.71998,5.11997 -0.96,1.75998 -1.91999,3.59997 -2.95998,5.35996 -1.03999,1.75998 -2.07998,3.51997 -3.11998,5.27996 -1.03999,1.67999 -2.07998,3.27997 -3.03997,4.79996 -1.04,1.59999 -1.91999,2.95998 -2.79998,4.23997 l -3.99997,-0.48 c -0.32,-2.31998 -0.64,-4.71996 -1.12,-7.27994 -0.39999,-2.55998 -0.79999,-5.11996 -1.27999,-7.67994 -0.47999,-2.55999 -1.03999,-5.11997 -1.51999,-7.67995 -0.55999,-2.47998 -1.03999,-4.87996 -1.59998,-7.11995 -0.48,-2.23998 -0.96,-4.31996 -1.43999,-6.23995 -0.48,-1.83999 -0.96,-3.51997 -1.35999,-4.79996 -0.48,-1.51999 -0.96,-2.79998 -1.35999,-3.75998 -0.4,-0.95999 -0.88,-1.75998 -1.35999,-2.23998 -0.4,-0.55999 -0.88,-0.87999 -1.35999,-1.11999 -0.56,-0.16 -1.11999,-0.24 -1.75999,-0.24 -0.79999,0 -1.59999,0.08 -2.47998,0.24 -0.87999,0.16 -1.91999,0.4 -3.11998,0.63999 l -0.55999,-2.55998 c 3.19997,-1.19999 5.99995,-2.07998 8.39993,-2.63998 2.31999,-0.63999 3.99997,-0.95999 5.03997,-0.95999 0.55999,0 1.19999,0.08 1.67998,0.32 0.56,0.24 1.12,0.63999 1.59999,1.11999 0.48,0.56 0.96,1.27999 1.35999,2.15998 0.48,0.96 0.96,2.07999 1.35999,3.51998 0.32,0.95999 0.64,2.23998 1.11999,3.75997 0.4,1.51999 0.8,3.27998 1.2,5.11996 0.47999,1.91999 0.95999,3.91997 1.43998,6.15996 0.48,2.15998 0.96,4.47996 1.43999,6.79995 0.4,2.39998 0.88,4.79996 1.27999,7.27994 0.4,2.39998 0.8,4.79997 1.12,7.27995 0.55999,-0.88 1.19999,-1.83999 1.83998,-3.03998 0.72,-1.27999 1.43999,-2.55998 2.23999,-3.91997 0.71999,-1.43999 1.51998,-2.87998 2.23998,-4.31997 0.79999,-1.51999 1.51999,-2.95998 2.15998,-4.31997 0.64,-1.43999 1.19999,-2.71998 1.67999,-3.91997 0.48,-1.19999 0.79999,-2.23998 1.03999,-3.11997 0.16,-0.56 0.24,-1.12 0.32,-1.67999 0.08,-0.56 0.08,-1.11999 0.08,-1.67999 0,-0.71999 -0.08,-1.51999 -0.16,-2.39998 -0.08,-0.88 -0.24,-1.75999 -0.4,-2.55998 -0.15999,-0.88 -0.31999,-1.75999 -0.47999,-2.63998 -0.24,-0.88 -0.4,-1.67999 -0.56,-2.47998 -0.16,-0.64 -0.24,-1.12 -0.24,-1.51999 0,-0.8 0.24,-1.35999 0.72,-1.75999 0.47999,-0.48 1.27999,-0.64 2.47998,-0.64 0.71999,0 1.51999,0.08 2.31998,0.32 0.8,0.16 1.59999,0.4 2.31999,0.8 0.71999,2.95997 1.51998,6.15995 2.31997,9.43993 0.8,3.27997 1.59999,6.63995 2.39999,9.99992 0.79999,3.35998 1.51998,6.63995 2.23998,9.99993 0.71999,3.27997 1.27999,6.47995 1.83999,9.51993 1.67998,-2.63998 3.35997,-5.35996 4.95996,-8.15994 1.67999,-2.79998 3.11998,-5.59996 4.39997,-8.39994 1.27999,-2.79998 2.23998,-5.51996 3.03997,-8.31994 0.8,-2.71998 1.12,-5.43996 1.12,-7.99994 0,-1.11999 0,-2.15998 -0.16,-3.11998 -0.16,-1.03999 -0.4,-2.07998 -0.8,-2.95997 -0.31999,-0.96 -0.79999,-1.83999 -1.35999,-2.71998 -0.63999,-0.8 -1.35999,-1.59999 -2.31998,-2.31999 l 0.4,-0.87999 c 0.47999,-0.08 0.87999,-0.08 1.27999,-0.16 0.39999,0 0.79999,0 1.19999,0 3.19998,0 5.51996,0.79999 7.03995,2.31998 1.59998,1.43999 2.31998,3.59998 2.31998,6.31996 0,1.99998 -0.4,4.31996 -1.19999,6.95995 -0.8,2.55998 -1.83999,5.27996 -3.19998,8.15993 -1.35999,2.79998 -2.87998,5.67996 -4.55996,8.71994 -1.67999,2.87998 -3.43998,5.75996 -5.19997,8.55994 -1.75998,2.71998 -3.51997,5.35996 -5.19996,7.83994 -1.67998,2.39998 -3.19997,4.55996 -4.47996,6.39995 z"
     style="fill:#ffffff;stroke:none;fill-opacity:1"
     inkscape:connector-curvature="0" /><path
     id="path861"
     d="m 144.55893,159.41668 c -0.87999,2.39998 -1.59999,4.55997 -2.31998,6.39995 -0.56,1.83999 -1.12,3.35998 -1.59999,4.71997 -0.48,1.35999 -0.95999,2.55998 -1.27999,3.51997 -0.4,0.95999 -0.72,1.83999 -1.03999,2.63998 -0.4,0.95999 -0.8,1.59999 -1.28,2.15998 -0.47999,0.48 -1.03999,0.88 -1.59998,1.04 -0.56,0.24 -1.11999,0.39999 -1.75999,0.39999 -0.64,0.08 -1.35999,0.08 -2.07998,0.08 -0.4,0 -0.88,0 -1.51999,0 -0.64,0 -1.19999,0 -1.67999,-0.08 l -0.56,-0.31999 c 2.95998,-6.31996 5.67996,-12.31991 8.23994,-17.99987 2.63998,-5.67996 5.11996,-11.19992 7.51995,-16.39988 -0.48,-0.79999 -0.72,-1.43999 -0.72,-1.99998 0,-0.96 0.72,-1.43999 2.31998,-1.51999 4.39997,-9.67993 8.31994,-18.15987 11.75992,-25.59981 3.43997,-7.35995 6.47995,-13.5199 9.11993,-18.559866 0.24,-0.39999 0.56,-0.79999 0.95999,-1.11999 0.32,-0.24 0.8,-0.55999 1.19999,-0.71999 0.48,-0.16 0.96,-0.24 1.51999,-0.32 0.48,-0.08 0.96,-0.08 1.43999,-0.08 0.72,0 1.35999,0 2.07999,0.16 0.63999,0.08 1.35999,0.32 2.15998,0.63999 1.51999,8.399936 2.87998,15.919886 4.15997,22.639836 1.27999,6.63995 2.47998,12.6399 3.51997,17.83987 1.12,5.27996 2.15999,9.83992 3.11998,13.75989 0.95999,3.83998 1.83999,7.19995 2.71998,9.99993 0.95999,2.71998 1.83999,5.03996 2.71998,6.87995 0.87999,1.75999 1.83999,3.19997 2.71998,4.23997 0.95999,1.03999 1.99999,1.75998 3.03998,2.15998 1.11999,0.4 2.23998,0.64 3.51997,0.64 0.8,0 1.59999,-0.08 2.47998,-0.32 0.8,-0.16 1.75999,-0.48 2.79998,-0.8 l 0.96,2.95998 c -2.71998,1.35999 -5.35997,2.39998 -7.91995,3.11998 -2.55998,0.71999 -4.79996,1.11999 -6.71995,1.11999 -1.11999,0 -2.15998,-0.24 -3.19997,-0.63999 -0.96,-0.4 -1.83999,-1.12 -2.79998,-2.07999 -0.88,-1.03999 -1.75999,-2.39998 -2.63998,-4.07997 -0.8,-1.67999 -1.67999,-3.75997 -2.55998,-6.31995 -0.88,-2.55998 -1.75999,-5.59996 -2.63998,-9.11993 -0.96,-3.59998 -1.91999,-7.67995 -2.95998,-12.31991 -4.39997,0 -8.79994,0.16 -13.1999,0.31999 -4.31997,0.08 -8.79994,0.32 -13.5199,0.56 -0.88,2.47998 -1.75999,4.79997 -2.55999,6.87995 -0.71999,2.07998 -1.35998,3.91997 -1.91998,5.43996 z m 30.31977,-17.75987 c -0.55999,-2.39998 -1.03999,-5.03996 -1.67998,-7.91994 -0.56,-2.87998 -1.11999,-5.99996 -1.75999,-9.19993 -0.56,-3.27998 -1.19999,-6.63995 -1.83999,-10.15993 -0.63999,-3.51997 -1.19999,-7.11994 -1.83998,-10.71992 h -0.24 c -3.43998,7.19995 -6.55995,13.9999 -9.27993,20.47985 -2.71998,6.47995 -5.11996,12.47991 -7.27995,17.91987 4.15997,-0.08 8.15994,-0.16 12.07991,-0.24 3.83997,-0.08 7.83994,-0.08 11.83991,-0.16 z"
     style="fill:#ffffff;fill-opacity:1;fill-rule:nonzero;stroke:none"
     inkscape:connector-curvature="0" /><path
     id="path863"
     d="m 144.55893,159.41668 c -0.87999,2.39998 -1.59999,4.55997 -2.31998,6.39995 -0.56,1.83999 -1.12,3.35998 -1.59999,4.71997 -0.48,1.35999 -0.95999,2.55998 -1.27999,3.51997 -0.4,0.95999 -0.72,1.83999 -1.03999,2.63998 -0.4,0.95999 -0.8,1.59999 -1.28,2.15998 -0.47999,0.48 -1.03999,0.88 -1.59998,1.04 -0.56,0.24 -1.11999,0.39999 -1.75999,0.39999 -0.64,0.08 -1.35999,0.08 -2.07998,0.08 -0.4,0 -0.88,0 -1.51999,0 -0.64,0 -1.19999,0 -1.67999,-0.08 l -0.56,-0.31999 c 2.95998,-6.31996 5.67996,-12.31991 8.23994,-17.99987 2.63998,-5.67996 5.11996,-11.19992 7.51995,-16.39988 -0.48,-0.79999 -0.72,-1.43999 -0.72,-1.99998 0,-0.96 0.72,-1.43999 2.31998,-1.51999 4.39997,-9.67993 8.31994,-18.15987 11.75992,-25.59981 3.43997,-7.35995 6.47995,-13.5199 9.11993,-18.559866 0.24,-0.39999 0.56,-0.79999 0.95999,-1.11999 0.32,-0.24 0.8,-0.55999 1.19999,-0.71999 0.48,-0.16 0.96,-0.24 1.51999,-0.32 0.48,-0.08 0.96,-0.08 1.43999,-0.08 0.72,0 1.35999,0 2.07999,0.16 0.63999,0.08 1.35999,0.32 2.15998,0.63999 1.51999,8.399936 2.87998,15.919886 4.15997,22.639836 1.27999,6.63995 2.47998,12.6399 3.51997,17.83987 1.12,5.27996 2.15999,9.83992 3.11998,13.75989 0.95999,3.83998 1.83999,7.19995 2.71998,9.99993 0.95999,2.71998 1.83999,5.03996 2.71998,6.87995 0.87999,1.75999 1.83999,3.19997 2.71998,4.23997 0.95999,1.03999 1.99999,1.75998 3.03998,2.15998 1.11999,0.4 2.23998,0.64 3.51997,0.64 0.8,0 1.59999,-0.08 2.47998,-0.32 0.8,-0.16 1.75999,-0.48 2.79998,-0.8 l 0.96,2.95998 c -2.71998,1.35999 -5.35997,2.39998 -7.91995,3.11998 -2.55998,0.71999 -4.79996,1.11999 -6.71995,1.11999 -1.11999,0 -2.15998,-0.24 -3.19997,-0.63999 -0.96,-0.4 -1.83999,-1.12 -2.79998,-2.07999 -0.88,-1.03999 -1.75999,-2.39998 -2.63998,-4.07997 -0.8,-1.67999 -1.67999,-3.75997 -2.55998,-6.31995 -0.88,-2.55998 -1.75999,-5.59996 -2.63998,-9.11993 -0.96,-3.59998 -1.91999,-7.67995 -2.95998,-12.31991 -4.39997,0 -8.79994,0.16 -13.1999,0.31999 -4.31997,0.08 -8.79994,0.32 -13.5199,0.56 -0.88,2.47998 -1.75999,4.79997 -2.55999,6.87995 -0.71999,2.07998 -1.35998,3.91997 -1.91998,5.43996 z m 30.31977,-17.75987 c -0.55999,-2.39998 -1.03999,-5.03996 -1.67998,-7.91994 -0.56,-2.87998 -1.11999,-5.99996 -1.75999,-9.19993 -0.56,-3.27998 -1.19999,-6.63995 -1.83999,-10.15993 -0.63999,-3.51997 -1.19999,-7.11994 -1.83998,-10.71992 h -0.24 c -3.43998,7.19995 -6.55995,13.9999 -9.27993,20.47985 -2.71998,6.47995 -5.11996,12.47991 -7.27995,17.91987 4.15997,-0.08 8.15994,-0.16 12.07991,-0.24 3.83997,-0.08 7.83994,-0.08 11.83991,-0.16 z"
     style="fill:#ffffff;stroke:none;fill-opacity:1"
     inkscape:connector-curvature="0" /><path
     id="path865"
     d="m 215.9984,107.17707 c 0,-0.96 -0.08,-1.83999 -0.24,-2.55999 -0.16,-0.71999 -0.47999,-1.35999 -0.87999,-1.83998 -0.4,-0.4 -1.03999,-0.72 -1.75999,-0.95999 -0.71999,-0.24 -1.67999,-0.32 -2.87998,-0.32 -1.59999,0 -3.59997,0.16 -6.07995,0.55999 l -0.48,-3.279966 c 2.23998,-0.4 4.71997,-0.8 7.35995,-1.27999 2.71998,-0.4 5.43996,-0.8 8.23994,-1.12 2.79997,-0.39999 5.59995,-0.71999 8.47993,-0.87999 2.79998,-0.24 5.51996,-0.4 8.15994,-0.4 3.43998,0 6.71995,0.32 9.67993,0.96 3.03998,0.55999 5.59996,1.59998 7.83994,3.03997 2.15999,1.439996 3.91997,3.359976 5.11996,5.679956 1.28,2.31999 1.91999,5.19997 1.91999,8.71994 0,3.19998 -0.56,6.15995 -1.59999,8.79993 -1.03999,2.63998 -2.55998,5.03997 -4.47996,7.11995 -1.91999,2.07999 -4.15997,3.91997 -6.95995,5.43996 -2.71998,1.43999 -5.75996,2.63998 -9.03994,3.51997 2.47999,4.31997 4.71997,8.07994 6.79995,11.27992 2.07999,3.27998 3.91997,6.15996 5.67996,8.63994 1.67999,2.39998 3.19998,4.47996 4.63997,6.23995 1.43999,1.75999 2.79998,3.27998 3.99997,4.55997 1.03999,1.03999 1.91998,1.91998 2.79998,2.63998 0.87999,0.63999 1.75998,1.19999 2.47998,1.67999 0.87999,0.39999 1.67999,0.71999 2.47998,0.95999 0.79999,0.16 1.67999,0.24 2.55998,0.24 0.95999,0 1.91999,-0.08 2.79998,-0.24 0.79999,-0.24 1.75999,-0.48 2.79998,-0.88 l 1.03999,2.95998 c -3.03998,1.35999 -5.75996,2.39998 -8.15994,3.11998 -2.31998,0.71999 -4.31997,1.03999 -5.91995,1.03999 -0.8,0 -1.51999,-0.08 -2.23999,-0.32 -0.71999,-0.15999 -1.43999,-0.39999 -2.15998,-0.79999 -0.72,-0.32 -1.35999,-0.79999 -2.07999,-1.35999 -0.71999,-0.56 -1.43999,-1.27999 -2.23998,-1.99998 -1.35999,-1.28 -2.79998,-2.87998 -4.55997,-5.03997 -1.67998,-2.07998 -3.59997,-4.71996 -5.83995,-7.91994 -2.07999,-3.11998 -4.47997,-6.87995 -7.11995,-11.27992 -2.63998,-4.31996 -5.51996,-9.35993 -8.71993,-15.03988 l 0.08,-0.48 c 4.31997,-0.16 7.91995,-0.72 10.87992,-1.75999 2.87998,-0.95999 5.27996,-2.39998 7.11995,-4.07997 1.83999,-1.75998 3.11998,-3.83997 3.91997,-6.23995 0.88,-2.39998 1.27999,-5.03996 1.27999,-7.99994 0,-5.67996 -1.51999,-9.99993 -4.47996,-12.79991 -3.03998,-2.79998 -7.43995,-4.239966 -13.27991,-4.239966 -1.27999,0 -2.47998,0.08 -3.59997,0.16 -1.11999,0.08 -2.39998,0.24 -3.75997,0.4 -0.08,1.839986 -0.16,4.319966 -0.24,7.439946 -0.08,3.11997 -0.16,6.71995 -0.24,10.71992 -0.16,4.07997 -0.24,8.47993 -0.39999,13.2799 -0.16,4.79996 -0.32,9.83992 -0.4,15.11989 -0.16,5.19996 -0.32,10.63992 -0.48,16.15988 -0.16,5.51995 -0.32,11.03991 -0.55999,16.47987 l -8.55994,1.12 -0.64,-0.08 c 0.32,-6.87995 0.56,-13.4399 0.8,-19.67986 0.24,-6.15995 0.47999,-12.23991 0.55999,-18.07986 0.16,-5.83996 0.32,-11.67992 0.4,-17.43988 0.16,-5.75995 0.16,-11.59991 0.16,-17.67986 z"
     style="fill:#ffffff;fill-opacity:1;fill-rule:nonzero;stroke:none"
     inkscape:connector-curvature="0" /><path
     id="path867"
     d="m 215.9984,107.17707 c 0,-0.96 -0.08,-1.83999 -0.24,-2.55999 -0.16,-0.71999 -0.47999,-1.35999 -0.87999,-1.83998 -0.4,-0.4 -1.03999,-0.72 -1.75999,-0.95999 -0.71999,-0.24 -1.67999,-0.32 -2.87998,-0.32 -1.59999,0 -3.59997,0.16 -6.07995,0.55999 l -0.48,-3.279966 c 2.23998,-0.4 4.71997,-0.8 7.35995,-1.27999 2.71998,-0.4 5.43996,-0.8 8.23994,-1.12 2.79997,-0.39999 5.59995,-0.71999 8.47993,-0.87999 2.79998,-0.24 5.51996,-0.4 8.15994,-0.4 3.43998,0 6.71995,0.32 9.67993,0.96 3.03998,0.55999 5.59996,1.59998 7.83994,3.03997 2.15999,1.439996 3.91997,3.359976 5.11996,5.679956 1.28,2.31999 1.91999,5.19997 1.91999,8.71994 0,3.19998 -0.56,6.15995 -1.59999,8.79993 -1.03999,2.63998 -2.55998,5.03997 -4.47996,7.11995 -1.91999,2.07999 -4.15997,3.91997 -6.95995,5.43996 -2.71998,1.43999 -5.75996,2.63998 -9.03994,3.51997 2.47999,4.31997 4.71997,8.07994 6.79995,11.27992 2.07999,3.27998 3.91997,6.15996 5.67996,8.63994 1.67999,2.39998 3.19998,4.47996 4.63997,6.23995 1.43999,1.75999 2.79998,3.27998 3.99997,4.55997 1.03999,1.03999 1.91998,1.91998 2.79998,2.63998 0.87999,0.63999 1.75998,1.19999 2.47998,1.67999 0.87999,0.39999 1.67999,0.71999 2.47998,0.95999 0.79999,0.16 1.67999,0.24 2.55998,0.24 0.95999,0 1.91999,-0.08 2.79998,-0.24 0.79999,-0.24 1.75999,-0.48 2.79998,-0.88 l 1.03999,2.95998 c -3.03998,1.35999 -5.75996,2.39998 -8.15994,3.11998 -2.31998,0.71999 -4.31997,1.03999 -5.91995,1.03999 -0.8,0 -1.51999,-0.08 -2.23999,-0.32 -0.71999,-0.15999 -1.43999,-0.39999 -2.15998,-0.79999 -0.72,-0.32 -1.35999,-0.79999 -2.07999,-1.35999 -0.71999,-0.56 -1.43999,-1.27999 -2.23998,-1.99998 -1.35999,-1.28 -2.79998,-2.87998 -4.55997,-5.03997 -1.67998,-2.07998 -3.59997,-4.71996 -5.83995,-7.91994 -2.07999,-3.11998 -4.47997,-6.87995 -7.11995,-11.27992 -2.63998,-4.31996 -5.51996,-9.35993 -8.71993,-15.03988 l 0.08,-0.48 c 4.31997,-0.16 7.91995,-0.72 10.87992,-1.75999 2.87998,-0.95999 5.27996,-2.39998 7.11995,-4.07997 1.83999,-1.75998 3.11998,-3.83997 3.91997,-6.23995 0.88,-2.39998 1.27999,-5.03996 1.27999,-7.99994 0,-5.67996 -1.51999,-9.99993 -4.47996,-12.79991 -3.03998,-2.79998 -7.43995,-4.239966 -13.27991,-4.239966 -1.27999,0 -2.47998,0.08 -3.59997,0.16 -1.11999,0.08 -2.39998,0.24 -3.75997,0.4 -0.08,1.839986 -0.16,4.319966 -0.24,7.439946 -0.08,3.11997 -0.16,6.71995 -0.24,10.71992 -0.16,4.07997 -0.24,8.47993 -0.39999,13.2799 -0.16,4.79996 -0.32,9.83992 -0.4,15.11989 -0.16,5.19996 -0.32,10.63992 -0.48,16.15988 -0.16,5.51995 -0.32,11.03991 -0.55999,16.47987 l -8.55994,1.12 -0.64,-0.08 c 0.32,-6.87995 0.56,-13.4399 0.8,-19.67986 0.24,-6.15995 0.47999,-12.23991 0.55999,-18.07986 0.16,-5.83996 0.32,-11.67992 0.4,-17.43988 0.16,-5.75995 0.16,-11.59991 0.16,-17.67986 z"
     style="fill:#ffffff;stroke:none;fill-opacity:1"
     inkscape:connector-curvature="0" /><path
     id="path869"
     d="m 344.39745,9.7377942 c -13.5199,-12.23991 -32.63976,-13.03991 -42.87968,-1.83999 -10.15993,11.1999198 -17.03988,67.8394998 -17.03988,67.8394998 0,0 55.67959,-12.31991 65.83952,-23.51983 10.23992,-11.19992 7.51994,-30.23977 -5.91996,-42.4796798 z"
     style="fill:#96669e;fill-opacity:1;fill-rule:evenodd;stroke:none"
     inkscape:connector-curvature="0" /><path
     id="path871"
     d="m 417.11691,234.53612 c 6.71995,-16.95987 0.71999,-35.19974 -13.3599,-40.7197 -14.0799,-5.59995 -69.51949,7.91995 -69.51949,7.91995 0,0 31.19977,47.75964 45.27967,53.3596 14.07989,5.59996 30.87977,-3.67997 37.59972,-20.55985 z"
     style="fill:#ff6b00;fill-opacity:1;fill-rule:evenodd;stroke:none"
     inkscape:connector-curvature="0" /><path
     id="path873"
     d="m 332.15754,278.2958 c 14.47989,-10.95992 18.87986,-29.67978 9.67993,-41.75969 -9.11993,-12.07991 -63.51953,-29.35978 -63.51953,-29.35978 0,0 1.83998,57.03957 10.95992,69.11948 9.11993,12.07991 28.31979,12.95991 42.87968,1.99999 z"
     style="fill:#a2ff00;fill-opacity:1;fill-rule:evenodd;stroke:none"
     inkscape:connector-curvature="0" /><path
     id="path875"
     d="m 427.91683,59.417424 c -5.75996,-17.27987 -22.15984,-27.2798 -36.47973,-22.47984 -14.39989,4.87997 -47.99964,50.95963 -47.99964,50.95963 0,0 54.71959,16.399876 69.03948,11.51991 14.39989,-4.79996 21.27989,-22.71983 15.43989,-39.9997 z"
     style="fill:#ffff00;fill-opacity:1;fill-rule:evenodd;stroke:none"
     inkscape:connector-curvature="0" /></svg>