<?xml version="1.0" encoding="UTF-8" standalone="no"?>
<!-- Generator: Adobe Illustrator 19.0.0, SVG Export Plug-In . SVG Version: 6.00 Build 0)  -->

<svg
   xmlns:dc="http://purl.org/dc/elements/1.1/"
   xmlns:cc="http://creativecommons.org/ns#"
   xmlns:rdf="http://www.w3.org/1999/02/22-rdf-syntax-ns#"
   xmlns:svg="http://www.w3.org/2000/svg"
   xmlns="http://www.w3.org/2000/svg"
   xmlns:sodipodi="http://sodipodi.sourceforge.net/DTD/sodipodi-0.dtd"
   xmlns:inkscape="http://www.inkscape.org/namespaces/inkscape"
   version="1.1"
   id="Layer_1"
   x="0px"
   y="0px"
   viewBox="0 0 512 512"
   style="enable-background:new 0 0 512 512;"
   xml:space="preserve"
   sodipodi:docname="landing.svg"
   inkscape:version="0.92.2 (5c3e80d, 2017-08-06)"><metadata
     id="metadata73"><rdf:RDF><cc:Work
         rdf:about=""><dc:format>image/svg+xml</dc:format><dc:type
           rdf:resource="http://purl.org/dc/dcmitype/StillImage" /><dc:title></dc:title></cc:Work></rdf:RDF></metadata><defs
     id="defs71" /><sodipodi:namedview
     pagecolor="#ffffff"
     bordercolor="#666666"
     borderopacity="1"
     objecttolerance="10"
     gridtolerance="10"
     guidetolerance="10"
     inkscape:pageopacity="0"
     inkscape:pageshadow="2"
     inkscape:window-width="1280"
     inkscape:window-height="737"
     id="namedview69"
     showgrid="false"
     inkscape:zoom="0.4609375"
     inkscape:cx="256"
     inkscape:cy="256"
     inkscape:window-x="-8"
     inkscape:window-y="-8"
     inkscape:window-maximized="1"
     inkscape:current-layer="Layer_1" /><circle
     style="fill:#ecf0f1;stroke-width:0.97881359"
     cx="254.57629"
     cy="258.57629"
     r="250.57628"
     id="circle2" /><circle
     style="fill:#0f7986;stroke-width:0.97881359"
     cx="254.57629"
     cy="258.57629"
     r="250.57628"
     id="circle4" /><ellipse
     style="fill:#076673;stroke-width:0.97881359"
     cx="254.57629"
     cy="420.71283"
     rx="178.42204"
     ry="14.064572"
     id="ellipse6" /><path
     style="fill:#666666;stroke-width:0.97881359"
     d="m 68.58114,73.797805 h 371.98537 c 12.22049,0 22.22102,10.000538 22.22102,22.221026 V 325.16496 H 46.365008 V 96.016873 c 0,-12.220487 10.000539,-22.221026 22.221026,-22.221026 l -0.0049,0.002 z"
     id="path8"
     inkscape:connector-curvature="0" /><path
     style="fill:#21d0c3;stroke-width:0.97881359"
     d="M 61.451462,310.0785 H 447.7001 V 96.021767 c 0,-3.892742 -3.23791,-7.134572 -7.12968,-7.134572 H 68.586034 c -3.892742,0 -7.129678,3.236936 -7.129678,7.134572 V 310.0785 Z"
     id="path10"
     inkscape:connector-curvature="0" /><g
     id="g16"
     transform="matrix(0.97881356,0,0,0.97881356,4,8)"><path
       style="fill:#ffffff"
       d="m 468.718,324.03 v 24.826 c 0,12.49 -11.261,22.702 -25.024,22.702 H 68.307 c -13.764,0 -25.024,-10.212 -25.024,-22.702 V 324.03 Z"
       id="path12"
       inkscape:connector-curvature="0" /><path
       style="fill:#ffffff"
       d="m 141.237,115.529 h 229.525 34.165 c 4.143,0 7.528,3.39 7.528,7.528 V 167.85 308.617 H 99.544 V 167.851 123.058 c 0,-4.143 3.385,-7.528 7.528,-7.528 z"
       id="path14"
       inkscape:connector-curvature="0" /></g><path
     style="fill:#828282;stroke-width:0.97881359"
     d="m 108.80353,121.08135 h 291.54451 c 4.05522,0 7.36851,3.31329 7.36851,7.36851 v 14.73408 H 101.43502 v -14.73408 c 0,-4.05425 3.31328,-7.36851 7.36851,-7.36851 z"
     id="path18"
     inkscape:connector-curvature="0" /><path
     style="fill:#ffffff;stroke-width:0.97881359"
     d="m 225.58871,128.71316 h 160.15347 c 1.08942,0 1.98014,0.89464 1.98014,1.98014 v 3.67153 c 0,1.0855 -0.89072,1.98014 -1.98014,1.98014 H 225.58871 c -1.08551,0 -1.97525,-0.89072 -1.97525,-1.98014 v -3.67153 c -9.8e-4,-1.0904 0.88974,-1.98014 1.97525,-1.98014 z"
     id="path20"
     inkscape:connector-curvature="0" /><path
     style="fill:#21d0c3;stroke-width:0.97881359"
     d="m 118.84909,127.39764 c 2.34132,0 4.2412,1.89889 4.2412,4.24119 0,2.34231 -1.8989,4.2412 -4.2412,4.2412 -2.34622,0 -4.24512,-1.89889 -4.24512,-4.2412 0,-2.34719 1.89988,-4.24119 4.24512,-4.24119 z"
     id="path22"
     inkscape:connector-curvature="0" /><path
     style="fill:#fad24d;stroke-width:0.97881359"
     d="m 135.58974,127.39764 c 2.34621,0 4.2412,1.89889 4.2412,4.24119 0,2.34231 -1.8989,4.2412 -4.2412,4.2412 -2.3423,0 -4.2412,-1.89889 -4.2412,-4.2412 9.8e-4,-2.34719 1.89988,-4.24119 4.2412,-4.24119 z"
     id="path24"
     inkscape:connector-curvature="0" /><path
     style="fill:#ff5b62;stroke-width:0.97881359"
     d="m 152.34017,127.39764 c 2.34133,0 4.2412,1.89889 4.2412,4.24119 0,2.34231 -1.8989,4.2412 -4.2412,4.2412 -2.34621,0 -4.24609,-1.89889 -4.24609,-4.2412 9.8e-4,-2.34719 1.89988,-4.24119 4.24609,-4.24119 z"
     id="path26"
     inkscape:connector-curvature="0" /><path
     style="fill:#fad24d;stroke-width:0.97881359"
     d="m 257.22592,204.01818 c 10.81785,1.83038 15.73345,12.14806 15.6111,21.99394 l 105.05704,-0.91323 c 2.86596,-0.0274 5.24937,1.43788 5.24937,3.1968 v 0 c 0,1.75502 -2.37754,2.92959 -5.24937,3.19681 l -108.83722,10.20413 c -3.48066,4.97727 -8.68012,8.13786 -14.48057,8.13786 -5.80436,0 -10.99893,-3.1557 -14.48057,-8.13296 L 131.25457,231.49739 c -2.84345,-0.26623 -5.24448,-1.44179 -5.24448,-3.1968 v 0 c 0,-1.75795 2.36383,-3.21932 5.24448,-3.19681 l 105.05704,0.91324 c -0.37489,-9.67949 4.79619,-20.16356 15.6111,-21.99394 l 0.10375,-3.9779 h -32.09432 c -1.13542,0 -2.05746,-1.01307 -2.05746,-2.25127 v 0 c 0,-1.23918 0.92204,-2.25225 2.05746,-2.25225 h 32.21667 l 0.48354,-18.56712 c 0.0499,-1.78535 0.47472,-3.24672 1.94392,-3.24672 v 0 c 1.46431,0 1.89401,1.4643 1.94392,3.24672 l 0.48843,18.56712 h 32.21667 c 1.13053,0 2.05257,1.01307 2.05257,2.25225 v 0 c 0,1.23917 -0.92204,2.25127 -2.05257,2.25127 h -32.09432 l 0.0998,3.9779 z m -57.82733,35.91365 c 4.41249,0 7.99299,3.91917 7.99299,8.74864 0,4.8324 -3.5805,8.74863 -7.99299,8.74863 -4.41249,0 -7.99299,-3.91525 -7.99299,-8.74863 0,-4.82947 3.5805,-8.74864 7.99299,-8.74864 z m 110.35536,0 c 4.41249,0 7.99299,3.91917 7.99299,8.74864 0,4.8324 -3.5805,8.74863 -7.99299,8.74863 -4.41249,0 -7.99789,-3.91525 -7.99789,-8.74863 9.8e-4,-4.82947 3.5854,-8.74864 7.99789,-8.74864 z m 0,4.90484 c 1.93903,0 3.51296,1.72271 3.51296,3.84282 0,2.125 -1.56904,3.84673 -3.51296,3.84673 -1.93903,0 -3.51296,-1.72271 -3.51296,-3.84673 0,-2.12011 1.57393,-3.84282 3.51296,-3.84282 z m -110.35536,0 c 1.93903,0 3.51297,1.72271 3.51297,3.84282 0,2.125 -1.56904,3.84673 -3.51297,3.84673 -1.93903,0 -3.51296,-1.72271 -3.51296,-3.84673 0,-2.12011 1.57295,-3.84282 3.51296,-3.84282 z"
     id="path28"
     inkscape:connector-curvature="0" /><circle
     style="fill:#b6b6b8;stroke-width:0.97881359"
     cx="254.57629"
     cy="347.45547"
     r="7.6494279"
     id="circle30" /><path
     style="fill:#c2c2c4;stroke-width:0.97881359"
     d="m 302.60176,406.6414 35.33125,11.31998 H 171.21953 l 28.50403,-11.31998 v -34.95539 h 102.8782 z"
     id="path32"
     inkscape:connector-curvature="0" /><path
     style="fill:#b0b0b0;stroke-width:0.97881359"
     d="m 302.60176,406.6414 -102.8782,-34.95637 h 102.8782 z"
     id="path34"
     inkscape:connector-curvature="0" /><path
     style="fill:#ecf0f1;stroke-width:0.97881359"
     d="m 199.72356,406.6414 h 102.8782 l 35.33125,11.31998 v 4.87743 h -83.35674 -83.36163 v -4.87743 l 28.50403,-11.31998 z"
     id="path36"
     inkscape:connector-curvature="0" /><g
     id="g38" /><g
     id="g40" /><g
     id="g42" /><g
     id="g44" /><g
     id="g46" /><g
     id="g48" /><g
     id="g50" /><g
     id="g52" /><g
     id="g54" /><g
     id="g56" /><g
     id="g58" /><g
     id="g60" /><g
     id="g62" /><g
     id="g64" /><g
     id="g66" /></svg>