<?xml version="1.0" encoding="UTF-8" standalone="no"?>
<!-- Generator: Adobe Illustrator 19.0.0, SVG Export Plug-In . SVG Version: 6.00 Build 0)  -->

<svg
   xmlns:dc="http://purl.org/dc/elements/1.1/"
   xmlns:cc="http://creativecommons.org/ns#"
   xmlns:rdf="http://www.w3.org/1999/02/22-rdf-syntax-ns#"
   xmlns:svg="http://www.w3.org/2000/svg"
   xmlns="http://www.w3.org/2000/svg"
   xmlns:sodipodi="http://sodipodi.sourceforge.net/DTD/sodipodi-0.dtd"
   xmlns:inkscape="http://www.inkscape.org/namespaces/inkscape"
   version="1.1"
   id="Layer_1"
   x="0px"
   y="0px"
   viewBox="0 0 512.883 512.883"
   style="enable-background:new 0 0 512.883 512.883;"
   xml:space="preserve"
   sodipodi:docname="pagina_basica.svg"
   inkscape:version="0.92.2 (5c3e80d, 2017-08-06)"><metadata
     id="metadata101"><rdf:RDF><cc:Work
         rdf:about=""><dc:format>image/svg+xml</dc:format><dc:type
           rdf:resource="http://purl.org/dc/dcmitype/StillImage" /><dc:title></dc:title></cc:Work></rdf:RDF></metadata><defs
     id="defs99" /><sodipodi:namedview
     pagecolor="#ffffff"
     bordercolor="#666666"
     borderopacity="1"
     objecttolerance="10"
     gridtolerance="10"
     guidetolerance="10"
     inkscape:pageopacity="0"
     inkscape:pageshadow="2"
     inkscape:window-width="1280"
     inkscape:window-height="737"
     id="namedview97"
     showgrid="false"
     inkscape:zoom="0.46014394"
     inkscape:cx="256.4415"
     inkscape:cy="256.4415"
     inkscape:window-x="-8"
     inkscape:window-y="-8"
     inkscape:window-maximized="1"
     inkscape:current-layer="Layer_1" /><path
     style="fill:#E8EDEE;"
     d="M0,106.372v386.648c0,10.593,8.828,19.421,19.421,19.421h104.166h264.828h104.166  c10.593,0,19.421-8.828,19.421-19.421V106.372H0z"
     id="path2" /><path
     style="fill:#546A79;"
     d="M512,106.372H0V17.214C0,7.503,7.062,0.441,16.772,0.441H496.11c8.828,0,16.772,7.062,16.772,16.772  v89.159H512z"
     id="path4" /><path
     style="fill:#ED7161;"
     d="M79.448,53.407c0,15.007-11.476,26.483-26.483,26.483S26.483,68.414,26.483,53.407  s11.476-26.483,26.483-26.483S79.448,38.4,79.448,53.407"
     id="path6" /><path
     style="fill:#ECBA16;"
     d="M158.897,53.407c0,15.007-11.476,26.483-26.483,26.483c-15.007,0-26.483-11.476-26.483-26.483  s11.476-26.483,26.483-26.483C147.421,26.924,158.897,38.4,158.897,53.407"
     id="path8" /><path
     style="fill:#42B05C;"
     d="M238.345,53.407c0,15.007-11.476,26.483-26.483,26.483c-15.007,0-26.483-11.476-26.483-26.483  s11.476-26.483,26.483-26.483C226.869,26.924,238.345,38.4,238.345,53.407"
     id="path10" /><path
     style="fill:#7383BF;"
     d="M158.897,176.993H44.138c-5.297,0-8.828-3.531-8.828-8.828s3.531-8.828,8.828-8.828h114.759  c5.297,0,8.828,3.531,8.828,8.828S164.193,176.993,158.897,176.993"
     id="path12" /><path
     style="fill:#ECBA16;"
     d="M282.483,176.993h-88.276c-5.297,0-8.828-3.531-8.828-8.828s3.531-8.828,8.828-8.828h88.276  c5.297,0,8.828,3.531,8.828,8.828S287.779,176.993,282.483,176.993"
     id="path14" /><path
     style="fill:#42B05C;"
     d="M335.448,176.993h-17.655c-5.297,0-8.828-3.531-8.828-8.828s3.531-8.828,8.828-8.828h17.655  c5.297,0,8.828,3.531,8.828,8.828S340.745,176.993,335.448,176.993"
     id="path16" /><path
     style="fill:#7383BF;"
     d="M379.586,212.303H247.172c-5.297,0-8.828-3.531-8.828-8.828s3.531-8.828,8.828-8.828h132.414  c5.297,0,8.828,3.531,8.828,8.828S384.883,212.303,379.586,212.303"
     id="path18" /><g
     id="g24"><path
       style="fill:#DD342E;"
       d="M211.862,212.303H88.276c-5.297,0-8.828-3.531-8.828-8.828s3.531-8.828,8.828-8.828h123.586   c5.297,0,8.828,3.531,8.828,8.828S217.159,212.303,211.862,212.303"
       id="path20" /><path
       style="fill:#DD342E;"
       d="M52.966,212.303h-8.828c-5.297,0-8.828-3.531-8.828-8.828s3.531-8.828,8.828-8.828h8.828   c5.297,0,8.828,3.531,8.828,8.828S58.262,212.303,52.966,212.303"
       id="path22" /></g><path
     style="fill:#7383BF;"
     d="M123.586,247.614H44.138c-5.297,0-8.828-3.531-8.828-8.828s3.531-8.828,8.828-8.828h79.448  c5.297,0,8.828,3.531,8.828,8.828S128.883,247.614,123.586,247.614"
     id="path26" /><path
     style="fill:#ECBA16;"
     d="M176.552,247.614h-17.655c-5.297,0-8.828-3.531-8.828-8.828s3.531-8.828,8.828-8.828h17.655  c5.297,0,8.828,3.531,8.828,8.828S181.848,247.614,176.552,247.614"
     id="path28" /><path
     style="fill:#42B05C;"
     d="M335.448,247.614H211.862c-5.297,0-8.828-3.531-8.828-8.828s3.531-8.828,8.828-8.828h123.586  c5.297,0,8.828,3.531,8.828,8.828S340.745,247.614,335.448,247.614"
     id="path30" /><path
     style="fill:#DD342E;"
     d="M158.897,282.924H44.138c-5.297,0-8.828-3.531-8.828-8.828c0-5.297,3.531-8.828,8.828-8.828h114.759  c5.297,0,8.828,3.531,8.828,8.828C167.724,279.393,164.193,282.924,158.897,282.924"
     id="path32" /><path
     style="fill:#7383BF;"
     d="M282.483,282.924h-88.276c-5.297,0-8.828-3.531-8.828-8.828c0-5.297,3.531-8.828,8.828-8.828h88.276  c5.297,0,8.828,3.531,8.828,8.828C291.31,279.393,287.779,282.924,282.483,282.924"
     id="path34" /><path
     style="fill:#ECBA16;"
     d="M282.483,318.234h-35.31c-5.297,0-8.828-3.531-8.828-8.828c0-5.297,3.531-8.828,8.828-8.828h35.31  c5.297,0,8.828,3.531,8.828,8.828C291.31,314.703,287.779,318.234,282.483,318.234"
     id="path36" /><path
     style="fill:#42B05C;"
     d="M211.862,318.234H88.276c-5.297,0-8.828-3.531-8.828-8.828c0-5.297,3.531-8.828,8.828-8.828h123.586  c5.297,0,8.828,3.531,8.828,8.828C220.69,314.703,217.159,318.234,211.862,318.234"
     id="path38" /><path
     style="fill:#ECBA16;"
     d="M52.966,318.234h-8.828c-5.297,0-8.828-3.531-8.828-8.828c0-5.297,3.531-8.828,8.828-8.828h8.828  c5.297,0,8.828,3.531,8.828,8.828C61.793,314.703,58.262,318.234,52.966,318.234"
     id="path40" /><path
     style="fill:#DD342E;"
     d="M123.586,353.545H44.138c-5.297,0-8.828-3.531-8.828-8.828s3.531-8.828,8.828-8.828h79.448  c5.297,0,8.828,3.531,8.828,8.828S128.883,353.545,123.586,353.545"
     id="path42" /><path
     style="fill:#ECBA16;"
     d="M176.552,353.545h-17.655c-5.297,0-8.828-3.531-8.828-8.828s3.531-8.828,8.828-8.828h17.655  c5.297,0,8.828,3.531,8.828,8.828S181.848,353.545,176.552,353.545"
     id="path44" /><path
     style="fill:#7383BF;"
     d="M273.655,353.545h-61.793c-5.297,0-8.828-3.531-8.828-8.828s3.531-8.828,8.828-8.828h61.793  c5.297,0,8.828,3.531,8.828,8.828S278.952,353.545,273.655,353.545"
     id="path46" /><path
     style="fill:#42B05C;"
     d="M158.897,388.855H44.138c-5.297,0-8.828-3.531-8.828-8.828s3.531-8.828,8.828-8.828h114.759  c5.297,0,8.828,3.531,8.828,8.828S164.193,388.855,158.897,388.855"
     id="path48" /><path
     style="fill:#ECBA16;"
     d="M238.345,388.855h-44.138c-5.297,0-8.828-3.531-8.828-8.828s3.531-8.828,8.828-8.828h44.138  c5.297,0,8.828,3.531,8.828,8.828S243.641,388.855,238.345,388.855"
     id="path50" /><path
     style="fill:#DD342E;"
     d="M211.862,424.166H88.276c-5.297,0-8.828-3.531-8.828-8.828s3.531-8.828,8.828-8.828h123.586  c5.297,0,8.828,3.531,8.828,8.828S217.159,424.166,211.862,424.166"
     id="path52" /><path
     style="fill:#7383BF;"
     d="M52.966,424.166h-8.828c-5.297,0-8.828-3.531-8.828-8.828s3.531-8.828,8.828-8.828h8.828  c5.297,0,8.828,3.531,8.828,8.828S58.262,424.166,52.966,424.166"
     id="path54" /><path
     style="fill:#42B05C;"
     d="M123.586,459.476H44.138c-5.297,0-8.828-3.531-8.828-8.828s3.531-8.828,8.828-8.828h79.448  c5.297,0,8.828,3.531,8.828,8.828S128.883,459.476,123.586,459.476"
     id="path56" /><path
     style="fill:#ECBA16;"
     d="M176.552,459.476h-17.655c-5.297,0-8.828-3.531-8.828-8.828s3.531-8.828,8.828-8.828h17.655  c5.297,0,8.828,3.531,8.828,8.828S181.848,459.476,176.552,459.476"
     id="path58" /><path
     style="fill:#7383BF;"
     d="M256,459.476h-44.138c-5.297,0-8.828-3.531-8.828-8.828s3.531-8.828,8.828-8.828H256  c5.297,0,8.828,3.531,8.828,8.828S261.297,459.476,256,459.476"
     id="path60" /><g
     id="g66" /><g
     id="g68" /><g
     id="g70" /><g
     id="g72" /><g
     id="g74" /><g
     id="g76" /><g
     id="g78" /><g
     id="g80" /><g
     id="g82" /><g
     id="g84" /><g
     id="g86" /><g
     id="g88" /><g
     id="g90" /><g
     id="g92" /><g
     id="g94" /><path
     inkscape:connector-curvature="0"
     style="fill:#7383bf"
     d="m 291.64433,424.68724 h -44.138 c -5.297,0 -8.828,-3.531 -8.828,-8.828 0,-5.297 3.531,-8.828 8.828,-8.828 h 44.138 c 5.297,0 8.828,3.531 8.828,8.828 0,5.297 -3.531,8.828 -8.828,8.828"
     id="path60-7" /><path
     inkscape:connector-curvature="0"
     style="fill:#ecba16"
     d="m 369.3923,423.49025 h -44.138 c -5.297,0 -8.828,-3.531 -8.828,-8.828 0,-5.297 3.531,-8.828 8.828,-8.828 h 44.138 c 5.297,0 8.828,3.531 8.828,8.828 0,5.297 -3.532,8.828 -8.828,8.828"
     id="path50-3" /><path
     inkscape:connector-curvature="0"
     style="fill:#42b05c;stroke-width:0.86822492"
     d="m 497.98256,423.7104 h -93.16093 c -3.99295,0 -6.65467,-3.531 -6.65467,-8.828 0,-5.297 2.66172,-8.828 6.65467,-8.828 h 93.16093 c 3.99295,0 6.65467,3.531 6.65467,8.828 0,5.297 -2.66172,8.828 -6.65467,8.828"
     id="path30-7" /><path
     inkscape:connector-curvature="0"
     style="fill:#7383bf"
     d="m 319.00652,317.25386 h 44.138 c 5.297,0 8.828,-3.531 8.828,-8.828 0,-5.297 -3.531,-8.828 -8.828,-8.828 h -44.138 c -5.297,0 -8.828,3.531 -8.828,8.828 0,5.297 3.531,8.828 8.828,8.828"
     id="path60-7-3" /><path
     inkscape:connector-curvature="0"
     style="fill:#ecba16"
     d="m 441.25855,282.05687 h 44.138 c 5.297,0 8.828,-3.531 8.828,-8.828 0,-5.297 -3.531,-8.828 -8.828,-8.828 h -44.138 c -5.297,0 -8.828,3.531 -8.828,8.828 0,5.297 3.532,8.828 8.828,8.828"
     id="path50-3-8" /><path
     inkscape:connector-curvature="0"
     style="fill:#42b05c;stroke-width:0.86822492"
     d="m 312.66829,282.27702 h 93.16093 c 3.99295,0 6.65467,-3.531 6.65467,-8.828 0,-5.297 -2.66172,-8.828 -6.65467,-8.828 h -93.16093 c -3.99295,0 -6.65467,3.531 -6.65467,8.828 0,5.297 2.66172,8.828 6.65467,8.828"
     id="path30-7-7" /><path
     inkscape:connector-curvature="0"
     style="fill:#dd342e"
     d="m 420.07303,353.31701 h -114.759 c -5.297,0 -8.828,-3.531 -8.828,-8.828 0,-5.297 3.531,-8.828 8.828,-8.828 h 114.759 c 5.297,0 8.828,3.531 8.828,8.828 -10e-4,5.297 -3.532,8.828 -8.828,8.828"
     id="path32-2" /><path
     inkscape:connector-curvature="0"
     style="fill:#42b05c"
     d="m 353.28369,389.14378 h -79.448 c -5.297,0 -8.828,-3.531 -8.828,-8.828 0,-5.297 3.531,-8.828 8.828,-8.828 h 79.448 c 5.297,0 8.828,3.531 8.828,8.828 0,5.297 -3.531,8.828 -8.828,8.828"
     id="path56-1" /><path
     inkscape:connector-curvature="0"
     style="fill:#dd342e"
     d="m 404.32506,459.38017 h -114.759 c -5.297,0 -8.828,-3.531 -8.828,-8.828 0,-5.297 3.531,-8.828 8.828,-8.828 h 114.759 c 5.297,0 8.828,3.531 8.828,8.828 -10e-4,5.297 -3.532,8.828 -8.828,8.828"
     id="path32-4" /><path
     inkscape:connector-curvature="0"
     style="fill:#ecba16"
     d="m 453.14671,248.05687 h -88.276 c -5.297,0 -8.828,-3.531 -8.828,-8.828 0,-5.297 3.531,-8.828 8.828,-8.828 h 88.276 c 5.297,0 8.828,3.531 8.828,8.828 0,5.297 -3.532,8.828 -8.828,8.828"
     id="path14-8" /><path
     inkscape:connector-curvature="0"
     style="fill:#dd342e;stroke-width:0.81960618"
     d="m 497.50671,213.03311 h -77.08984 c -3.55829,0 -5.93025,-3.531 -5.93025,-8.828 0,-5.297 2.37196,-8.828 5.93025,-8.828 h 77.08984 c 3.55829,0 5.93025,3.531 5.93025,8.828 -6.7e-4,5.297 -2.37264,8.828 -5.93025,8.828"
     id="path32-1" /><path
     inkscape:connector-curvature="0"
     style="fill:#7383bf"
     d="m 487.85287,176.85988 h -114.759 c -5.297,0 -8.828,-3.531 -8.828,-8.828 0,-5.297 3.531,-8.828 8.828,-8.828 h 114.759 c 5.297,0 8.828,3.531 8.828,8.828 0,5.297 -3.532,8.828 -8.828,8.828"
     id="path12-5" /><path
     inkscape:connector-curvature="0"
     style="fill:#ecba16"
     d="m 491.48734,458.68723 h -44.138 c -5.297,0 -8.828,-3.531 -8.828,-8.828 0,-5.297 3.531,-8.828 8.828,-8.828 h 44.138 c 5.297,0 8.828,3.531 8.828,8.828 0,5.297 -3.532,8.828 -8.828,8.828"
     id="path50-2" /><path
     inkscape:connector-curvature="0"
     style="fill:#7383bf;stroke-width:0.93255931"
     d="M 492.79155,389.49025 H 377.63549 c -4.60663,0 -7.67742,-3.531 -7.67742,-8.828 0,-5.297 3.07079,-8.828 7.67742,-8.828 h 115.15606 c 4.60663,0 7.67742,3.531 7.67742,8.828 0,5.297 -3.07079,8.828 -7.67742,8.828"
     id="path18-9" /><path
     inkscape:connector-curvature="0"
     style="fill:#ecba16"
     d="m 489.14087,353.67912 h -44.138 c -5.297,0 -8.828,-3.531 -8.828,-8.828 0,-5.297 3.531,-8.828 8.828,-8.828 h 44.138 c 5.297,0 8.828,3.531 8.828,8.828 0,5.297 -3.532,8.828 -8.828,8.828"
     id="path50-4" /><path
     inkscape:connector-curvature="0"
     style="fill:#42b05c;stroke-width:0.86822492"
     d="m 396.4914,317.42709 h 93.16093 c 3.99295,0 6.65467,-3.531 6.65467,-8.828 0,-5.297 -2.66172,-8.828 -6.65467,-8.828 H 396.4914 c -3.99295,0 -6.65467,3.531 -6.65467,8.828 0,5.297 2.66172,8.828 6.65467,8.828"
     id="path30-7-7-1" /></svg>