<?xml version="1.0" encoding="UTF-8" standalone="no"?>
<!-- Generator: Adobe Illustrator 19.0.0, SVG Export Plug-In . SVG Version: 6.00 Build 0)  -->

<svg
   xmlns:dc="http://purl.org/dc/elements/1.1/"
   xmlns:cc="http://creativecommons.org/ns#"
   xmlns:rdf="http://www.w3.org/1999/02/22-rdf-syntax-ns#"
   xmlns:svg="http://www.w3.org/2000/svg"
   xmlns="http://www.w3.org/2000/svg"
   xmlns:sodipodi="http://sodipodi.sourceforge.net/DTD/sodipodi-0.dtd"
   xmlns:inkscape="http://www.inkscape.org/namespaces/inkscape"
   version="1.1"
   id="Layer_1"
   x="0px"
   y="0px"
   viewBox="0 0 501.551 501.551"
   style="enable-background:new 0 0 501.551 501.551;"
   xml:space="preserve"
   sodipodi:docname="tienda_recomendada.svg"
   inkscape:version="0.92.2 (5c3e80d, 2017-08-06)"><metadata
     id="metadata119"><rdf:RDF><cc:Work
         rdf:about=""><dc:format>image/svg+xml</dc:format><dc:type
           rdf:resource="http://purl.org/dc/dcmitype/StillImage" /><dc:title></dc:title></cc:Work></rdf:RDF></metadata><defs
     id="defs117" /><sodipodi:namedview
     pagecolor="#ffffff"
     bordercolor="#666666"
     borderopacity="1"
     objecttolerance="10"
     gridtolerance="10"
     guidetolerance="10"
     inkscape:pageopacity="0"
     inkscape:pageshadow="2"
     inkscape:window-width="1280"
     inkscape:window-height="737"
     id="namedview115"
     showgrid="false"
     inkscape:zoom="0.47054039"
     inkscape:cx="250.7755"
     inkscape:cy="250.7755"
     inkscape:window-x="-8"
     inkscape:window-y="-8"
     inkscape:window-maximized="1"
     inkscape:current-layer="Layer_1" /><path
     style="fill:#e6e6e6"
     d="M20.898,147.331v333.322c0,11.494,9.404,20.898,20.898,20.898h417.959  c11.494,0,20.898-9.404,20.898-20.898V147.331H20.898z"
     id="path2" /><g
     id="g36"
     transform="matrix(0.54215198,0,0,0.54215198,-46.449986,120.77584)"><path
       style="fill:#ffffff"
       d="m 253.91,239.282 v 49.11 c -1.045,0 -2.09,0 -3.135,0 -1.045,0 -2.09,0 -3.135,0 v -49.11 z"
       id="path4"
       inkscape:connector-curvature="0" /><path
       style="fill:#ffffff"
       d="m 253.91,431.543 v 49.11 h -5.224 v -49.11 c 1.045,0 2.09,0 3.135,0 1.045,0 1.044,0 2.089,0 z"
       id="path6"
       inkscape:connector-curvature="0" /><path
       style="fill:#ffffff"
       d="m 338.547,276.898 -34.482,34.482 c -1.045,-1.045 -2.09,-3.135 -4.18,-4.18 l 35.527,-34.482 z"
       id="path8"
       inkscape:connector-curvature="0" /><path
       style="fill:#ffffff"
       d="m 202.71,412.735 -35.527,34.482 -4.18,-3.135 34.482,-34.482 c 2.091,1.045 3.135,2.09 5.225,3.135 z"
       id="path10"
       inkscape:connector-curvature="0" /><path
       style="fill:#ffffff"
       d="m 371.984,357.355 v 5.224 h -49.11 c 0,-1.045 0,-2.09 0,-2.09 0,-1.045 0,-2.09 0,-3.135 h 49.11 z"
       id="path12"
       inkscape:connector-curvature="0" /><path
       style="fill:#ffffff"
       d="m 179.722,360.49 c 0,1.045 0,2.09 0,2.09 h -49.11 v -5.224 h 49.11 c 0,1.044 0,2.089 0,3.134 z"
       id="path14"
       inkscape:connector-curvature="0" /><path
       style="fill:#ffffff"
       d="m 338.547,444.082 -4.18,4.18 -35.527,-35.527 c 1.045,-1.045 3.135,-2.09 4.18,-4.18 z"
       id="path16"
       inkscape:connector-curvature="0" /><path
       style="fill:#ffffff"
       d="m 202.71,308.245 c -1.045,1.045 -3.135,2.09 -4.18,4.18 l -35.527,-35.527 4.18,-4.18 z"
       id="path18"
       inkscape:connector-curvature="0" /><path
       style="fill:#ffffff"
       d="m 225.698,293.616 c -2.09,0 -3.135,1.045 -5.224,2.09 l -11.494,-28.212 5.224,-2.09 z"
       id="path20"
       inkscape:connector-curvature="0" /><path
       style="fill:#ffffff"
       d="m 292.571,453.486 -5.224,2.09 -11.494,-28.212 c 2.09,-1.045 3.135,-1.045 5.224,-2.09 z"
       id="path22"
       inkscape:connector-curvature="0" /><path
       style="fill:#ffffff"
       d="m 185.992,331.233 c -1.045,1.045 -1.045,3.135 -2.09,5.224 l -28.212,-11.494 2.09,-5.224 z"
       id="path24"
       inkscape:connector-curvature="0" /><path
       style="fill:#ffffff"
       d="m 345.861,397.061 -2.09,5.224 -28.212,-11.494 c 1.045,-1.045 1.045,-3.135 2.09,-5.224 z"
       id="path26"
       inkscape:connector-curvature="0" /><path
       style="fill:#ffffff"
       d="m 185.992,389.747 -28.212,11.494 -2.09,-5.224 28.212,-11.494 c 0,2.089 1.045,4.179 2.09,5.224 z"
       id="path28"
       inkscape:connector-curvature="0" /><path
       style="fill:#ffffff"
       d="m 345.861,323.918 -28.212,11.494 c 0,-2.09 -1.045,-3.135 -2.09,-5.224 l 28.212,-11.494 z"
       id="path30"
       inkscape:connector-curvature="0" /><path
       style="fill:#ffffff"
       d="m 225.698,427.363 -11.494,28.212 -5.224,-2.09 11.494,-28.212 c 2.089,1.045 4.179,1.045 5.224,2.09 z"
       id="path32"
       inkscape:connector-curvature="0" /><path
       style="fill:#ffffff"
       d="m 292.571,267.494 -11.494,28.212 c -1.045,-1.045 -3.135,-1.045 -5.224,-2.09 l 11.494,-28.212 z"
       id="path34"
       inkscape:connector-curvature="0" /></g><path
     style="fill:#FFD15C;"
     d="M459.755,0H41.796C30.302,0,20.898,9.404,20.898,20.898v73.143h459.755V20.898  C480.653,9.404,471.249,0,459.755,0z"
     id="path38" /><polygon
     style="fill:#ff0000"
     points="391.837,410.645 413.78,432.588 433.633,412.735 411.69,390.792 433.633,368.849 343.771,343.771 368.849,432.588 "
     id="polygon40"
     transform="matrix(-1,0,0,1,625.13627,61.631268)" /><circle
     style="fill:#FF7058;"
     cx="193.306"
     cy="47.02"
     r="15.673"
     id="circle42" /><circle
     style="fill:#F2F2F2;"
     cx="132.702"
     cy="47.02"
     r="15.673"
     id="circle44" /><circle
     style="fill:#40596B;"
     cx="72.098"
     cy="47.02"
     r="15.673"
     id="circle46" /><path
     style="fill:#cccccc"
     d="M480.653,157.78v61.649c-8.359,6.269-18.808,9.404-29.257,9.404  c-28.212,0-50.155-21.943-50.155-50.155c0,27.167-22.988,50.155-50.155,50.155c-27.167,0-50.155-21.943-50.155-50.155  c0,27.167-22.988,50.155-50.155,50.155s-50.155-21.943-50.155-50.155c0,27.167-21.943,50.155-50.155,50.155  s-50.155-21.943-50.155-50.155c0,27.167-22.988,50.155-50.155,50.155c-11.494,0-20.898-3.135-29.257-9.404V157.78L480.653,157.78  L480.653,157.78z"
     id="path48" /><polygon
     style="fill:#FF7058;"
     points="100.31,147.331 0,147.331 20.898,94.041 112.849,94.041 "
     id="polygon50" /><polygon
     style="fill:#CDD6E0;"
     points="200.62,147.331 100.31,147.331 112.849,94.041 204.8,94.041 "
     id="polygon52" /><polygon
     style="fill:#FF7058;"
     points="300.931,147.331 200.62,147.331 204.8,94.041 296.751,94.041 "
     id="polygon54" /><polygon
     style="fill:#CDD6E0;"
     points="401.241,147.331 300.931,147.331 296.751,94.041 388.702,94.041 "
     id="polygon56" /><polygon
     style="fill:#FF7058;"
     points="501.551,147.331 401.241,147.331 388.702,94.041 480.653,94.041 "
     id="polygon58" /><g
     id="g64"><path
       style="fill:#ACB3BA;"
       d="M100.31,169.273c0,28.212,21.943,50.155,50.155,50.155s50.155-21.943,50.155-50.155v-21.943H100.31   V169.273z"
       id="path60" /><path
       style="fill:#ACB3BA;"
       d="M300.931,147.331v21.943c0,28.212,21.943,50.155,50.155,50.155s50.155-21.943,50.155-50.155v-21.943   H300.931z"
       id="path62" /></g><g
     id="g72"><path
       style="fill:#F1543F;"
       d="M0,169.273c0,28.212,21.943,50.155,50.155,50.155l0,0c28.212,0,50.155-21.943,50.155-50.155v-21.943   H0V169.273z"
       id="path66" /><path
       style="fill:#F1543F;"
       d="M200.62,169.273c0,28.212,21.943,50.155,50.155,50.155s50.155-21.943,50.155-50.155v-21.943H200.62   L200.62,169.273L200.62,169.273z"
       id="path68" /><path
       style="fill:#F1543F;"
       d="M401.241,147.331v21.943c0,28.212,21.943,50.155,50.155,50.155s50.155-21.943,50.155-50.155v-21.943   H401.241z"
       id="path70" /></g><circle
     style="fill:#ff7058;stroke-width:0.54215199"
     cx="91.677322"
     cy="316.21616"
     r="42.486824"
     id="circle74" /><g
     id="g82"
     transform="matrix(0.54215198,0,0,0.54215198,-44.281377,120.77584)"><path
       style="fill:#ffffff"
       d="m 238.237,383.478 -3.135,-9.404 h 60.604 v -45.975 h -72.098 l -4.18,-16.718 H 198.53 v 7.314 h 15.673 l 18.808,72.098 h 64.784 v -7.314 h -59.558 z m 50.155,-47.021 v 30.302 h -54.335 l -8.359,-30.302 z"
       id="path76"
       inkscape:connector-curvature="0" /><circle
       style="fill:#ffffff"
       cx="248.686"
       cy="406.465"
       r="9.4040003"
       id="circle78" /><circle
       style="fill:#ffffff"
       cx="283.16699"
       cy="406.465"
       r="9.4040003"
       id="circle80" /></g><g
     id="g84" /><g
     id="g86" /><g
     id="g88" /><g
     id="g90" /><g
     id="g92" /><g
     id="g94" /><g
     id="g96" /><g
     id="g98" /><g
     id="g100" /><g
     id="g102" /><g
     id="g104" /><g
     id="g106" /><g
     id="g108" /><g
     id="g110" /><g
     id="g112" /><g
     id="g37"
     transform="matrix(0.23587146,0,0,0.23587146,191.15553,259.29557)"><g
       id="XMLID_31_"><g
         id="g18"><rect
           x="62.5"
           y="147.5"
           style="fill:#a67c52"
           width="150"
           height="35"
           id="rect2" /><rect
           x="312.5"
           y="142.5"
           style="fill:#e7eced"
           width="50"
           height="90"
           id="rect4" /><rect
           x="97.5"
           y="252.5"
           style="fill:#e7eced"
           width="60"
           height="85"
           id="rect6" /><polygon
           style="fill:#a67c52"
           points="327.5,432.5 327.5,322.5 427.5,322.5 477.5,322.5 477.5,432.5 "
           id="polygon8" /><polygon
           style="fill:#c69c6d"
           points="97.5,252.5 62.5,252.5 62.5,182.5 212.5,182.5 212.5,252.5 157.5,252.5 "
           id="polygon10" /><polygon
           style="fill:#c69c6d"
           points="327.5,432.5 247.5,432.5 247.5,252.5 247.5,142.5 297.5,142.5 312.5,142.5 312.5,232.5 362.5,232.5 362.5,142.5 427.5,142.5 427.5,322.5 327.5,322.5 "
           id="polygon12" /><polygon
           style="fill:#a67c52"
           points="312.5,142.5 297.5,142.5 297.5,52.5 427.5,52.5 427.5,142.5 362.5,142.5 "
           id="polygon14" /><polygon
           style="fill:#a67c52"
           points="157.5,337.5 157.5,252.5 212.5,252.5 247.5,252.5 247.5,432.5 7.5,432.5 7.5,252.5 62.5,252.5 97.5,252.5 97.5,337.5 "
           id="polygon16" /></g><g
         id="g34"><path
           d="M 435,315 V 150 142.5 45 H 290 v 90 H 240 V 245 H 220 V 140 H 55 V 245 H 0 V 440 H 485 V 315 Z M 305,60 h 115 v 75 H 305 Z m 50,90 v 75 H 320 V 150 Z M 70,245 v -55 h 135 v 55 z m 80,15 v 70 h -45 v -70 z m 55,-105 v 20 H 70 V 155 Z M 15,425 V 260 h 75 v 85 h 75 v -85 h 75 v 165 z m 240,0 V 150 h 50 v 90 h 65 v -90 h 50 V 315 H 320 v 110 z m 215,0 H 335 v -95 h 135 z"
           id="path20-0"
           inkscape:connector-curvature="0" /><rect
           x="167.5"
           y="210"
           width="20"
           height="15"
           id="rect22" /><rect
           x="137.5"
           y="210"
           width="20"
           height="15"
           id="rect24" /><rect
           x="407.5"
           y="355"
           width="40"
           height="15"
           id="rect26" /><rect
           x="377.5"
           y="385"
           width="70"
           height="15"
           id="rect28" /><rect
           x="377.5"
           y="100"
           width="20"
           height="15"
           id="rect30" /><rect
           x="347.5"
           y="100"
           width="20"
           height="15"
           id="rect32" /></g></g></g><rect
     x="427.84827"
     y="294.10297"
     style="fill:#f16d6e;stroke-width:0.20337878"
     width="24.297054"
     height="67.033653"
     id="rect2-6" /><rect
     x="389.01636"
     y="315.14594"
     style="fill:#60c3ab;stroke-width:0.20337878"
     width="24.297054"
     height="45.99065"
     id="rect4-9" /><rect
     y="331.41626"
     style="fill:#637888;stroke-width:0.20337878"
     width="24.297054"
     height="29.72035"
     id="rect6-7"
     x="350.18463" /><g
     id="g12"
     transform="matrix(0.20337878,0,0,0.20337878,350.18461,259.17609)"
     style="fill:#00ff00"><polygon
       style="fill:#00ff00"
       points="51.2,256 21.333,188.8 362.667,33.067 392.533,100.267 "
       id="polygon8-8" /><polygon
       style="fill:#00ff00"
       points="397.867,142.933 480,19.2 333.867,0 "
       id="polygon10-0" /></g></svg>