<?xml version="1.0" encoding="UTF-8" standalone="no"?>
<!-- Generator: Adobe Illustrator 19.0.0, SVG Export Plug-In . SVG Version: 6.00 Build 0)  -->

<svg
   xmlns:dc="http://purl.org/dc/elements/1.1/"
   xmlns:cc="http://creativecommons.org/ns#"
   xmlns:rdf="http://www.w3.org/1999/02/22-rdf-syntax-ns#"
   xmlns:svg="http://www.w3.org/2000/svg"
   xmlns="http://www.w3.org/2000/svg"
   xmlns:sodipodi="http://sodipodi.sourceforge.net/DTD/sodipodi-0.dtd"
   xmlns:inkscape="http://www.inkscape.org/namespaces/inkscape"
   version="1.1"
   id="Layer_1"
   x="0px"
   y="0px"
   viewBox="0 0 501.551 501.551"
   style="enable-background:new 0 0 501.551 501.551;"
   xml:space="preserve"
   sodipodi:docname="tienda_basica_plus.svg"
   inkscape:version="0.92.2 (5c3e80d, 2017-08-06)"><metadata
     id="metadata119"><rdf:RDF><cc:Work
         rdf:about=""><dc:format>image/svg+xml</dc:format><dc:type
           rdf:resource="http://purl.org/dc/dcmitype/StillImage" /><dc:title /></cc:Work></rdf:RDF></metadata><defs
     id="defs117" /><sodipodi:namedview
     pagecolor="#ffffff"
     bordercolor="#666666"
     borderopacity="1"
     objecttolerance="10"
     gridtolerance="10"
     guidetolerance="10"
     inkscape:pageopacity="0"
     inkscape:pageshadow="2"
     inkscape:window-width="1280"
     inkscape:window-height="737"
     id="namedview115"
     showgrid="false"
     inkscape:zoom="0.47054039"
     inkscape:cx="-141.32687"
     inkscape:cy="250.7755"
     inkscape:window-x="-8"
     inkscape:window-y="-8"
     inkscape:window-maximized="1"
     inkscape:current-layer="Layer_1" /><path
     style="fill:#cccccc"
     d="M20.898,147.331v333.322c0,11.494,9.404,20.898,20.898,20.898h417.959  c11.494,0,20.898-9.404,20.898-20.898V147.331H20.898z"
     id="path2" /><g
     id="g36"
     transform="matrix(0.72705214,0,0,0.72705214,-50.972357,85.283851)"><path
       style="fill:#ffffff"
       d="m 253.91,239.282 v 49.11 c -1.045,0 -2.09,0 -3.135,0 -1.045,0 -2.09,0 -3.135,0 v -49.11 z"
       id="path4"
       inkscape:connector-curvature="0" /><path
       style="fill:#ffffff"
       d="m 253.91,431.543 v 49.11 h -5.224 v -49.11 c 1.045,0 2.09,0 3.135,0 1.045,0 1.044,0 2.089,0 z"
       id="path6"
       inkscape:connector-curvature="0" /><path
       style="fill:#ffffff"
       d="m 338.547,276.898 -34.482,34.482 c -1.045,-1.045 -2.09,-3.135 -4.18,-4.18 l 35.527,-34.482 z"
       id="path8"
       inkscape:connector-curvature="0" /><path
       style="fill:#ffffff"
       d="m 202.71,412.735 -35.527,34.482 -4.18,-3.135 34.482,-34.482 c 2.091,1.045 3.135,2.09 5.225,3.135 z"
       id="path10"
       inkscape:connector-curvature="0" /><path
       style="fill:#ffffff"
       d="m 371.984,357.355 v 5.224 h -49.11 c 0,-1.045 0,-2.09 0,-2.09 0,-1.045 0,-2.09 0,-3.135 h 49.11 z"
       id="path12"
       inkscape:connector-curvature="0" /><path
       style="fill:#ffffff"
       d="m 179.722,360.49 c 0,1.045 0,2.09 0,2.09 h -49.11 v -5.224 h 49.11 c 0,1.044 0,2.089 0,3.134 z"
       id="path14"
       inkscape:connector-curvature="0" /><path
       style="fill:#ffffff"
       d="m 338.547,444.082 -4.18,4.18 -35.527,-35.527 c 1.045,-1.045 3.135,-2.09 4.18,-4.18 z"
       id="path16"
       inkscape:connector-curvature="0" /><path
       style="fill:#ffffff"
       d="m 202.71,308.245 c -1.045,1.045 -3.135,2.09 -4.18,4.18 l -35.527,-35.527 4.18,-4.18 z"
       id="path18"
       inkscape:connector-curvature="0" /><path
       style="fill:#ffffff"
       d="m 225.698,293.616 c -2.09,0 -3.135,1.045 -5.224,2.09 l -11.494,-28.212 5.224,-2.09 z"
       id="path20"
       inkscape:connector-curvature="0" /><path
       style="fill:#ffffff"
       d="m 292.571,453.486 -5.224,2.09 -11.494,-28.212 c 2.09,-1.045 3.135,-1.045 5.224,-2.09 z"
       id="path22"
       inkscape:connector-curvature="0" /><path
       style="fill:#ffffff"
       d="m 185.992,331.233 c -1.045,1.045 -1.045,3.135 -2.09,5.224 l -28.212,-11.494 2.09,-5.224 z"
       id="path24"
       inkscape:connector-curvature="0" /><path
       style="fill:#ffffff"
       d="m 345.861,397.061 -2.09,5.224 -28.212,-11.494 c 1.045,-1.045 1.045,-3.135 2.09,-5.224 z"
       id="path26"
       inkscape:connector-curvature="0" /><path
       style="fill:#ffffff"
       d="m 185.992,389.747 -28.212,11.494 -2.09,-5.224 28.212,-11.494 c 0,2.089 1.045,4.179 2.09,5.224 z"
       id="path28"
       inkscape:connector-curvature="0" /><path
       style="fill:#ffffff"
       d="m 345.861,323.918 -28.212,11.494 c 0,-2.09 -1.045,-3.135 -2.09,-5.224 l 28.212,-11.494 z"
       id="path30"
       inkscape:connector-curvature="0" /><path
       style="fill:#ffffff"
       d="m 225.698,427.363 -11.494,28.212 -5.224,-2.09 11.494,-28.212 c 2.089,1.045 4.179,1.045 5.224,2.09 z"
       id="path32"
       inkscape:connector-curvature="0" /><path
       style="fill:#ffffff"
       d="m 292.571,267.494 -11.494,28.212 c -1.045,-1.045 -3.135,-1.045 -5.224,-2.09 l 11.494,-28.212 z"
       id="path34"
       inkscape:connector-curvature="0" /></g><path
     style="fill:#FFD15C;"
     d="M459.755,0H41.796C30.302,0,20.898,9.404,20.898,20.898v73.143h459.755V20.898  C480.653,9.404,471.249,0,459.755,0z"
     id="path38" /><polygon
     style="fill:#40596b"
     points="391.837,410.645 413.78,432.588 433.633,412.735 411.69,390.792 433.633,368.849 343.771,343.771 368.849,432.588 "
     id="polygon40"
     transform="translate(95.634725,65.133862)" /><circle
     style="fill:#FF7058;"
     cx="193.306"
     cy="47.02"
     r="15.673"
     id="circle42" /><circle
     style="fill:#F2F2F2;"
     cx="132.702"
     cy="47.02"
     r="15.673"
     id="circle44" /><circle
     style="fill:#40596B;"
     cx="72.098"
     cy="47.02"
     r="15.673"
     id="circle46" /><path
     style="fill:#cccccc"
     d="M480.653,157.78v61.649c-8.359,6.269-18.808,9.404-29.257,9.404  c-28.212,0-50.155-21.943-50.155-50.155c0,27.167-22.988,50.155-50.155,50.155c-27.167,0-50.155-21.943-50.155-50.155  c0,27.167-22.988,50.155-50.155,50.155s-50.155-21.943-50.155-50.155c0,27.167-21.943,50.155-50.155,50.155  s-50.155-21.943-50.155-50.155c0,27.167-22.988,50.155-50.155,50.155c-11.494,0-20.898-3.135-29.257-9.404V157.78L480.653,157.78  L480.653,157.78z"
     id="path48" /><polygon
     style="fill:#FF7058;"
     points="100.31,147.331 0,147.331 20.898,94.041 112.849,94.041 "
     id="polygon50" /><polygon
     style="fill:#CDD6E0;"
     points="200.62,147.331 100.31,147.331 112.849,94.041 204.8,94.041 "
     id="polygon52" /><polygon
     style="fill:#FF7058;"
     points="300.931,147.331 200.62,147.331 204.8,94.041 296.751,94.041 "
     id="polygon54" /><polygon
     style="fill:#CDD6E0;"
     points="401.241,147.331 300.931,147.331 296.751,94.041 388.702,94.041 "
     id="polygon56" /><polygon
     style="fill:#FF7058;"
     points="501.551,147.331 401.241,147.331 388.702,94.041 480.653,94.041 "
     id="polygon58" /><g
     id="g64"><path
       style="fill:#ACB3BA;"
       d="M100.31,169.273c0,28.212,21.943,50.155,50.155,50.155s50.155-21.943,50.155-50.155v-21.943H100.31   V169.273z"
       id="path60" /><path
       style="fill:#ACB3BA;"
       d="M300.931,147.331v21.943c0,28.212,21.943,50.155,50.155,50.155s50.155-21.943,50.155-50.155v-21.943   H300.931z"
       id="path62" /></g><g
     id="g72"><path
       style="fill:#F1543F;"
       d="M0,169.273c0,28.212,21.943,50.155,50.155,50.155l0,0c28.212,0,50.155-21.943,50.155-50.155v-21.943   H0V169.273z"
       id="path66" /><path
       style="fill:#F1543F;"
       d="M200.62,169.273c0,28.212,21.943,50.155,50.155,50.155s50.155-21.943,50.155-50.155v-21.943H200.62   L200.62,169.273L200.62,169.273z"
       id="path68" /><path
       style="fill:#F1543F;"
       d="M401.241,147.331v21.943c0,28.212,21.943,50.155,50.155,50.155s50.155-21.943,50.155-50.155v-21.943   H401.241z"
       id="path70" /></g><circle
     style="fill:#ff7058;stroke-width:0.72705215"
     cx="134.26308"
     cy="347.37881"
     r="56.976894"
     id="circle74" /><g
     id="g82"
     transform="matrix(0.72705214,0,0,0.72705214,-48.064148,85.283851)"><path
       style="fill:#ffffff"
       d="m 238.237,383.478 -3.135,-9.404 h 60.604 v -45.975 h -72.098 l -4.18,-16.718 H 198.53 v 7.314 h 15.673 l 18.808,72.098 h 64.784 v -7.314 h -59.558 z m 50.155,-47.021 v 30.302 h -54.335 l -8.359,-30.302 z"
       id="path76"
       inkscape:connector-curvature="0" /><circle
       style="fill:#ffffff"
       cx="248.686"
       cy="406.465"
       r="9.4040003"
       id="circle78" /><circle
       style="fill:#ffffff"
       cx="283.16699"
       cy="406.465"
       r="9.4040003"
       id="circle80" /></g><g
     id="g84" /><g
     id="g86" /><g
     id="g88" /><g
     id="g90" /><g
     id="g92" /><g
     id="g94" /><g
     id="g96" /><g
     id="g98" /><g
     id="g100" /><g
     id="g102" /><g
     id="g104" /><g
     id="g106" /><g
     id="g108" /><g
     id="g110" /><g
     id="g112" /><ellipse
     style="opacity:1;fill:#009adc;fill-opacity:1;stroke:#ffffff;stroke-width:0.16739298;stroke-miterlimit:4;stroke-dasharray:none;stroke-opacity:1"
     id="path817"
     cx="343.65509"
     cy="344.93402"
     rx="85.270088"
     ry="58.211945" /><path
     d="m 326.28294,322.63826 4.00423,-4.00423 c 0.0237,-0.0237 0.0474,-0.0237 0.0474,-0.0474 1.08991,-0.75819 2.22721,-1.44531 3.48297,-2.03765 0.80558,-0.3791 1.65856,-0.73451 2.58261,-1.06621 0.52126,-0.16586 1.04252,-0.33171 1.61117,-0.49758 0.54496,-0.14215 1.1373,-0.28432 1.72963,-0.40278 0.59236,-0.11848 1.20839,-0.23694 1.84812,-0.30802 1.27945,-0.18955 2.65369,-0.28433 4.14638,-0.33172 h 1.37424 c 0.11847,0 0.23693,0 0.35541,0.0237 0.11847,0 0.26063,0 0.37909,0.0237 0.11847,0 0.23693,0.0237 0.35541,0.0237 0.11847,0 0.26063,0.0237 0.3791,0.0237 0.11847,0 0.23694,0.0237 0.3554,0.0237 0.11847,0.0237 0.26063,0.0237 0.3791,0.0474 0.11847,0.0237 0.23694,0.0237 0.35541,0.0474 0.11847,0.0237 0.23693,0.0237 0.37909,0.0474 0.11847,0.0237 0.23694,0.0237 0.35541,0.0474 0.11847,0.0237 0.23693,0.0237 0.35541,0.0474 0.11847,0.0237 0.23693,0.0474 0.3554,0.0474 0.11847,0.0237 0.23693,0.0474 0.3554,0.0474 l 0.35541,0.071 0.3554,0.071 0.35541,0.071 c 0.11847,0.0237 0.23693,0.0474 0.33171,0.071 0.11848,0.0237 0.23694,0.0474 0.3317,0.071 0.11848,0.0237 0.21326,0.0474 0.33172,0.071 0.11847,0.0237 0.21324,0.0474 0.33171,0.071 0.11848,0.0237 0.21324,0.0474 0.33172,0.071 0.11847,0.0237 0.21324,0.0474 0.3317,0.071 0.0947,0.0237 0.21325,0.0474 0.30803,0.071 0.0948,0.0237 0.21324,0.0474 0.30801,0.071 0.0947,0.0237 0.21324,0.0474 0.30802,0.071 0.0947,0.0237 0.21324,0.0474 0.30802,0.0947 l 0.28432,0.071 c 0.0948,0.0237 0.18955,0.0474 0.30802,0.0947 0.0948,0.0237 0.18955,0.0474 0.28433,0.0947 0.0947,0.0237 0.18954,0.0474 0.28432,0.0948 0.0948,0.0237 0.18955,0.0474 0.26063,0.0948 0.0948,0.0237 0.18955,0.0474 0.28431,0.0948 0.0948,0.0237 0.16587,0.0474 0.26063,0.071 0.0948,0.0237 0.18956,0.0474 0.26064,0.0948 0.071,0.0237 0.16586,0.0474 0.23694,0.071 0.0947,0.0237 0.16585,0.0473 0.26063,0.0948 0.071,0.0237 0.14216,0.0474 0.23693,0.071 0.071,0.0237 0.16586,0.0474 0.23694,0.0948 l 0.21324,0.071 0.21324,0.071 c 0.071,0.0237 0.14217,0.0474 0.18956,0.071 l 0.21324,0.071 c 0.071,0.0237 0.11847,0.0473 0.18954,0.071 0.071,0.0237 0.14217,0.0474 0.18956,0.071 0.0473,0.0237 0.11848,0.0474 0.16585,0.071 0.0474,0.0237 0.11848,0.0474 0.16585,0.071 l 0.14217,0.071 c 0.0474,0.0237 0.11848,0.0474 0.16585,0.071 0.0474,0.0237 0.0948,0.0237 0.11848,0.0474 0.0474,0.0237 0.0948,0.0474 0.14215,0.0474 0.0474,0.0237 0.071,0.0237 0.11848,0.0474 0.0474,0.0237 0.071,0.0237 0.11847,0.0474 0.0474,0.0237 0.071,0.0237 0.0948,0.0474 0.0237,0.0237 0.071,0.0237 0.0948,0.0474 0.0237,0.0237 0.0473,0.0237 0.071,0.0474 0.0237,0 0.0474,0.0237 0.071,0.0237 0.0237,0.0237 0.0474,0.0237 0.071,0.0237 0.0237,0 0.0237,0.0237 0.0474,0.0237 0.0237,0 0.0237,0 0.0474,0.0237 0.0237,0.0237 0.0473,0.0237 0.0473,0.0237 0.37911,0.18954 0.73452,0.35539 1.11362,0.52126 0.0474,0.0237 0.11847,0.0474 0.16585,0.071 0.3554,0.16585 0.71081,0.30802 1.06622,0.45018 0.071,0.0237 0.14215,0.0474 0.21324,0.0947 l 1.06621,0.42648 c 0.0474,0.0237 0.0948,0.0474 0.14216,0.0474 0.35541,0.14216 0.71081,0.26063 1.06621,0.37909 0.0237,0 0.0474,0.0237 0.071,0.0237 0.35541,0.11847 0.7345,0.23694 1.08991,0.3554 0.071,0.0237 0.11848,0.0474 0.18955,0.071 0.35541,0.11847 0.71082,0.21324 1.04252,0.30802 0.071,0.0237 0.14217,0.0474 0.18956,0.0474 l 1.06621,0.28433 c 0.0474,0 0.071,0.0237 0.11847,0.0237 0.35541,0.0947 0.68713,0.16585 1.04252,0.23693 0.0474,0 0.071,0.0237 0.11848,0.0237 l 1.06621,0.21324 c 0.071,0.0237 0.14217,0.0237 0.18956,0.0474 0.3554,0.071 0.68711,0.11848 1.04251,0.18956 0.071,0 0.11847,0.0237 0.18956,0.0237 0.35539,0.0474 0.7108,0.11847 1.08991,0.16585 h 0.071 c 0.35541,0.0474 0.71082,0.0948 1.06621,0.11847 0.0474,0 0.0948,0 0.14217,0.0237 0.35541,0.0474 0.71081,0.071 1.04252,0.0948 0.071,0 0.14216,0 0.18955,0.0237 0.35541,0.0237 0.68712,0.0474 1.04253,0.071 h 0.16585 c 0.3554,0.0237 0.7345,0.0237 1.08991,0.0474 0.3554,0 0.7345,0.0237 1.08991,0.0237 h 0.14215 c 0.49757,0 0.99515,0 1.49271,-0.0237 l 1.4927,-0.071 h 0.11847 c 0.47387,-0.0237 0.92405,-0.071 1.37424,-0.11847 0.0474,0 0.0947,0 0.14215,-0.0237 0.47387,-0.0474 0.92406,-0.0947 1.39793,-0.14216 h 0.0948 c 0.49758,-0.071 0.97145,-0.11848 1.46902,-0.18955 h 0.0474 c 0.47387,-0.071 0.94774,-0.14217 1.42162,-0.23693 0.0474,0 0.0948,-0.0237 0.11847,-0.0237 0.45018,-0.071 0.90037,-0.16587 1.32685,-0.26065 0.0474,0 0.0947,-0.0237 0.14217,-0.0237 0.45017,-0.0948 0.90035,-0.18954 1.37423,-0.30802 0.0237,0 0.0474,0 0.071,-0.0237 0.47389,-0.11847 0.94776,-0.21324 1.39793,-0.35541 0.0237,0 0.0474,-0.0237 0.071,-0.0237 0.45017,-0.11847 0.90036,-0.23693 1.32684,-0.35539 0.0474,-0.0237 0.0947,-0.0237 0.14216,-0.0474 0.42649,-0.11848 0.85297,-0.23695 1.27946,-0.37911 0.0474,-0.0237 0.071,-0.0237 0.11848,-0.0474 0.45017,-0.14217 0.87667,-0.28432 1.32684,-0.42648 0.0237,0 0.0237,0 0.0474,-0.0237 0.45018,-0.14217 0.90037,-0.30802 1.35054,-0.45019 0.0237,0 0.071,-0.0237 0.0948,-0.0237 0.42648,-0.14216 0.82928,-0.30802 1.25576,-0.45017 0.0474,-0.0237 0.0947,-0.0237 0.14216,-0.0474 0.40279,-0.14217 0.80559,-0.30802 1.20837,-0.47388 0.0475,-0.0237 0.071,-0.0237 0.11848,-0.0474 0.42649,-0.16587 0.85297,-0.33172 1.27947,-0.52126 0.0474,0.0474 0.0948,0.071 0.14215,0.11847 0.47389,0.3791 0.92406,0.75819 1.37424,1.16099 0.33171,0.28433 0.66342,0.56865 0.97144,0.85298 0.49757,0.45017 0.97144,0.90035 1.42161,1.35054 0.26063,0.26063 0.52126,0.49756 0.7582,0.75819 0.23695,0.23694 0.47388,0.49757 0.71082,0.7345 0.26063,0.28433 0.52126,0.54496 0.75819,0.82928 0.54496,0.59234 1.04252,1.18468 1.5401,1.77702 0.23692,0.28432 0.47387,0.56865 0.68711,0.85297 0.28433,0.37911 0.59233,0.7582 0.87666,1.1373 0.59234,0.78189 1.1373,1.58748 1.65856,2.41676 0.68712,1.08991 1.32684,2.17981 1.89549,3.31711 0.28432,0.56865 0.56865,1.11361 0.80558,1.68224 0.26063,0.56865 0.49758,1.1373 0.7345,1.70595 0.90037,2.29828 1.5638,4.66766 1.94289,7.06072 -2.27459,0.52126 -4.4781,1.06621 -6.58684,1.61117 -1.32684,0.3554 -2.60631,0.68711 -3.86207,1.04252 -0.75819,0.21324 -1.49269,0.42648 -2.20351,0.63973 l -0.71081,0.21324 -1.42162,0.42648 c -1.39791,0.42649 -2.72477,0.85297 -4.00423,1.25577 l -0.63973,0.21324 c -1.25576,0.40279 -2.44044,0.82928 -3.57773,1.20837 -0.56865,0.18955 -1.11361,0.4028 -1.63487,0.59235 -2.29829,0.82928 -4.24116,1.58747 -5.82864,2.22721 -0.3554,0.14215 -0.71081,0.28432 -1.04253,0.42648 -0.3317,0.14216 -0.63972,0.26063 -0.92404,0.3791 -0.54496,0.23693 -1.01883,0.42648 -1.39793,0.61603 -1.68226,-1.469 -7.91368,-6.89486 -13.22107,-11.44404 -6.44467,-5.54435 -14.73745,-12.60506 -17.74655,-14.87965 h -0.0474 c -3.67253,-2.70108 -5.94712,-3.53035 -8.22171,-3.95685 h -0.0474 c -0.42648,-0.071 -0.87666,-0.0948 -1.35054,-0.0948 -1.0899,0 -2.32197,0.18954 -3.36449,0.52126 -2.58261,0.7108 -6.0182,2.72477 -10.21197,5.9708 l -0.52126,0.42648 c -2.70108,2.13243 -5.26,4.1701 -7.17919,4.52549 l -0.071,0.0237 -0.071,0.0237 c -0.66343,0.16585 -1.39793,0.23694 -2.17982,0.23694 -2.27458,0 -4.40702,-0.68711 -5.28368,-1.32685 l -0.0947,-0.071 -0.11848,-0.071 c -0.18954,-0.11848 -0.35539,-0.26063 -0.49756,-0.47387 0.0474,-0.071 0.0947,-0.16586 0.18956,-0.23694 l 0.0473,-0.0474 0.0474,-0.0474 6.82378,-7.5109 0.78189,-0.78189 z m 17.17791,51.27308 c -0.11848,-0.45017 -0.26065,-0.85296 -0.47387,-1.25576 -0.0948,-0.18954 -0.21326,-0.40278 -0.30802,-0.59234 -1.20839,-1.99027 -3.38821,-3.31712 -5.87603,-3.31712 -0.18956,0 -0.3791,0.0237 -0.59235,0.0474 -0.18955,0.0237 -0.3791,0.0474 -0.59234,0.0948 -0.3791,0.071 -0.75819,0.18954 -1.06621,0.28432 -0.16585,0.0474 -0.30802,0.11848 -0.45019,0.16585 -0.0237,0 -0.0473,0.0237 -0.0473,0.0237 -0.18955,0.071 -0.33171,0.11848 -0.45018,0.16585 -0.11848,0.0474 -0.21324,0.071 -0.23694,0.071 -0.071,0 -0.071,-0.0948 -0.071,-0.26063 0.0237,-0.11848 0.0474,-0.26063 0.0947,-0.37909 0.0474,-0.14216 0.0948,-0.28433 0.14217,-0.40279 0.0237,-0.071 0.14216,-0.33171 0.23694,-0.73451 0.0237,-0.14216 0.071,-0.28433 0.0947,-0.45018 0.0237,-0.16586 0.071,-0.35541 0.0947,-0.54495 0.0237,-0.18955 0.0474,-0.37911 0.071,-0.59235 0.0237,-0.30802 0.0474,-0.63972 0.0474,-0.99513 0,-0.23693 0,-0.47387 -0.0237,-0.71081 -0.0474,-0.47387 -0.11848,-0.94775 -0.28434,-1.42162 -0.14216,-0.47388 -0.3554,-0.94775 -0.66342,-1.37423 -0.071,-0.11847 -0.14217,-0.21324 -0.23693,-0.33171 -0.49757,-0.63974 -1.18469,-1.18468 -2.10874,-1.61117 -0.11847,-0.0474 -0.26063,-0.11848 -0.3791,-0.16585 -0.0474,-0.0237 -0.071,-0.0237 -0.11847,-0.0474 -0.0948,-0.0237 -0.16587,-0.071 -0.26063,-0.0948 -0.0474,-0.0237 -0.0948,-0.0237 -0.14217,-0.0474 -0.071,-0.0237 -0.14217,-0.0474 -0.23694,-0.071 -0.0474,-0.0237 -0.0947,-0.0237 -0.14217,-0.0474 -0.071,-0.0237 -0.14215,-0.0474 -0.21324,-0.0474 -0.0474,0 -0.0948,-0.0237 -0.11847,-0.0237 -0.071,-0.0237 -0.16586,-0.0237 -0.23693,-0.0474 -0.0237,0 -0.071,-0.0237 -0.0948,-0.0237 -0.11847,-0.0237 -0.21324,-0.0237 -0.33171,-0.0474 h -0.0474 c -0.0948,0 -0.18955,-0.0237 -0.26063,-0.0237 h -0.78189 c -0.11848,0 -0.21324,0.0237 -0.33172,0.0237 h -0.071 c -0.0948,0.0237 -0.16586,0.0237 -0.23694,0.0474 -0.0237,0 -0.0474,0 -0.071,0.0237 l -0.28432,0.071 h -0.0237 c -0.0948,0.0237 -0.16587,0.0474 -0.26065,0.071 -0.0237,0 -0.0473,0.0237 -0.071,0.0237 l -0.21324,0.071 c -0.0237,0 -0.0237,0 -0.0474,0.0237 -0.0948,0.0237 -0.16585,0.071 -0.23694,0.0947 -0.0237,0 -0.0474,0.0237 -0.071,0.0237 -0.071,0.0237 -0.11847,0.071 -0.18955,0.0948 -0.0237,0 -0.0474,0.0237 -0.0474,0.0237 -0.071,0.0474 -0.14216,0.071 -0.21324,0.11847 l -0.0237,0.0237 c -0.0474,0.0237 -0.11847,0.071 -0.16586,0.11847 l -0.0474,0.0475 c -0.0474,0.0474 -0.11847,0.071 -0.16585,0.11847 0,0 -0.0237,0 -0.0237,0.0237 -0.0474,0.0474 -0.11847,0.0948 -0.16586,0.11847 -0.0237,0 -0.0237,0.0237 -0.0473,0.0237 -0.0474,0.0237 -0.071,0.071 -0.11847,0.0948 l -0.0237,0.0237 c -0.0474,0.0474 -0.0948,0.071 -0.11848,0.11847 l -0.0237,0.0237 -0.0947,0.0947 -0.0237,0.0237 c -0.0237,0.0474 -0.071,0.071 -0.0947,0.0948 -0.0948,0.0947 -0.16587,0.11847 -0.23695,0.11847 -0.071,0 -0.11848,-0.0474 -0.11848,-0.11847 v -0.0948 c 0,-0.14217 -0.0237,-0.33172 -0.0474,-0.52126 -0.0237,-0.0948 -0.0237,-0.21325 -0.0474,-0.30802 -0.0473,-0.26063 -0.14215,-0.56865 -0.23693,-0.87667 -0.071,-0.18955 -0.14216,-0.37911 -0.23694,-0.56865 -0.071,-0.11848 -0.14215,-0.26063 -0.21324,-0.37909 -0.071,-0.11848 -0.16586,-0.26065 -0.26063,-0.37911 -0.28432,-0.3791 -0.61604,-0.7345 -1.04252,-1.06621 -0.14216,-0.11848 -0.28432,-0.21324 -0.45018,-0.30802 -0.40279,-0.23694 -0.87666,-0.45018 -1.39793,-0.61604 -0.14216,-0.0474 -0.26062,-0.071 -0.40279,-0.11847 -0.0474,0 -0.071,-0.0237 -0.11847,-0.0237 -0.0948,-0.0237 -0.21324,-0.0474 -0.30801,-0.071 -0.0237,0 -0.0474,-0.0237 -0.0947,-0.0237 -0.11848,-0.0237 -0.26063,-0.0474 -0.37911,-0.071 -0.0237,0 -0.071,0 -0.0947,-0.0237 -0.0948,-0.0237 -0.18956,-0.0237 -0.28433,-0.0474 h -0.0948 c -0.11847,0 -0.23693,-0.0237 -0.35541,-0.0237 h -0.82926 c -0.071,0 -0.16587,0.0237 -0.23695,0.0237 h -0.0948 c -0.21324,0.0237 -0.45018,0.071 -0.66342,0.11847 -0.0237,0 -0.0474,0.0237 -0.0948,0.0237 -0.071,0.0237 -0.14217,0.0474 -0.23695,0.071 -0.0237,0 -0.071,0.0237 -0.0947,0.0237 l -0.21324,0.071 c -0.0237,0 -0.0474,0.0237 -0.0947,0.0237 -0.071,0.0237 -0.16585,0.071 -0.23694,0.0948 -0.0237,0 -0.0237,0 -0.0474,0.0237 -0.0947,0.0474 -0.18954,0.071 -0.28432,0.11848 0,0 -0.0237,0 -0.0237,0.0237 -0.071,0.0474 -0.16586,0.071 -0.23694,0.11847 -0.0237,0.0237 -0.0474,0.0237 -0.071,0.0474 -0.071,0.0237 -0.11848,0.071 -0.18955,0.0948 -0.0237,0.0237 -0.0474,0.0237 -0.071,0.0473 -0.071,0.0474 -0.11848,0.071 -0.18955,0.11847 -0.0237,0 -0.0474,0.0237 -0.0474,0.0237 -0.16585,0.0948 -0.30802,0.21324 -0.47387,0.30802 -0.0237,0 -0.0237,0.0237 -0.0474,0.0237 -0.071,0.0474 -0.11847,0.0948 -0.16585,0.14216 -0.0237,0.0237 -0.0474,0.0237 -0.0474,0.0474 -0.0474,0.0474 -0.0947,0.071 -0.14216,0.11847 -0.0237,0.0237 -0.0474,0.0237 -0.0474,0.0474 -0.0474,0.0474 -0.11847,0.0948 -0.16586,0.14217 l -0.0237,0.0237 c -0.11847,0.11848 -0.23693,0.21324 -0.35541,0.3317 l -0.0474,0.0474 -0.11847,0.11848 -0.0474,0.0474 -0.11848,0.11847 -0.0474,0.0474 -0.11847,0.11848 v 0.0237 l -0.0237,0.0237 c -0.0474,0.0474 -0.0948,0.0948 -0.11848,0.14217 l -0.0237,0.0237 c -0.0237,0.0474 -0.071,0.071 -0.0948,0.11847 l -0.0473,0.0474 c -0.0237,0.0237 -0.0474,0.071 -0.071,0.0948 0,0.0237 -0.0237,0.0237 -0.0237,0.0474 -0.0237,0.0237 -0.0474,0.0473 -0.071,0.0948 l -0.0237,0.0237 c -0.0237,0.0474 -0.0474,0.071 -0.071,0.11847 0,-0.071 -0.0237,-0.14215 -0.0237,-0.21324 -0.42648,-2.65369 -2.6063,-4.62027 -5.47324,-4.62027 -2.36936,0 -4.33593,1.42163 -5.14152,3.48297 -0.23693,0.61604 -0.3791,1.30315 -0.3791,2.01397 0,3.10386 2.41675,5.49692 5.49693,5.49692 1.54009,0 2.74847,-0.52126 3.79099,-1.54008 v 0.16585 c -0.0474,0.35541 -0.11847,0.92406 -0.0947,1.61117 0,0.16586 0,0.35541 0.0237,0.54495 0.0237,0.47387 0.0948,0.97145 0.23693,1.46902 0.071,0.30801 0.16585,0.61603 0.30802,0.92404 0.16585,0.4028 0.37909,0.82928 0.66342,1.23208 0.33171,0.49756 0.78189,0.97143 1.32684,1.39793 0.21325,0.16585 0.45019,0.3317 0.71082,0.47387 0.37909,0.23693 0.82928,0.42648 1.30315,0.61602 0.11847,0.0474 0.23693,0.0948 0.33171,0.11848 0.0237,0 0.0474,0.0237 0.071,0.0237 0.11847,0.0474 0.21324,0.071 0.3317,0.0947 h 0.0474 l 0.28432,0.071 h 0.071 c 0.0947,0.0237 0.21324,0.0237 0.30802,0.0474 h 0.071 c 0.0947,0 0.18956,0 0.28433,0.0237 h 0.0948 c 0.11847,0 0.23693,0 0.37909,-0.0237 0.0474,0 0.071,0 0.11847,-0.0237 0.11848,-0.0237 0.21324,-0.0237 0.33172,-0.0474 0.0237,0 0.071,0 0.0948,-0.0237 0.14216,-0.0237 0.26063,-0.071 0.40279,-0.0947 0.0237,0 0.0474,-0.0237 0.0947,-0.0237 0.0948,-0.0237 0.21325,-0.071 0.30803,-0.11847 0.0474,-0.0237 0.071,-0.0237 0.11848,-0.0474 0.11847,-0.0474 0.21324,-0.0948 0.33171,-0.14217 0.0237,0 0.0474,-0.0237 0.071,-0.0237 0.11847,-0.071 0.26063,-0.11848 0.37909,-0.18955 0.0237,-0.0237 0.071,-0.0474 0.0948,-0.0474 0.0947,-0.0474 0.18955,-0.0948 0.28433,-0.16586 0.0237,-0.0237 0.071,-0.0474 0.0947,-0.071 0.11847,-0.071 0.23695,-0.14217 0.35541,-0.23694 0.0474,-0.0474 0.11847,-0.071 0.14217,-0.0947 0.0237,0 0.0237,-0.0237 0.0473,-0.0237 0.0237,-0.0237 0.0474,-0.0237 0.0947,-0.0474 0,0 0.0237,0 0.0237,-0.0237 0.0237,0 0.0474,-0.0237 0.071,-0.0237 h 0.0237 c 0.0237,0 0.0474,0 0.0474,0.0237 0.0237,0 0.0237,0.0237 0.0237,0.0474 0,0.0237 0.0237,0.0474 0.0237,0.071 v 0.23693 c 0,0.071 -0.0237,0.16587 -0.0237,0.23694 0,0.0947 -0.0237,0.18955 -0.0237,0.28432 v 0.14216 c 0,0.0947 0,0.21325 0.0237,0.30802 0.0237,0.21325 0.0474,0.45019 0.11847,0.68712 0.0474,0.23694 0.14216,0.49757 0.26063,0.7582 0.0474,0.11847 0.11848,0.26063 0.18956,0.37909 0.071,0.11847 0.14216,0.26063 0.23694,0.3791 0.18954,0.26063 0.40278,0.52126 0.66341,0.7582 0.14216,0.11847 0.28433,0.26063 0.42648,0.3791 0.54496,0.42648 1.23208,0.82928 2.08505,1.161 0.0948,0.0474 0.18955,0.071 0.30801,0.11847 0.0237,0 0.071,0.0237 0.0948,0.0237 0.071,0.0237 0.14217,0.0474 0.18955,0.071 0.0474,0 0.071,0.0237 0.0947,0.0237 0.071,0.0237 0.11848,0.0237 0.18956,0.0474 0.0237,0 0.071,0.0237 0.0948,0.0237 0.071,0.0237 0.11847,0.0237 0.18954,0.0474 0.0237,0 0.071,0.0237 0.0948,0.0237 0.071,0.0237 0.14216,0.0237 0.21325,0.0474 h 0.0474 c 0.0947,0.0237 0.16586,0.0237 0.26063,0.0237 h 0.071 c 0.0474,0 0.11847,0 0.16585,0.0237 h 0.56865 c 0.0948,0 0.16586,-0.0237 0.23693,-0.0237 h 0.071 c 0.071,0 0.11847,-0.0237 0.18954,-0.0237 h 0.0474 c 0.071,-0.0237 0.14216,-0.0237 0.23694,-0.0474 h 0.0474 c 0.071,-0.0237 0.11847,-0.0237 0.18954,-0.0474 0.0237,0 0.0474,-0.0237 0.071,-0.0237 0.071,-0.0237 0.11847,-0.0474 0.18954,-0.071 h 0.0237 c 0.071,-0.0237 0.14216,-0.0474 0.18955,-0.0948 0.0237,0 0.0237,-0.0237 0.0474,-0.0237 l 0.14216,-0.071 c 0.0237,0 0.0237,-0.0237 0.0474,-0.0237 0.071,-0.0237 0.11847,-0.071 0.18954,-0.0948 0.0237,0 0.0237,-0.0237 0.0474,-0.0237 0.0474,-0.0237 0.0948,-0.0474 0.14217,-0.0948 0.0237,0 0.0237,-0.0237 0.0474,-0.0237 0.0474,-0.0237 0.0947,-0.071 0.16585,-0.11847 0.0474,-0.0474 0.0948,-0.071 0.16585,-0.11847 0.0237,0 0.0237,-0.0237 0.0474,-0.0237 0.0474,-0.0237 0.071,-0.071 0.11848,-0.0948 l 0.0237,-0.0237 c 0.0474,-0.0474 0.0948,-0.071 0.14215,-0.11847 l 0.0237,-0.0237 c 0.0473,-0.0237 0.071,-0.071 0.11848,-0.0948 l 0.0237,-0.0237 c 0.0474,-0.0474 0.0947,-0.071 0.11847,-0.11847 l 0.11847,-0.11847 0.0237,-0.0237 c 0.0475,-0.0237 0.071,-0.071 0.11848,-0.071 h 0.0237 c 0.0237,-0.0237 0.0474,-0.0237 0.0947,-0.0474 h 0.0237 c 0.0237,0 0.0474,-0.0237 0.071,-0.0237 h 0.071 c 0,0 0.0237,0 0.0237,0.0237 l 0.0237,0.0237 c 0,0 0.0237,0.0237 0.0237,0.0474 0,0.0237 0.0237,0.0474 0.0237,0.071 v 0.0237 c 0,0.0237 0,0.0474 0.0237,0.071 v 0.40279 c 0.0237,0.45018 0.0947,0.90036 0.18955,1.32684 0.11847,0.42649 0.26063,0.82928 0.45018,1.23208 0.18955,0.3791 0.40279,0.75819 0.66342,1.1136 0.26063,0.3554 0.54495,0.66342 0.85297,0.97144 0.16586,0.14217 0.30802,0.28432 0.49757,0.42649 0.33171,0.26063 0.68711,0.49755 1.08991,0.71081 0.18954,0.0947 0.3791,0.18954 0.59234,0.28432 0.30802,0.11848 0.61603,0.23694 0.92405,0.30801 0.21324,0.0474 0.42649,0.0947 0.63973,0.11847 0.33172,0.0474 0.66342,0.071 0.99513,0.071 1.56378,0 3.03279,-0.54496 4.19379,-1.42163 0.071,-0.0474 0.11847,-0.0947 0.18954,-0.14215 0.16585,-0.14217 0.33172,-0.28433 0.49757,-0.45019 0.23693,-0.23694 0.45017,-0.47387 0.63973,-0.7582 0.071,-0.0947 0.11848,-0.18954 0.18955,-0.26063 0.30802,-0.45017 0.56865,-0.94774 0.75819,-1.469 0.26063,-0.73451 0.42648,-1.54009 0.42648,-2.34568 0.0237,-0.63972 -0.071,-1.20837 -0.21322,-1.75332 z m 42.69597,-16.25384 c -0.21324,-0.42649 -0.68712,-0.82928 -0.68712,-0.82928 l -1.01883,-0.87667 c -0.52125,-0.45017 -1.37423,-1.18467 -2.48782,-2.15612 -6.44469,-5.5917 -23.52781,-20.42394 -28.077,-23.81213 -2.65368,-1.8718 -4.17009,-2.77216 -5.33107,-3.17496 -0.66343,-0.16585 -1.35054,-0.3317 -2.22721,-0.3317 -0.87666,0 -1.80071,0.16585 -2.81954,0.47387 l -0.0474,0.0237 -0.0474,0.0237 c -2.27459,0.61604 -4.90459,2.67738 -7.43981,4.69135 -0.28433,0.21324 -0.54496,0.42649 -0.82927,0.63972 -3.10388,2.53523 -6.3973,5.04676 -9.21684,5.71018 h -0.0474 c -1.23206,0.26063 -2.48784,0.4028 -3.7436,0.4028 -3.57774,0 -6.58683,-1.11361 -8.03215,-2.98541 l -0.0237,-0.0237 -0.0237,-0.0237 c -1.16099,-1.54008 -0.92404,-3.67251 0.54496,-5.2126 l 6.65791,-7.34503 0.0474,-0.0474 0.0474,-0.0475 c 0.66342,-0.66341 1.32685,-1.32684 1.99026,-1.96656 -1.06621,0.18955 -2.10873,0.42648 -3.15125,0.66342 -0.78189,0.18954 -1.56378,0.3791 -2.32197,0.56864 -0.47389,0.11848 -0.94776,0.26063 -1.42163,0.3791 -0.30802,0.071 -0.63973,0.16586 -0.94774,0.23694 -0.47388,0.11848 -0.92406,0.23694 -1.37423,0.33172 -0.7582,0.16585 -1.5164,0.28432 -2.2746,0.35539 -0.30802,0.0237 -0.59234,0.0474 -0.90036,0.071 h -0.45018 c -1.01882,0 -6.53944,-0.85298 -7.55828,-1.20839 -0.59234,-0.16585 -1.18467,-0.3317 -1.77702,-0.47387 -0.3791,-0.11847 -0.78189,-0.21324 -1.16099,-0.33171 -0.56865,-0.16585 -1.16098,-0.33171 -1.72964,-0.49756 -0.3791,-0.11848 -0.78189,-0.23694 -1.16098,-0.35541 -0.18955,-0.071 -0.37911,-0.11848 -0.59235,-0.18955 -0.59234,-0.18954 -1.16098,-0.37909 -1.75332,-0.56864 -0.4028,-0.11847 -0.78189,-0.26064 -1.18469,-0.40279 -0.59235,-0.21326 -1.20837,-0.4265 -1.82441,-0.66343 -0.4265,-0.16585 -0.82928,-0.30802 -1.25576,-0.47387 -0.28433,-0.0948 -0.54497,-0.21324 -0.82928,-0.33172 -0.30802,-0.11847 -0.61604,-0.23693 -0.94775,-0.37909 -0.16585,-0.071 -0.30802,-0.11847 -0.47387,-0.18954 -0.56865,-0.23695 -1.161,-0.47389 -1.77702,-0.73452 -0.30802,-0.11847 -0.61604,-0.26063 -0.92406,-0.40278 -0.87667,-0.37911 -1.80072,-0.78189 -2.74847,-1.23208 -0.92405,0.68712 -1.80071,1.39793 -2.67738,2.13243 -0.87667,0.7345 -1.70594,1.46901 -2.51152,2.20351 -0.26065,0.23694 -0.52128,0.49757 -0.78191,0.7582 -0.52126,0.49757 -1.04252,1.01882 -1.51639,1.54009 -0.49756,0.52126 -0.97143,1.04252 -1.44531,1.56378 -0.47387,0.52126 -0.92405,1.06622 -1.35054,1.61117 -0.45018,0.54496 -0.85296,1.08991 -1.27946,1.63485 -0.21324,0.28433 -0.40278,0.54496 -0.59234,0.82929 -0.59235,0.82927 -1.13729,1.68225 -1.65856,2.55891 -0.3554,0.56865 -0.66342,1.161 -0.99513,1.72965 -1.72963,3.22233 -2.93801,6.58683 -3.57773,10.0698 1.37422,0.35541 3.79097,1.04253 4.64394,1.20838 5.92342,1.32684 10.78062,2.65369 14.71378,3.93314 0.68711,0.21324 1.37422,0.45018 2.01395,0.66342 1.91919,0.66343 3.60144,1.30316 5.04675,1.89551 0.73451,0.308 1.42162,0.59233 2.03766,0.87665 0.18955,0.0948 0.40279,0.18955 0.59233,0.26063 1.30317,0.61604 2.39308,1.16099 3.24605,1.63486 l 0.49755,0.28433 c 0.071,0.0474 0.16586,0.0948 0.23695,0.14217 0.23693,0.14215 0.47387,0.28432 0.68711,0.42648 0.071,0.0474 0.11847,0.071 0.18956,0.11847 0.071,0.0474 0.14215,0.0948 0.18954,0.14216 0.0474,0.0474 0.11848,0.071 0.16585,0.11847 0.071,0.0474 0.16587,0.11848 0.23694,0.16585 0.071,0.0474 0.11847,0.0948 0.16585,0.11848 0.0237,0.0237 0.0474,0.0237 0.071,0.0474 0.071,0.0474 0.14217,0.11847 0.21326,0.16586 1.51639,-1.63486 3.67251,-2.62999 6.13665,-2.62999 2.58261,0 4.8809,1.11359 6.39729,2.91432 1.37423,-0.90037 3.15125,-1.58748 5.30738,-1.58748 1.06621,0 2.15612,0.16585 3.22233,0.52126 2.39308,0.7345 3.88577,2.17982 4.78612,3.69621 0.7819,-0.26063 1.63487,-0.4028 2.58262,-0.4028 1.35054,0 2.74847,0.33172 4.14638,0.94775 2.13243,0.97144 3.67253,2.6063 4.43072,4.73873 0.47387,1.35054 0.59235,2.72477 0.54496,3.95685 5.28368,0.071 9.57223,4.40702 9.57223,9.71439 0,1.61117 -0.40278,3.12757 -1.08991,4.47811 0.071,0.0237 0.14217,0.071 0.21326,0.0948 0.0474,0.0237 0.11847,0.0474 0.16585,0.071 0.071,0.0474 0.16585,0.071 0.23693,0.11848 0.071,0.0237 0.11848,0.0474 0.18955,0.071 0.071,0.0237 0.16586,0.071 0.26063,0.0948 0.071,0.0237 0.11847,0.0474 0.18956,0.071 0.0948,0.0474 0.16585,0.071 0.26063,0.11847 0.071,0.0237 0.14215,0.0474 0.18954,0.071 0.0948,0.0237 0.18955,0.071 0.28433,0.0948 0.071,0.0237 0.14215,0.0474 0.18954,0.071 0.0948,0.0474 0.21324,0.071 0.33172,0.0948 0.071,0.0237 0.11847,0.0474 0.18954,0.071 0.14217,0.0474 0.28433,0.0948 0.45019,0.11847 0.0237,0 0.0473,0.0237 0.071,0.0237 0.16587,0.0474 0.35541,0.0948 0.52126,0.11848 0.0474,0 0.11848,0.0237 0.16587,0.0237 0.11847,0.0237 0.26063,0.0474 0.37909,0.071 0.071,0 0.14217,0.0237 0.21325,0.0237 0.11847,0.0237 0.23694,0.0237 0.3317,0.0474 0.071,0 0.14217,0.0237 0.23695,0.0237 0.11847,0 0.21324,0.0237 0.3317,0.0237 h 0.73451 c 0.16586,0 0.3554,-0.0237 0.52126,-0.0474 0.30802,-0.0474 0.56865,-0.0947 0.82927,-0.14216 0.26064,-0.0474 0.47388,-0.11847 0.68712,-0.16585 0.21324,-0.071 0.40279,-0.11847 0.56865,-0.18955 0.26063,-0.0948 0.47387,-0.21324 0.66342,-0.30802 0.11847,-0.071 0.23693,-0.14216 0.33171,-0.21324 0.0948,-0.071 0.18955,-0.14216 0.26063,-0.21324 0.11848,-0.0948 0.18955,-0.21324 0.26063,-0.30802 0.0474,-0.11848 0.11848,-0.21324 0.18956,-0.33172 0.0237,-0.0474 0.0474,-0.0947 0.071,-0.11847 0.0474,-0.0948 0.071,-0.21326 0.071,-0.30802 0,-0.0948 -0.0474,-0.16587 -0.14216,-0.26063 l -3.17496,-3.53036 -3.15125,-3.50666 c 0,0 -0.68711,-0.68711 -0.7582,-1.11361 -0.0237,-0.0948 0,-0.18954 0.071,-0.26063 0.0237,-0.0237 0.0474,-0.0474 0.071,-0.0474 0,0 0.0237,0 0.0237,-0.0237 0.0237,0 0.0237,-0.0237 0.0474,-0.0237 h 0.14217 c 0.0474,0 0.071,0 0.11847,0.0237 h 0.0237 c 0.0474,0 0.071,0.0237 0.11848,0.0474 h 0.0237 l 0.14215,0.071 c 0,0 0.0237,0 0.0237,0.0237 0.0474,0.0237 0.071,0.0474 0.11848,0.071 h 0.0237 c 0.0474,0.0237 0.0947,0.0474 0.14215,0.0948 l 0.0237,0.0237 c 0.0474,0.0237 0.0948,0.0474 0.14217,0.0948 h 0.0237 c 0.0474,0.0237 0.0948,0.071 0.14216,0.0947 0.0474,0.0237 0.0947,0.071 0.16586,0.0948 0.30802,0.26063 0.61604,0.52126 0.92405,0.80558 0.42649,0.37911 0.82928,0.7345 1.23208,1.11361 0.30802,0.28432 0.61602,0.56864 0.90035,0.85297 0.30802,0.28432 0.59234,0.56865 0.85297,0.82928 0.56865,0.54495 1.06622,1.04252 1.51639,1.49269 0.94775,0.94776 1.58749,1.61117 1.58749,1.61117 l 0.11847,0.11848 c 0.14217,0.11847 0.42648,0.33171 0.92406,0.52126 0.071,0.0237 0.11847,0.0474 0.21324,0.071 0.14216,0.0474 0.30802,0.0948 0.47387,0.14216 0.071,0 0.14217,0.0237 0.21324,0.0237 h 1.20838 c 0.071,0 0.14216,-0.0237 0.23694,-0.0237 h 0.0947 c 0.071,0 0.14216,-0.0237 0.21324,-0.0237 0.0237,0 0.071,0 0.0948,-0.0237 0.071,-0.0237 0.16585,-0.0237 0.23693,-0.0474 h 0.071 c 0.0948,-0.0237 0.21325,-0.0474 0.30802,-0.071 0.0237,0 0.0474,-0.0237 0.071,-0.0237 0.071,-0.0237 0.16585,-0.0474 0.23693,-0.071 0.0237,0 0.071,-0.0237 0.0948,-0.0237 l 0.21324,-0.071 c 0.0237,0 0.071,-0.0237 0.0947,-0.0237 0.0948,-0.0237 0.18955,-0.071 0.26063,-0.0947 0.0237,0 0.0237,0 0.0474,-0.0237 0.0948,-0.0474 0.21325,-0.0947 0.30802,-0.14217 0.0237,-0.0237 0.071,-0.0237 0.0948,-0.0474 0.071,-0.0474 0.14215,-0.071 0.21324,-0.11847 0.0237,-0.0237 0.071,-0.0474 0.0948,-0.0474 0.071,-0.0474 0.14216,-0.071 0.18954,-0.11848 0.0237,-0.0237 0.071,-0.0474 0.0948,-0.0474 0.0948,-0.071 0.18954,-0.11847 0.26063,-0.18956 0.16585,-0.16585 0.3791,-0.35539 0.59233,-0.52126 0.0948,-0.0947 0.18956,-0.16585 0.26064,-0.26063 0.0474,-0.0474 0.071,-0.0948 0.11848,-0.11847 0.0237,-0.0474 0.0474,-0.0948 0.071,-0.11847 0.0474,-0.071 0.0948,-0.14216 0.14216,-0.18955 0.14216,-0.21324 0.23693,-0.42648 0.33171,-0.63973 0.0237,-0.0948 0.071,-0.16585 0.071,-0.26063 0.0237,-0.071 0.0474,-0.16585 0.0474,-0.23694 0.0237,-0.11847 0.0474,-0.23693 0.0474,-0.35539 0.0237,-0.30802 -0.0237,-0.59235 -0.071,-0.82928 -0.0237,-0.0948 -0.0474,-0.16587 -0.071,-0.26063 0,-0.0237 -0.0237,-0.0474 -0.0237,-0.071 -0.071,-0.26063 -0.18955,-0.47387 -0.28433,-0.66342 -0.18954,-0.3791 -0.3791,-0.59234 -0.3791,-0.59234 l -7.39242,-8.2454 -0.16586,-0.16585 c -0.0237,-0.0237 -0.0473,-0.0474 -0.071,-0.0948 -0.0474,-0.071 -0.11848,-0.11848 -0.16587,-0.18955 -0.0474,-0.071 -0.11847,-0.14216 -0.16585,-0.21324 -0.0237,-0.0474 -0.0474,-0.071 -0.071,-0.11847 -0.0948,-0.14216 -0.14216,-0.30802 -0.14216,-0.42648 0,-0.071 0.0237,-0.11848 0.071,-0.16587 0.0237,-0.0237 0.0475,-0.0474 0.071,-0.0474 0,0 0.0237,0 0.0237,-0.0237 0.0237,0 0.0237,-0.0237 0.0474,-0.0237 h 0.0237 c 0.0237,0 0.0237,0 0.0474,-0.0237 h 0.071 c 0.0474,0 0.071,0 0.11848,0.0237 h 0.0237 c 0.0474,0 0.071,0.0237 0.11847,0.0474 h 0.0237 l 0.14217,0.071 0.0237,0.0237 c 0.0474,0.0237 0.0948,0.0474 0.11847,0.071 h 0.0237 c 0.0474,0.0237 0.0948,0.0474 0.14216,0.0947 0.0237,0 0.0237,0.0237 0.0474,0.0237 0.0474,0.0237 0.0948,0.0474 0.11847,0.0948 h 0.0237 c 0.0474,0.0237 0.0948,0.071 0.14216,0.0947 0.0474,0.0474 0.11847,0.071 0.16586,0.11847 0.14216,0.11848 0.30801,0.23695 0.45018,0.37911 0.78189,0.63972 1.65856,1.4453 2.55892,2.29828 0.18955,0.16586 0.3554,0.35541 0.54496,0.52126 0.7345,0.71082 1.49269,1.49271 2.27458,2.2746 0.97144,0.97144 1.94288,1.96657 2.91432,2.93801 l 0.071,0.071 c 0,0 0.0237,0 0.0237,0.0237 0.0237,0.0237 0.0474,0.0237 0.071,0.0474 l 0.0237,0.0237 c 0.0237,0.0237 0.0474,0.0237 0.071,0.0474 0,0 0.0237,0.0237 0.0474,0.0237 0.0237,0.0237 0.071,0.0474 0.0948,0.071 0,0 0.0237,0 0.0237,0.0237 0.0474,0.0237 0.0948,0.0474 0.14216,0.0948 0,0 0.0237,0 0.0237,0.0237 0.0474,0.0237 0.071,0.0474 0.11847,0.071 0.0237,0 0.0474,0.0237 0.0474,0.0237 0.0474,0.0237 0.071,0.0474 0.11848,0.0474 0.0237,0 0.0474,0.0237 0.071,0.0237 0.0474,0.0237 0.0948,0.0475 0.14216,0.0475 0.0237,0 0.0474,0.0237 0.0474,0.0237 0.071,0.0237 0.14217,0.0474 0.18954,0.071 l 0.21326,0.071 c 0.0237,0 0.0474,0.0237 0.071,0.0237 0.0474,0.0237 0.11847,0.0237 0.16586,0.0474 0.0237,0 0.0474,0.0237 0.0948,0.0237 0.0474,0 0.0947,0.0237 0.16585,0.0473 0.0237,0 0.0474,0 0.071,0.0237 0.071,0 0.11848,0.0237 0.18955,0.0237 0.0237,0 0.0474,0 0.071,0.0237 0.0948,0.0237 0.16585,0.0237 0.26063,0.0237 h 0.0474 c 0.071,0 0.14217,0.0237 0.21325,0.0237 h 0.73451 c 0.071,0 0.16585,-0.0237 0.23693,-0.0237 h 0.071 c 0.071,0 0.11848,-0.0237 0.18955,-0.0237 0.0237,0 0.0474,0 0.0948,-0.0237 0.071,0 0.11848,-0.0237 0.18955,-0.0474 0.0237,0 0.0474,0 0.071,-0.0237 0.0948,-0.0237 0.18955,-0.0474 0.26063,-0.071 h 0.0237 c 0.0948,-0.0237 0.16587,-0.0474 0.26063,-0.071 0.0237,0 0.0474,-0.0237 0.0948,-0.0237 0.071,-0.0237 0.14215,-0.0474 0.18954,-0.071 0.0237,0 0.071,-0.0237 0.0948,-0.0237 0.071,-0.0237 0.14216,-0.071 0.23694,-0.0948 0.0237,0 0.0474,-0.0237 0.071,-0.0237 l 0.28432,-0.14217 c 0.0237,0 0.0474,-0.0237 0.071,-0.0474 0.071,-0.0474 0.14217,-0.071 0.23694,-0.11847 0.0237,-0.0237 0.071,-0.0237 0.0948,-0.0474 0.071,-0.0474 0.14216,-0.071 0.21324,-0.11848 0.0237,-0.0237 0.071,-0.0237 0.0948,-0.0474 0.0947,-0.071 0.21324,-0.11847 0.30802,-0.18955 0.28431,-0.18955 0.54494,-0.40279 0.78189,-0.61603 0.23693,-0.21324 0.45017,-0.4028 0.61604,-0.61604 0.11847,-0.11847 0.21322,-0.26063 0.308,-0.3791 0.18955,-0.26063 0.35541,-0.52126 0.47389,-0.78189 0.0947,-0.18955 0.16585,-0.40279 0.23693,-0.59235 0.071,-0.18954 0.11847,-0.37909 0.14216,-0.56863 0.0237,-0.0948 0.0237,-0.18956 0.0237,-0.28433 0,-0.0948 0,-0.18956 0.0237,-0.28432 0,-0.18956 0,-0.35541 -0.0237,-0.52126 0,-0.11848 -0.0237,-0.21326 -0.0474,-0.30802 -0.0474,-0.21324 -0.0948,-0.4028 -0.16587,-0.59235 -0.071,-0.18954 -0.14215,-0.3791 -0.23693,-0.56865 -0.0474,-0.0948 -0.0948,-0.16585 -0.11848,-0.26063 -0.0948,-0.16585 -0.18954,-0.308 -0.28431,-0.45017 -0.35541,-0.56865 -0.71082,-0.90036 -0.71082,-0.90036 l -9.97503,-10.14089 c 0,0 -1.04252,-0.85297 -0.68711,-1.37423 0.0237,-0.0237 0.0474,-0.0474 0.071,-0.0474 h 0.0237 c 0.0237,0 0.0237,-0.0237 0.0474,-0.0237 h 0.14217 c 0.0474,0 0.071,0 0.11848,0.0237 h 0.0237 c 0.0474,0 0.071,0.0237 0.11847,0.0237 h 0.0237 l 0.14217,0.071 c 0,0 0.0237,0 0.0237,0.0237 0.0474,0.0237 0.0948,0.0474 0.11847,0.071 h 0.0237 c 0.0474,0.0237 0.0948,0.0474 0.14216,0.0948 0,0 0.0237,0.0237 0.0474,0.0237 0.0474,0.0237 0.0947,0.0474 0.14216,0.0948 0.0474,0.0237 0.0947,0.071 0.14216,0.0948 0.0475,0.0237 0.0948,0.071 0.14217,0.0948 0.21323,0.16585 0.42648,0.35541 0.66342,0.56865 0.23693,0.21324 0.49756,0.42648 0.78189,0.66341 0.14217,0.11848 0.28432,0.23694 0.42648,0.37911 0.28434,0.26063 0.59234,0.52126 0.90036,0.78189 0.14216,0.14215 0.30802,0.28432 0.47387,0.42649 0.30802,0.28431 0.63974,0.56864 0.97145,0.87666 l 1.4927,1.35054 c 0.99514,0.90036 1.96657,1.77702 2.84324,2.58261 0.14216,0.14216 0.28433,0.26062 0.42648,0.40279 1.68226,1.54008 2.89063,2.65369 2.89063,2.65369 h 0.0474 c 0.0237,0 0.0237,0.0237 0.0474,0.0237 h 0.0236 c 0.0237,0 0.0474,0.0237 0.071,0.0237 0.0237,0.0237 0.071,0.0474 0.11847,0.071 h 0.0237 c 0.0237,0.0237 0.071,0.0474 0.0947,0.0474 0.0237,0 0.0237,0.0237 0.0474,0.0237 0.0474,0.0237 0.071,0.0474 0.11848,0.0474 0,0 0.0237,0.0237 0.0474,0.0237 0.0474,0.0237 0.11847,0.0474 0.16585,0.071 h 0.0237 c 0.0474,0.0237 0.0947,0.0474 0.16586,0.071 0.0237,0 0.0474,0.0237 0.0474,0.0237 l 0.14217,0.071 c 0.0237,0 0.0474,0.0237 0.071,0.0237 0.14216,0.0474 0.30801,0.0948 0.47387,0.14216 0.0237,0 0.0475,0.0237 0.071,0.0237 0.071,0.0237 0.11847,0.0237 0.18954,0.0474 0.0237,0 0.0474,0 0.0948,0.0237 0.071,0.0237 0.14215,0.0237 0.21324,0.0474 h 0.0474 c 0.0947,0.0237 0.18954,0.0237 0.28432,0.0474 h 0.071 c 0.071,0 0.14217,0.0237 0.23694,0.0237 h 0.85297 c 0.0947,0 0.18954,-0.0237 0.28432,-0.0237 0.0474,0 0.071,0 0.0947,-0.0237 0.11848,-0.0237 0.26063,-0.0474 0.3791,-0.071 0.11847,-0.0237 0.26064,-0.071 0.40279,-0.0948 0.0474,0 0.071,-0.0237 0.11848,-0.0237 0.11847,-0.0237 0.21324,-0.071 0.3317,-0.11847 0.0237,0 0.071,-0.0237 0.0948,-0.0237 0.14216,-0.0474 0.28433,-0.11847 0.42648,-0.16586 0.0237,-0.0237 0.071,-0.0237 0.0948,-0.0473 0.11847,-0.0474 0.23693,-0.11847 0.35539,-0.16586 0.0474,-0.0237 0.071,-0.0474 0.11848,-0.071 0.14217,-0.071 0.28432,-0.16585 0.45019,-0.26063 0.35539,-0.23694 0.68711,-0.47387 0.97143,-0.7582 0.0237,-0.0237 0.071,-0.071 0.0948,-0.11847 0.071,-0.0948 0.16586,-0.23693 0.28433,-0.42648 1.08991,-1.96658 0.47387,-3.64882 0.071,-4.43071 z"
     style="fill:#ffffff;stroke-width:0.23693661"
     id="path4-2"
     inkscape:connector-curvature="0" /></svg>