<?xml version="1.0" encoding="UTF-8" standalone="no"?>
<!-- Generator: Adobe Illustrator 19.0.0, SVG Export Plug-In . SVG Version: 6.00 Build 0)  -->

<svg
   xmlns:dc="http://purl.org/dc/elements/1.1/"
   xmlns:cc="http://creativecommons.org/ns#"
   xmlns:rdf="http://www.w3.org/1999/02/22-rdf-syntax-ns#"
   xmlns:svg="http://www.w3.org/2000/svg"
   xmlns="http://www.w3.org/2000/svg"
   xmlns:sodipodi="http://sodipodi.sourceforge.net/DTD/sodipodi-0.dtd"
   xmlns:inkscape="http://www.inkscape.org/namespaces/inkscape"
   version="1.1"
   id="Layer_1"
   x="0px"
   y="0px"
   viewBox="0 0 512 512"
   style="enable-background:new 0 0 512 512;"
   xml:space="preserve"
   sodipodi:docname="tienda_basica.svg"
   inkscape:version="0.92.2 (5c3e80d, 2017-08-06)"><metadata
     id="metadata93"><rdf:RDF><cc:Work
         rdf:about=""><dc:format>image/svg+xml</dc:format><dc:type
           rdf:resource="http://purl.org/dc/dcmitype/StillImage" /><dc:title></dc:title></cc:Work></rdf:RDF></metadata><defs
     id="defs91" /><sodipodi:namedview
     pagecolor="#ffffff"
     bordercolor="#666666"
     borderopacity="1"
     objecttolerance="10"
     gridtolerance="10"
     guidetolerance="10"
     inkscape:pageopacity="0"
     inkscape:pageshadow="2"
     inkscape:window-width="1280"
     inkscape:window-height="737"
     id="namedview89"
     showgrid="false"
     inkscape:zoom="0.4609375"
     inkscape:cx="256"
     inkscape:cy="256"
     inkscape:window-x="-8"
     inkscape:window-y="-8"
     inkscape:window-maximized="1"
     inkscape:current-layer="Layer_1" /><g
     id="g8"><polygon
       style="fill:#FFFFFF;"
       points="257.048,496 158.952,496 168,482.424 168,448 248,448 248,482.424  "
       id="polygon2" /><rect
       x="32"
       y="384"
       style="fill:#FFFFFF;"
       width="352"
       height="48"
       id="rect4" /><path
       style="fill:#FFFFFF;"
       d="M384,368H32V176h24v144h208V176h120v32h-72c-13.232,0-24,10.768-24,24v96c0,13.232,10.768,24,24,24   h72V368z"
       id="path6" /></g><path
     style="fill:#53B7E8;"
     d="M488,232v96c0,8.84-7.16,16-16,16H312c-8.84,0-16-7.16-16-16v-96c0-8.84,7.16-16,16-16h160  C480.84,216,488,223.16,488,232z"
     id="path10" /><g
     id="g16"><rect
       x="208"
       y="384"
       style="fill:#DCDDDE;"
       width="184"
       height="48"
       id="rect12" /><path
       style="fill:#DCDDDE;"
       d="M272,504l-16-24v-40h-48v8h-40v8h24c8.84,0,16,7.16,16,16v32H272z"
       id="path14" /></g><rect
     x="72"
     y="96"
     style="fill:#FFD768;"
     width="176"
     height="208"
     id="rect18" /><g
     id="g42"><rect
       x="448"
       y="400"
       style="fill:#0C3847;"
       width="16"
       height="16"
       id="rect20" /><rect
       x="448"
       y="368"
       style="fill:#0C3847;"
       width="16"
       height="16"
       id="rect22" /><rect
       x="416"
       y="432"
       style="fill:#0C3847;"
       width="16"
       height="16"
       id="rect24" /><rect
       x="448"
       y="432"
       style="fill:#0C3847;"
       width="16"
       height="16"
       id="rect26" /><rect
       x="88"
       y="336"
       style="fill:#0C3847;"
       width="16"
       height="16"
       id="rect28" /><rect
       x="120"
       y="336"
       style="fill:#0C3847;"
       width="16"
       height="16"
       id="rect30" /><rect
       x="152"
       y="336"
       style="fill:#0C3847;"
       width="16"
       height="16"
       id="rect32" /><rect
       x="184"
       y="336"
       style="fill:#0C3847;"
       width="16"
       height="16"
       id="rect34" /><rect
       x="216"
       y="336"
       style="fill:#0C3847;"
       width="16"
       height="16"
       id="rect36" /><rect
       x="200"
       y="400"
       style="fill:#0C3847;"
       width="16"
       height="16"
       id="rect38" /><path
       style="fill:#0C3847;"
       d="M472,208h-72v-48H264V80h-56V40h-0.72C203.448,17.336,183.736,0,160,0s-43.448,17.336-47.28,40H112   v40H56v80H16v288h136v29.576L129.048,512h157.896L264,477.576V448h136v-96h72c13.232,0,24-10.768,24-24v-96   C496,218.768,485.232,208,472,208z M480,232v8H304v-8c0-4.416,3.592-8,8-8h160C476.408,224,480,227.584,480,232z M128,48   c0-17.648,14.352-32,32-32s32,14.352,32,32v32h-64V48z M72,96h40v40h16V96h64v40h16V96h40v208H72V96z M257.048,496h-98.096   L168,482.424V448h80v34.424L257.048,496z M384,432H32v-48h352V432z M384,368H32V176h24v144h208V176h120v32h-72   c-13.232,0-24,10.768-24,24v96c0,13.232,10.768,24,24,24h72V368z M472,336H312c-4.408,0-8-3.584-8-8v-56h176v56   C480,332.416,476.408,336,472,336z"
       id="path40" /></g><g
     id="g48"><rect
       x="320"
       y="304"
       style="fill:#FFFFFF;"
       width="64"
       height="16"
       id="rect44" /><rect
       x="400"
       y="304"
       style="fill:#FFFFFF;"
       width="32"
       height="16"
       id="rect46" /></g><g
     id="g56"><rect
       x="95.431"
       y="208.005"
       transform="matrix(-0.7071 0.7071 -0.7071 -0.7071 425.8591 255.6131)"
       style="fill:#0C3847;"
       width="129.119"
       height="16"
       id="rect50" /><path
       style="fill:#0C3847;"
       d="M128,208c13.232,0,24-10.768,24-24s-10.768-24-24-24s-24,10.768-24,24S114.768,208,128,208z    M128,176c4.408,0,8,3.584,8,8s-3.592,8-8,8c-4.408,0-8-3.584-8-8S123.592,176,128,176z"
       id="path52" /><path
       style="fill:#0C3847;"
       d="M192,224c-13.232,0-24,10.768-24,24s10.768,24,24,24s24-10.768,24-24S205.232,224,192,224z M192,256   c-4.408,0-8-3.584-8-8s3.592-8,8-8s8,3.584,8,8S196.408,256,192,256z"
       id="path54" /></g><g
     id="g58" /><g
     id="g60" /><g
     id="g62" /><g
     id="g64" /><g
     id="g66" /><g
     id="g68" /><g
     id="g70" /><g
     id="g72" /><g
     id="g74" /><g
     id="g76" /><g
     id="g78" /><g
     id="g80" /><g
     id="g82" /><g
     id="g84" /><g
     id="g86" /></svg>