<?xml version="1.0" encoding="UTF-8" standalone="no"?>
<svg
   xmlns:dc="http://purl.org/dc/elements/1.1/"
   xmlns:cc="http://creativecommons.org/ns#"
   xmlns:rdf="http://www.w3.org/1999/02/22-rdf-syntax-ns#"
   xmlns:svg="http://www.w3.org/2000/svg"
   xmlns="http://www.w3.org/2000/svg"
   xmlns:sodipodi="http://sodipodi.sourceforge.net/DTD/sodipodi-0.dtd"
   xmlns:inkscape="http://www.inkscape.org/namespaces/inkscape"
   width="256px"
   height="262px"
   viewBox="0 0 256 262"
   version="1.1"
   preserveAspectRatio="xMidYMid"
   id="svg12"
   sodipodi:docname="paquete_web_starter.svg"
   inkscape:version="0.92.2 (5c3e80d, 2017-08-06)">
  <metadata
     id="metadata18">
    <rdf:RDF>
      <cc:Work
         rdf:about="">
        <dc:format>image/svg+xml</dc:format>
        <dc:type
           rdf:resource="http://purl.org/dc/dcmitype/StillImage" />
        <dc:title />
      </cc:Work>
    </rdf:RDF>
  </metadata>
  <defs
     id="defs16" />
  <sodipodi:namedview
     pagecolor="#ffffff"
     bordercolor="#666666"
     borderopacity="1"
     objecttolerance="10"
     gridtolerance="10"
     guidetolerance="10"
     inkscape:pageopacity="0"
     inkscape:pageshadow="2"
     inkscape:window-width="1280"
     inkscape:window-height="737"
     id="namedview14"
     showgrid="false"
     inkscape:zoom="0.90076336"
     inkscape:cx="-76.826271"
     inkscape:cy="131"
     inkscape:window-x="-8"
     inkscape:window-y="-8"
     inkscape:window-maximized="1"
     inkscape:current-layer="svg12" />
  <g
     id="g10"
     transform="matrix(0.25639293,-0.15277456,0.15277456,0.25639293,-4.3821158,31.127728)">
    <path
       d="m 255.878,133.451 c 0,-10.734 -0.871,-18.567 -2.756,-26.69 H 130.55 v 48.448 h 71.947 c -1.45,12.04 -9.283,30.172 -26.69,42.356 l -0.244,1.622 38.755,30.023 2.685,0.268 c 24.659,-22.774 38.875,-56.282 38.875,-96.027"
       id="path2"
       inkscape:connector-curvature="0"
       style="fill:#4285f4" />
    <path
       d="m 130.55,261.1 c 35.248,0 64.839,-11.605 86.453,-31.622 l -41.196,-31.913 c -11.024,7.688 -25.82,13.055 -45.257,13.055 -34.523,0 -63.824,-22.773 -74.269,-54.25 l -1.531,0.13 -40.298,31.187 -0.527,1.465 C 35.393,231.798 79.49,261.1 130.55,261.1"
       id="path4"
       inkscape:connector-curvature="0"
       style="fill:#34a853" />
    <path
       d="m 56.281,156.37 c -2.756,-8.123 -4.351,-16.827 -4.351,-25.82 0,-8.994 1.595,-17.697 4.206,-25.82 L 56.063,103 15.26,71.312 13.925,71.947 C 5.077,89.644 0,109.517 0,130.55 c 0,21.033 5.077,40.905 13.925,58.602 L 56.281,156.37"
       id="path6"
       inkscape:connector-curvature="0"
       style="fill:#fbbc05" />
    <path
       d="m 130.55,50.479 c 24.514,0 41.05,10.589 50.479,19.438 L 217.873,33.943 C 195.245,12.91 165.798,0 130.55,0 79.49,0 35.393,29.301 13.925,71.947 L 56.136,104.73 C 66.726,73.253 96.027,50.479 130.55,50.479"
       id="path8"
       inkscape:connector-curvature="0"
       style="fill:#eb4335" />
  </g>
  <path
     style="fill:#ffd6a0;stroke-width:0.24165781"
     d="m 75.559983,163.90155 v 92.00348 H 186.5986 v -92.00348 z"
     id="path2-1"
     inkscape:connector-curvature="0" />
  <g
     id="g8"
     transform="matrix(0.2416578,0,0,0.2416578,69.215014,138.52119)">
    <path
       style="fill:#ffc170"
       d="M 256,105.026 V 485.744 H 485.744 V 105.026 Z"
       id="path4-4"
       inkscape:connector-curvature="0" />
    <rect
       y="26.256001"
       style="fill:#ffc170"
       width="512"
       height="118.154"
       id="rect6"
       x="0" />
  </g>
  <rect
     x="131.07941"
     y="144.86615"
     style="fill:#ff9811;stroke-width:0.24165781"
     width="61.864399"
     height="28.552835"
     id="rect10" />
  <rect
     x="112.04427"
     y="190.8679"
     style="fill:#78b9eb;stroke-width:0.24165781"
     width="38.070286"
     height="19.035143"
     id="rect12" />
  <path
     style="fill:#ffffff;stroke-width:0.24165781"
     d="M 154.87352,214.66201 H 107.2853 v -28.55284 h 47.58798 v 28.55284 z M 116.803,205.14432 h 28.55283 v -9.5177 H 116.803 Z"
     id="path14"
     inkscape:connector-curvature="0" />
  <g
     id="g20"
     transform="matrix(0.2416578,0,0,0.2416578,69.215014,138.52119)">
    <path
       style="fill:#ff9811"
       d="M 144.41,485.744 H 26.256 V 367.59 h 52.513 c 36.194,0 65.641,29.447 65.641,65.641 z"
       id="path16"
       inkscape:connector-curvature="0" />
    <path
       style="fill:#ff9811"
       d="M 485.744,485.744 H 367.59 v -52.513 c 0,-36.194 29.447,-65.641 65.641,-65.641 h 52.513 z"
       id="path18"
       inkscape:connector-curvature="0" />
  </g>
  <g
     id="g32"
     transform="matrix(0.22784372,0.07098464,-0.07098464,0.22784372,153.63501,-45.596833)">
    <polygon
       style="fill:#415e72"
       points="127.4,319.488 145.464,305.76 239.808,305.76 257.864,319.488 "
       id="polygon28" />
    <rect
       x="126.736"
       y="236.224"
       style="fill:#415e72"
       width="385.28"
       height="275.784"
       id="rect30" />
  </g>
  <path
     style="fill:#cfdce5;stroke-width:0.23864532"
     d="m 165.01983,19.541992 3.40442,-10.9273862 c 0.47934,-1.506392 2.08469,-2.346026 3.59506,-1.87947 l 82.28804,25.6368152 c 1.51232,0.473136 2.35855,2.076584 1.89689,3.590483 l -3.40442,10.927386 z"
     id="path34"
     inkscape:connector-curvature="0" />
  <polygon
     style="fill:#ffffff"
     points="255.808,232.952 277.408,199.848 481.616,199.848 481.616,232.952 "
     id="polygon36"
     transform="matrix(0.22784372,0.07098464,-0.07098464,0.22784372,153.63501,-45.596833)" />
  <g
     id="g44"
     transform="matrix(0.22784372,0.07098464,-0.07098464,0.22784372,153.63501,-45.596833)">
    <circle
       style="fill:#8ba0ae"
       cx="167.29601"
       cy="215.952"
       r="10.24"
       id="circle38" />
    <circle
       style="fill:#8ba0ae"
       cx="194.44"
       cy="215.952"
       r="10.24"
       id="circle40" />
    <circle
       style="fill:#8ba0ae"
       cx="221.584"
       cy="215.952"
       r="10.24"
       id="circle42" />
  </g>
  <g
     id="g54"
     transform="matrix(0.22784372,0.07098464,-0.07098464,0.22784372,153.63501,-45.596833)">
    <path
       style="fill:#415e72"
       d="m 288.936,210.344 1.424,6.176 c 0.312,1.456 0.616,2.936 0.864,4.416 h 0.056 c 0.28,-1.48 0.736,-2.992 1.128,-4.384 l 1.76,-6.208 h 2.8 l 1.704,6.04 c 0.424,1.6 0.8,3.072 1.096,4.552 h 0.056 c 0.216,-1.48 0.528,-2.96 0.888,-4.552 l 1.512,-6.04 h 3.376 l -4.272,13.6 h -3.2 l -1.6,-5.536 c -0.424,-1.432 -0.768,-2.888 -1.04,-4.36 h -0.056 c -0.256,1.472 -0.6,2.928 -1.032,4.36 l -1.736,5.536 h -3.2 l -4,-13.6 z"
       id="path46"
       inkscape:connector-curvature="0" />
    <path
       style="fill:#415e72"
       d="m 310.352,210.344 1.424,6.176 c 0.312,1.456 0.616,2.936 0.864,4.416 h 0.064 c 0.272,-1.48 0.728,-2.992 1.12,-4.384 l 1.76,-6.208 h 2.8 l 1.704,6.04 c 0.424,1.6 0.8,3.072 1.096,4.552 h 0.056 c 0.216,-1.48 0.528,-2.96 0.888,-4.552 l 1.512,-6.04 h 3.384 l -4.28,13.6 h -3.2 l -1.6,-5.536 c -0.424,-1.432 -0.768,-2.888 -1.04,-4.36 h -0.056 c -0.256,1.472 -0.6,2.928 -1.032,4.36 l -1.736,5.536 h -3.2 l -4,-13.6 z"
       id="path48"
       inkscape:connector-curvature="0" />
    <path
       style="fill:#415e72"
       d="m 331.776,210.344 1.424,6.176 c 0.312,1.456 0.616,2.936 0.864,4.416 h 0.064 c 0.272,-1.48 0.728,-2.992 1.12,-4.384 l 1.76,-6.208 h 2.8 l 1.704,6.04 c 0.424,1.6 0.8,3.072 1.096,4.552 h 0.056 c 0.216,-1.48 0.528,-2.96 0.888,-4.552 l 1.512,-6.04 h 3.384 l -4.28,13.6 h -3.2 l -1.6,-5.536 c -0.424,-1.432 -0.768,-2.888 -1.04,-4.36 h -0.056 c -0.256,1.472 -0.6,2.928 -1.032,4.36 l -1.736,5.536 h -3.2 l -4,-13.6 z"
       id="path50"
       inkscape:connector-curvature="0" />
    <path
       style="fill:#415e72"
       d="m 349.016,222.056 c -0.064,-1.152 0.824,-2.144 1.984,-2.208 0.048,0 0.096,0 0.144,0 1.216,0 2.208,0.992 2.208,2.208 0,1.216 -0.992,2.208 -2.208,2.208 v 0 c -1.16,0.016 -2.112,-0.904 -2.128,-2.064 0,-0.048 0,-0.096 0,-0.144 z"
       id="path52"
       inkscape:connector-curvature="0" />
  </g>
  <g
     id="g60"
     transform="matrix(0.22784372,0.07098464,-0.07098464,0.22784372,153.63501,-45.596833)">
    <rect
       x="126.736"
       y="502.39999"
       style="fill:#cfdce5"
       width="385.28"
       height="9.6079998"
       id="rect56" />
    <polygon
       style="fill:#cfdce5"
       points="254.136,505.888 272.192,492.152 366.536,492.152 384.6,505.888 "
       id="polygon58" />
  </g>
  <g
     id="g70"
     transform="matrix(0.22784372,0.07098464,-0.07098464,0.22784372,153.63501,-45.596833)">
    <polygon
       style="fill:#415e72"
       points="455.488,208.456 457.592,206.304 467.632,216.088 458.088,225.896 455.936,223.792 463.376,216.144 "
       id="polygon66" />
    <rect
       x="444"
       y="214.608"
       style="fill:#415e72"
       width="19.872"
       height="3.0079999"
       id="rect68" />
  </g>
  <path
     inkscape:connector-curvature="0"
     style="fill:#167ee6;stroke-width:0.13918835"
     d="m 145.98604,110.47917 -7.61416,-5.65946 c 0.10243,-1.18396 0.12431,-2.33142 0.0676,-3.47025 -0.0567,-1.1388 -0.19265,-2.278285 -0.41202,-3.446361 l 7.01422,-6.38793 c 0.84135,-0.766292 1.00514,-2.024656 0.38834,-2.978956 l -6.72311,-10.411578 c -0.61536,-0.955889 -1.83113,-1.325005 -2.87423,-0.871279 l -8.72342,3.772527 c -1.89902,-1.317019 -3.95722,-2.371643 -6.14422,-3.150038 l -2.02763,-9.286504 c -0.24149,-1.110816 -1.25099,-1.882634 -2.38508,-1.826157 l -12.37841,0.616423 c -1.13424,0.05649 -2.06193,0.924769 -2.19186,2.054354 l -1.09496,9.442003 c -2.099,0.991846 -4.0421,2.245722 -5.80087,3.744891 l -9.055215,-2.887178 c -1.07989,-0.349524 -2.25457,0.140117 -2.77345,1.152527 l -5.65544,11.028019 c -0.518942,1.010852 -0.230942,2.246717 0.682372,2.925619 l 7.614158,5.659468 c -0.10242,1.18396 -0.1243,2.33144 -0.0676,3.47025 0.0567,1.13882 0.19265,2.2783 0.41202,3.44636 l -7.014217,6.38794 c -0.841345,0.76629 -1.005144,2.02467 -0.388331,2.97894 l 6.723098,10.4116 c 0.61689,0.95581 1.83601,1.32781 2.87424,0.87127 l 8.723415,-3.77252 c 1.89902,1.31702 3.95722,2.37164 6.14422,3.15003 l 2.02762,9.28652 c 0.24097,1.11139 1.25366,1.88276 2.38512,1.82643 l 12.37841,-0.61643 c 1.13339,-0.0564 2.06139,-0.92404 2.19185,-2.05435 l 1.09496,-9.44202 c 2.099,-0.99183 4.0421,-2.24571 5.80101,-3.74488 l 9.05506,2.88718 c 1.08142,0.34945 2.25458,-0.14012 2.77345,-1.15252 l 5.65545,-11.02804 c 0.51893,-1.01111 0.23093,-2.24698 -0.6824,-2.9259 z"
     id="path2-3" />
  <path
     inkscape:connector-curvature="0"
     style="fill:#2860cc;stroke-width:0.13918835"
     d="m 146.66842,113.40481 -5.65544,11.02802 c -0.51887,1.01237 -1.69203,1.50199 -2.77345,1.15252 l -9.05506,-2.88719 c -1.75879,1.49919 -3.70202,2.75307 -5.80087,3.74488 l -1.09497,9.44202 c -0.13044,1.13031 -1.05845,1.99791 -2.19185,2.05435 l -6.09169,0.30336 -3.54447,-71.176224 6.0917,-0.303362 c 1.13422,-0.05648 2.14359,0.715341 2.38509,1.826424 l 2.02763,9.286504 c 2.18715,0.778399 4.2452,1.833028 6.14437,3.150043 l 8.72341,-3.772528 c 1.04311,-0.453725 2.25887,-0.08465 2.87423,0.871279 l 6.7231,10.411587 c 0.61682,0.954292 0.45302,2.212655 -0.38833,2.978936 l -7.01421,6.387943 c 0.21954,1.167922 0.3553,2.307558 0.41201,3.446358 0.0567,1.13884 0.0346,2.28617 -0.0676,3.47025 l 7.61415,5.65947 c 0.91317,0.67864 1.20117,1.91451 0.68222,2.92536 z"
     id="path4-9" />
  <path
     inkscape:connector-curvature="0"
     style="fill:#ffaa00;stroke-width:0.13918835"
     d="m 120.42698,111.55353 1.27609,25.62498 c -0.40143,0.44351 -0.97197,0.72931 -1.60629,0.7609 l -12.37841,0.61642 c -0.5462,0.0272 -1.06321,-0.13783 -1.48011,-0.44122 l -1.28433,-25.79055 z"
     id="path6-8" />
  <path
     inkscape:connector-curvature="0"
     style="fill:#f28d00;stroke-width:0.13918835"
     d="m 120.42698,111.55353 1.27609,25.62498 c -0.40143,0.44351 -0.97197,0.72931 -1.60629,0.7609 l -6.09334,0.30344 -1.30992,-26.30421 z"
     id="path8-9" />
  <path
     inkscape:connector-curvature="0"
     style="fill:#ffd500;stroke-width:0.13918835"
     d="m 119.21084,87.132305 0.52265,10.495441 -7.50536,5.027144 -7.96768,-4.256612 -0.52266,-10.495439 c -5.54109,3.179653 -8.85169,9.135799 -8.53011,15.599231 0.48255,9.6929 8.7435,16.62304 17.85915,16.1737 9.38925,-0.46257 16.64911,-8.48042 16.1816,-17.86846 -0.32174,-6.463708 -4.20786,-12.061595 -10.03759,-14.675005 z"
     id="path10" />
  <path
     inkscape:connector-curvature="0"
     style="fill:#ffaa00;stroke-width:0.13918835"
     d="m 133.24858,101.8073 c -0.32189,-6.463698 -4.20816,-12.06158 -10.03774,-14.674995 l 0.52265,10.495441 -7.50536,5.027144 0.84756,17.01988 c 9.38539,-0.46753 16.64025,-8.48236 16.17289,-17.86747 z"
     id="path12" />
  <path
     inkscape:connector-curvature="0"
     d="m 197.92015,58.487184 a 1.0066905,1.0066905 0 0 1 1.35823,-0.426704 l 2.46319,1.2855 c 1.69822,0.869237 3.27192,1.128433 4.71201,0.784199 1.4401,-0.344235 2.58515,-1.330726 3.4375,-2.963936 0.81974,-1.570741 1.0473,-3.007654 0.67355,-4.304176 -0.3714,-1.300984 -1.40388,-2.39055 -3.0951,-3.27317 -1.4815,-0.773164 -2.92328,-0.980544 -4.31855,-0.624281 -1.11937,0.284518 -2.01932,0.899282 -2.69968,1.83304 -0.30215,0.415764 -0.84738,0.56841 -1.30254,0.330878 l -3.73495,-1.949218 c -0.52656,-0.274793 -0.71527,-0.946729 -0.38479,-1.438541 0.82979,-1.24186 1.89607,-2.229721 3.20349,-2.972503 1.62352,-0.924159 3.44779,-1.351766 5.45944,-1.289857 2.01398,0.05748 4.01937,0.61009 6.01402,1.651062 3.29319,1.718662 5.45051,3.894891 6.46962,6.533173 1.01912,2.638273 0.75687,5.425418 -0.78248,8.375011 -0.77316,1.481498 -1.97275,2.626875 -3.6011,3.440633 -1.05381,0.528794 -2.15145,0.858717 -3.29525,0.994212 -0.72644,0.08643 -1.11924,0.926144 -0.71111,1.536585 0.76822,1.139006 1.2382,2.338132 1.40996,3.597388 0.25207,1.823466 -0.10401,3.658909 -1.06581,5.50185 -1.54632,2.962985 -3.79335,4.788116 -6.73892,5.482202 -2.94345,0.700876 -6.07282,0.18054 -9.38386,-1.547429 -3.17271,-1.655774 -5.33177,-3.861312 -6.47505,-6.609813 -1.00925,-2.428723 -0.99829,-4.875768 0.0262,-7.350251 a 1.0117239,1.0117239 0 0 1 1.39782,-0.502565 l 3.73943,1.951537 c 0.45515,0.237541 0.64387,0.778887 0.47114,1.262176 -0.41651,1.168001 -0.42537,2.327293 -0.0198,3.475766 0.50005,1.413539 1.57443,2.553366 3.22102,3.412698 1.70908,0.891934 3.28977,1.137738 4.74422,0.74422 1.45446,-0.393509 2.63232,-1.453731 3.53124,-3.176183 0.9059,-1.735845 1.09138,-3.342349 0.5541,-4.815059 -0.53729,-1.472721 -1.81888,-2.737713 -3.84477,-3.794986 l -2.34718,-1.224949 a 1.0066905,1.0066905 0 0 1 -0.4267,-1.358229 z"
     id="path7"
     style="fill:#f9f9f9;fill-opacity:1;stroke-width:0.50334525" />
</svg>
